%TF.GenerationSoftware,KiCad,Pcbnew,(5.1.10)-1*%
%TF.CreationDate,2021-12-30T15:20:08-05:00*%
%TF.ProjectId,LPCMangler,4c50434d-616e-4676-9c65-722e6b696361,rev?*%
%TF.SameCoordinates,Original*%
%TF.FileFunction,Copper,L2,Bot*%
%TF.FilePolarity,Positive*%
%FSLAX46Y46*%
G04 Gerber Fmt 4.6, Leading zero omitted, Abs format (unit mm)*
G04 Created by KiCad (PCBNEW (5.1.10)-1) date 2021-12-30 15:20:08*
%MOMM*%
%LPD*%
G01*
G04 APERTURE LIST*
%TA.AperFunction,ComponentPad*%
%ADD10C,1.422400*%
%TD*%
%TA.AperFunction,ComponentPad*%
%ADD11R,1.422400X1.422400*%
%TD*%
%TA.AperFunction,ComponentPad*%
%ADD12O,1.700000X1.700000*%
%TD*%
%TA.AperFunction,ComponentPad*%
%ADD13R,1.700000X1.700000*%
%TD*%
%TA.AperFunction,ViaPad*%
%ADD14C,0.800000*%
%TD*%
%TA.AperFunction,Conductor*%
%ADD15C,0.250000*%
%TD*%
%TA.AperFunction,Conductor*%
%ADD16C,0.254000*%
%TD*%
%TA.AperFunction,Conductor*%
%ADD17C,0.100000*%
%TD*%
G04 APERTURE END LIST*
%TO.P,U3,64*%
%TO.N,Net-(U3-Pad64)*%
%TA.AperFunction,SMDPad,CuDef*%
G36*
G01*
X161900000Y-83910000D02*
X160575000Y-83910000D01*
G75*
G02*
X160500000Y-83835000I0J75000D01*
G01*
X160500000Y-83685000D01*
G75*
G02*
X160575000Y-83610000I75000J0D01*
G01*
X161900000Y-83610000D01*
G75*
G02*
X161975000Y-83685000I0J-75000D01*
G01*
X161975000Y-83835000D01*
G75*
G02*
X161900000Y-83910000I-75000J0D01*
G01*
G37*
%TD.AperFunction*%
%TO.P,U3,63*%
%TO.N,/LAD3*%
%TA.AperFunction,SMDPad,CuDef*%
G36*
G01*
X161900000Y-83410000D02*
X160575000Y-83410000D01*
G75*
G02*
X160500000Y-83335000I0J75000D01*
G01*
X160500000Y-83185000D01*
G75*
G02*
X160575000Y-83110000I75000J0D01*
G01*
X161900000Y-83110000D01*
G75*
G02*
X161975000Y-83185000I0J-75000D01*
G01*
X161975000Y-83335000D01*
G75*
G02*
X161900000Y-83410000I-75000J0D01*
G01*
G37*
%TD.AperFunction*%
%TO.P,U3,62*%
%TO.N,/LAD2*%
%TA.AperFunction,SMDPad,CuDef*%
G36*
G01*
X161900000Y-82910000D02*
X160575000Y-82910000D01*
G75*
G02*
X160500000Y-82835000I0J75000D01*
G01*
X160500000Y-82685000D01*
G75*
G02*
X160575000Y-82610000I75000J0D01*
G01*
X161900000Y-82610000D01*
G75*
G02*
X161975000Y-82685000I0J-75000D01*
G01*
X161975000Y-82835000D01*
G75*
G02*
X161900000Y-82910000I-75000J0D01*
G01*
G37*
%TD.AperFunction*%
%TO.P,U3,61*%
%TO.N,/LAD1*%
%TA.AperFunction,SMDPad,CuDef*%
G36*
G01*
X161900000Y-82410000D02*
X160575000Y-82410000D01*
G75*
G02*
X160500000Y-82335000I0J75000D01*
G01*
X160500000Y-82185000D01*
G75*
G02*
X160575000Y-82110000I75000J0D01*
G01*
X161900000Y-82110000D01*
G75*
G02*
X161975000Y-82185000I0J-75000D01*
G01*
X161975000Y-82335000D01*
G75*
G02*
X161900000Y-82410000I-75000J0D01*
G01*
G37*
%TD.AperFunction*%
%TO.P,U3,60*%
%TO.N,/LAD0*%
%TA.AperFunction,SMDPad,CuDef*%
G36*
G01*
X161900000Y-81910000D02*
X160575000Y-81910000D01*
G75*
G02*
X160500000Y-81835000I0J75000D01*
G01*
X160500000Y-81685000D01*
G75*
G02*
X160575000Y-81610000I75000J0D01*
G01*
X161900000Y-81610000D01*
G75*
G02*
X161975000Y-81685000I0J-75000D01*
G01*
X161975000Y-81835000D01*
G75*
G02*
X161900000Y-81910000I-75000J0D01*
G01*
G37*
%TD.AperFunction*%
%TO.P,U3,59*%
%TO.N,Net-(U3-Pad59)*%
%TA.AperFunction,SMDPad,CuDef*%
G36*
G01*
X161900000Y-81410000D02*
X160575000Y-81410000D01*
G75*
G02*
X160500000Y-81335000I0J75000D01*
G01*
X160500000Y-81185000D01*
G75*
G02*
X160575000Y-81110000I75000J0D01*
G01*
X161900000Y-81110000D01*
G75*
G02*
X161975000Y-81185000I0J-75000D01*
G01*
X161975000Y-81335000D01*
G75*
G02*
X161900000Y-81410000I-75000J0D01*
G01*
G37*
%TD.AperFunction*%
%TO.P,U3,58*%
%TO.N,Net-(U3-Pad58)*%
%TA.AperFunction,SMDPad,CuDef*%
G36*
G01*
X161900000Y-80910000D02*
X160575000Y-80910000D01*
G75*
G02*
X160500000Y-80835000I0J75000D01*
G01*
X160500000Y-80685000D01*
G75*
G02*
X160575000Y-80610000I75000J0D01*
G01*
X161900000Y-80610000D01*
G75*
G02*
X161975000Y-80685000I0J-75000D01*
G01*
X161975000Y-80835000D01*
G75*
G02*
X161900000Y-80910000I-75000J0D01*
G01*
G37*
%TD.AperFunction*%
%TO.P,U3,57*%
%TO.N,/~LFRAME*%
%TA.AperFunction,SMDPad,CuDef*%
G36*
G01*
X161900000Y-80410000D02*
X160575000Y-80410000D01*
G75*
G02*
X160500000Y-80335000I0J75000D01*
G01*
X160500000Y-80185000D01*
G75*
G02*
X160575000Y-80110000I75000J0D01*
G01*
X161900000Y-80110000D01*
G75*
G02*
X161975000Y-80185000I0J-75000D01*
G01*
X161975000Y-80335000D01*
G75*
G02*
X161900000Y-80410000I-75000J0D01*
G01*
G37*
%TD.AperFunction*%
%TO.P,U3,56*%
%TO.N,Net-(U3-Pad56)*%
%TA.AperFunction,SMDPad,CuDef*%
G36*
G01*
X161900000Y-79910000D02*
X160575000Y-79910000D01*
G75*
G02*
X160500000Y-79835000I0J75000D01*
G01*
X160500000Y-79685000D01*
G75*
G02*
X160575000Y-79610000I75000J0D01*
G01*
X161900000Y-79610000D01*
G75*
G02*
X161975000Y-79685000I0J-75000D01*
G01*
X161975000Y-79835000D01*
G75*
G02*
X161900000Y-79910000I-75000J0D01*
G01*
G37*
%TD.AperFunction*%
%TO.P,U3,55*%
%TO.N,/+3V3*%
%TA.AperFunction,SMDPad,CuDef*%
G36*
G01*
X161900000Y-79410000D02*
X160575000Y-79410000D01*
G75*
G02*
X160500000Y-79335000I0J75000D01*
G01*
X160500000Y-79185000D01*
G75*
G02*
X160575000Y-79110000I75000J0D01*
G01*
X161900000Y-79110000D01*
G75*
G02*
X161975000Y-79185000I0J-75000D01*
G01*
X161975000Y-79335000D01*
G75*
G02*
X161900000Y-79410000I-75000J0D01*
G01*
G37*
%TD.AperFunction*%
%TO.P,U3,54*%
%TO.N,/GND*%
%TA.AperFunction,SMDPad,CuDef*%
G36*
G01*
X161900000Y-78910000D02*
X160575000Y-78910000D01*
G75*
G02*
X160500000Y-78835000I0J75000D01*
G01*
X160500000Y-78685000D01*
G75*
G02*
X160575000Y-78610000I75000J0D01*
G01*
X161900000Y-78610000D01*
G75*
G02*
X161975000Y-78685000I0J-75000D01*
G01*
X161975000Y-78835000D01*
G75*
G02*
X161900000Y-78910000I-75000J0D01*
G01*
G37*
%TD.AperFunction*%
%TO.P,U3,53*%
%TO.N,/TDO*%
%TA.AperFunction,SMDPad,CuDef*%
G36*
G01*
X161900000Y-78410000D02*
X160575000Y-78410000D01*
G75*
G02*
X160500000Y-78335000I0J75000D01*
G01*
X160500000Y-78185000D01*
G75*
G02*
X160575000Y-78110000I75000J0D01*
G01*
X161900000Y-78110000D01*
G75*
G02*
X161975000Y-78185000I0J-75000D01*
G01*
X161975000Y-78335000D01*
G75*
G02*
X161900000Y-78410000I-75000J0D01*
G01*
G37*
%TD.AperFunction*%
%TO.P,U3,52*%
%TO.N,Net-(U3-Pad52)*%
%TA.AperFunction,SMDPad,CuDef*%
G36*
G01*
X161900000Y-77910000D02*
X160575000Y-77910000D01*
G75*
G02*
X160500000Y-77835000I0J75000D01*
G01*
X160500000Y-77685000D01*
G75*
G02*
X160575000Y-77610000I75000J0D01*
G01*
X161900000Y-77610000D01*
G75*
G02*
X161975000Y-77685000I0J-75000D01*
G01*
X161975000Y-77835000D01*
G75*
G02*
X161900000Y-77910000I-75000J0D01*
G01*
G37*
%TD.AperFunction*%
%TO.P,U3,51*%
%TO.N,Net-(U3-Pad51)*%
%TA.AperFunction,SMDPad,CuDef*%
G36*
G01*
X161900000Y-77410000D02*
X160575000Y-77410000D01*
G75*
G02*
X160500000Y-77335000I0J75000D01*
G01*
X160500000Y-77185000D01*
G75*
G02*
X160575000Y-77110000I75000J0D01*
G01*
X161900000Y-77110000D01*
G75*
G02*
X161975000Y-77185000I0J-75000D01*
G01*
X161975000Y-77335000D01*
G75*
G02*
X161900000Y-77410000I-75000J0D01*
G01*
G37*
%TD.AperFunction*%
%TO.P,U3,50*%
%TO.N,Net-(U3-Pad50)*%
%TA.AperFunction,SMDPad,CuDef*%
G36*
G01*
X161900000Y-76910000D02*
X160575000Y-76910000D01*
G75*
G02*
X160500000Y-76835000I0J75000D01*
G01*
X160500000Y-76685000D01*
G75*
G02*
X160575000Y-76610000I75000J0D01*
G01*
X161900000Y-76610000D01*
G75*
G02*
X161975000Y-76685000I0J-75000D01*
G01*
X161975000Y-76835000D01*
G75*
G02*
X161900000Y-76910000I-75000J0D01*
G01*
G37*
%TD.AperFunction*%
%TO.P,U3,49*%
%TO.N,Net-(U3-Pad49)*%
%TA.AperFunction,SMDPad,CuDef*%
G36*
G01*
X161900000Y-76410000D02*
X160575000Y-76410000D01*
G75*
G02*
X160500000Y-76335000I0J75000D01*
G01*
X160500000Y-76185000D01*
G75*
G02*
X160575000Y-76110000I75000J0D01*
G01*
X161900000Y-76110000D01*
G75*
G02*
X161975000Y-76185000I0J-75000D01*
G01*
X161975000Y-76335000D01*
G75*
G02*
X161900000Y-76410000I-75000J0D01*
G01*
G37*
%TD.AperFunction*%
%TO.P,U3,48*%
%TO.N,Net-(U3-Pad48)*%
%TA.AperFunction,SMDPad,CuDef*%
G36*
G01*
X159400000Y-75085000D02*
X159250000Y-75085000D01*
G75*
G02*
X159175000Y-75010000I0J75000D01*
G01*
X159175000Y-73685000D01*
G75*
G02*
X159250000Y-73610000I75000J0D01*
G01*
X159400000Y-73610000D01*
G75*
G02*
X159475000Y-73685000I0J-75000D01*
G01*
X159475000Y-75010000D01*
G75*
G02*
X159400000Y-75085000I-75000J0D01*
G01*
G37*
%TD.AperFunction*%
%TO.P,U3,47*%
%TO.N,Net-(U3-Pad47)*%
%TA.AperFunction,SMDPad,CuDef*%
G36*
G01*
X158900000Y-75085000D02*
X158750000Y-75085000D01*
G75*
G02*
X158675000Y-75010000I0J75000D01*
G01*
X158675000Y-73685000D01*
G75*
G02*
X158750000Y-73610000I75000J0D01*
G01*
X158900000Y-73610000D01*
G75*
G02*
X158975000Y-73685000I0J-75000D01*
G01*
X158975000Y-75010000D01*
G75*
G02*
X158900000Y-75085000I-75000J0D01*
G01*
G37*
%TD.AperFunction*%
%TO.P,U3,46*%
%TO.N,Net-(U3-Pad46)*%
%TA.AperFunction,SMDPad,CuDef*%
G36*
G01*
X158400000Y-75085000D02*
X158250000Y-75085000D01*
G75*
G02*
X158175000Y-75010000I0J75000D01*
G01*
X158175000Y-73685000D01*
G75*
G02*
X158250000Y-73610000I75000J0D01*
G01*
X158400000Y-73610000D01*
G75*
G02*
X158475000Y-73685000I0J-75000D01*
G01*
X158475000Y-75010000D01*
G75*
G02*
X158400000Y-75085000I-75000J0D01*
G01*
G37*
%TD.AperFunction*%
%TO.P,U3,45*%
%TO.N,Net-(U3-Pad45)*%
%TA.AperFunction,SMDPad,CuDef*%
G36*
G01*
X157900000Y-75085000D02*
X157750000Y-75085000D01*
G75*
G02*
X157675000Y-75010000I0J75000D01*
G01*
X157675000Y-73685000D01*
G75*
G02*
X157750000Y-73610000I75000J0D01*
G01*
X157900000Y-73610000D01*
G75*
G02*
X157975000Y-73685000I0J-75000D01*
G01*
X157975000Y-75010000D01*
G75*
G02*
X157900000Y-75085000I-75000J0D01*
G01*
G37*
%TD.AperFunction*%
%TO.P,U3,44*%
%TO.N,Net-(U3-Pad44)*%
%TA.AperFunction,SMDPad,CuDef*%
G36*
G01*
X157400000Y-75085000D02*
X157250000Y-75085000D01*
G75*
G02*
X157175000Y-75010000I0J75000D01*
G01*
X157175000Y-73685000D01*
G75*
G02*
X157250000Y-73610000I75000J0D01*
G01*
X157400000Y-73610000D01*
G75*
G02*
X157475000Y-73685000I0J-75000D01*
G01*
X157475000Y-75010000D01*
G75*
G02*
X157400000Y-75085000I-75000J0D01*
G01*
G37*
%TD.AperFunction*%
%TO.P,U3,43*%
%TO.N,Net-(U3-Pad43)*%
%TA.AperFunction,SMDPad,CuDef*%
G36*
G01*
X156900000Y-75085000D02*
X156750000Y-75085000D01*
G75*
G02*
X156675000Y-75010000I0J75000D01*
G01*
X156675000Y-73685000D01*
G75*
G02*
X156750000Y-73610000I75000J0D01*
G01*
X156900000Y-73610000D01*
G75*
G02*
X156975000Y-73685000I0J-75000D01*
G01*
X156975000Y-75010000D01*
G75*
G02*
X156900000Y-75085000I-75000J0D01*
G01*
G37*
%TD.AperFunction*%
%TO.P,U3,42*%
%TO.N,Net-(U3-Pad42)*%
%TA.AperFunction,SMDPad,CuDef*%
G36*
G01*
X156400000Y-75085000D02*
X156250000Y-75085000D01*
G75*
G02*
X156175000Y-75010000I0J75000D01*
G01*
X156175000Y-73685000D01*
G75*
G02*
X156250000Y-73610000I75000J0D01*
G01*
X156400000Y-73610000D01*
G75*
G02*
X156475000Y-73685000I0J-75000D01*
G01*
X156475000Y-75010000D01*
G75*
G02*
X156400000Y-75085000I-75000J0D01*
G01*
G37*
%TD.AperFunction*%
%TO.P,U3,41*%
%TO.N,/GND*%
%TA.AperFunction,SMDPad,CuDef*%
G36*
G01*
X155900000Y-75085000D02*
X155750000Y-75085000D01*
G75*
G02*
X155675000Y-75010000I0J75000D01*
G01*
X155675000Y-73685000D01*
G75*
G02*
X155750000Y-73610000I75000J0D01*
G01*
X155900000Y-73610000D01*
G75*
G02*
X155975000Y-73685000I0J-75000D01*
G01*
X155975000Y-75010000D01*
G75*
G02*
X155900000Y-75085000I-75000J0D01*
G01*
G37*
%TD.AperFunction*%
%TO.P,U3,40*%
%TO.N,Net-(U3-Pad40)*%
%TA.AperFunction,SMDPad,CuDef*%
G36*
G01*
X155400000Y-75085000D02*
X155250000Y-75085000D01*
G75*
G02*
X155175000Y-75010000I0J75000D01*
G01*
X155175000Y-73685000D01*
G75*
G02*
X155250000Y-73610000I75000J0D01*
G01*
X155400000Y-73610000D01*
G75*
G02*
X155475000Y-73685000I0J-75000D01*
G01*
X155475000Y-75010000D01*
G75*
G02*
X155400000Y-75085000I-75000J0D01*
G01*
G37*
%TD.AperFunction*%
%TO.P,U3,39*%
%TO.N,Net-(U3-Pad39)*%
%TA.AperFunction,SMDPad,CuDef*%
G36*
G01*
X154900000Y-75085000D02*
X154750000Y-75085000D01*
G75*
G02*
X154675000Y-75010000I0J75000D01*
G01*
X154675000Y-73685000D01*
G75*
G02*
X154750000Y-73610000I75000J0D01*
G01*
X154900000Y-73610000D01*
G75*
G02*
X154975000Y-73685000I0J-75000D01*
G01*
X154975000Y-75010000D01*
G75*
G02*
X154900000Y-75085000I-75000J0D01*
G01*
G37*
%TD.AperFunction*%
%TO.P,U3,38*%
%TO.N,Net-(U3-Pad38)*%
%TA.AperFunction,SMDPad,CuDef*%
G36*
G01*
X154400000Y-75085000D02*
X154250000Y-75085000D01*
G75*
G02*
X154175000Y-75010000I0J75000D01*
G01*
X154175000Y-73685000D01*
G75*
G02*
X154250000Y-73610000I75000J0D01*
G01*
X154400000Y-73610000D01*
G75*
G02*
X154475000Y-73685000I0J-75000D01*
G01*
X154475000Y-75010000D01*
G75*
G02*
X154400000Y-75085000I-75000J0D01*
G01*
G37*
%TD.AperFunction*%
%TO.P,U3,37*%
%TO.N,/+3V3*%
%TA.AperFunction,SMDPad,CuDef*%
G36*
G01*
X153900000Y-75085000D02*
X153750000Y-75085000D01*
G75*
G02*
X153675000Y-75010000I0J75000D01*
G01*
X153675000Y-73685000D01*
G75*
G02*
X153750000Y-73610000I75000J0D01*
G01*
X153900000Y-73610000D01*
G75*
G02*
X153975000Y-73685000I0J-75000D01*
G01*
X153975000Y-75010000D01*
G75*
G02*
X153900000Y-75085000I-75000J0D01*
G01*
G37*
%TD.AperFunction*%
%TO.P,U3,36*%
%TO.N,Net-(U3-Pad36)*%
%TA.AperFunction,SMDPad,CuDef*%
G36*
G01*
X153400000Y-75085000D02*
X153250000Y-75085000D01*
G75*
G02*
X153175000Y-75010000I0J75000D01*
G01*
X153175000Y-73685000D01*
G75*
G02*
X153250000Y-73610000I75000J0D01*
G01*
X153400000Y-73610000D01*
G75*
G02*
X153475000Y-73685000I0J-75000D01*
G01*
X153475000Y-75010000D01*
G75*
G02*
X153400000Y-75085000I-75000J0D01*
G01*
G37*
%TD.AperFunction*%
%TO.P,U3,35*%
%TO.N,Net-(U3-Pad35)*%
%TA.AperFunction,SMDPad,CuDef*%
G36*
G01*
X152900000Y-75085000D02*
X152750000Y-75085000D01*
G75*
G02*
X152675000Y-75010000I0J75000D01*
G01*
X152675000Y-73685000D01*
G75*
G02*
X152750000Y-73610000I75000J0D01*
G01*
X152900000Y-73610000D01*
G75*
G02*
X152975000Y-73685000I0J-75000D01*
G01*
X152975000Y-75010000D01*
G75*
G02*
X152900000Y-75085000I-75000J0D01*
G01*
G37*
%TD.AperFunction*%
%TO.P,U3,34*%
%TO.N,/BANK1*%
%TA.AperFunction,SMDPad,CuDef*%
G36*
G01*
X152400000Y-75085000D02*
X152250000Y-75085000D01*
G75*
G02*
X152175000Y-75010000I0J75000D01*
G01*
X152175000Y-73685000D01*
G75*
G02*
X152250000Y-73610000I75000J0D01*
G01*
X152400000Y-73610000D01*
G75*
G02*
X152475000Y-73685000I0J-75000D01*
G01*
X152475000Y-75010000D01*
G75*
G02*
X152400000Y-75085000I-75000J0D01*
G01*
G37*
%TD.AperFunction*%
%TO.P,U3,33*%
%TO.N,/BANK0*%
%TA.AperFunction,SMDPad,CuDef*%
G36*
G01*
X151900000Y-75085000D02*
X151750000Y-75085000D01*
G75*
G02*
X151675000Y-75010000I0J75000D01*
G01*
X151675000Y-73685000D01*
G75*
G02*
X151750000Y-73610000I75000J0D01*
G01*
X151900000Y-73610000D01*
G75*
G02*
X151975000Y-73685000I0J-75000D01*
G01*
X151975000Y-75010000D01*
G75*
G02*
X151900000Y-75085000I-75000J0D01*
G01*
G37*
%TD.AperFunction*%
%TO.P,U3,32*%
%TO.N,Net-(U3-Pad32)*%
%TA.AperFunction,SMDPad,CuDef*%
G36*
G01*
X150575000Y-76410000D02*
X149250000Y-76410000D01*
G75*
G02*
X149175000Y-76335000I0J75000D01*
G01*
X149175000Y-76185000D01*
G75*
G02*
X149250000Y-76110000I75000J0D01*
G01*
X150575000Y-76110000D01*
G75*
G02*
X150650000Y-76185000I0J-75000D01*
G01*
X150650000Y-76335000D01*
G75*
G02*
X150575000Y-76410000I-75000J0D01*
G01*
G37*
%TD.AperFunction*%
%TO.P,U3,31*%
%TO.N,Net-(U3-Pad31)*%
%TA.AperFunction,SMDPad,CuDef*%
G36*
G01*
X150575000Y-76910000D02*
X149250000Y-76910000D01*
G75*
G02*
X149175000Y-76835000I0J75000D01*
G01*
X149175000Y-76685000D01*
G75*
G02*
X149250000Y-76610000I75000J0D01*
G01*
X150575000Y-76610000D01*
G75*
G02*
X150650000Y-76685000I0J-75000D01*
G01*
X150650000Y-76835000D01*
G75*
G02*
X150575000Y-76910000I-75000J0D01*
G01*
G37*
%TD.AperFunction*%
%TO.P,U3,30*%
%TO.N,/TCK*%
%TA.AperFunction,SMDPad,CuDef*%
G36*
G01*
X150575000Y-77410000D02*
X149250000Y-77410000D01*
G75*
G02*
X149175000Y-77335000I0J75000D01*
G01*
X149175000Y-77185000D01*
G75*
G02*
X149250000Y-77110000I75000J0D01*
G01*
X150575000Y-77110000D01*
G75*
G02*
X150650000Y-77185000I0J-75000D01*
G01*
X150650000Y-77335000D01*
G75*
G02*
X150575000Y-77410000I-75000J0D01*
G01*
G37*
%TD.AperFunction*%
%TO.P,U3,29*%
%TO.N,/TMS*%
%TA.AperFunction,SMDPad,CuDef*%
G36*
G01*
X150575000Y-77910000D02*
X149250000Y-77910000D01*
G75*
G02*
X149175000Y-77835000I0J75000D01*
G01*
X149175000Y-77685000D01*
G75*
G02*
X149250000Y-77610000I75000J0D01*
G01*
X150575000Y-77610000D01*
G75*
G02*
X150650000Y-77685000I0J-75000D01*
G01*
X150650000Y-77835000D01*
G75*
G02*
X150575000Y-77910000I-75000J0D01*
G01*
G37*
%TD.AperFunction*%
%TO.P,U3,28*%
%TO.N,/TDI*%
%TA.AperFunction,SMDPad,CuDef*%
G36*
G01*
X150575000Y-78410000D02*
X149250000Y-78410000D01*
G75*
G02*
X149175000Y-78335000I0J75000D01*
G01*
X149175000Y-78185000D01*
G75*
G02*
X149250000Y-78110000I75000J0D01*
G01*
X150575000Y-78110000D01*
G75*
G02*
X150650000Y-78185000I0J-75000D01*
G01*
X150650000Y-78335000D01*
G75*
G02*
X150575000Y-78410000I-75000J0D01*
G01*
G37*
%TD.AperFunction*%
%TO.P,U3,27*%
%TO.N,Net-(U3-Pad27)*%
%TA.AperFunction,SMDPad,CuDef*%
G36*
G01*
X150575000Y-78910000D02*
X149250000Y-78910000D01*
G75*
G02*
X149175000Y-78835000I0J75000D01*
G01*
X149175000Y-78685000D01*
G75*
G02*
X149250000Y-78610000I75000J0D01*
G01*
X150575000Y-78610000D01*
G75*
G02*
X150650000Y-78685000I0J-75000D01*
G01*
X150650000Y-78835000D01*
G75*
G02*
X150575000Y-78910000I-75000J0D01*
G01*
G37*
%TD.AperFunction*%
%TO.P,U3,26*%
%TO.N,/+3V3*%
%TA.AperFunction,SMDPad,CuDef*%
G36*
G01*
X150575000Y-79410000D02*
X149250000Y-79410000D01*
G75*
G02*
X149175000Y-79335000I0J75000D01*
G01*
X149175000Y-79185000D01*
G75*
G02*
X149250000Y-79110000I75000J0D01*
G01*
X150575000Y-79110000D01*
G75*
G02*
X150650000Y-79185000I0J-75000D01*
G01*
X150650000Y-79335000D01*
G75*
G02*
X150575000Y-79410000I-75000J0D01*
G01*
G37*
%TD.AperFunction*%
%TO.P,U3,25*%
%TO.N,/S_LAD0*%
%TA.AperFunction,SMDPad,CuDef*%
G36*
G01*
X150575000Y-79910000D02*
X149250000Y-79910000D01*
G75*
G02*
X149175000Y-79835000I0J75000D01*
G01*
X149175000Y-79685000D01*
G75*
G02*
X149250000Y-79610000I75000J0D01*
G01*
X150575000Y-79610000D01*
G75*
G02*
X150650000Y-79685000I0J-75000D01*
G01*
X150650000Y-79835000D01*
G75*
G02*
X150575000Y-79910000I-75000J0D01*
G01*
G37*
%TD.AperFunction*%
%TO.P,U3,24*%
%TO.N,/S_LAD1*%
%TA.AperFunction,SMDPad,CuDef*%
G36*
G01*
X150575000Y-80410000D02*
X149250000Y-80410000D01*
G75*
G02*
X149175000Y-80335000I0J75000D01*
G01*
X149175000Y-80185000D01*
G75*
G02*
X149250000Y-80110000I75000J0D01*
G01*
X150575000Y-80110000D01*
G75*
G02*
X150650000Y-80185000I0J-75000D01*
G01*
X150650000Y-80335000D01*
G75*
G02*
X150575000Y-80410000I-75000J0D01*
G01*
G37*
%TD.AperFunction*%
%TO.P,U3,23*%
%TO.N,Net-(U3-Pad23)*%
%TA.AperFunction,SMDPad,CuDef*%
G36*
G01*
X150575000Y-80910000D02*
X149250000Y-80910000D01*
G75*
G02*
X149175000Y-80835000I0J75000D01*
G01*
X149175000Y-80685000D01*
G75*
G02*
X149250000Y-80610000I75000J0D01*
G01*
X150575000Y-80610000D01*
G75*
G02*
X150650000Y-80685000I0J-75000D01*
G01*
X150650000Y-80835000D01*
G75*
G02*
X150575000Y-80910000I-75000J0D01*
G01*
G37*
%TD.AperFunction*%
%TO.P,U3,22*%
%TO.N,/S_LAD2*%
%TA.AperFunction,SMDPad,CuDef*%
G36*
G01*
X150575000Y-81410000D02*
X149250000Y-81410000D01*
G75*
G02*
X149175000Y-81335000I0J75000D01*
G01*
X149175000Y-81185000D01*
G75*
G02*
X149250000Y-81110000I75000J0D01*
G01*
X150575000Y-81110000D01*
G75*
G02*
X150650000Y-81185000I0J-75000D01*
G01*
X150650000Y-81335000D01*
G75*
G02*
X150575000Y-81410000I-75000J0D01*
G01*
G37*
%TD.AperFunction*%
%TO.P,U3,21*%
%TO.N,/GND*%
%TA.AperFunction,SMDPad,CuDef*%
G36*
G01*
X150575000Y-81910000D02*
X149250000Y-81910000D01*
G75*
G02*
X149175000Y-81835000I0J75000D01*
G01*
X149175000Y-81685000D01*
G75*
G02*
X149250000Y-81610000I75000J0D01*
G01*
X150575000Y-81610000D01*
G75*
G02*
X150650000Y-81685000I0J-75000D01*
G01*
X150650000Y-81835000D01*
G75*
G02*
X150575000Y-81910000I-75000J0D01*
G01*
G37*
%TD.AperFunction*%
%TO.P,U3,20*%
%TO.N,/S_LAD3*%
%TA.AperFunction,SMDPad,CuDef*%
G36*
G01*
X150575000Y-82410000D02*
X149250000Y-82410000D01*
G75*
G02*
X149175000Y-82335000I0J75000D01*
G01*
X149175000Y-82185000D01*
G75*
G02*
X149250000Y-82110000I75000J0D01*
G01*
X150575000Y-82110000D01*
G75*
G02*
X150650000Y-82185000I0J-75000D01*
G01*
X150650000Y-82335000D01*
G75*
G02*
X150575000Y-82410000I-75000J0D01*
G01*
G37*
%TD.AperFunction*%
%TO.P,U3,19*%
%TO.N,/~S_LFRAME*%
%TA.AperFunction,SMDPad,CuDef*%
G36*
G01*
X150575000Y-82910000D02*
X149250000Y-82910000D01*
G75*
G02*
X149175000Y-82835000I0J75000D01*
G01*
X149175000Y-82685000D01*
G75*
G02*
X149250000Y-82610000I75000J0D01*
G01*
X150575000Y-82610000D01*
G75*
G02*
X150650000Y-82685000I0J-75000D01*
G01*
X150650000Y-82835000D01*
G75*
G02*
X150575000Y-82910000I-75000J0D01*
G01*
G37*
%TD.AperFunction*%
%TO.P,U3,18*%
%TO.N,Net-(U3-Pad18)*%
%TA.AperFunction,SMDPad,CuDef*%
G36*
G01*
X150575000Y-83410000D02*
X149250000Y-83410000D01*
G75*
G02*
X149175000Y-83335000I0J75000D01*
G01*
X149175000Y-83185000D01*
G75*
G02*
X149250000Y-83110000I75000J0D01*
G01*
X150575000Y-83110000D01*
G75*
G02*
X150650000Y-83185000I0J-75000D01*
G01*
X150650000Y-83335000D01*
G75*
G02*
X150575000Y-83410000I-75000J0D01*
G01*
G37*
%TD.AperFunction*%
%TO.P,U3,17*%
%TO.N,Net-(U3-Pad17)*%
%TA.AperFunction,SMDPad,CuDef*%
G36*
G01*
X150575000Y-83910000D02*
X149250000Y-83910000D01*
G75*
G02*
X149175000Y-83835000I0J75000D01*
G01*
X149175000Y-83685000D01*
G75*
G02*
X149250000Y-83610000I75000J0D01*
G01*
X150575000Y-83610000D01*
G75*
G02*
X150650000Y-83685000I0J-75000D01*
G01*
X150650000Y-83835000D01*
G75*
G02*
X150575000Y-83910000I-75000J0D01*
G01*
G37*
%TD.AperFunction*%
%TO.P,U3,16*%
%TO.N,/~RST*%
%TA.AperFunction,SMDPad,CuDef*%
G36*
G01*
X151900000Y-86410000D02*
X151750000Y-86410000D01*
G75*
G02*
X151675000Y-86335000I0J75000D01*
G01*
X151675000Y-85010000D01*
G75*
G02*
X151750000Y-84935000I75000J0D01*
G01*
X151900000Y-84935000D01*
G75*
G02*
X151975000Y-85010000I0J-75000D01*
G01*
X151975000Y-86335000D01*
G75*
G02*
X151900000Y-86410000I-75000J0D01*
G01*
G37*
%TD.AperFunction*%
%TO.P,U3,15*%
%TO.N,/LCLK*%
%TA.AperFunction,SMDPad,CuDef*%
G36*
G01*
X152400000Y-86410000D02*
X152250000Y-86410000D01*
G75*
G02*
X152175000Y-86335000I0J75000D01*
G01*
X152175000Y-85010000D01*
G75*
G02*
X152250000Y-84935000I75000J0D01*
G01*
X152400000Y-84935000D01*
G75*
G02*
X152475000Y-85010000I0J-75000D01*
G01*
X152475000Y-86335000D01*
G75*
G02*
X152400000Y-86410000I-75000J0D01*
G01*
G37*
%TD.AperFunction*%
%TO.P,U3,14*%
%TO.N,/GND*%
%TA.AperFunction,SMDPad,CuDef*%
G36*
G01*
X152900000Y-86410000D02*
X152750000Y-86410000D01*
G75*
G02*
X152675000Y-86335000I0J75000D01*
G01*
X152675000Y-85010000D01*
G75*
G02*
X152750000Y-84935000I75000J0D01*
G01*
X152900000Y-84935000D01*
G75*
G02*
X152975000Y-85010000I0J-75000D01*
G01*
X152975000Y-86335000D01*
G75*
G02*
X152900000Y-86410000I-75000J0D01*
G01*
G37*
%TD.AperFunction*%
%TO.P,U3,13*%
%TO.N,Net-(U3-Pad13)*%
%TA.AperFunction,SMDPad,CuDef*%
G36*
G01*
X153400000Y-86410000D02*
X153250000Y-86410000D01*
G75*
G02*
X153175000Y-86335000I0J75000D01*
G01*
X153175000Y-85010000D01*
G75*
G02*
X153250000Y-84935000I75000J0D01*
G01*
X153400000Y-84935000D01*
G75*
G02*
X153475000Y-85010000I0J-75000D01*
G01*
X153475000Y-86335000D01*
G75*
G02*
X153400000Y-86410000I-75000J0D01*
G01*
G37*
%TD.AperFunction*%
%TO.P,U3,12*%
%TO.N,Net-(U3-Pad12)*%
%TA.AperFunction,SMDPad,CuDef*%
G36*
G01*
X153900000Y-86410000D02*
X153750000Y-86410000D01*
G75*
G02*
X153675000Y-86335000I0J75000D01*
G01*
X153675000Y-85010000D01*
G75*
G02*
X153750000Y-84935000I75000J0D01*
G01*
X153900000Y-84935000D01*
G75*
G02*
X153975000Y-85010000I0J-75000D01*
G01*
X153975000Y-86335000D01*
G75*
G02*
X153900000Y-86410000I-75000J0D01*
G01*
G37*
%TD.AperFunction*%
%TO.P,U3,11*%
%TO.N,Net-(U3-Pad11)*%
%TA.AperFunction,SMDPad,CuDef*%
G36*
G01*
X154400000Y-86410000D02*
X154250000Y-86410000D01*
G75*
G02*
X154175000Y-86335000I0J75000D01*
G01*
X154175000Y-85010000D01*
G75*
G02*
X154250000Y-84935000I75000J0D01*
G01*
X154400000Y-84935000D01*
G75*
G02*
X154475000Y-85010000I0J-75000D01*
G01*
X154475000Y-86335000D01*
G75*
G02*
X154400000Y-86410000I-75000J0D01*
G01*
G37*
%TD.AperFunction*%
%TO.P,U3,10*%
%TO.N,Net-(U3-Pad10)*%
%TA.AperFunction,SMDPad,CuDef*%
G36*
G01*
X154900000Y-86410000D02*
X154750000Y-86410000D01*
G75*
G02*
X154675000Y-86335000I0J75000D01*
G01*
X154675000Y-85010000D01*
G75*
G02*
X154750000Y-84935000I75000J0D01*
G01*
X154900000Y-84935000D01*
G75*
G02*
X154975000Y-85010000I0J-75000D01*
G01*
X154975000Y-86335000D01*
G75*
G02*
X154900000Y-86410000I-75000J0D01*
G01*
G37*
%TD.AperFunction*%
%TO.P,U3,9*%
%TO.N,/BYPASS*%
%TA.AperFunction,SMDPad,CuDef*%
G36*
G01*
X155400000Y-86410000D02*
X155250000Y-86410000D01*
G75*
G02*
X155175000Y-86335000I0J75000D01*
G01*
X155175000Y-85010000D01*
G75*
G02*
X155250000Y-84935000I75000J0D01*
G01*
X155400000Y-84935000D01*
G75*
G02*
X155475000Y-85010000I0J-75000D01*
G01*
X155475000Y-86335000D01*
G75*
G02*
X155400000Y-86410000I-75000J0D01*
G01*
G37*
%TD.AperFunction*%
%TO.P,U3,8*%
%TO.N,/LED0*%
%TA.AperFunction,SMDPad,CuDef*%
G36*
G01*
X155900000Y-86410000D02*
X155750000Y-86410000D01*
G75*
G02*
X155675000Y-86335000I0J75000D01*
G01*
X155675000Y-85010000D01*
G75*
G02*
X155750000Y-84935000I75000J0D01*
G01*
X155900000Y-84935000D01*
G75*
G02*
X155975000Y-85010000I0J-75000D01*
G01*
X155975000Y-86335000D01*
G75*
G02*
X155900000Y-86410000I-75000J0D01*
G01*
G37*
%TD.AperFunction*%
%TO.P,U3,7*%
%TO.N,/LED1*%
%TA.AperFunction,SMDPad,CuDef*%
G36*
G01*
X156400000Y-86410000D02*
X156250000Y-86410000D01*
G75*
G02*
X156175000Y-86335000I0J75000D01*
G01*
X156175000Y-85010000D01*
G75*
G02*
X156250000Y-84935000I75000J0D01*
G01*
X156400000Y-84935000D01*
G75*
G02*
X156475000Y-85010000I0J-75000D01*
G01*
X156475000Y-86335000D01*
G75*
G02*
X156400000Y-86410000I-75000J0D01*
G01*
G37*
%TD.AperFunction*%
%TO.P,U3,6*%
%TO.N,Net-(U3-Pad6)*%
%TA.AperFunction,SMDPad,CuDef*%
G36*
G01*
X156900000Y-86410000D02*
X156750000Y-86410000D01*
G75*
G02*
X156675000Y-86335000I0J75000D01*
G01*
X156675000Y-85010000D01*
G75*
G02*
X156750000Y-84935000I75000J0D01*
G01*
X156900000Y-84935000D01*
G75*
G02*
X156975000Y-85010000I0J-75000D01*
G01*
X156975000Y-86335000D01*
G75*
G02*
X156900000Y-86410000I-75000J0D01*
G01*
G37*
%TD.AperFunction*%
%TO.P,U3,5*%
%TO.N,Net-(U3-Pad5)*%
%TA.AperFunction,SMDPad,CuDef*%
G36*
G01*
X157400000Y-86410000D02*
X157250000Y-86410000D01*
G75*
G02*
X157175000Y-86335000I0J75000D01*
G01*
X157175000Y-85010000D01*
G75*
G02*
X157250000Y-84935000I75000J0D01*
G01*
X157400000Y-84935000D01*
G75*
G02*
X157475000Y-85010000I0J-75000D01*
G01*
X157475000Y-86335000D01*
G75*
G02*
X157400000Y-86410000I-75000J0D01*
G01*
G37*
%TD.AperFunction*%
%TO.P,U3,4*%
%TO.N,Net-(U3-Pad4)*%
%TA.AperFunction,SMDPad,CuDef*%
G36*
G01*
X157900000Y-86410000D02*
X157750000Y-86410000D01*
G75*
G02*
X157675000Y-86335000I0J75000D01*
G01*
X157675000Y-85010000D01*
G75*
G02*
X157750000Y-84935000I75000J0D01*
G01*
X157900000Y-84935000D01*
G75*
G02*
X157975000Y-85010000I0J-75000D01*
G01*
X157975000Y-86335000D01*
G75*
G02*
X157900000Y-86410000I-75000J0D01*
G01*
G37*
%TD.AperFunction*%
%TO.P,U3,3*%
%TO.N,/+3V3*%
%TA.AperFunction,SMDPad,CuDef*%
G36*
G01*
X158400000Y-86410000D02*
X158250000Y-86410000D01*
G75*
G02*
X158175000Y-86335000I0J75000D01*
G01*
X158175000Y-85010000D01*
G75*
G02*
X158250000Y-84935000I75000J0D01*
G01*
X158400000Y-84935000D01*
G75*
G02*
X158475000Y-85010000I0J-75000D01*
G01*
X158475000Y-86335000D01*
G75*
G02*
X158400000Y-86410000I-75000J0D01*
G01*
G37*
%TD.AperFunction*%
%TO.P,U3,2*%
%TO.N,Net-(U3-Pad2)*%
%TA.AperFunction,SMDPad,CuDef*%
G36*
G01*
X158900000Y-86410000D02*
X158750000Y-86410000D01*
G75*
G02*
X158675000Y-86335000I0J75000D01*
G01*
X158675000Y-85010000D01*
G75*
G02*
X158750000Y-84935000I75000J0D01*
G01*
X158900000Y-84935000D01*
G75*
G02*
X158975000Y-85010000I0J-75000D01*
G01*
X158975000Y-86335000D01*
G75*
G02*
X158900000Y-86410000I-75000J0D01*
G01*
G37*
%TD.AperFunction*%
%TO.P,U3,1*%
%TO.N,Net-(U3-Pad1)*%
%TA.AperFunction,SMDPad,CuDef*%
G36*
G01*
X159400000Y-86410000D02*
X159250000Y-86410000D01*
G75*
G02*
X159175000Y-86335000I0J75000D01*
G01*
X159175000Y-85010000D01*
G75*
G02*
X159250000Y-84935000I75000J0D01*
G01*
X159400000Y-84935000D01*
G75*
G02*
X159475000Y-85010000I0J-75000D01*
G01*
X159475000Y-86335000D01*
G75*
G02*
X159400000Y-86410000I-75000J0D01*
G01*
G37*
%TD.AperFunction*%
%TD*%
D10*
%TO.P,U2,29*%
%TO.N,Net-(U2-Pad29)*%
X152400000Y-106680000D03*
%TO.P,U2,27*%
%TO.N,Net-(U2-Pad27)*%
X152400000Y-104140000D03*
%TO.P,U2,25*%
%TO.N,/+3V3*%
X152400000Y-101600000D03*
%TO.P,U2,23*%
%TO.N,/~S_LFRAME*%
X152400000Y-99060000D03*
%TO.P,U2,28*%
%TO.N,Net-(U2-Pad28)*%
X149860000Y-104140000D03*
%TO.P,U2,26*%
%TO.N,Net-(U2-Pad26)*%
X149860000Y-101600000D03*
%TO.P,U2,24*%
%TO.N,/~RST*%
X149860000Y-99060000D03*
%TO.P,U2,22*%
%TO.N,Net-(U2-Pad22)*%
X149860000Y-96520000D03*
%TO.P,U2,20*%
%TO.N,Net-(U2-Pad20)*%
X149860000Y-93980000D03*
%TO.P,U2,18*%
%TO.N,Net-(U2-Pad18)*%
X147320000Y-93980000D03*
%TO.P,U2,16*%
%TO.N,/GND*%
X144780000Y-93980000D03*
%TO.P,U2,14*%
%TO.N,/S_LAD1*%
X142240000Y-93980000D03*
%TO.P,U2,21*%
%TO.N,Net-(U2-Pad21)*%
X152400000Y-96520000D03*
%TO.P,U2,19*%
%TO.N,Net-(U2-Pad19)*%
X147320000Y-96520000D03*
%TO.P,U2,17*%
%TO.N,/S_LAD3*%
X144780000Y-96520000D03*
%TO.P,U2,15*%
%TO.N,/S_LAD2*%
X142240000Y-96520000D03*
%TO.P,U2,13*%
%TO.N,/S_LAD0*%
X139700000Y-96520000D03*
%TO.P,U2,11*%
%TO.N,/+3V3*%
X139700000Y-99060000D03*
%TO.P,U2,9*%
X139700000Y-101600000D03*
%TO.P,U2,7*%
X139700000Y-104140000D03*
%TO.P,U2,5*%
X139700000Y-106680000D03*
%TO.P,U2,12*%
%TO.N,/GND*%
X142240000Y-99060000D03*
%TO.P,U2,10*%
%TO.N,/+3V3*%
X142240000Y-101600000D03*
%TO.P,U2,8*%
X142240000Y-104140000D03*
%TO.P,U2,6*%
X142240000Y-106680000D03*
%TO.P,U2,30*%
X149860000Y-109220000D03*
%TO.P,U2,32*%
%TO.N,Net-(U2-Pad32)*%
X147320000Y-109220000D03*
%TO.P,U2,4*%
%TO.N,/+3V3*%
X142240000Y-109220000D03*
%TO.P,U2,2*%
X144780000Y-109220000D03*
%TO.P,U2,31*%
%TO.N,/LCLK*%
X149860000Y-106680000D03*
%TO.P,U2,3*%
%TO.N,/+3V3*%
X144780000Y-106680000D03*
D11*
%TO.P,U2,1*%
%TO.N,Net-(U2-Pad1)*%
X147320000Y-106680000D03*
%TD*%
D10*
%TO.P,U1,29*%
%TO.N,Net-(U1-Pad29)*%
X172085000Y-106680000D03*
%TO.P,U1,27*%
%TO.N,Net-(U1-Pad27)*%
X172085000Y-104140000D03*
%TO.P,U1,25*%
%TO.N,/+3V3*%
X172085000Y-101600000D03*
%TO.P,U1,23*%
%TO.N,/~S_LFRAME*%
X172085000Y-99060000D03*
%TO.P,U1,28*%
%TO.N,Net-(U1-Pad28)*%
X169545000Y-104140000D03*
%TO.P,U1,26*%
%TO.N,Net-(U1-Pad26)*%
X169545000Y-101600000D03*
%TO.P,U1,24*%
%TO.N,/~RST*%
X169545000Y-99060000D03*
%TO.P,U1,22*%
%TO.N,Net-(U1-Pad22)*%
X169545000Y-96520000D03*
%TO.P,U1,20*%
%TO.N,Net-(U1-Pad20)*%
X169545000Y-93980000D03*
%TO.P,U1,18*%
%TO.N,Net-(U1-Pad18)*%
X167005000Y-93980000D03*
%TO.P,U1,16*%
%TO.N,/GND*%
X164465000Y-93980000D03*
%TO.P,U1,14*%
%TO.N,/S_LAD1*%
X161925000Y-93980000D03*
%TO.P,U1,21*%
%TO.N,Net-(U1-Pad21)*%
X172085000Y-96520000D03*
%TO.P,U1,19*%
%TO.N,Net-(U1-Pad19)*%
X167005000Y-96520000D03*
%TO.P,U1,17*%
%TO.N,/S_LAD3*%
X164465000Y-96520000D03*
%TO.P,U1,15*%
%TO.N,/S_LAD2*%
X161925000Y-96520000D03*
%TO.P,U1,13*%
%TO.N,/S_LAD0*%
X159385000Y-96520000D03*
%TO.P,U1,11*%
%TO.N,/+3V3*%
X159385000Y-99060000D03*
%TO.P,U1,9*%
X159385000Y-101600000D03*
%TO.P,U1,7*%
X159385000Y-104140000D03*
%TO.P,U1,5*%
X159385000Y-106680000D03*
%TO.P,U1,12*%
X161925000Y-99060000D03*
%TO.P,U1,10*%
X161925000Y-101600000D03*
%TO.P,U1,8*%
X161925000Y-104140000D03*
%TO.P,U1,6*%
X161925000Y-106680000D03*
%TO.P,U1,30*%
X169545000Y-109220000D03*
%TO.P,U1,32*%
%TO.N,Net-(U1-Pad32)*%
X167005000Y-109220000D03*
%TO.P,U1,4*%
%TO.N,/+3V3*%
X161925000Y-109220000D03*
%TO.P,U1,2*%
X164465000Y-109220000D03*
%TO.P,U1,31*%
%TO.N,/LCLK*%
X169545000Y-106680000D03*
%TO.P,U1,3*%
%TO.N,/+3V3*%
X164465000Y-106680000D03*
D11*
%TO.P,U1,1*%
%TO.N,Net-(U1-Pad1)*%
X167005000Y-106680000D03*
%TD*%
D12*
%TO.P,JP1,6*%
%TO.N,/GND*%
X144145000Y-67945000D03*
%TO.P,JP1,5*%
%TO.N,/BANK1*%
X146685000Y-67945000D03*
%TO.P,JP1,4*%
%TO.N,/GND*%
X144145000Y-70485000D03*
%TO.P,JP1,3*%
%TO.N,/BANK0*%
X146685000Y-70485000D03*
%TO.P,JP1,2*%
%TO.N,/GND*%
X144145000Y-73025000D03*
D13*
%TO.P,JP1,1*%
%TO.N,/BYPASS*%
X146685000Y-73025000D03*
%TD*%
D12*
%TO.P,J3,4*%
%TO.N,/GND*%
X153670000Y-67945000D03*
%TO.P,J3,3*%
%TO.N,/SDA*%
X156210000Y-67945000D03*
%TO.P,J3,2*%
%TO.N,/SCL*%
X158750000Y-67945000D03*
D13*
%TO.P,J3,1*%
%TO.N,/+3V3*%
X161290000Y-67945000D03*
%TD*%
D12*
%TO.P,J2,6*%
%TO.N,/TMS*%
X138430000Y-73025000D03*
%TO.P,J2,5*%
%TO.N,/TDI*%
X138430000Y-75565000D03*
%TO.P,J2,4*%
%TO.N,/TDO*%
X138430000Y-78105000D03*
%TO.P,J2,3*%
%TO.N,/TCK*%
X138430000Y-80645000D03*
%TO.P,J2,2*%
%TO.N,/GND*%
X138430000Y-83185000D03*
D13*
%TO.P,J2,1*%
%TO.N,/+3V3*%
X138430000Y-85725000D03*
%TD*%
D12*
%TO.P,J1,16*%
%TO.N,Net-(J1-Pad16)*%
X170815000Y-67945000D03*
%TO.P,J1,15*%
%TO.N,/+3V3*%
X173355000Y-67945000D03*
%TO.P,J1,14*%
%TO.N,/SDA*%
X170815000Y-70485000D03*
%TO.P,J1,13*%
%TO.N,/SCL*%
X173355000Y-70485000D03*
%TO.P,J1,12*%
%TO.N,/GND*%
X170815000Y-73025000D03*
%TO.P,J1,11*%
%TO.N,/LAD0*%
X173355000Y-73025000D03*
%TO.P,J1,10*%
%TO.N,/LAD1*%
X170815000Y-75565000D03*
%TO.P,J1,9*%
%TO.N,/+3V3*%
X173355000Y-75565000D03*
%TO.P,J1,8*%
%TO.N,/LAD2*%
X170815000Y-78105000D03*
%TO.P,J1,7*%
%TO.N,/LAD3*%
X173355000Y-78105000D03*
%TO.P,J1,6*%
%TO.N,/+5V*%
X170815000Y-80645000D03*
%TO.P,J1,5*%
%TO.N,/~RST*%
X173355000Y-80645000D03*
%TO.P,J1,4*%
%TO.N,Net-(J1-Pad4)*%
X170815000Y-83185000D03*
%TO.P,J1,3*%
%TO.N,/~LFRAME*%
X173355000Y-83185000D03*
%TO.P,J1,2*%
%TO.N,/GND*%
X170815000Y-85725000D03*
D13*
%TO.P,J1,1*%
%TO.N,/LCLK*%
X173355000Y-85725000D03*
%TD*%
D14*
%TO.N,/GND*%
X167640000Y-100330000D03*
X173355000Y-88900000D03*
X170815000Y-88900000D03*
X147955000Y-100330000D03*
X146050000Y-104140000D03*
X136525000Y-112395000D03*
X175260000Y-112395000D03*
X175260000Y-65405000D03*
X136525000Y-65405000D03*
X152400000Y-81915000D03*
X153670000Y-88265000D03*
X147320000Y-83820000D03*
X156210000Y-76200000D03*
X163195000Y-78740000D03*
X161925000Y-71755000D03*
X164465000Y-73025000D03*
X147955000Y-75565000D03*
X161290000Y-85725000D03*
X165735000Y-104140000D03*
%TO.N,/+3V3*%
X158750000Y-79375000D03*
X154940000Y-76835000D03*
X151765000Y-80010000D03*
%TO.N,/~LFRAME*%
X163195000Y-80645000D03*
%TO.N,/LCLK*%
X152400000Y-83820000D03*
%TO.N,/TDO*%
X144145052Y-78740000D03*
X153669982Y-78740000D03*
%TO.N,/TCK*%
X144145000Y-76835000D03*
%TD*%
D15*
%TO.N,/GND*%
X164465000Y-93980000D02*
X163195000Y-95250000D01*
X163195000Y-95250000D02*
X163195000Y-97790000D01*
X164465000Y-93980000D02*
X165735000Y-95250000D01*
X165735000Y-95250000D02*
X165735000Y-98425000D01*
X167640000Y-100330000D02*
X173990000Y-100330000D01*
X167640000Y-100330000D02*
X167640000Y-102870000D01*
X163195000Y-97790000D02*
X157480000Y-97790000D01*
X167640000Y-102870000D02*
X169545000Y-102870000D01*
X169545000Y-102870000D02*
X156845000Y-102870000D01*
X169545000Y-102870000D02*
X173990000Y-102870000D01*
X144780000Y-93980000D02*
X146050000Y-95250000D01*
X146050000Y-95250000D02*
X146050000Y-102870000D01*
X146050000Y-102870000D02*
X146050000Y-104140000D01*
X143510000Y-105410000D02*
X143510000Y-111760000D01*
X146050000Y-102870000D02*
X143510000Y-105410000D01*
X143510000Y-105410000D02*
X137795000Y-105410000D01*
X146050000Y-95250000D02*
X146050000Y-91440000D01*
X137795000Y-102870000D02*
X146050000Y-102870000D01*
X137795000Y-97790000D02*
X137795000Y-102870000D01*
X140970000Y-97790000D02*
X137795000Y-97790000D01*
X142240000Y-99060000D02*
X140970000Y-97790000D01*
X142240000Y-99060000D02*
X140970000Y-100330000D01*
X140970000Y-100330000D02*
X137795000Y-100330000D01*
X146050000Y-104140000D02*
X146050000Y-111125000D01*
X152245000Y-81760000D02*
X152400000Y-81915000D01*
X149912500Y-81760000D02*
X152245000Y-81760000D01*
X152825000Y-87420000D02*
X153670000Y-88265000D01*
X152825000Y-85672500D02*
X152825000Y-87420000D01*
X155825000Y-75815000D02*
X156210000Y-76200000D01*
X155825000Y-74347500D02*
X155825000Y-75815000D01*
X163175000Y-78760000D02*
X163195000Y-78740000D01*
X161237500Y-78760000D02*
X163175000Y-78760000D01*
%TO.N,/+3V3*%
X159385000Y-101600000D02*
X159385000Y-99060000D01*
X144895000Y-79260000D02*
X138430000Y-85725000D01*
X149912500Y-79260000D02*
X144895000Y-79260000D01*
X158325000Y-79800000D02*
X158750000Y-79375000D01*
X158325000Y-85672500D02*
X158325000Y-79800000D01*
X158865000Y-79260000D02*
X158750000Y-79375000D01*
X161237500Y-79260000D02*
X158865000Y-79260000D01*
X153825000Y-75720000D02*
X154940000Y-76835000D01*
X153825000Y-74347500D02*
X153825000Y-75720000D01*
X151015000Y-79260000D02*
X151765000Y-80010000D01*
X149912500Y-79260000D02*
X151015000Y-79260000D01*
%TO.N,/LAD0*%
X172720000Y-73660000D02*
X173355000Y-73025000D01*
X172085000Y-74295000D02*
X172720000Y-73660000D01*
X170180000Y-74295000D02*
X172085000Y-74295000D01*
X169545000Y-74930000D02*
X170180000Y-74295000D01*
X169545000Y-76200000D02*
X169545000Y-74930000D01*
X163985000Y-81760000D02*
X169545000Y-76200000D01*
X161237500Y-81760000D02*
X163985000Y-81760000D01*
%TO.N,/LAD1*%
X170815000Y-75566410D02*
X170815000Y-75565000D01*
X164121410Y-82260000D02*
X170815000Y-75566410D01*
X161237500Y-82260000D02*
X164121410Y-82260000D01*
%TO.N,/LAD2*%
X161237500Y-82760000D02*
X164257820Y-82760000D01*
X168912820Y-78105000D02*
X170815000Y-78105000D01*
X164257820Y-82760000D02*
X168912820Y-78105000D01*
%TO.N,/LAD3*%
X164394230Y-83260000D02*
X168279230Y-79375000D01*
X172085000Y-79375000D02*
X173355000Y-78105000D01*
X161237500Y-83260000D02*
X164394230Y-83260000D01*
X168279230Y-79375000D02*
X172085000Y-79375000D01*
%TO.N,/~RST*%
X149860000Y-98425000D02*
X149860000Y-99060000D01*
X151130000Y-97155000D02*
X149860000Y-98425000D01*
X151130000Y-95250000D02*
X151130000Y-97155000D01*
X151825000Y-94555000D02*
X151130000Y-95250000D01*
X151825000Y-85672500D02*
X151825000Y-94555000D01*
X170815000Y-97790000D02*
X169545000Y-99060000D01*
X173355000Y-80645000D02*
X172085000Y-81915000D01*
X172085000Y-81915000D02*
X172085000Y-93980000D01*
X172085000Y-93980000D02*
X170815000Y-95250000D01*
X170815000Y-95250000D02*
X170815000Y-97790000D01*
%TO.N,/~LFRAME*%
X162810000Y-80260000D02*
X161237500Y-80260000D01*
X163195000Y-80645000D02*
X162810000Y-80260000D01*
%TO.N,/LCLK*%
X151130000Y-105410000D02*
X149860000Y-106680000D01*
X151130000Y-101219000D02*
X151130000Y-105410000D01*
X152019000Y-100330000D02*
X151130000Y-101219000D01*
X153670000Y-99568000D02*
X152908000Y-100330000D01*
X153670000Y-95885000D02*
X153670000Y-99568000D01*
X152325000Y-94540000D02*
X153670000Y-95885000D01*
X152019000Y-100330000D02*
X152908000Y-100330000D01*
X169545000Y-106680000D02*
X168275000Y-105410000D01*
X152136422Y-105410000D02*
X151130000Y-105410000D01*
X168275000Y-105410000D02*
X152136422Y-105410000D01*
X152325000Y-85672500D02*
X152325000Y-87555000D01*
X152325000Y-87555000D02*
X152325000Y-94540000D01*
X152325000Y-83895000D02*
X152400000Y-83820000D01*
X152325000Y-85672500D02*
X152325000Y-83895000D01*
%TO.N,/TMS*%
X145509415Y-77760000D02*
X145314386Y-77564971D01*
X145314386Y-77564971D02*
X142969971Y-77564971D01*
X149912500Y-77760000D02*
X145509415Y-77760000D01*
X142969971Y-77564971D02*
X138430000Y-73025000D01*
%TO.N,/TDI*%
X145127985Y-78014978D02*
X140879978Y-78014978D01*
X145373007Y-78260000D02*
X145127985Y-78014978D01*
X149912500Y-78260000D02*
X145373007Y-78260000D01*
X140879978Y-78014978D02*
X138430000Y-75565000D01*
%TO.N,/TDO*%
X139065000Y-78740000D02*
X144145052Y-78740000D01*
X138430000Y-78105000D02*
X139065000Y-78740000D01*
X161237500Y-78260000D02*
X154149982Y-78260000D01*
X154149982Y-78260000D02*
X153669982Y-78740000D01*
%TO.N,/TCK*%
X149912500Y-77260000D02*
X145645826Y-77260000D01*
X145645826Y-77260000D02*
X145220826Y-76835000D01*
X145220826Y-76835000D02*
X144145000Y-76835000D01*
%TO.N,/BANK1*%
X147321410Y-67945000D02*
X146685000Y-67945000D01*
X152325000Y-72948590D02*
X147321410Y-67945000D01*
X152325000Y-74347500D02*
X152325000Y-72948590D01*
%TO.N,/BANK0*%
X151825000Y-74347500D02*
X151825000Y-73085000D01*
X149225000Y-70485000D02*
X146685000Y-70485000D01*
X151825000Y-73085000D02*
X149225000Y-70485000D01*
%TO.N,/BYPASS*%
X148590000Y-73025000D02*
X146685000Y-73025000D01*
X151765000Y-76200000D02*
X148590000Y-73025000D01*
X151765000Y-78740000D02*
X151765000Y-76200000D01*
X155325000Y-82300000D02*
X151765000Y-78740000D01*
X155325000Y-85672500D02*
X155325000Y-82300000D01*
%TO.N,/~S_LFRAME*%
X149109298Y-82760000D02*
X148590000Y-83279298D01*
X149912500Y-82760000D02*
X149109298Y-82760000D01*
X148590000Y-83279298D02*
X148590000Y-99568000D01*
X148590000Y-99568000D02*
X149352000Y-100330000D01*
X151130000Y-100330000D02*
X152400000Y-99060000D01*
X149352000Y-100330000D02*
X151130000Y-100330000D01*
%TO.N,/S_LAD1*%
X147706410Y-80260000D02*
X142748000Y-85218410D01*
X142748000Y-93472000D02*
X142240000Y-93980000D01*
X142748000Y-85218410D02*
X142748000Y-93472000D01*
X149912500Y-80260000D02*
X147706410Y-80260000D01*
%TO.N,/S_LAD3*%
X143743799Y-95483799D02*
X144780000Y-96520000D01*
X146979230Y-82260000D02*
X143743799Y-85495431D01*
X149912500Y-82260000D02*
X146979230Y-82260000D01*
X143743799Y-85495431D02*
X143743799Y-95483799D01*
%TO.N,/S_LAD2*%
X149912500Y-81260000D02*
X147342820Y-81260000D01*
X143276201Y-95483799D02*
X142240000Y-96520000D01*
X143276201Y-85326619D02*
X143276201Y-95483799D01*
X147342820Y-81260000D02*
X143276201Y-85326619D01*
%TO.N,/S_LAD0*%
X139700000Y-94996000D02*
X139700000Y-96520000D01*
X149912500Y-79760000D02*
X147570000Y-79760000D01*
X147570000Y-79760000D02*
X142240000Y-85090000D01*
X142240000Y-92456000D02*
X139700000Y-94996000D01*
X142240000Y-85090000D02*
X142240000Y-92456000D01*
%TD*%
D16*
%TO.N,/GND*%
X175870001Y-113005000D02*
X135915000Y-113005000D01*
X135915000Y-84875000D01*
X136941928Y-84875000D01*
X136941928Y-86575000D01*
X136954188Y-86699482D01*
X136990498Y-86819180D01*
X137049463Y-86929494D01*
X137128815Y-87026185D01*
X137225506Y-87105537D01*
X137335820Y-87164502D01*
X137455518Y-87200812D01*
X137580000Y-87213072D01*
X139280000Y-87213072D01*
X139404482Y-87200812D01*
X139524180Y-87164502D01*
X139634494Y-87105537D01*
X139731185Y-87026185D01*
X139810537Y-86929494D01*
X139869502Y-86819180D01*
X139905812Y-86699482D01*
X139918072Y-86575000D01*
X139918072Y-85311729D01*
X145209802Y-80020000D01*
X146235198Y-80020000D01*
X141729003Y-84526196D01*
X141699999Y-84549999D01*
X141668379Y-84588529D01*
X141605026Y-84665724D01*
X141540406Y-84786618D01*
X141534454Y-84797754D01*
X141490997Y-84941015D01*
X141480000Y-85052668D01*
X141480000Y-85052678D01*
X141476324Y-85090000D01*
X141480000Y-85127322D01*
X141480001Y-92141196D01*
X139189003Y-94432196D01*
X139159999Y-94455999D01*
X139107474Y-94520001D01*
X139065026Y-94571724D01*
X139002348Y-94688985D01*
X138994454Y-94703754D01*
X138950997Y-94847015D01*
X138940000Y-94958668D01*
X138940000Y-94958678D01*
X138936324Y-94996000D01*
X138940000Y-95033323D01*
X138940000Y-95408754D01*
X138841847Y-95474338D01*
X138654338Y-95661847D01*
X138507013Y-95882335D01*
X138405533Y-96127328D01*
X138353800Y-96387411D01*
X138353800Y-96652589D01*
X138405533Y-96912672D01*
X138507013Y-97157665D01*
X138654338Y-97378153D01*
X138841847Y-97565662D01*
X139062335Y-97712987D01*
X139248260Y-97790000D01*
X139062335Y-97867013D01*
X138841847Y-98014338D01*
X138654338Y-98201847D01*
X138507013Y-98422335D01*
X138405533Y-98667328D01*
X138353800Y-98927411D01*
X138353800Y-99192589D01*
X138405533Y-99452672D01*
X138507013Y-99697665D01*
X138654338Y-99918153D01*
X138841847Y-100105662D01*
X139062335Y-100252987D01*
X139248260Y-100330000D01*
X139062335Y-100407013D01*
X138841847Y-100554338D01*
X138654338Y-100741847D01*
X138507013Y-100962335D01*
X138405533Y-101207328D01*
X138353800Y-101467411D01*
X138353800Y-101732589D01*
X138405533Y-101992672D01*
X138507013Y-102237665D01*
X138654338Y-102458153D01*
X138841847Y-102645662D01*
X139062335Y-102792987D01*
X139248260Y-102870000D01*
X139062335Y-102947013D01*
X138841847Y-103094338D01*
X138654338Y-103281847D01*
X138507013Y-103502335D01*
X138405533Y-103747328D01*
X138353800Y-104007411D01*
X138353800Y-104272589D01*
X138405533Y-104532672D01*
X138507013Y-104777665D01*
X138654338Y-104998153D01*
X138841847Y-105185662D01*
X139062335Y-105332987D01*
X139248260Y-105410000D01*
X139062335Y-105487013D01*
X138841847Y-105634338D01*
X138654338Y-105821847D01*
X138507013Y-106042335D01*
X138405533Y-106287328D01*
X138353800Y-106547411D01*
X138353800Y-106812589D01*
X138405533Y-107072672D01*
X138507013Y-107317665D01*
X138654338Y-107538153D01*
X138841847Y-107725662D01*
X139062335Y-107872987D01*
X139307328Y-107974467D01*
X139567411Y-108026200D01*
X139832589Y-108026200D01*
X140092672Y-107974467D01*
X140337665Y-107872987D01*
X140558153Y-107725662D01*
X140745662Y-107538153D01*
X140892987Y-107317665D01*
X140970000Y-107131740D01*
X141047013Y-107317665D01*
X141194338Y-107538153D01*
X141381847Y-107725662D01*
X141602335Y-107872987D01*
X141788260Y-107950000D01*
X141602335Y-108027013D01*
X141381847Y-108174338D01*
X141194338Y-108361847D01*
X141047013Y-108582335D01*
X140945533Y-108827328D01*
X140893800Y-109087411D01*
X140893800Y-109352589D01*
X140945533Y-109612672D01*
X141047013Y-109857665D01*
X141194338Y-110078153D01*
X141381847Y-110265662D01*
X141602335Y-110412987D01*
X141847328Y-110514467D01*
X142107411Y-110566200D01*
X142372589Y-110566200D01*
X142632672Y-110514467D01*
X142877665Y-110412987D01*
X143098153Y-110265662D01*
X143285662Y-110078153D01*
X143432987Y-109857665D01*
X143510000Y-109671740D01*
X143587013Y-109857665D01*
X143734338Y-110078153D01*
X143921847Y-110265662D01*
X144142335Y-110412987D01*
X144387328Y-110514467D01*
X144647411Y-110566200D01*
X144912589Y-110566200D01*
X145172672Y-110514467D01*
X145417665Y-110412987D01*
X145638153Y-110265662D01*
X145825662Y-110078153D01*
X145972987Y-109857665D01*
X146050000Y-109671740D01*
X146127013Y-109857665D01*
X146274338Y-110078153D01*
X146461847Y-110265662D01*
X146682335Y-110412987D01*
X146927328Y-110514467D01*
X147187411Y-110566200D01*
X147452589Y-110566200D01*
X147712672Y-110514467D01*
X147957665Y-110412987D01*
X148178153Y-110265662D01*
X148365662Y-110078153D01*
X148512987Y-109857665D01*
X148590000Y-109671740D01*
X148667013Y-109857665D01*
X148814338Y-110078153D01*
X149001847Y-110265662D01*
X149222335Y-110412987D01*
X149467328Y-110514467D01*
X149727411Y-110566200D01*
X149992589Y-110566200D01*
X150252672Y-110514467D01*
X150497665Y-110412987D01*
X150718153Y-110265662D01*
X150905662Y-110078153D01*
X151052987Y-109857665D01*
X151154467Y-109612672D01*
X151206200Y-109352589D01*
X151206200Y-109087411D01*
X151154467Y-108827328D01*
X151052987Y-108582335D01*
X150905662Y-108361847D01*
X150718153Y-108174338D01*
X150497665Y-108027013D01*
X150311740Y-107950000D01*
X150497665Y-107872987D01*
X150718153Y-107725662D01*
X150905662Y-107538153D01*
X151052987Y-107317665D01*
X151130000Y-107131740D01*
X151207013Y-107317665D01*
X151354338Y-107538153D01*
X151541847Y-107725662D01*
X151762335Y-107872987D01*
X152007328Y-107974467D01*
X152267411Y-108026200D01*
X152532589Y-108026200D01*
X152792672Y-107974467D01*
X153037665Y-107872987D01*
X153258153Y-107725662D01*
X153445662Y-107538153D01*
X153592987Y-107317665D01*
X153694467Y-107072672D01*
X153746200Y-106812589D01*
X153746200Y-106547411D01*
X153694467Y-106287328D01*
X153645868Y-106170000D01*
X158139132Y-106170000D01*
X158090533Y-106287328D01*
X158038800Y-106547411D01*
X158038800Y-106812589D01*
X158090533Y-107072672D01*
X158192013Y-107317665D01*
X158339338Y-107538153D01*
X158526847Y-107725662D01*
X158747335Y-107872987D01*
X158992328Y-107974467D01*
X159252411Y-108026200D01*
X159517589Y-108026200D01*
X159777672Y-107974467D01*
X160022665Y-107872987D01*
X160243153Y-107725662D01*
X160430662Y-107538153D01*
X160577987Y-107317665D01*
X160655000Y-107131740D01*
X160732013Y-107317665D01*
X160879338Y-107538153D01*
X161066847Y-107725662D01*
X161287335Y-107872987D01*
X161473260Y-107950000D01*
X161287335Y-108027013D01*
X161066847Y-108174338D01*
X160879338Y-108361847D01*
X160732013Y-108582335D01*
X160630533Y-108827328D01*
X160578800Y-109087411D01*
X160578800Y-109352589D01*
X160630533Y-109612672D01*
X160732013Y-109857665D01*
X160879338Y-110078153D01*
X161066847Y-110265662D01*
X161287335Y-110412987D01*
X161532328Y-110514467D01*
X161792411Y-110566200D01*
X162057589Y-110566200D01*
X162317672Y-110514467D01*
X162562665Y-110412987D01*
X162783153Y-110265662D01*
X162970662Y-110078153D01*
X163117987Y-109857665D01*
X163195000Y-109671740D01*
X163272013Y-109857665D01*
X163419338Y-110078153D01*
X163606847Y-110265662D01*
X163827335Y-110412987D01*
X164072328Y-110514467D01*
X164332411Y-110566200D01*
X164597589Y-110566200D01*
X164857672Y-110514467D01*
X165102665Y-110412987D01*
X165323153Y-110265662D01*
X165510662Y-110078153D01*
X165657987Y-109857665D01*
X165735000Y-109671740D01*
X165812013Y-109857665D01*
X165959338Y-110078153D01*
X166146847Y-110265662D01*
X166367335Y-110412987D01*
X166612328Y-110514467D01*
X166872411Y-110566200D01*
X167137589Y-110566200D01*
X167397672Y-110514467D01*
X167642665Y-110412987D01*
X167863153Y-110265662D01*
X168050662Y-110078153D01*
X168197987Y-109857665D01*
X168275000Y-109671740D01*
X168352013Y-109857665D01*
X168499338Y-110078153D01*
X168686847Y-110265662D01*
X168907335Y-110412987D01*
X169152328Y-110514467D01*
X169412411Y-110566200D01*
X169677589Y-110566200D01*
X169937672Y-110514467D01*
X170182665Y-110412987D01*
X170403153Y-110265662D01*
X170590662Y-110078153D01*
X170737987Y-109857665D01*
X170839467Y-109612672D01*
X170891200Y-109352589D01*
X170891200Y-109087411D01*
X170839467Y-108827328D01*
X170737987Y-108582335D01*
X170590662Y-108361847D01*
X170403153Y-108174338D01*
X170182665Y-108027013D01*
X169996740Y-107950000D01*
X170182665Y-107872987D01*
X170403153Y-107725662D01*
X170590662Y-107538153D01*
X170737987Y-107317665D01*
X170815000Y-107131740D01*
X170892013Y-107317665D01*
X171039338Y-107538153D01*
X171226847Y-107725662D01*
X171447335Y-107872987D01*
X171692328Y-107974467D01*
X171952411Y-108026200D01*
X172217589Y-108026200D01*
X172477672Y-107974467D01*
X172722665Y-107872987D01*
X172943153Y-107725662D01*
X173130662Y-107538153D01*
X173277987Y-107317665D01*
X173379467Y-107072672D01*
X173431200Y-106812589D01*
X173431200Y-106547411D01*
X173379467Y-106287328D01*
X173277987Y-106042335D01*
X173130662Y-105821847D01*
X172943153Y-105634338D01*
X172722665Y-105487013D01*
X172536740Y-105410000D01*
X172722665Y-105332987D01*
X172943153Y-105185662D01*
X173130662Y-104998153D01*
X173277987Y-104777665D01*
X173379467Y-104532672D01*
X173431200Y-104272589D01*
X173431200Y-104007411D01*
X173379467Y-103747328D01*
X173277987Y-103502335D01*
X173130662Y-103281847D01*
X172943153Y-103094338D01*
X172722665Y-102947013D01*
X172536740Y-102870000D01*
X172722665Y-102792987D01*
X172943153Y-102645662D01*
X173130662Y-102458153D01*
X173277987Y-102237665D01*
X173379467Y-101992672D01*
X173431200Y-101732589D01*
X173431200Y-101467411D01*
X173379467Y-101207328D01*
X173277987Y-100962335D01*
X173130662Y-100741847D01*
X172943153Y-100554338D01*
X172722665Y-100407013D01*
X172536740Y-100330000D01*
X172722665Y-100252987D01*
X172943153Y-100105662D01*
X173130662Y-99918153D01*
X173277987Y-99697665D01*
X173379467Y-99452672D01*
X173431200Y-99192589D01*
X173431200Y-98927411D01*
X173379467Y-98667328D01*
X173277987Y-98422335D01*
X173130662Y-98201847D01*
X172943153Y-98014338D01*
X172722665Y-97867013D01*
X172536740Y-97790000D01*
X172722665Y-97712987D01*
X172943153Y-97565662D01*
X173130662Y-97378153D01*
X173277987Y-97157665D01*
X173379467Y-96912672D01*
X173431200Y-96652589D01*
X173431200Y-96387411D01*
X173379467Y-96127328D01*
X173277987Y-95882335D01*
X173130662Y-95661847D01*
X172943153Y-95474338D01*
X172722665Y-95327013D01*
X172477672Y-95225533D01*
X172217589Y-95173800D01*
X171966001Y-95173800D01*
X172596003Y-94543799D01*
X172625001Y-94520001D01*
X172719974Y-94404276D01*
X172790546Y-94272247D01*
X172834003Y-94128986D01*
X172845000Y-94017333D01*
X172845000Y-94017324D01*
X172848676Y-93980001D01*
X172845000Y-93942678D01*
X172845000Y-87213072D01*
X174205000Y-87213072D01*
X174329482Y-87200812D01*
X174449180Y-87164502D01*
X174559494Y-87105537D01*
X174656185Y-87026185D01*
X174735537Y-86929494D01*
X174794502Y-86819180D01*
X174830812Y-86699482D01*
X174843072Y-86575000D01*
X174843072Y-84875000D01*
X174830812Y-84750518D01*
X174794502Y-84630820D01*
X174735537Y-84520506D01*
X174656185Y-84423815D01*
X174559494Y-84344463D01*
X174449180Y-84285498D01*
X174376620Y-84263487D01*
X174508475Y-84131632D01*
X174670990Y-83888411D01*
X174782932Y-83618158D01*
X174840000Y-83331260D01*
X174840000Y-83038740D01*
X174782932Y-82751842D01*
X174670990Y-82481589D01*
X174508475Y-82238368D01*
X174301632Y-82031525D01*
X174127240Y-81915000D01*
X174301632Y-81798475D01*
X174508475Y-81591632D01*
X174670990Y-81348411D01*
X174782932Y-81078158D01*
X174840000Y-80791260D01*
X174840000Y-80498740D01*
X174782932Y-80211842D01*
X174670990Y-79941589D01*
X174508475Y-79698368D01*
X174301632Y-79491525D01*
X174127240Y-79375000D01*
X174301632Y-79258475D01*
X174508475Y-79051632D01*
X174670990Y-78808411D01*
X174782932Y-78538158D01*
X174840000Y-78251260D01*
X174840000Y-77958740D01*
X174782932Y-77671842D01*
X174670990Y-77401589D01*
X174508475Y-77158368D01*
X174301632Y-76951525D01*
X174127240Y-76835000D01*
X174301632Y-76718475D01*
X174508475Y-76511632D01*
X174670990Y-76268411D01*
X174782932Y-75998158D01*
X174840000Y-75711260D01*
X174840000Y-75418740D01*
X174782932Y-75131842D01*
X174670990Y-74861589D01*
X174508475Y-74618368D01*
X174301632Y-74411525D01*
X174127240Y-74295000D01*
X174301632Y-74178475D01*
X174508475Y-73971632D01*
X174670990Y-73728411D01*
X174782932Y-73458158D01*
X174840000Y-73171260D01*
X174840000Y-72878740D01*
X174782932Y-72591842D01*
X174670990Y-72321589D01*
X174508475Y-72078368D01*
X174301632Y-71871525D01*
X174127240Y-71755000D01*
X174301632Y-71638475D01*
X174508475Y-71431632D01*
X174670990Y-71188411D01*
X174782932Y-70918158D01*
X174840000Y-70631260D01*
X174840000Y-70338740D01*
X174782932Y-70051842D01*
X174670990Y-69781589D01*
X174508475Y-69538368D01*
X174301632Y-69331525D01*
X174127240Y-69215000D01*
X174301632Y-69098475D01*
X174508475Y-68891632D01*
X174670990Y-68648411D01*
X174782932Y-68378158D01*
X174840000Y-68091260D01*
X174840000Y-67798740D01*
X174782932Y-67511842D01*
X174670990Y-67241589D01*
X174508475Y-66998368D01*
X174301632Y-66791525D01*
X174058411Y-66629010D01*
X173788158Y-66517068D01*
X173501260Y-66460000D01*
X173208740Y-66460000D01*
X172921842Y-66517068D01*
X172651589Y-66629010D01*
X172408368Y-66791525D01*
X172201525Y-66998368D01*
X172085000Y-67172760D01*
X171968475Y-66998368D01*
X171761632Y-66791525D01*
X171518411Y-66629010D01*
X171248158Y-66517068D01*
X170961260Y-66460000D01*
X170668740Y-66460000D01*
X170381842Y-66517068D01*
X170111589Y-66629010D01*
X169868368Y-66791525D01*
X169661525Y-66998368D01*
X169499010Y-67241589D01*
X169387068Y-67511842D01*
X169330000Y-67798740D01*
X169330000Y-68091260D01*
X169387068Y-68378158D01*
X169499010Y-68648411D01*
X169661525Y-68891632D01*
X169868368Y-69098475D01*
X170042760Y-69215000D01*
X169868368Y-69331525D01*
X169661525Y-69538368D01*
X169499010Y-69781589D01*
X169387068Y-70051842D01*
X169330000Y-70338740D01*
X169330000Y-70631260D01*
X169387068Y-70918158D01*
X169499010Y-71188411D01*
X169661525Y-71431632D01*
X169868368Y-71638475D01*
X170050534Y-71760195D01*
X169933645Y-71829822D01*
X169717412Y-72024731D01*
X169543359Y-72258080D01*
X169418175Y-72520901D01*
X169373524Y-72668110D01*
X169494845Y-72898000D01*
X170688000Y-72898000D01*
X170688000Y-72878000D01*
X170942000Y-72878000D01*
X170942000Y-72898000D01*
X170962000Y-72898000D01*
X170962000Y-73152000D01*
X170942000Y-73152000D01*
X170942000Y-73172000D01*
X170688000Y-73172000D01*
X170688000Y-73152000D01*
X169494845Y-73152000D01*
X169373524Y-73381890D01*
X169418175Y-73529099D01*
X169543359Y-73791920D01*
X169571094Y-73829104D01*
X169033998Y-74366201D01*
X169005000Y-74389999D01*
X168981202Y-74418997D01*
X168981201Y-74418998D01*
X168910026Y-74505724D01*
X168839454Y-74637754D01*
X168814726Y-74719276D01*
X168795998Y-74781014D01*
X168792552Y-74815998D01*
X168781324Y-74930000D01*
X168785001Y-74967332D01*
X168785000Y-75885197D01*
X164212934Y-80457265D01*
X164190226Y-80343102D01*
X164112205Y-80154744D01*
X163998937Y-79985226D01*
X163854774Y-79841063D01*
X163685256Y-79727795D01*
X163496898Y-79649774D01*
X163296939Y-79610000D01*
X163206165Y-79610000D01*
X163102247Y-79554454D01*
X162958986Y-79510997D01*
X162847333Y-79500000D01*
X162847322Y-79500000D01*
X162810000Y-79496324D01*
X162772678Y-79500000D01*
X162591518Y-79500000D01*
X162599371Y-79474113D01*
X162613072Y-79335000D01*
X162613072Y-79185000D01*
X162599371Y-79045887D01*
X162598814Y-79044051D01*
X162598868Y-79043883D01*
X162610000Y-78941750D01*
X162534018Y-78865768D01*
X162492898Y-78788838D01*
X162469231Y-78760000D01*
X162492898Y-78731162D01*
X162534018Y-78654232D01*
X162610000Y-78578250D01*
X162598868Y-78476117D01*
X162598814Y-78475949D01*
X162599371Y-78474113D01*
X162613072Y-78335000D01*
X162613072Y-78185000D01*
X162599371Y-78045887D01*
X162588485Y-78010000D01*
X162599371Y-77974113D01*
X162613072Y-77835000D01*
X162613072Y-77685000D01*
X162599371Y-77545887D01*
X162588485Y-77510000D01*
X162599371Y-77474113D01*
X162613072Y-77335000D01*
X162613072Y-77185000D01*
X162599371Y-77045887D01*
X162588485Y-77010000D01*
X162599371Y-76974113D01*
X162613072Y-76835000D01*
X162613072Y-76685000D01*
X162599371Y-76545887D01*
X162588485Y-76510000D01*
X162599371Y-76474113D01*
X162613072Y-76335000D01*
X162613072Y-76185000D01*
X162599371Y-76045887D01*
X162558793Y-75912119D01*
X162492898Y-75788838D01*
X162404218Y-75680782D01*
X162296162Y-75592102D01*
X162172881Y-75526207D01*
X162039113Y-75485629D01*
X161900000Y-75471928D01*
X160575000Y-75471928D01*
X160435887Y-75485629D01*
X160302119Y-75526207D01*
X160178838Y-75592102D01*
X160070782Y-75680782D01*
X159982102Y-75788838D01*
X159916207Y-75912119D01*
X159875629Y-76045887D01*
X159861928Y-76185000D01*
X159861928Y-76335000D01*
X159875629Y-76474113D01*
X159886515Y-76510000D01*
X159875629Y-76545887D01*
X159861928Y-76685000D01*
X159861928Y-76835000D01*
X159875629Y-76974113D01*
X159886515Y-77010000D01*
X159875629Y-77045887D01*
X159861928Y-77185000D01*
X159861928Y-77335000D01*
X159875629Y-77474113D01*
X159883482Y-77500000D01*
X155738711Y-77500000D01*
X155743937Y-77494774D01*
X155857205Y-77325256D01*
X155935226Y-77136898D01*
X155975000Y-76936939D01*
X155975000Y-76733061D01*
X155935226Y-76533102D01*
X155857205Y-76344744D01*
X155743937Y-76175226D01*
X155599774Y-76031063D01*
X155430256Y-75917795D01*
X155241898Y-75839774D01*
X155041939Y-75800000D01*
X154979802Y-75800000D01*
X154902616Y-75722814D01*
X155039113Y-75709371D01*
X155075000Y-75698485D01*
X155110887Y-75709371D01*
X155250000Y-75723072D01*
X155400000Y-75723072D01*
X155539113Y-75709371D01*
X155540949Y-75708814D01*
X155541117Y-75708868D01*
X155643250Y-75720000D01*
X155719232Y-75644018D01*
X155796162Y-75602898D01*
X155825000Y-75579231D01*
X155853838Y-75602898D01*
X155930768Y-75644018D01*
X156006750Y-75720000D01*
X156108883Y-75708868D01*
X156109051Y-75708814D01*
X156110887Y-75709371D01*
X156250000Y-75723072D01*
X156400000Y-75723072D01*
X156539113Y-75709371D01*
X156575000Y-75698485D01*
X156610887Y-75709371D01*
X156750000Y-75723072D01*
X156900000Y-75723072D01*
X157039113Y-75709371D01*
X157075000Y-75698485D01*
X157110887Y-75709371D01*
X157250000Y-75723072D01*
X157400000Y-75723072D01*
X157539113Y-75709371D01*
X157575000Y-75698485D01*
X157610887Y-75709371D01*
X157750000Y-75723072D01*
X157900000Y-75723072D01*
X158039113Y-75709371D01*
X158075000Y-75698485D01*
X158110887Y-75709371D01*
X158250000Y-75723072D01*
X158400000Y-75723072D01*
X158539113Y-75709371D01*
X158575000Y-75698485D01*
X158610887Y-75709371D01*
X158750000Y-75723072D01*
X158900000Y-75723072D01*
X159039113Y-75709371D01*
X159075000Y-75698485D01*
X159110887Y-75709371D01*
X159250000Y-75723072D01*
X159400000Y-75723072D01*
X159539113Y-75709371D01*
X159672881Y-75668793D01*
X159796162Y-75602898D01*
X159904218Y-75514218D01*
X159992898Y-75406162D01*
X160058793Y-75282881D01*
X160099371Y-75149113D01*
X160113072Y-75010000D01*
X160113072Y-73685000D01*
X160099371Y-73545887D01*
X160058793Y-73412119D01*
X159992898Y-73288838D01*
X159904218Y-73180782D01*
X159796162Y-73092102D01*
X159672881Y-73026207D01*
X159539113Y-72985629D01*
X159400000Y-72971928D01*
X159250000Y-72971928D01*
X159110887Y-72985629D01*
X159075000Y-72996515D01*
X159039113Y-72985629D01*
X158900000Y-72971928D01*
X158750000Y-72971928D01*
X158610887Y-72985629D01*
X158575000Y-72996515D01*
X158539113Y-72985629D01*
X158400000Y-72971928D01*
X158250000Y-72971928D01*
X158110887Y-72985629D01*
X158075000Y-72996515D01*
X158039113Y-72985629D01*
X157900000Y-72971928D01*
X157750000Y-72971928D01*
X157610887Y-72985629D01*
X157575000Y-72996515D01*
X157539113Y-72985629D01*
X157400000Y-72971928D01*
X157250000Y-72971928D01*
X157110887Y-72985629D01*
X157075000Y-72996515D01*
X157039113Y-72985629D01*
X156900000Y-72971928D01*
X156750000Y-72971928D01*
X156610887Y-72985629D01*
X156575000Y-72996515D01*
X156539113Y-72985629D01*
X156400000Y-72971928D01*
X156250000Y-72971928D01*
X156110887Y-72985629D01*
X156109051Y-72986186D01*
X156108883Y-72986132D01*
X156006750Y-72975000D01*
X155930768Y-73050982D01*
X155853838Y-73092102D01*
X155825000Y-73115769D01*
X155796162Y-73092102D01*
X155719232Y-73050982D01*
X155643250Y-72975000D01*
X155541117Y-72986132D01*
X155540949Y-72986186D01*
X155539113Y-72985629D01*
X155400000Y-72971928D01*
X155250000Y-72971928D01*
X155110887Y-72985629D01*
X155075000Y-72996515D01*
X155039113Y-72985629D01*
X154900000Y-72971928D01*
X154750000Y-72971928D01*
X154610887Y-72985629D01*
X154575000Y-72996515D01*
X154539113Y-72985629D01*
X154400000Y-72971928D01*
X154250000Y-72971928D01*
X154110887Y-72985629D01*
X154075000Y-72996515D01*
X154039113Y-72985629D01*
X153900000Y-72971928D01*
X153750000Y-72971928D01*
X153610887Y-72985629D01*
X153575000Y-72996515D01*
X153539113Y-72985629D01*
X153400000Y-72971928D01*
X153250000Y-72971928D01*
X153110887Y-72985629D01*
X153085000Y-72993482D01*
X153085000Y-72985913D01*
X153088676Y-72948590D01*
X153085000Y-72911267D01*
X153085000Y-72911257D01*
X153074003Y-72799604D01*
X153030546Y-72656343D01*
X152959974Y-72524314D01*
X152865001Y-72408589D01*
X152836003Y-72384791D01*
X148753103Y-68301891D01*
X152228519Y-68301891D01*
X152325843Y-68576252D01*
X152474822Y-68826355D01*
X152669731Y-69042588D01*
X152903080Y-69216641D01*
X153165901Y-69341825D01*
X153313110Y-69386476D01*
X153543000Y-69265155D01*
X153543000Y-68072000D01*
X152349186Y-68072000D01*
X152228519Y-68301891D01*
X148753103Y-68301891D01*
X148150148Y-67698937D01*
X148128103Y-67588109D01*
X152228519Y-67588109D01*
X152349186Y-67818000D01*
X153543000Y-67818000D01*
X153543000Y-66624845D01*
X153797000Y-66624845D01*
X153797000Y-67818000D01*
X153817000Y-67818000D01*
X153817000Y-68072000D01*
X153797000Y-68072000D01*
X153797000Y-69265155D01*
X154026890Y-69386476D01*
X154174099Y-69341825D01*
X154436920Y-69216641D01*
X154670269Y-69042588D01*
X154865178Y-68826355D01*
X154934805Y-68709466D01*
X155056525Y-68891632D01*
X155263368Y-69098475D01*
X155506589Y-69260990D01*
X155776842Y-69372932D01*
X156063740Y-69430000D01*
X156356260Y-69430000D01*
X156643158Y-69372932D01*
X156913411Y-69260990D01*
X157156632Y-69098475D01*
X157363475Y-68891632D01*
X157480000Y-68717240D01*
X157596525Y-68891632D01*
X157803368Y-69098475D01*
X158046589Y-69260990D01*
X158316842Y-69372932D01*
X158603740Y-69430000D01*
X158896260Y-69430000D01*
X159183158Y-69372932D01*
X159453411Y-69260990D01*
X159696632Y-69098475D01*
X159828487Y-68966620D01*
X159850498Y-69039180D01*
X159909463Y-69149494D01*
X159988815Y-69246185D01*
X160085506Y-69325537D01*
X160195820Y-69384502D01*
X160315518Y-69420812D01*
X160440000Y-69433072D01*
X162140000Y-69433072D01*
X162264482Y-69420812D01*
X162384180Y-69384502D01*
X162494494Y-69325537D01*
X162591185Y-69246185D01*
X162670537Y-69149494D01*
X162729502Y-69039180D01*
X162765812Y-68919482D01*
X162778072Y-68795000D01*
X162778072Y-67095000D01*
X162765812Y-66970518D01*
X162729502Y-66850820D01*
X162670537Y-66740506D01*
X162591185Y-66643815D01*
X162494494Y-66564463D01*
X162384180Y-66505498D01*
X162264482Y-66469188D01*
X162140000Y-66456928D01*
X160440000Y-66456928D01*
X160315518Y-66469188D01*
X160195820Y-66505498D01*
X160085506Y-66564463D01*
X159988815Y-66643815D01*
X159909463Y-66740506D01*
X159850498Y-66850820D01*
X159828487Y-66923380D01*
X159696632Y-66791525D01*
X159453411Y-66629010D01*
X159183158Y-66517068D01*
X158896260Y-66460000D01*
X158603740Y-66460000D01*
X158316842Y-66517068D01*
X158046589Y-66629010D01*
X157803368Y-66791525D01*
X157596525Y-66998368D01*
X157480000Y-67172760D01*
X157363475Y-66998368D01*
X157156632Y-66791525D01*
X156913411Y-66629010D01*
X156643158Y-66517068D01*
X156356260Y-66460000D01*
X156063740Y-66460000D01*
X155776842Y-66517068D01*
X155506589Y-66629010D01*
X155263368Y-66791525D01*
X155056525Y-66998368D01*
X154934805Y-67180534D01*
X154865178Y-67063645D01*
X154670269Y-66847412D01*
X154436920Y-66673359D01*
X154174099Y-66548175D01*
X154026890Y-66503524D01*
X153797000Y-66624845D01*
X153543000Y-66624845D01*
X153313110Y-66503524D01*
X153165901Y-66548175D01*
X152903080Y-66673359D01*
X152669731Y-66847412D01*
X152474822Y-67063645D01*
X152325843Y-67313748D01*
X152228519Y-67588109D01*
X148128103Y-67588109D01*
X148112932Y-67511842D01*
X148000990Y-67241589D01*
X147838475Y-66998368D01*
X147631632Y-66791525D01*
X147388411Y-66629010D01*
X147118158Y-66517068D01*
X146831260Y-66460000D01*
X146538740Y-66460000D01*
X146251842Y-66517068D01*
X145981589Y-66629010D01*
X145738368Y-66791525D01*
X145531525Y-66998368D01*
X145413900Y-67174406D01*
X145242588Y-66944731D01*
X145026355Y-66749822D01*
X144776252Y-66600843D01*
X144501891Y-66503519D01*
X144272000Y-66624186D01*
X144272000Y-67818000D01*
X144292000Y-67818000D01*
X144292000Y-68072000D01*
X144272000Y-68072000D01*
X144272000Y-70358000D01*
X144292000Y-70358000D01*
X144292000Y-70612000D01*
X144272000Y-70612000D01*
X144272000Y-72898000D01*
X144292000Y-72898000D01*
X144292000Y-73152000D01*
X144272000Y-73152000D01*
X144272000Y-74345814D01*
X144501891Y-74466481D01*
X144776252Y-74369157D01*
X145026355Y-74220178D01*
X145222502Y-74043374D01*
X145245498Y-74119180D01*
X145304463Y-74229494D01*
X145383815Y-74326185D01*
X145480506Y-74405537D01*
X145590820Y-74464502D01*
X145710518Y-74500812D01*
X145835000Y-74513072D01*
X147535000Y-74513072D01*
X147659482Y-74500812D01*
X147779180Y-74464502D01*
X147889494Y-74405537D01*
X147986185Y-74326185D01*
X148065537Y-74229494D01*
X148124502Y-74119180D01*
X148160812Y-73999482D01*
X148173072Y-73875000D01*
X148173072Y-73785000D01*
X148275199Y-73785000D01*
X149962126Y-75471928D01*
X149250000Y-75471928D01*
X149110887Y-75485629D01*
X148977119Y-75526207D01*
X148853838Y-75592102D01*
X148745782Y-75680782D01*
X148657102Y-75788838D01*
X148591207Y-75912119D01*
X148550629Y-76045887D01*
X148536928Y-76185000D01*
X148536928Y-76335000D01*
X148550629Y-76474113D01*
X148558482Y-76500000D01*
X145960627Y-76500000D01*
X145784630Y-76324003D01*
X145760827Y-76294999D01*
X145645102Y-76200026D01*
X145513073Y-76129454D01*
X145369812Y-76085997D01*
X145258159Y-76075000D01*
X145258148Y-76075000D01*
X145220826Y-76071324D01*
X145183504Y-76075000D01*
X144848711Y-76075000D01*
X144804774Y-76031063D01*
X144635256Y-75917795D01*
X144446898Y-75839774D01*
X144246939Y-75800000D01*
X144043061Y-75800000D01*
X143843102Y-75839774D01*
X143654744Y-75917795D01*
X143485226Y-76031063D01*
X143341063Y-76175226D01*
X143227795Y-76344744D01*
X143149774Y-76533102D01*
X143127066Y-76647264D01*
X139871209Y-73391408D01*
X139873102Y-73381890D01*
X142703524Y-73381890D01*
X142748175Y-73529099D01*
X142873359Y-73791920D01*
X143047412Y-74025269D01*
X143263645Y-74220178D01*
X143513748Y-74369157D01*
X143788109Y-74466481D01*
X144018000Y-74345814D01*
X144018000Y-73152000D01*
X142824845Y-73152000D01*
X142703524Y-73381890D01*
X139873102Y-73381890D01*
X139915000Y-73171260D01*
X139915000Y-72878740D01*
X139857932Y-72591842D01*
X139745990Y-72321589D01*
X139583475Y-72078368D01*
X139376632Y-71871525D01*
X139133411Y-71709010D01*
X138863158Y-71597068D01*
X138576260Y-71540000D01*
X138283740Y-71540000D01*
X137996842Y-71597068D01*
X137726589Y-71709010D01*
X137483368Y-71871525D01*
X137276525Y-72078368D01*
X137114010Y-72321589D01*
X137002068Y-72591842D01*
X136945000Y-72878740D01*
X136945000Y-73171260D01*
X137002068Y-73458158D01*
X137114010Y-73728411D01*
X137276525Y-73971632D01*
X137483368Y-74178475D01*
X137657760Y-74295000D01*
X137483368Y-74411525D01*
X137276525Y-74618368D01*
X137114010Y-74861589D01*
X137002068Y-75131842D01*
X136945000Y-75418740D01*
X136945000Y-75711260D01*
X137002068Y-75998158D01*
X137114010Y-76268411D01*
X137276525Y-76511632D01*
X137483368Y-76718475D01*
X137657760Y-76835000D01*
X137483368Y-76951525D01*
X137276525Y-77158368D01*
X137114010Y-77401589D01*
X137002068Y-77671842D01*
X136945000Y-77958740D01*
X136945000Y-78251260D01*
X137002068Y-78538158D01*
X137114010Y-78808411D01*
X137276525Y-79051632D01*
X137483368Y-79258475D01*
X137657760Y-79375000D01*
X137483368Y-79491525D01*
X137276525Y-79698368D01*
X137114010Y-79941589D01*
X137002068Y-80211842D01*
X136945000Y-80498740D01*
X136945000Y-80791260D01*
X137002068Y-81078158D01*
X137114010Y-81348411D01*
X137276525Y-81591632D01*
X137483368Y-81798475D01*
X137665534Y-81920195D01*
X137548645Y-81989822D01*
X137332412Y-82184731D01*
X137158359Y-82418080D01*
X137033175Y-82680901D01*
X136988524Y-82828110D01*
X137109845Y-83058000D01*
X138303000Y-83058000D01*
X138303000Y-83038000D01*
X138557000Y-83038000D01*
X138557000Y-83058000D01*
X138577000Y-83058000D01*
X138577000Y-83312000D01*
X138557000Y-83312000D01*
X138557000Y-83332000D01*
X138303000Y-83332000D01*
X138303000Y-83312000D01*
X137109845Y-83312000D01*
X136988524Y-83541890D01*
X137033175Y-83689099D01*
X137158359Y-83951920D01*
X137332412Y-84185269D01*
X137416466Y-84261034D01*
X137335820Y-84285498D01*
X137225506Y-84344463D01*
X137128815Y-84423815D01*
X137049463Y-84520506D01*
X136990498Y-84630820D01*
X136954188Y-84750518D01*
X136941928Y-84875000D01*
X135915000Y-84875000D01*
X135915000Y-70841890D01*
X142703524Y-70841890D01*
X142748175Y-70989099D01*
X142873359Y-71251920D01*
X143047412Y-71485269D01*
X143263645Y-71680178D01*
X143389255Y-71755000D01*
X143263645Y-71829822D01*
X143047412Y-72024731D01*
X142873359Y-72258080D01*
X142748175Y-72520901D01*
X142703524Y-72668110D01*
X142824845Y-72898000D01*
X144018000Y-72898000D01*
X144018000Y-70612000D01*
X142824845Y-70612000D01*
X142703524Y-70841890D01*
X135915000Y-70841890D01*
X135915000Y-68301890D01*
X142703524Y-68301890D01*
X142748175Y-68449099D01*
X142873359Y-68711920D01*
X143047412Y-68945269D01*
X143263645Y-69140178D01*
X143389255Y-69215000D01*
X143263645Y-69289822D01*
X143047412Y-69484731D01*
X142873359Y-69718080D01*
X142748175Y-69980901D01*
X142703524Y-70128110D01*
X142824845Y-70358000D01*
X144018000Y-70358000D01*
X144018000Y-68072000D01*
X142824845Y-68072000D01*
X142703524Y-68301890D01*
X135915000Y-68301890D01*
X135915000Y-67588110D01*
X142703524Y-67588110D01*
X142824845Y-67818000D01*
X144018000Y-67818000D01*
X144018000Y-66624186D01*
X143788109Y-66503519D01*
X143513748Y-66600843D01*
X143263645Y-66749822D01*
X143047412Y-66944731D01*
X142873359Y-67178080D01*
X142748175Y-67440901D01*
X142703524Y-67588110D01*
X135915000Y-67588110D01*
X135915000Y-64795000D01*
X175870000Y-64795000D01*
X175870001Y-113005000D01*
%TA.AperFunction,Conductor*%
D17*
G36*
X175870001Y-113005000D02*
G01*
X135915000Y-113005000D01*
X135915000Y-84875000D01*
X136941928Y-84875000D01*
X136941928Y-86575000D01*
X136954188Y-86699482D01*
X136990498Y-86819180D01*
X137049463Y-86929494D01*
X137128815Y-87026185D01*
X137225506Y-87105537D01*
X137335820Y-87164502D01*
X137455518Y-87200812D01*
X137580000Y-87213072D01*
X139280000Y-87213072D01*
X139404482Y-87200812D01*
X139524180Y-87164502D01*
X139634494Y-87105537D01*
X139731185Y-87026185D01*
X139810537Y-86929494D01*
X139869502Y-86819180D01*
X139905812Y-86699482D01*
X139918072Y-86575000D01*
X139918072Y-85311729D01*
X145209802Y-80020000D01*
X146235198Y-80020000D01*
X141729003Y-84526196D01*
X141699999Y-84549999D01*
X141668379Y-84588529D01*
X141605026Y-84665724D01*
X141540406Y-84786618D01*
X141534454Y-84797754D01*
X141490997Y-84941015D01*
X141480000Y-85052668D01*
X141480000Y-85052678D01*
X141476324Y-85090000D01*
X141480000Y-85127322D01*
X141480001Y-92141196D01*
X139189003Y-94432196D01*
X139159999Y-94455999D01*
X139107474Y-94520001D01*
X139065026Y-94571724D01*
X139002348Y-94688985D01*
X138994454Y-94703754D01*
X138950997Y-94847015D01*
X138940000Y-94958668D01*
X138940000Y-94958678D01*
X138936324Y-94996000D01*
X138940000Y-95033323D01*
X138940000Y-95408754D01*
X138841847Y-95474338D01*
X138654338Y-95661847D01*
X138507013Y-95882335D01*
X138405533Y-96127328D01*
X138353800Y-96387411D01*
X138353800Y-96652589D01*
X138405533Y-96912672D01*
X138507013Y-97157665D01*
X138654338Y-97378153D01*
X138841847Y-97565662D01*
X139062335Y-97712987D01*
X139248260Y-97790000D01*
X139062335Y-97867013D01*
X138841847Y-98014338D01*
X138654338Y-98201847D01*
X138507013Y-98422335D01*
X138405533Y-98667328D01*
X138353800Y-98927411D01*
X138353800Y-99192589D01*
X138405533Y-99452672D01*
X138507013Y-99697665D01*
X138654338Y-99918153D01*
X138841847Y-100105662D01*
X139062335Y-100252987D01*
X139248260Y-100330000D01*
X139062335Y-100407013D01*
X138841847Y-100554338D01*
X138654338Y-100741847D01*
X138507013Y-100962335D01*
X138405533Y-101207328D01*
X138353800Y-101467411D01*
X138353800Y-101732589D01*
X138405533Y-101992672D01*
X138507013Y-102237665D01*
X138654338Y-102458153D01*
X138841847Y-102645662D01*
X139062335Y-102792987D01*
X139248260Y-102870000D01*
X139062335Y-102947013D01*
X138841847Y-103094338D01*
X138654338Y-103281847D01*
X138507013Y-103502335D01*
X138405533Y-103747328D01*
X138353800Y-104007411D01*
X138353800Y-104272589D01*
X138405533Y-104532672D01*
X138507013Y-104777665D01*
X138654338Y-104998153D01*
X138841847Y-105185662D01*
X139062335Y-105332987D01*
X139248260Y-105410000D01*
X139062335Y-105487013D01*
X138841847Y-105634338D01*
X138654338Y-105821847D01*
X138507013Y-106042335D01*
X138405533Y-106287328D01*
X138353800Y-106547411D01*
X138353800Y-106812589D01*
X138405533Y-107072672D01*
X138507013Y-107317665D01*
X138654338Y-107538153D01*
X138841847Y-107725662D01*
X139062335Y-107872987D01*
X139307328Y-107974467D01*
X139567411Y-108026200D01*
X139832589Y-108026200D01*
X140092672Y-107974467D01*
X140337665Y-107872987D01*
X140558153Y-107725662D01*
X140745662Y-107538153D01*
X140892987Y-107317665D01*
X140970000Y-107131740D01*
X141047013Y-107317665D01*
X141194338Y-107538153D01*
X141381847Y-107725662D01*
X141602335Y-107872987D01*
X141788260Y-107950000D01*
X141602335Y-108027013D01*
X141381847Y-108174338D01*
X141194338Y-108361847D01*
X141047013Y-108582335D01*
X140945533Y-108827328D01*
X140893800Y-109087411D01*
X140893800Y-109352589D01*
X140945533Y-109612672D01*
X141047013Y-109857665D01*
X141194338Y-110078153D01*
X141381847Y-110265662D01*
X141602335Y-110412987D01*
X141847328Y-110514467D01*
X142107411Y-110566200D01*
X142372589Y-110566200D01*
X142632672Y-110514467D01*
X142877665Y-110412987D01*
X143098153Y-110265662D01*
X143285662Y-110078153D01*
X143432987Y-109857665D01*
X143510000Y-109671740D01*
X143587013Y-109857665D01*
X143734338Y-110078153D01*
X143921847Y-110265662D01*
X144142335Y-110412987D01*
X144387328Y-110514467D01*
X144647411Y-110566200D01*
X144912589Y-110566200D01*
X145172672Y-110514467D01*
X145417665Y-110412987D01*
X145638153Y-110265662D01*
X145825662Y-110078153D01*
X145972987Y-109857665D01*
X146050000Y-109671740D01*
X146127013Y-109857665D01*
X146274338Y-110078153D01*
X146461847Y-110265662D01*
X146682335Y-110412987D01*
X146927328Y-110514467D01*
X147187411Y-110566200D01*
X147452589Y-110566200D01*
X147712672Y-110514467D01*
X147957665Y-110412987D01*
X148178153Y-110265662D01*
X148365662Y-110078153D01*
X148512987Y-109857665D01*
X148590000Y-109671740D01*
X148667013Y-109857665D01*
X148814338Y-110078153D01*
X149001847Y-110265662D01*
X149222335Y-110412987D01*
X149467328Y-110514467D01*
X149727411Y-110566200D01*
X149992589Y-110566200D01*
X150252672Y-110514467D01*
X150497665Y-110412987D01*
X150718153Y-110265662D01*
X150905662Y-110078153D01*
X151052987Y-109857665D01*
X151154467Y-109612672D01*
X151206200Y-109352589D01*
X151206200Y-109087411D01*
X151154467Y-108827328D01*
X151052987Y-108582335D01*
X150905662Y-108361847D01*
X150718153Y-108174338D01*
X150497665Y-108027013D01*
X150311740Y-107950000D01*
X150497665Y-107872987D01*
X150718153Y-107725662D01*
X150905662Y-107538153D01*
X151052987Y-107317665D01*
X151130000Y-107131740D01*
X151207013Y-107317665D01*
X151354338Y-107538153D01*
X151541847Y-107725662D01*
X151762335Y-107872987D01*
X152007328Y-107974467D01*
X152267411Y-108026200D01*
X152532589Y-108026200D01*
X152792672Y-107974467D01*
X153037665Y-107872987D01*
X153258153Y-107725662D01*
X153445662Y-107538153D01*
X153592987Y-107317665D01*
X153694467Y-107072672D01*
X153746200Y-106812589D01*
X153746200Y-106547411D01*
X153694467Y-106287328D01*
X153645868Y-106170000D01*
X158139132Y-106170000D01*
X158090533Y-106287328D01*
X158038800Y-106547411D01*
X158038800Y-106812589D01*
X158090533Y-107072672D01*
X158192013Y-107317665D01*
X158339338Y-107538153D01*
X158526847Y-107725662D01*
X158747335Y-107872987D01*
X158992328Y-107974467D01*
X159252411Y-108026200D01*
X159517589Y-108026200D01*
X159777672Y-107974467D01*
X160022665Y-107872987D01*
X160243153Y-107725662D01*
X160430662Y-107538153D01*
X160577987Y-107317665D01*
X160655000Y-107131740D01*
X160732013Y-107317665D01*
X160879338Y-107538153D01*
X161066847Y-107725662D01*
X161287335Y-107872987D01*
X161473260Y-107950000D01*
X161287335Y-108027013D01*
X161066847Y-108174338D01*
X160879338Y-108361847D01*
X160732013Y-108582335D01*
X160630533Y-108827328D01*
X160578800Y-109087411D01*
X160578800Y-109352589D01*
X160630533Y-109612672D01*
X160732013Y-109857665D01*
X160879338Y-110078153D01*
X161066847Y-110265662D01*
X161287335Y-110412987D01*
X161532328Y-110514467D01*
X161792411Y-110566200D01*
X162057589Y-110566200D01*
X162317672Y-110514467D01*
X162562665Y-110412987D01*
X162783153Y-110265662D01*
X162970662Y-110078153D01*
X163117987Y-109857665D01*
X163195000Y-109671740D01*
X163272013Y-109857665D01*
X163419338Y-110078153D01*
X163606847Y-110265662D01*
X163827335Y-110412987D01*
X164072328Y-110514467D01*
X164332411Y-110566200D01*
X164597589Y-110566200D01*
X164857672Y-110514467D01*
X165102665Y-110412987D01*
X165323153Y-110265662D01*
X165510662Y-110078153D01*
X165657987Y-109857665D01*
X165735000Y-109671740D01*
X165812013Y-109857665D01*
X165959338Y-110078153D01*
X166146847Y-110265662D01*
X166367335Y-110412987D01*
X166612328Y-110514467D01*
X166872411Y-110566200D01*
X167137589Y-110566200D01*
X167397672Y-110514467D01*
X167642665Y-110412987D01*
X167863153Y-110265662D01*
X168050662Y-110078153D01*
X168197987Y-109857665D01*
X168275000Y-109671740D01*
X168352013Y-109857665D01*
X168499338Y-110078153D01*
X168686847Y-110265662D01*
X168907335Y-110412987D01*
X169152328Y-110514467D01*
X169412411Y-110566200D01*
X169677589Y-110566200D01*
X169937672Y-110514467D01*
X170182665Y-110412987D01*
X170403153Y-110265662D01*
X170590662Y-110078153D01*
X170737987Y-109857665D01*
X170839467Y-109612672D01*
X170891200Y-109352589D01*
X170891200Y-109087411D01*
X170839467Y-108827328D01*
X170737987Y-108582335D01*
X170590662Y-108361847D01*
X170403153Y-108174338D01*
X170182665Y-108027013D01*
X169996740Y-107950000D01*
X170182665Y-107872987D01*
X170403153Y-107725662D01*
X170590662Y-107538153D01*
X170737987Y-107317665D01*
X170815000Y-107131740D01*
X170892013Y-107317665D01*
X171039338Y-107538153D01*
X171226847Y-107725662D01*
X171447335Y-107872987D01*
X171692328Y-107974467D01*
X171952411Y-108026200D01*
X172217589Y-108026200D01*
X172477672Y-107974467D01*
X172722665Y-107872987D01*
X172943153Y-107725662D01*
X173130662Y-107538153D01*
X173277987Y-107317665D01*
X173379467Y-107072672D01*
X173431200Y-106812589D01*
X173431200Y-106547411D01*
X173379467Y-106287328D01*
X173277987Y-106042335D01*
X173130662Y-105821847D01*
X172943153Y-105634338D01*
X172722665Y-105487013D01*
X172536740Y-105410000D01*
X172722665Y-105332987D01*
X172943153Y-105185662D01*
X173130662Y-104998153D01*
X173277987Y-104777665D01*
X173379467Y-104532672D01*
X173431200Y-104272589D01*
X173431200Y-104007411D01*
X173379467Y-103747328D01*
X173277987Y-103502335D01*
X173130662Y-103281847D01*
X172943153Y-103094338D01*
X172722665Y-102947013D01*
X172536740Y-102870000D01*
X172722665Y-102792987D01*
X172943153Y-102645662D01*
X173130662Y-102458153D01*
X173277987Y-102237665D01*
X173379467Y-101992672D01*
X173431200Y-101732589D01*
X173431200Y-101467411D01*
X173379467Y-101207328D01*
X173277987Y-100962335D01*
X173130662Y-100741847D01*
X172943153Y-100554338D01*
X172722665Y-100407013D01*
X172536740Y-100330000D01*
X172722665Y-100252987D01*
X172943153Y-100105662D01*
X173130662Y-99918153D01*
X173277987Y-99697665D01*
X173379467Y-99452672D01*
X173431200Y-99192589D01*
X173431200Y-98927411D01*
X173379467Y-98667328D01*
X173277987Y-98422335D01*
X173130662Y-98201847D01*
X172943153Y-98014338D01*
X172722665Y-97867013D01*
X172536740Y-97790000D01*
X172722665Y-97712987D01*
X172943153Y-97565662D01*
X173130662Y-97378153D01*
X173277987Y-97157665D01*
X173379467Y-96912672D01*
X173431200Y-96652589D01*
X173431200Y-96387411D01*
X173379467Y-96127328D01*
X173277987Y-95882335D01*
X173130662Y-95661847D01*
X172943153Y-95474338D01*
X172722665Y-95327013D01*
X172477672Y-95225533D01*
X172217589Y-95173800D01*
X171966001Y-95173800D01*
X172596003Y-94543799D01*
X172625001Y-94520001D01*
X172719974Y-94404276D01*
X172790546Y-94272247D01*
X172834003Y-94128986D01*
X172845000Y-94017333D01*
X172845000Y-94017324D01*
X172848676Y-93980001D01*
X172845000Y-93942678D01*
X172845000Y-87213072D01*
X174205000Y-87213072D01*
X174329482Y-87200812D01*
X174449180Y-87164502D01*
X174559494Y-87105537D01*
X174656185Y-87026185D01*
X174735537Y-86929494D01*
X174794502Y-86819180D01*
X174830812Y-86699482D01*
X174843072Y-86575000D01*
X174843072Y-84875000D01*
X174830812Y-84750518D01*
X174794502Y-84630820D01*
X174735537Y-84520506D01*
X174656185Y-84423815D01*
X174559494Y-84344463D01*
X174449180Y-84285498D01*
X174376620Y-84263487D01*
X174508475Y-84131632D01*
X174670990Y-83888411D01*
X174782932Y-83618158D01*
X174840000Y-83331260D01*
X174840000Y-83038740D01*
X174782932Y-82751842D01*
X174670990Y-82481589D01*
X174508475Y-82238368D01*
X174301632Y-82031525D01*
X174127240Y-81915000D01*
X174301632Y-81798475D01*
X174508475Y-81591632D01*
X174670990Y-81348411D01*
X174782932Y-81078158D01*
X174840000Y-80791260D01*
X174840000Y-80498740D01*
X174782932Y-80211842D01*
X174670990Y-79941589D01*
X174508475Y-79698368D01*
X174301632Y-79491525D01*
X174127240Y-79375000D01*
X174301632Y-79258475D01*
X174508475Y-79051632D01*
X174670990Y-78808411D01*
X174782932Y-78538158D01*
X174840000Y-78251260D01*
X174840000Y-77958740D01*
X174782932Y-77671842D01*
X174670990Y-77401589D01*
X174508475Y-77158368D01*
X174301632Y-76951525D01*
X174127240Y-76835000D01*
X174301632Y-76718475D01*
X174508475Y-76511632D01*
X174670990Y-76268411D01*
X174782932Y-75998158D01*
X174840000Y-75711260D01*
X174840000Y-75418740D01*
X174782932Y-75131842D01*
X174670990Y-74861589D01*
X174508475Y-74618368D01*
X174301632Y-74411525D01*
X174127240Y-74295000D01*
X174301632Y-74178475D01*
X174508475Y-73971632D01*
X174670990Y-73728411D01*
X174782932Y-73458158D01*
X174840000Y-73171260D01*
X174840000Y-72878740D01*
X174782932Y-72591842D01*
X174670990Y-72321589D01*
X174508475Y-72078368D01*
X174301632Y-71871525D01*
X174127240Y-71755000D01*
X174301632Y-71638475D01*
X174508475Y-71431632D01*
X174670990Y-71188411D01*
X174782932Y-70918158D01*
X174840000Y-70631260D01*
X174840000Y-70338740D01*
X174782932Y-70051842D01*
X174670990Y-69781589D01*
X174508475Y-69538368D01*
X174301632Y-69331525D01*
X174127240Y-69215000D01*
X174301632Y-69098475D01*
X174508475Y-68891632D01*
X174670990Y-68648411D01*
X174782932Y-68378158D01*
X174840000Y-68091260D01*
X174840000Y-67798740D01*
X174782932Y-67511842D01*
X174670990Y-67241589D01*
X174508475Y-66998368D01*
X174301632Y-66791525D01*
X174058411Y-66629010D01*
X173788158Y-66517068D01*
X173501260Y-66460000D01*
X173208740Y-66460000D01*
X172921842Y-66517068D01*
X172651589Y-66629010D01*
X172408368Y-66791525D01*
X172201525Y-66998368D01*
X172085000Y-67172760D01*
X171968475Y-66998368D01*
X171761632Y-66791525D01*
X171518411Y-66629010D01*
X171248158Y-66517068D01*
X170961260Y-66460000D01*
X170668740Y-66460000D01*
X170381842Y-66517068D01*
X170111589Y-66629010D01*
X169868368Y-66791525D01*
X169661525Y-66998368D01*
X169499010Y-67241589D01*
X169387068Y-67511842D01*
X169330000Y-67798740D01*
X169330000Y-68091260D01*
X169387068Y-68378158D01*
X169499010Y-68648411D01*
X169661525Y-68891632D01*
X169868368Y-69098475D01*
X170042760Y-69215000D01*
X169868368Y-69331525D01*
X169661525Y-69538368D01*
X169499010Y-69781589D01*
X169387068Y-70051842D01*
X169330000Y-70338740D01*
X169330000Y-70631260D01*
X169387068Y-70918158D01*
X169499010Y-71188411D01*
X169661525Y-71431632D01*
X169868368Y-71638475D01*
X170050534Y-71760195D01*
X169933645Y-71829822D01*
X169717412Y-72024731D01*
X169543359Y-72258080D01*
X169418175Y-72520901D01*
X169373524Y-72668110D01*
X169494845Y-72898000D01*
X170688000Y-72898000D01*
X170688000Y-72878000D01*
X170942000Y-72878000D01*
X170942000Y-72898000D01*
X170962000Y-72898000D01*
X170962000Y-73152000D01*
X170942000Y-73152000D01*
X170942000Y-73172000D01*
X170688000Y-73172000D01*
X170688000Y-73152000D01*
X169494845Y-73152000D01*
X169373524Y-73381890D01*
X169418175Y-73529099D01*
X169543359Y-73791920D01*
X169571094Y-73829104D01*
X169033998Y-74366201D01*
X169005000Y-74389999D01*
X168981202Y-74418997D01*
X168981201Y-74418998D01*
X168910026Y-74505724D01*
X168839454Y-74637754D01*
X168814726Y-74719276D01*
X168795998Y-74781014D01*
X168792552Y-74815998D01*
X168781324Y-74930000D01*
X168785001Y-74967332D01*
X168785000Y-75885197D01*
X164212934Y-80457265D01*
X164190226Y-80343102D01*
X164112205Y-80154744D01*
X163998937Y-79985226D01*
X163854774Y-79841063D01*
X163685256Y-79727795D01*
X163496898Y-79649774D01*
X163296939Y-79610000D01*
X163206165Y-79610000D01*
X163102247Y-79554454D01*
X162958986Y-79510997D01*
X162847333Y-79500000D01*
X162847322Y-79500000D01*
X162810000Y-79496324D01*
X162772678Y-79500000D01*
X162591518Y-79500000D01*
X162599371Y-79474113D01*
X162613072Y-79335000D01*
X162613072Y-79185000D01*
X162599371Y-79045887D01*
X162598814Y-79044051D01*
X162598868Y-79043883D01*
X162610000Y-78941750D01*
X162534018Y-78865768D01*
X162492898Y-78788838D01*
X162469231Y-78760000D01*
X162492898Y-78731162D01*
X162534018Y-78654232D01*
X162610000Y-78578250D01*
X162598868Y-78476117D01*
X162598814Y-78475949D01*
X162599371Y-78474113D01*
X162613072Y-78335000D01*
X162613072Y-78185000D01*
X162599371Y-78045887D01*
X162588485Y-78010000D01*
X162599371Y-77974113D01*
X162613072Y-77835000D01*
X162613072Y-77685000D01*
X162599371Y-77545887D01*
X162588485Y-77510000D01*
X162599371Y-77474113D01*
X162613072Y-77335000D01*
X162613072Y-77185000D01*
X162599371Y-77045887D01*
X162588485Y-77010000D01*
X162599371Y-76974113D01*
X162613072Y-76835000D01*
X162613072Y-76685000D01*
X162599371Y-76545887D01*
X162588485Y-76510000D01*
X162599371Y-76474113D01*
X162613072Y-76335000D01*
X162613072Y-76185000D01*
X162599371Y-76045887D01*
X162558793Y-75912119D01*
X162492898Y-75788838D01*
X162404218Y-75680782D01*
X162296162Y-75592102D01*
X162172881Y-75526207D01*
X162039113Y-75485629D01*
X161900000Y-75471928D01*
X160575000Y-75471928D01*
X160435887Y-75485629D01*
X160302119Y-75526207D01*
X160178838Y-75592102D01*
X160070782Y-75680782D01*
X159982102Y-75788838D01*
X159916207Y-75912119D01*
X159875629Y-76045887D01*
X159861928Y-76185000D01*
X159861928Y-76335000D01*
X159875629Y-76474113D01*
X159886515Y-76510000D01*
X159875629Y-76545887D01*
X159861928Y-76685000D01*
X159861928Y-76835000D01*
X159875629Y-76974113D01*
X159886515Y-77010000D01*
X159875629Y-77045887D01*
X159861928Y-77185000D01*
X159861928Y-77335000D01*
X159875629Y-77474113D01*
X159883482Y-77500000D01*
X155738711Y-77500000D01*
X155743937Y-77494774D01*
X155857205Y-77325256D01*
X155935226Y-77136898D01*
X155975000Y-76936939D01*
X155975000Y-76733061D01*
X155935226Y-76533102D01*
X155857205Y-76344744D01*
X155743937Y-76175226D01*
X155599774Y-76031063D01*
X155430256Y-75917795D01*
X155241898Y-75839774D01*
X155041939Y-75800000D01*
X154979802Y-75800000D01*
X154902616Y-75722814D01*
X155039113Y-75709371D01*
X155075000Y-75698485D01*
X155110887Y-75709371D01*
X155250000Y-75723072D01*
X155400000Y-75723072D01*
X155539113Y-75709371D01*
X155540949Y-75708814D01*
X155541117Y-75708868D01*
X155643250Y-75720000D01*
X155719232Y-75644018D01*
X155796162Y-75602898D01*
X155825000Y-75579231D01*
X155853838Y-75602898D01*
X155930768Y-75644018D01*
X156006750Y-75720000D01*
X156108883Y-75708868D01*
X156109051Y-75708814D01*
X156110887Y-75709371D01*
X156250000Y-75723072D01*
X156400000Y-75723072D01*
X156539113Y-75709371D01*
X156575000Y-75698485D01*
X156610887Y-75709371D01*
X156750000Y-75723072D01*
X156900000Y-75723072D01*
X157039113Y-75709371D01*
X157075000Y-75698485D01*
X157110887Y-75709371D01*
X157250000Y-75723072D01*
X157400000Y-75723072D01*
X157539113Y-75709371D01*
X157575000Y-75698485D01*
X157610887Y-75709371D01*
X157750000Y-75723072D01*
X157900000Y-75723072D01*
X158039113Y-75709371D01*
X158075000Y-75698485D01*
X158110887Y-75709371D01*
X158250000Y-75723072D01*
X158400000Y-75723072D01*
X158539113Y-75709371D01*
X158575000Y-75698485D01*
X158610887Y-75709371D01*
X158750000Y-75723072D01*
X158900000Y-75723072D01*
X159039113Y-75709371D01*
X159075000Y-75698485D01*
X159110887Y-75709371D01*
X159250000Y-75723072D01*
X159400000Y-75723072D01*
X159539113Y-75709371D01*
X159672881Y-75668793D01*
X159796162Y-75602898D01*
X159904218Y-75514218D01*
X159992898Y-75406162D01*
X160058793Y-75282881D01*
X160099371Y-75149113D01*
X160113072Y-75010000D01*
X160113072Y-73685000D01*
X160099371Y-73545887D01*
X160058793Y-73412119D01*
X159992898Y-73288838D01*
X159904218Y-73180782D01*
X159796162Y-73092102D01*
X159672881Y-73026207D01*
X159539113Y-72985629D01*
X159400000Y-72971928D01*
X159250000Y-72971928D01*
X159110887Y-72985629D01*
X159075000Y-72996515D01*
X159039113Y-72985629D01*
X158900000Y-72971928D01*
X158750000Y-72971928D01*
X158610887Y-72985629D01*
X158575000Y-72996515D01*
X158539113Y-72985629D01*
X158400000Y-72971928D01*
X158250000Y-72971928D01*
X158110887Y-72985629D01*
X158075000Y-72996515D01*
X158039113Y-72985629D01*
X157900000Y-72971928D01*
X157750000Y-72971928D01*
X157610887Y-72985629D01*
X157575000Y-72996515D01*
X157539113Y-72985629D01*
X157400000Y-72971928D01*
X157250000Y-72971928D01*
X157110887Y-72985629D01*
X157075000Y-72996515D01*
X157039113Y-72985629D01*
X156900000Y-72971928D01*
X156750000Y-72971928D01*
X156610887Y-72985629D01*
X156575000Y-72996515D01*
X156539113Y-72985629D01*
X156400000Y-72971928D01*
X156250000Y-72971928D01*
X156110887Y-72985629D01*
X156109051Y-72986186D01*
X156108883Y-72986132D01*
X156006750Y-72975000D01*
X155930768Y-73050982D01*
X155853838Y-73092102D01*
X155825000Y-73115769D01*
X155796162Y-73092102D01*
X155719232Y-73050982D01*
X155643250Y-72975000D01*
X155541117Y-72986132D01*
X155540949Y-72986186D01*
X155539113Y-72985629D01*
X155400000Y-72971928D01*
X155250000Y-72971928D01*
X155110887Y-72985629D01*
X155075000Y-72996515D01*
X155039113Y-72985629D01*
X154900000Y-72971928D01*
X154750000Y-72971928D01*
X154610887Y-72985629D01*
X154575000Y-72996515D01*
X154539113Y-72985629D01*
X154400000Y-72971928D01*
X154250000Y-72971928D01*
X154110887Y-72985629D01*
X154075000Y-72996515D01*
X154039113Y-72985629D01*
X153900000Y-72971928D01*
X153750000Y-72971928D01*
X153610887Y-72985629D01*
X153575000Y-72996515D01*
X153539113Y-72985629D01*
X153400000Y-72971928D01*
X153250000Y-72971928D01*
X153110887Y-72985629D01*
X153085000Y-72993482D01*
X153085000Y-72985913D01*
X153088676Y-72948590D01*
X153085000Y-72911267D01*
X153085000Y-72911257D01*
X153074003Y-72799604D01*
X153030546Y-72656343D01*
X152959974Y-72524314D01*
X152865001Y-72408589D01*
X152836003Y-72384791D01*
X148753103Y-68301891D01*
X152228519Y-68301891D01*
X152325843Y-68576252D01*
X152474822Y-68826355D01*
X152669731Y-69042588D01*
X152903080Y-69216641D01*
X153165901Y-69341825D01*
X153313110Y-69386476D01*
X153543000Y-69265155D01*
X153543000Y-68072000D01*
X152349186Y-68072000D01*
X152228519Y-68301891D01*
X148753103Y-68301891D01*
X148150148Y-67698937D01*
X148128103Y-67588109D01*
X152228519Y-67588109D01*
X152349186Y-67818000D01*
X153543000Y-67818000D01*
X153543000Y-66624845D01*
X153797000Y-66624845D01*
X153797000Y-67818000D01*
X153817000Y-67818000D01*
X153817000Y-68072000D01*
X153797000Y-68072000D01*
X153797000Y-69265155D01*
X154026890Y-69386476D01*
X154174099Y-69341825D01*
X154436920Y-69216641D01*
X154670269Y-69042588D01*
X154865178Y-68826355D01*
X154934805Y-68709466D01*
X155056525Y-68891632D01*
X155263368Y-69098475D01*
X155506589Y-69260990D01*
X155776842Y-69372932D01*
X156063740Y-69430000D01*
X156356260Y-69430000D01*
X156643158Y-69372932D01*
X156913411Y-69260990D01*
X157156632Y-69098475D01*
X157363475Y-68891632D01*
X157480000Y-68717240D01*
X157596525Y-68891632D01*
X157803368Y-69098475D01*
X158046589Y-69260990D01*
X158316842Y-69372932D01*
X158603740Y-69430000D01*
X158896260Y-69430000D01*
X159183158Y-69372932D01*
X159453411Y-69260990D01*
X159696632Y-69098475D01*
X159828487Y-68966620D01*
X159850498Y-69039180D01*
X159909463Y-69149494D01*
X159988815Y-69246185D01*
X160085506Y-69325537D01*
X160195820Y-69384502D01*
X160315518Y-69420812D01*
X160440000Y-69433072D01*
X162140000Y-69433072D01*
X162264482Y-69420812D01*
X162384180Y-69384502D01*
X162494494Y-69325537D01*
X162591185Y-69246185D01*
X162670537Y-69149494D01*
X162729502Y-69039180D01*
X162765812Y-68919482D01*
X162778072Y-68795000D01*
X162778072Y-67095000D01*
X162765812Y-66970518D01*
X162729502Y-66850820D01*
X162670537Y-66740506D01*
X162591185Y-66643815D01*
X162494494Y-66564463D01*
X162384180Y-66505498D01*
X162264482Y-66469188D01*
X162140000Y-66456928D01*
X160440000Y-66456928D01*
X160315518Y-66469188D01*
X160195820Y-66505498D01*
X160085506Y-66564463D01*
X159988815Y-66643815D01*
X159909463Y-66740506D01*
X159850498Y-66850820D01*
X159828487Y-66923380D01*
X159696632Y-66791525D01*
X159453411Y-66629010D01*
X159183158Y-66517068D01*
X158896260Y-66460000D01*
X158603740Y-66460000D01*
X158316842Y-66517068D01*
X158046589Y-66629010D01*
X157803368Y-66791525D01*
X157596525Y-66998368D01*
X157480000Y-67172760D01*
X157363475Y-66998368D01*
X157156632Y-66791525D01*
X156913411Y-66629010D01*
X156643158Y-66517068D01*
X156356260Y-66460000D01*
X156063740Y-66460000D01*
X155776842Y-66517068D01*
X155506589Y-66629010D01*
X155263368Y-66791525D01*
X155056525Y-66998368D01*
X154934805Y-67180534D01*
X154865178Y-67063645D01*
X154670269Y-66847412D01*
X154436920Y-66673359D01*
X154174099Y-66548175D01*
X154026890Y-66503524D01*
X153797000Y-66624845D01*
X153543000Y-66624845D01*
X153313110Y-66503524D01*
X153165901Y-66548175D01*
X152903080Y-66673359D01*
X152669731Y-66847412D01*
X152474822Y-67063645D01*
X152325843Y-67313748D01*
X152228519Y-67588109D01*
X148128103Y-67588109D01*
X148112932Y-67511842D01*
X148000990Y-67241589D01*
X147838475Y-66998368D01*
X147631632Y-66791525D01*
X147388411Y-66629010D01*
X147118158Y-66517068D01*
X146831260Y-66460000D01*
X146538740Y-66460000D01*
X146251842Y-66517068D01*
X145981589Y-66629010D01*
X145738368Y-66791525D01*
X145531525Y-66998368D01*
X145413900Y-67174406D01*
X145242588Y-66944731D01*
X145026355Y-66749822D01*
X144776252Y-66600843D01*
X144501891Y-66503519D01*
X144272000Y-66624186D01*
X144272000Y-67818000D01*
X144292000Y-67818000D01*
X144292000Y-68072000D01*
X144272000Y-68072000D01*
X144272000Y-70358000D01*
X144292000Y-70358000D01*
X144292000Y-70612000D01*
X144272000Y-70612000D01*
X144272000Y-72898000D01*
X144292000Y-72898000D01*
X144292000Y-73152000D01*
X144272000Y-73152000D01*
X144272000Y-74345814D01*
X144501891Y-74466481D01*
X144776252Y-74369157D01*
X145026355Y-74220178D01*
X145222502Y-74043374D01*
X145245498Y-74119180D01*
X145304463Y-74229494D01*
X145383815Y-74326185D01*
X145480506Y-74405537D01*
X145590820Y-74464502D01*
X145710518Y-74500812D01*
X145835000Y-74513072D01*
X147535000Y-74513072D01*
X147659482Y-74500812D01*
X147779180Y-74464502D01*
X147889494Y-74405537D01*
X147986185Y-74326185D01*
X148065537Y-74229494D01*
X148124502Y-74119180D01*
X148160812Y-73999482D01*
X148173072Y-73875000D01*
X148173072Y-73785000D01*
X148275199Y-73785000D01*
X149962126Y-75471928D01*
X149250000Y-75471928D01*
X149110887Y-75485629D01*
X148977119Y-75526207D01*
X148853838Y-75592102D01*
X148745782Y-75680782D01*
X148657102Y-75788838D01*
X148591207Y-75912119D01*
X148550629Y-76045887D01*
X148536928Y-76185000D01*
X148536928Y-76335000D01*
X148550629Y-76474113D01*
X148558482Y-76500000D01*
X145960627Y-76500000D01*
X145784630Y-76324003D01*
X145760827Y-76294999D01*
X145645102Y-76200026D01*
X145513073Y-76129454D01*
X145369812Y-76085997D01*
X145258159Y-76075000D01*
X145258148Y-76075000D01*
X145220826Y-76071324D01*
X145183504Y-76075000D01*
X144848711Y-76075000D01*
X144804774Y-76031063D01*
X144635256Y-75917795D01*
X144446898Y-75839774D01*
X144246939Y-75800000D01*
X144043061Y-75800000D01*
X143843102Y-75839774D01*
X143654744Y-75917795D01*
X143485226Y-76031063D01*
X143341063Y-76175226D01*
X143227795Y-76344744D01*
X143149774Y-76533102D01*
X143127066Y-76647264D01*
X139871209Y-73391408D01*
X139873102Y-73381890D01*
X142703524Y-73381890D01*
X142748175Y-73529099D01*
X142873359Y-73791920D01*
X143047412Y-74025269D01*
X143263645Y-74220178D01*
X143513748Y-74369157D01*
X143788109Y-74466481D01*
X144018000Y-74345814D01*
X144018000Y-73152000D01*
X142824845Y-73152000D01*
X142703524Y-73381890D01*
X139873102Y-73381890D01*
X139915000Y-73171260D01*
X139915000Y-72878740D01*
X139857932Y-72591842D01*
X139745990Y-72321589D01*
X139583475Y-72078368D01*
X139376632Y-71871525D01*
X139133411Y-71709010D01*
X138863158Y-71597068D01*
X138576260Y-71540000D01*
X138283740Y-71540000D01*
X137996842Y-71597068D01*
X137726589Y-71709010D01*
X137483368Y-71871525D01*
X137276525Y-72078368D01*
X137114010Y-72321589D01*
X137002068Y-72591842D01*
X136945000Y-72878740D01*
X136945000Y-73171260D01*
X137002068Y-73458158D01*
X137114010Y-73728411D01*
X137276525Y-73971632D01*
X137483368Y-74178475D01*
X137657760Y-74295000D01*
X137483368Y-74411525D01*
X137276525Y-74618368D01*
X137114010Y-74861589D01*
X137002068Y-75131842D01*
X136945000Y-75418740D01*
X136945000Y-75711260D01*
X137002068Y-75998158D01*
X137114010Y-76268411D01*
X137276525Y-76511632D01*
X137483368Y-76718475D01*
X137657760Y-76835000D01*
X137483368Y-76951525D01*
X137276525Y-77158368D01*
X137114010Y-77401589D01*
X137002068Y-77671842D01*
X136945000Y-77958740D01*
X136945000Y-78251260D01*
X137002068Y-78538158D01*
X137114010Y-78808411D01*
X137276525Y-79051632D01*
X137483368Y-79258475D01*
X137657760Y-79375000D01*
X137483368Y-79491525D01*
X137276525Y-79698368D01*
X137114010Y-79941589D01*
X137002068Y-80211842D01*
X136945000Y-80498740D01*
X136945000Y-80791260D01*
X137002068Y-81078158D01*
X137114010Y-81348411D01*
X137276525Y-81591632D01*
X137483368Y-81798475D01*
X137665534Y-81920195D01*
X137548645Y-81989822D01*
X137332412Y-82184731D01*
X137158359Y-82418080D01*
X137033175Y-82680901D01*
X136988524Y-82828110D01*
X137109845Y-83058000D01*
X138303000Y-83058000D01*
X138303000Y-83038000D01*
X138557000Y-83038000D01*
X138557000Y-83058000D01*
X138577000Y-83058000D01*
X138577000Y-83312000D01*
X138557000Y-83312000D01*
X138557000Y-83332000D01*
X138303000Y-83332000D01*
X138303000Y-83312000D01*
X137109845Y-83312000D01*
X136988524Y-83541890D01*
X137033175Y-83689099D01*
X137158359Y-83951920D01*
X137332412Y-84185269D01*
X137416466Y-84261034D01*
X137335820Y-84285498D01*
X137225506Y-84344463D01*
X137128815Y-84423815D01*
X137049463Y-84520506D01*
X136990498Y-84630820D01*
X136954188Y-84750518D01*
X136941928Y-84875000D01*
X135915000Y-84875000D01*
X135915000Y-70841890D01*
X142703524Y-70841890D01*
X142748175Y-70989099D01*
X142873359Y-71251920D01*
X143047412Y-71485269D01*
X143263645Y-71680178D01*
X143389255Y-71755000D01*
X143263645Y-71829822D01*
X143047412Y-72024731D01*
X142873359Y-72258080D01*
X142748175Y-72520901D01*
X142703524Y-72668110D01*
X142824845Y-72898000D01*
X144018000Y-72898000D01*
X144018000Y-70612000D01*
X142824845Y-70612000D01*
X142703524Y-70841890D01*
X135915000Y-70841890D01*
X135915000Y-68301890D01*
X142703524Y-68301890D01*
X142748175Y-68449099D01*
X142873359Y-68711920D01*
X143047412Y-68945269D01*
X143263645Y-69140178D01*
X143389255Y-69215000D01*
X143263645Y-69289822D01*
X143047412Y-69484731D01*
X142873359Y-69718080D01*
X142748175Y-69980901D01*
X142703524Y-70128110D01*
X142824845Y-70358000D01*
X144018000Y-70358000D01*
X144018000Y-68072000D01*
X142824845Y-68072000D01*
X142703524Y-68301890D01*
X135915000Y-68301890D01*
X135915000Y-67588110D01*
X142703524Y-67588110D01*
X142824845Y-67818000D01*
X144018000Y-67818000D01*
X144018000Y-66624186D01*
X143788109Y-66503519D01*
X143513748Y-66600843D01*
X143263645Y-66749822D01*
X143047412Y-66944731D01*
X142873359Y-67178080D01*
X142748175Y-67440901D01*
X142703524Y-67588110D01*
X135915000Y-67588110D01*
X135915000Y-64795000D01*
X175870000Y-64795000D01*
X175870001Y-113005000D01*
G37*
%TD.AperFunction*%
D16*
X146127013Y-97157665D02*
X146274338Y-97378153D01*
X146461847Y-97565662D01*
X146682335Y-97712987D01*
X146927328Y-97814467D01*
X147187411Y-97866200D01*
X147452589Y-97866200D01*
X147712672Y-97814467D01*
X147830001Y-97765868D01*
X147830001Y-99530667D01*
X147826324Y-99568000D01*
X147830001Y-99605333D01*
X147833936Y-99645280D01*
X147840998Y-99716985D01*
X147884454Y-99860246D01*
X147955026Y-99992276D01*
X148026201Y-100079002D01*
X148050000Y-100108001D01*
X148078998Y-100131799D01*
X148764153Y-100816955D01*
X148667013Y-100962335D01*
X148565533Y-101207328D01*
X148513800Y-101467411D01*
X148513800Y-101732589D01*
X148565533Y-101992672D01*
X148667013Y-102237665D01*
X148814338Y-102458153D01*
X149001847Y-102645662D01*
X149222335Y-102792987D01*
X149408260Y-102870000D01*
X149222335Y-102947013D01*
X149001847Y-103094338D01*
X148814338Y-103281847D01*
X148667013Y-103502335D01*
X148565533Y-103747328D01*
X148513800Y-104007411D01*
X148513800Y-104272589D01*
X148565533Y-104532672D01*
X148667013Y-104777665D01*
X148814338Y-104998153D01*
X149001847Y-105185662D01*
X149222335Y-105332987D01*
X149408260Y-105410000D01*
X149222335Y-105487013D01*
X149001847Y-105634338D01*
X148814338Y-105821847D01*
X148669272Y-106038954D01*
X148669272Y-105968800D01*
X148657012Y-105844318D01*
X148620702Y-105724620D01*
X148561737Y-105614306D01*
X148482385Y-105517615D01*
X148385694Y-105438263D01*
X148275380Y-105379298D01*
X148155682Y-105342988D01*
X148031200Y-105330728D01*
X146608800Y-105330728D01*
X146484318Y-105342988D01*
X146364620Y-105379298D01*
X146254306Y-105438263D01*
X146157615Y-105517615D01*
X146078263Y-105614306D01*
X146019298Y-105724620D01*
X145982988Y-105844318D01*
X145970728Y-105968800D01*
X145970728Y-106038954D01*
X145825662Y-105821847D01*
X145638153Y-105634338D01*
X145417665Y-105487013D01*
X145172672Y-105385533D01*
X144912589Y-105333800D01*
X144647411Y-105333800D01*
X144387328Y-105385533D01*
X144142335Y-105487013D01*
X143921847Y-105634338D01*
X143734338Y-105821847D01*
X143587013Y-106042335D01*
X143510000Y-106228260D01*
X143432987Y-106042335D01*
X143285662Y-105821847D01*
X143098153Y-105634338D01*
X142877665Y-105487013D01*
X142691740Y-105410000D01*
X142877665Y-105332987D01*
X143098153Y-105185662D01*
X143285662Y-104998153D01*
X143432987Y-104777665D01*
X143534467Y-104532672D01*
X143586200Y-104272589D01*
X143586200Y-104007411D01*
X143534467Y-103747328D01*
X143432987Y-103502335D01*
X143285662Y-103281847D01*
X143098153Y-103094338D01*
X142877665Y-102947013D01*
X142691740Y-102870000D01*
X142877665Y-102792987D01*
X143098153Y-102645662D01*
X143285662Y-102458153D01*
X143432987Y-102237665D01*
X143534467Y-101992672D01*
X143586200Y-101732589D01*
X143586200Y-101467411D01*
X143534467Y-101207328D01*
X143432987Y-100962335D01*
X143285662Y-100741847D01*
X143098153Y-100554338D01*
X142877665Y-100407013D01*
X142689400Y-100329031D01*
X142825280Y-100279542D01*
X142928848Y-100224183D01*
X142989668Y-99989273D01*
X142240000Y-99239605D01*
X141490332Y-99989273D01*
X141551152Y-100224183D01*
X141782934Y-100332206D01*
X141602335Y-100407013D01*
X141381847Y-100554338D01*
X141194338Y-100741847D01*
X141047013Y-100962335D01*
X140970000Y-101148260D01*
X140892987Y-100962335D01*
X140745662Y-100741847D01*
X140558153Y-100554338D01*
X140337665Y-100407013D01*
X140151740Y-100330000D01*
X140337665Y-100252987D01*
X140558153Y-100105662D01*
X140745662Y-99918153D01*
X140892987Y-99697665D01*
X140970969Y-99509400D01*
X141020458Y-99645280D01*
X141075817Y-99748848D01*
X141310727Y-99809668D01*
X142060395Y-99060000D01*
X142419605Y-99060000D01*
X143169273Y-99809668D01*
X143404183Y-99748848D01*
X143516202Y-99508491D01*
X143579176Y-99250898D01*
X143590687Y-98985970D01*
X143550291Y-98723887D01*
X143459542Y-98474720D01*
X143404183Y-98371152D01*
X143169273Y-98310332D01*
X142419605Y-99060000D01*
X142060395Y-99060000D01*
X141310727Y-98310332D01*
X141075817Y-98371152D01*
X140967794Y-98602934D01*
X140892987Y-98422335D01*
X140745662Y-98201847D01*
X140558153Y-98014338D01*
X140337665Y-97867013D01*
X140151740Y-97790000D01*
X140337665Y-97712987D01*
X140558153Y-97565662D01*
X140745662Y-97378153D01*
X140892987Y-97157665D01*
X140970000Y-96971740D01*
X141047013Y-97157665D01*
X141194338Y-97378153D01*
X141381847Y-97565662D01*
X141602335Y-97712987D01*
X141790600Y-97790969D01*
X141654720Y-97840458D01*
X141551152Y-97895817D01*
X141490332Y-98130727D01*
X142240000Y-98880395D01*
X142989668Y-98130727D01*
X142928848Y-97895817D01*
X142697066Y-97787794D01*
X142877665Y-97712987D01*
X143098153Y-97565662D01*
X143285662Y-97378153D01*
X143432987Y-97157665D01*
X143510000Y-96971740D01*
X143587013Y-97157665D01*
X143734338Y-97378153D01*
X143921847Y-97565662D01*
X144142335Y-97712987D01*
X144387328Y-97814467D01*
X144647411Y-97866200D01*
X144912589Y-97866200D01*
X145172672Y-97814467D01*
X145417665Y-97712987D01*
X145638153Y-97565662D01*
X145825662Y-97378153D01*
X145972987Y-97157665D01*
X146050000Y-96971740D01*
X146127013Y-97157665D01*
%TA.AperFunction,Conductor*%
D17*
G36*
X146127013Y-97157665D02*
G01*
X146274338Y-97378153D01*
X146461847Y-97565662D01*
X146682335Y-97712987D01*
X146927328Y-97814467D01*
X147187411Y-97866200D01*
X147452589Y-97866200D01*
X147712672Y-97814467D01*
X147830001Y-97765868D01*
X147830001Y-99530667D01*
X147826324Y-99568000D01*
X147830001Y-99605333D01*
X147833936Y-99645280D01*
X147840998Y-99716985D01*
X147884454Y-99860246D01*
X147955026Y-99992276D01*
X148026201Y-100079002D01*
X148050000Y-100108001D01*
X148078998Y-100131799D01*
X148764153Y-100816955D01*
X148667013Y-100962335D01*
X148565533Y-101207328D01*
X148513800Y-101467411D01*
X148513800Y-101732589D01*
X148565533Y-101992672D01*
X148667013Y-102237665D01*
X148814338Y-102458153D01*
X149001847Y-102645662D01*
X149222335Y-102792987D01*
X149408260Y-102870000D01*
X149222335Y-102947013D01*
X149001847Y-103094338D01*
X148814338Y-103281847D01*
X148667013Y-103502335D01*
X148565533Y-103747328D01*
X148513800Y-104007411D01*
X148513800Y-104272589D01*
X148565533Y-104532672D01*
X148667013Y-104777665D01*
X148814338Y-104998153D01*
X149001847Y-105185662D01*
X149222335Y-105332987D01*
X149408260Y-105410000D01*
X149222335Y-105487013D01*
X149001847Y-105634338D01*
X148814338Y-105821847D01*
X148669272Y-106038954D01*
X148669272Y-105968800D01*
X148657012Y-105844318D01*
X148620702Y-105724620D01*
X148561737Y-105614306D01*
X148482385Y-105517615D01*
X148385694Y-105438263D01*
X148275380Y-105379298D01*
X148155682Y-105342988D01*
X148031200Y-105330728D01*
X146608800Y-105330728D01*
X146484318Y-105342988D01*
X146364620Y-105379298D01*
X146254306Y-105438263D01*
X146157615Y-105517615D01*
X146078263Y-105614306D01*
X146019298Y-105724620D01*
X145982988Y-105844318D01*
X145970728Y-105968800D01*
X145970728Y-106038954D01*
X145825662Y-105821847D01*
X145638153Y-105634338D01*
X145417665Y-105487013D01*
X145172672Y-105385533D01*
X144912589Y-105333800D01*
X144647411Y-105333800D01*
X144387328Y-105385533D01*
X144142335Y-105487013D01*
X143921847Y-105634338D01*
X143734338Y-105821847D01*
X143587013Y-106042335D01*
X143510000Y-106228260D01*
X143432987Y-106042335D01*
X143285662Y-105821847D01*
X143098153Y-105634338D01*
X142877665Y-105487013D01*
X142691740Y-105410000D01*
X142877665Y-105332987D01*
X143098153Y-105185662D01*
X143285662Y-104998153D01*
X143432987Y-104777665D01*
X143534467Y-104532672D01*
X143586200Y-104272589D01*
X143586200Y-104007411D01*
X143534467Y-103747328D01*
X143432987Y-103502335D01*
X143285662Y-103281847D01*
X143098153Y-103094338D01*
X142877665Y-102947013D01*
X142691740Y-102870000D01*
X142877665Y-102792987D01*
X143098153Y-102645662D01*
X143285662Y-102458153D01*
X143432987Y-102237665D01*
X143534467Y-101992672D01*
X143586200Y-101732589D01*
X143586200Y-101467411D01*
X143534467Y-101207328D01*
X143432987Y-100962335D01*
X143285662Y-100741847D01*
X143098153Y-100554338D01*
X142877665Y-100407013D01*
X142689400Y-100329031D01*
X142825280Y-100279542D01*
X142928848Y-100224183D01*
X142989668Y-99989273D01*
X142240000Y-99239605D01*
X141490332Y-99989273D01*
X141551152Y-100224183D01*
X141782934Y-100332206D01*
X141602335Y-100407013D01*
X141381847Y-100554338D01*
X141194338Y-100741847D01*
X141047013Y-100962335D01*
X140970000Y-101148260D01*
X140892987Y-100962335D01*
X140745662Y-100741847D01*
X140558153Y-100554338D01*
X140337665Y-100407013D01*
X140151740Y-100330000D01*
X140337665Y-100252987D01*
X140558153Y-100105662D01*
X140745662Y-99918153D01*
X140892987Y-99697665D01*
X140970969Y-99509400D01*
X141020458Y-99645280D01*
X141075817Y-99748848D01*
X141310727Y-99809668D01*
X142060395Y-99060000D01*
X142419605Y-99060000D01*
X143169273Y-99809668D01*
X143404183Y-99748848D01*
X143516202Y-99508491D01*
X143579176Y-99250898D01*
X143590687Y-98985970D01*
X143550291Y-98723887D01*
X143459542Y-98474720D01*
X143404183Y-98371152D01*
X143169273Y-98310332D01*
X142419605Y-99060000D01*
X142060395Y-99060000D01*
X141310727Y-98310332D01*
X141075817Y-98371152D01*
X140967794Y-98602934D01*
X140892987Y-98422335D01*
X140745662Y-98201847D01*
X140558153Y-98014338D01*
X140337665Y-97867013D01*
X140151740Y-97790000D01*
X140337665Y-97712987D01*
X140558153Y-97565662D01*
X140745662Y-97378153D01*
X140892987Y-97157665D01*
X140970000Y-96971740D01*
X141047013Y-97157665D01*
X141194338Y-97378153D01*
X141381847Y-97565662D01*
X141602335Y-97712987D01*
X141790600Y-97790969D01*
X141654720Y-97840458D01*
X141551152Y-97895817D01*
X141490332Y-98130727D01*
X142240000Y-98880395D01*
X142989668Y-98130727D01*
X142928848Y-97895817D01*
X142697066Y-97787794D01*
X142877665Y-97712987D01*
X143098153Y-97565662D01*
X143285662Y-97378153D01*
X143432987Y-97157665D01*
X143510000Y-96971740D01*
X143587013Y-97157665D01*
X143734338Y-97378153D01*
X143921847Y-97565662D01*
X144142335Y-97712987D01*
X144387328Y-97814467D01*
X144647411Y-97866200D01*
X144912589Y-97866200D01*
X145172672Y-97814467D01*
X145417665Y-97712987D01*
X145638153Y-97565662D01*
X145825662Y-97378153D01*
X145972987Y-97157665D01*
X146050000Y-96971740D01*
X146127013Y-97157665D01*
G37*
%TD.AperFunction*%
D16*
X168352013Y-97157665D02*
X168499338Y-97378153D01*
X168686847Y-97565662D01*
X168907335Y-97712987D01*
X169093260Y-97790000D01*
X168907335Y-97867013D01*
X168686847Y-98014338D01*
X168499338Y-98201847D01*
X168352013Y-98422335D01*
X168250533Y-98667328D01*
X168198800Y-98927411D01*
X168198800Y-99192589D01*
X168250533Y-99452672D01*
X168352013Y-99697665D01*
X168499338Y-99918153D01*
X168686847Y-100105662D01*
X168907335Y-100252987D01*
X169093260Y-100330000D01*
X168907335Y-100407013D01*
X168686847Y-100554338D01*
X168499338Y-100741847D01*
X168352013Y-100962335D01*
X168250533Y-101207328D01*
X168198800Y-101467411D01*
X168198800Y-101732589D01*
X168250533Y-101992672D01*
X168352013Y-102237665D01*
X168499338Y-102458153D01*
X168686847Y-102645662D01*
X168907335Y-102792987D01*
X169093260Y-102870000D01*
X168907335Y-102947013D01*
X168686847Y-103094338D01*
X168499338Y-103281847D01*
X168352013Y-103502335D01*
X168250533Y-103747328D01*
X168198800Y-104007411D01*
X168198800Y-104272589D01*
X168250533Y-104532672D01*
X168298571Y-104648646D01*
X168275000Y-104646324D01*
X168237678Y-104650000D01*
X163170868Y-104650000D01*
X163219467Y-104532672D01*
X163271200Y-104272589D01*
X163271200Y-104007411D01*
X163219467Y-103747328D01*
X163117987Y-103502335D01*
X162970662Y-103281847D01*
X162783153Y-103094338D01*
X162562665Y-102947013D01*
X162376740Y-102870000D01*
X162562665Y-102792987D01*
X162783153Y-102645662D01*
X162970662Y-102458153D01*
X163117987Y-102237665D01*
X163219467Y-101992672D01*
X163271200Y-101732589D01*
X163271200Y-101467411D01*
X163219467Y-101207328D01*
X163117987Y-100962335D01*
X162970662Y-100741847D01*
X162783153Y-100554338D01*
X162562665Y-100407013D01*
X162376740Y-100330000D01*
X162562665Y-100252987D01*
X162783153Y-100105662D01*
X162970662Y-99918153D01*
X163117987Y-99697665D01*
X163219467Y-99452672D01*
X163271200Y-99192589D01*
X163271200Y-98927411D01*
X163219467Y-98667328D01*
X163117987Y-98422335D01*
X162970662Y-98201847D01*
X162783153Y-98014338D01*
X162562665Y-97867013D01*
X162376740Y-97790000D01*
X162562665Y-97712987D01*
X162783153Y-97565662D01*
X162970662Y-97378153D01*
X163117987Y-97157665D01*
X163195000Y-96971740D01*
X163272013Y-97157665D01*
X163419338Y-97378153D01*
X163606847Y-97565662D01*
X163827335Y-97712987D01*
X164072328Y-97814467D01*
X164332411Y-97866200D01*
X164597589Y-97866200D01*
X164857672Y-97814467D01*
X165102665Y-97712987D01*
X165323153Y-97565662D01*
X165510662Y-97378153D01*
X165657987Y-97157665D01*
X165735000Y-96971740D01*
X165812013Y-97157665D01*
X165959338Y-97378153D01*
X166146847Y-97565662D01*
X166367335Y-97712987D01*
X166612328Y-97814467D01*
X166872411Y-97866200D01*
X167137589Y-97866200D01*
X167397672Y-97814467D01*
X167642665Y-97712987D01*
X167863153Y-97565662D01*
X168050662Y-97378153D01*
X168197987Y-97157665D01*
X168275000Y-96971740D01*
X168352013Y-97157665D01*
%TA.AperFunction,Conductor*%
D17*
G36*
X168352013Y-97157665D02*
G01*
X168499338Y-97378153D01*
X168686847Y-97565662D01*
X168907335Y-97712987D01*
X169093260Y-97790000D01*
X168907335Y-97867013D01*
X168686847Y-98014338D01*
X168499338Y-98201847D01*
X168352013Y-98422335D01*
X168250533Y-98667328D01*
X168198800Y-98927411D01*
X168198800Y-99192589D01*
X168250533Y-99452672D01*
X168352013Y-99697665D01*
X168499338Y-99918153D01*
X168686847Y-100105662D01*
X168907335Y-100252987D01*
X169093260Y-100330000D01*
X168907335Y-100407013D01*
X168686847Y-100554338D01*
X168499338Y-100741847D01*
X168352013Y-100962335D01*
X168250533Y-101207328D01*
X168198800Y-101467411D01*
X168198800Y-101732589D01*
X168250533Y-101992672D01*
X168352013Y-102237665D01*
X168499338Y-102458153D01*
X168686847Y-102645662D01*
X168907335Y-102792987D01*
X169093260Y-102870000D01*
X168907335Y-102947013D01*
X168686847Y-103094338D01*
X168499338Y-103281847D01*
X168352013Y-103502335D01*
X168250533Y-103747328D01*
X168198800Y-104007411D01*
X168198800Y-104272589D01*
X168250533Y-104532672D01*
X168298571Y-104648646D01*
X168275000Y-104646324D01*
X168237678Y-104650000D01*
X163170868Y-104650000D01*
X163219467Y-104532672D01*
X163271200Y-104272589D01*
X163271200Y-104007411D01*
X163219467Y-103747328D01*
X163117987Y-103502335D01*
X162970662Y-103281847D01*
X162783153Y-103094338D01*
X162562665Y-102947013D01*
X162376740Y-102870000D01*
X162562665Y-102792987D01*
X162783153Y-102645662D01*
X162970662Y-102458153D01*
X163117987Y-102237665D01*
X163219467Y-101992672D01*
X163271200Y-101732589D01*
X163271200Y-101467411D01*
X163219467Y-101207328D01*
X163117987Y-100962335D01*
X162970662Y-100741847D01*
X162783153Y-100554338D01*
X162562665Y-100407013D01*
X162376740Y-100330000D01*
X162562665Y-100252987D01*
X162783153Y-100105662D01*
X162970662Y-99918153D01*
X163117987Y-99697665D01*
X163219467Y-99452672D01*
X163271200Y-99192589D01*
X163271200Y-98927411D01*
X163219467Y-98667328D01*
X163117987Y-98422335D01*
X162970662Y-98201847D01*
X162783153Y-98014338D01*
X162562665Y-97867013D01*
X162376740Y-97790000D01*
X162562665Y-97712987D01*
X162783153Y-97565662D01*
X162970662Y-97378153D01*
X163117987Y-97157665D01*
X163195000Y-96971740D01*
X163272013Y-97157665D01*
X163419338Y-97378153D01*
X163606847Y-97565662D01*
X163827335Y-97712987D01*
X164072328Y-97814467D01*
X164332411Y-97866200D01*
X164597589Y-97866200D01*
X164857672Y-97814467D01*
X165102665Y-97712987D01*
X165323153Y-97565662D01*
X165510662Y-97378153D01*
X165657987Y-97157665D01*
X165735000Y-96971740D01*
X165812013Y-97157665D01*
X165959338Y-97378153D01*
X166146847Y-97565662D01*
X166367335Y-97712987D01*
X166612328Y-97814467D01*
X166872411Y-97866200D01*
X167137589Y-97866200D01*
X167397672Y-97814467D01*
X167642665Y-97712987D01*
X167863153Y-97565662D01*
X168050662Y-97378153D01*
X168197987Y-97157665D01*
X168275000Y-96971740D01*
X168352013Y-97157665D01*
G37*
%TD.AperFunction*%
D16*
X159875629Y-80045887D02*
X159861928Y-80185000D01*
X159861928Y-80335000D01*
X159875629Y-80474113D01*
X159886515Y-80510000D01*
X159875629Y-80545887D01*
X159861928Y-80685000D01*
X159861928Y-80835000D01*
X159875629Y-80974113D01*
X159886515Y-81010000D01*
X159875629Y-81045887D01*
X159861928Y-81185000D01*
X159861928Y-81335000D01*
X159875629Y-81474113D01*
X159886515Y-81510000D01*
X159875629Y-81545887D01*
X159861928Y-81685000D01*
X159861928Y-81835000D01*
X159875629Y-81974113D01*
X159886515Y-82010000D01*
X159875629Y-82045887D01*
X159861928Y-82185000D01*
X159861928Y-82335000D01*
X159875629Y-82474113D01*
X159886515Y-82510000D01*
X159875629Y-82545887D01*
X159861928Y-82685000D01*
X159861928Y-82835000D01*
X159875629Y-82974113D01*
X159886515Y-83010000D01*
X159875629Y-83045887D01*
X159861928Y-83185000D01*
X159861928Y-83335000D01*
X159875629Y-83474113D01*
X159886515Y-83510000D01*
X159875629Y-83545887D01*
X159861928Y-83685000D01*
X159861928Y-83835000D01*
X159875629Y-83974113D01*
X159916207Y-84107881D01*
X159982102Y-84231162D01*
X160070782Y-84339218D01*
X160178838Y-84427898D01*
X160302119Y-84493793D01*
X160435887Y-84534371D01*
X160575000Y-84548072D01*
X161900000Y-84548072D01*
X162039113Y-84534371D01*
X162172881Y-84493793D01*
X162296162Y-84427898D01*
X162404218Y-84339218D01*
X162492898Y-84231162D01*
X162558793Y-84107881D01*
X162585451Y-84020000D01*
X164356908Y-84020000D01*
X164394230Y-84023676D01*
X164431552Y-84020000D01*
X164431563Y-84020000D01*
X164543216Y-84009003D01*
X164686477Y-83965546D01*
X164818506Y-83894974D01*
X164934231Y-83800001D01*
X164958034Y-83770997D01*
X168594032Y-80135000D01*
X169418897Y-80135000D01*
X169387068Y-80211842D01*
X169330000Y-80498740D01*
X169330000Y-80791260D01*
X169387068Y-81078158D01*
X169499010Y-81348411D01*
X169661525Y-81591632D01*
X169868368Y-81798475D01*
X170042760Y-81915000D01*
X169868368Y-82031525D01*
X169661525Y-82238368D01*
X169499010Y-82481589D01*
X169387068Y-82751842D01*
X169330000Y-83038740D01*
X169330000Y-83331260D01*
X169387068Y-83618158D01*
X169499010Y-83888411D01*
X169661525Y-84131632D01*
X169868368Y-84338475D01*
X170050534Y-84460195D01*
X169933645Y-84529822D01*
X169717412Y-84724731D01*
X169543359Y-84958080D01*
X169418175Y-85220901D01*
X169373524Y-85368110D01*
X169494845Y-85598000D01*
X170688000Y-85598000D01*
X170688000Y-85578000D01*
X170942000Y-85578000D01*
X170942000Y-85598000D01*
X170962000Y-85598000D01*
X170962000Y-85852000D01*
X170942000Y-85852000D01*
X170942000Y-87045814D01*
X171171891Y-87166481D01*
X171325000Y-87112169D01*
X171325001Y-93665197D01*
X170891200Y-94098999D01*
X170891200Y-93847411D01*
X170839467Y-93587328D01*
X170737987Y-93342335D01*
X170590662Y-93121847D01*
X170403153Y-92934338D01*
X170182665Y-92787013D01*
X169937672Y-92685533D01*
X169677589Y-92633800D01*
X169412411Y-92633800D01*
X169152328Y-92685533D01*
X168907335Y-92787013D01*
X168686847Y-92934338D01*
X168499338Y-93121847D01*
X168352013Y-93342335D01*
X168275000Y-93528260D01*
X168197987Y-93342335D01*
X168050662Y-93121847D01*
X167863153Y-92934338D01*
X167642665Y-92787013D01*
X167397672Y-92685533D01*
X167137589Y-92633800D01*
X166872411Y-92633800D01*
X166612328Y-92685533D01*
X166367335Y-92787013D01*
X166146847Y-92934338D01*
X165959338Y-93121847D01*
X165812013Y-93342335D01*
X165734031Y-93530600D01*
X165684542Y-93394720D01*
X165629183Y-93291152D01*
X165394273Y-93230332D01*
X164644605Y-93980000D01*
X165394273Y-94729668D01*
X165629183Y-94668848D01*
X165737206Y-94437066D01*
X165812013Y-94617665D01*
X165959338Y-94838153D01*
X166146847Y-95025662D01*
X166367335Y-95172987D01*
X166553260Y-95250000D01*
X166367335Y-95327013D01*
X166146847Y-95474338D01*
X165959338Y-95661847D01*
X165812013Y-95882335D01*
X165735000Y-96068260D01*
X165657987Y-95882335D01*
X165510662Y-95661847D01*
X165323153Y-95474338D01*
X165102665Y-95327013D01*
X164914400Y-95249031D01*
X165050280Y-95199542D01*
X165153848Y-95144183D01*
X165214668Y-94909273D01*
X164465000Y-94159605D01*
X163715332Y-94909273D01*
X163776152Y-95144183D01*
X164007934Y-95252206D01*
X163827335Y-95327013D01*
X163606847Y-95474338D01*
X163419338Y-95661847D01*
X163272013Y-95882335D01*
X163195000Y-96068260D01*
X163117987Y-95882335D01*
X162970662Y-95661847D01*
X162783153Y-95474338D01*
X162562665Y-95327013D01*
X162376740Y-95250000D01*
X162562665Y-95172987D01*
X162783153Y-95025662D01*
X162970662Y-94838153D01*
X163117987Y-94617665D01*
X163195969Y-94429400D01*
X163245458Y-94565280D01*
X163300817Y-94668848D01*
X163535727Y-94729668D01*
X164285395Y-93980000D01*
X163535727Y-93230332D01*
X163300817Y-93291152D01*
X163192794Y-93522934D01*
X163117987Y-93342335D01*
X162970662Y-93121847D01*
X162899542Y-93050727D01*
X163715332Y-93050727D01*
X164465000Y-93800395D01*
X165214668Y-93050727D01*
X165153848Y-92815817D01*
X164913491Y-92703798D01*
X164655898Y-92640824D01*
X164390970Y-92629313D01*
X164128887Y-92669709D01*
X163879720Y-92760458D01*
X163776152Y-92815817D01*
X163715332Y-93050727D01*
X162899542Y-93050727D01*
X162783153Y-92934338D01*
X162562665Y-92787013D01*
X162317672Y-92685533D01*
X162057589Y-92633800D01*
X161792411Y-92633800D01*
X161532328Y-92685533D01*
X161287335Y-92787013D01*
X161066847Y-92934338D01*
X160879338Y-93121847D01*
X160732013Y-93342335D01*
X160630533Y-93587328D01*
X160578800Y-93847411D01*
X160578800Y-94112589D01*
X160630533Y-94372672D01*
X160732013Y-94617665D01*
X160879338Y-94838153D01*
X161066847Y-95025662D01*
X161287335Y-95172987D01*
X161473260Y-95250000D01*
X161287335Y-95327013D01*
X161066847Y-95474338D01*
X160879338Y-95661847D01*
X160732013Y-95882335D01*
X160655000Y-96068260D01*
X160577987Y-95882335D01*
X160430662Y-95661847D01*
X160243153Y-95474338D01*
X160022665Y-95327013D01*
X159777672Y-95225533D01*
X159517589Y-95173800D01*
X159252411Y-95173800D01*
X158992328Y-95225533D01*
X158747335Y-95327013D01*
X158526847Y-95474338D01*
X158339338Y-95661847D01*
X158192013Y-95882335D01*
X158090533Y-96127328D01*
X158038800Y-96387411D01*
X158038800Y-96652589D01*
X158090533Y-96912672D01*
X158192013Y-97157665D01*
X158339338Y-97378153D01*
X158526847Y-97565662D01*
X158747335Y-97712987D01*
X158933260Y-97790000D01*
X158747335Y-97867013D01*
X158526847Y-98014338D01*
X158339338Y-98201847D01*
X158192013Y-98422335D01*
X158090533Y-98667328D01*
X158038800Y-98927411D01*
X158038800Y-99192589D01*
X158090533Y-99452672D01*
X158192013Y-99697665D01*
X158339338Y-99918153D01*
X158526847Y-100105662D01*
X158625001Y-100171246D01*
X158625000Y-100488754D01*
X158526847Y-100554338D01*
X158339338Y-100741847D01*
X158192013Y-100962335D01*
X158090533Y-101207328D01*
X158038800Y-101467411D01*
X158038800Y-101732589D01*
X158090533Y-101992672D01*
X158192013Y-102237665D01*
X158339338Y-102458153D01*
X158526847Y-102645662D01*
X158747335Y-102792987D01*
X158933260Y-102870000D01*
X158747335Y-102947013D01*
X158526847Y-103094338D01*
X158339338Y-103281847D01*
X158192013Y-103502335D01*
X158090533Y-103747328D01*
X158038800Y-104007411D01*
X158038800Y-104272589D01*
X158090533Y-104532672D01*
X158139132Y-104650000D01*
X153645868Y-104650000D01*
X153694467Y-104532672D01*
X153746200Y-104272589D01*
X153746200Y-104007411D01*
X153694467Y-103747328D01*
X153592987Y-103502335D01*
X153445662Y-103281847D01*
X153258153Y-103094338D01*
X153037665Y-102947013D01*
X152851740Y-102870000D01*
X153037665Y-102792987D01*
X153258153Y-102645662D01*
X153445662Y-102458153D01*
X153592987Y-102237665D01*
X153694467Y-101992672D01*
X153746200Y-101732589D01*
X153746200Y-101467411D01*
X153694467Y-101207328D01*
X153592987Y-100962335D01*
X153495847Y-100816954D01*
X154181002Y-100131799D01*
X154210001Y-100108001D01*
X154304974Y-99992276D01*
X154375546Y-99860247D01*
X154419003Y-99716986D01*
X154430000Y-99605333D01*
X154430000Y-99605325D01*
X154433676Y-99568000D01*
X154430000Y-99530675D01*
X154430000Y-95922322D01*
X154433676Y-95884999D01*
X154430000Y-95847676D01*
X154430000Y-95847667D01*
X154419003Y-95736014D01*
X154375546Y-95592753D01*
X154304974Y-95460724D01*
X154210001Y-95344999D01*
X154181004Y-95321202D01*
X153085000Y-94225199D01*
X153085000Y-87036471D01*
X153108883Y-87033868D01*
X153109051Y-87033814D01*
X153110887Y-87034371D01*
X153250000Y-87048072D01*
X153400000Y-87048072D01*
X153539113Y-87034371D01*
X153575000Y-87023485D01*
X153610887Y-87034371D01*
X153750000Y-87048072D01*
X153900000Y-87048072D01*
X154039113Y-87034371D01*
X154075000Y-87023485D01*
X154110887Y-87034371D01*
X154250000Y-87048072D01*
X154400000Y-87048072D01*
X154539113Y-87034371D01*
X154575000Y-87023485D01*
X154610887Y-87034371D01*
X154750000Y-87048072D01*
X154900000Y-87048072D01*
X155039113Y-87034371D01*
X155075000Y-87023485D01*
X155110887Y-87034371D01*
X155250000Y-87048072D01*
X155400000Y-87048072D01*
X155539113Y-87034371D01*
X155575000Y-87023485D01*
X155610887Y-87034371D01*
X155750000Y-87048072D01*
X155900000Y-87048072D01*
X156039113Y-87034371D01*
X156075000Y-87023485D01*
X156110887Y-87034371D01*
X156250000Y-87048072D01*
X156400000Y-87048072D01*
X156539113Y-87034371D01*
X156575000Y-87023485D01*
X156610887Y-87034371D01*
X156750000Y-87048072D01*
X156900000Y-87048072D01*
X157039113Y-87034371D01*
X157075000Y-87023485D01*
X157110887Y-87034371D01*
X157250000Y-87048072D01*
X157400000Y-87048072D01*
X157539113Y-87034371D01*
X157575000Y-87023485D01*
X157610887Y-87034371D01*
X157750000Y-87048072D01*
X157900000Y-87048072D01*
X158039113Y-87034371D01*
X158075000Y-87023485D01*
X158110887Y-87034371D01*
X158250000Y-87048072D01*
X158400000Y-87048072D01*
X158539113Y-87034371D01*
X158575000Y-87023485D01*
X158610887Y-87034371D01*
X158750000Y-87048072D01*
X158900000Y-87048072D01*
X159039113Y-87034371D01*
X159075000Y-87023485D01*
X159110887Y-87034371D01*
X159250000Y-87048072D01*
X159400000Y-87048072D01*
X159539113Y-87034371D01*
X159672881Y-86993793D01*
X159796162Y-86927898D01*
X159904218Y-86839218D01*
X159992898Y-86731162D01*
X160058793Y-86607881D01*
X160099371Y-86474113D01*
X160113072Y-86335000D01*
X160113072Y-86081890D01*
X169373524Y-86081890D01*
X169418175Y-86229099D01*
X169543359Y-86491920D01*
X169717412Y-86725269D01*
X169933645Y-86920178D01*
X170183748Y-87069157D01*
X170458109Y-87166481D01*
X170688000Y-87045814D01*
X170688000Y-85852000D01*
X169494845Y-85852000D01*
X169373524Y-86081890D01*
X160113072Y-86081890D01*
X160113072Y-85010000D01*
X160099371Y-84870887D01*
X160058793Y-84737119D01*
X159992898Y-84613838D01*
X159904218Y-84505782D01*
X159796162Y-84417102D01*
X159672881Y-84351207D01*
X159539113Y-84310629D01*
X159400000Y-84296928D01*
X159250000Y-84296928D01*
X159110887Y-84310629D01*
X159085000Y-84318482D01*
X159085000Y-80356515D01*
X159240256Y-80292205D01*
X159409774Y-80178937D01*
X159553937Y-80034774D01*
X159563809Y-80020000D01*
X159883482Y-80020000D01*
X159875629Y-80045887D01*
%TA.AperFunction,Conductor*%
D17*
G36*
X159875629Y-80045887D02*
G01*
X159861928Y-80185000D01*
X159861928Y-80335000D01*
X159875629Y-80474113D01*
X159886515Y-80510000D01*
X159875629Y-80545887D01*
X159861928Y-80685000D01*
X159861928Y-80835000D01*
X159875629Y-80974113D01*
X159886515Y-81010000D01*
X159875629Y-81045887D01*
X159861928Y-81185000D01*
X159861928Y-81335000D01*
X159875629Y-81474113D01*
X159886515Y-81510000D01*
X159875629Y-81545887D01*
X159861928Y-81685000D01*
X159861928Y-81835000D01*
X159875629Y-81974113D01*
X159886515Y-82010000D01*
X159875629Y-82045887D01*
X159861928Y-82185000D01*
X159861928Y-82335000D01*
X159875629Y-82474113D01*
X159886515Y-82510000D01*
X159875629Y-82545887D01*
X159861928Y-82685000D01*
X159861928Y-82835000D01*
X159875629Y-82974113D01*
X159886515Y-83010000D01*
X159875629Y-83045887D01*
X159861928Y-83185000D01*
X159861928Y-83335000D01*
X159875629Y-83474113D01*
X159886515Y-83510000D01*
X159875629Y-83545887D01*
X159861928Y-83685000D01*
X159861928Y-83835000D01*
X159875629Y-83974113D01*
X159916207Y-84107881D01*
X159982102Y-84231162D01*
X160070782Y-84339218D01*
X160178838Y-84427898D01*
X160302119Y-84493793D01*
X160435887Y-84534371D01*
X160575000Y-84548072D01*
X161900000Y-84548072D01*
X162039113Y-84534371D01*
X162172881Y-84493793D01*
X162296162Y-84427898D01*
X162404218Y-84339218D01*
X162492898Y-84231162D01*
X162558793Y-84107881D01*
X162585451Y-84020000D01*
X164356908Y-84020000D01*
X164394230Y-84023676D01*
X164431552Y-84020000D01*
X164431563Y-84020000D01*
X164543216Y-84009003D01*
X164686477Y-83965546D01*
X164818506Y-83894974D01*
X164934231Y-83800001D01*
X164958034Y-83770997D01*
X168594032Y-80135000D01*
X169418897Y-80135000D01*
X169387068Y-80211842D01*
X169330000Y-80498740D01*
X169330000Y-80791260D01*
X169387068Y-81078158D01*
X169499010Y-81348411D01*
X169661525Y-81591632D01*
X169868368Y-81798475D01*
X170042760Y-81915000D01*
X169868368Y-82031525D01*
X169661525Y-82238368D01*
X169499010Y-82481589D01*
X169387068Y-82751842D01*
X169330000Y-83038740D01*
X169330000Y-83331260D01*
X169387068Y-83618158D01*
X169499010Y-83888411D01*
X169661525Y-84131632D01*
X169868368Y-84338475D01*
X170050534Y-84460195D01*
X169933645Y-84529822D01*
X169717412Y-84724731D01*
X169543359Y-84958080D01*
X169418175Y-85220901D01*
X169373524Y-85368110D01*
X169494845Y-85598000D01*
X170688000Y-85598000D01*
X170688000Y-85578000D01*
X170942000Y-85578000D01*
X170942000Y-85598000D01*
X170962000Y-85598000D01*
X170962000Y-85852000D01*
X170942000Y-85852000D01*
X170942000Y-87045814D01*
X171171891Y-87166481D01*
X171325000Y-87112169D01*
X171325001Y-93665197D01*
X170891200Y-94098999D01*
X170891200Y-93847411D01*
X170839467Y-93587328D01*
X170737987Y-93342335D01*
X170590662Y-93121847D01*
X170403153Y-92934338D01*
X170182665Y-92787013D01*
X169937672Y-92685533D01*
X169677589Y-92633800D01*
X169412411Y-92633800D01*
X169152328Y-92685533D01*
X168907335Y-92787013D01*
X168686847Y-92934338D01*
X168499338Y-93121847D01*
X168352013Y-93342335D01*
X168275000Y-93528260D01*
X168197987Y-93342335D01*
X168050662Y-93121847D01*
X167863153Y-92934338D01*
X167642665Y-92787013D01*
X167397672Y-92685533D01*
X167137589Y-92633800D01*
X166872411Y-92633800D01*
X166612328Y-92685533D01*
X166367335Y-92787013D01*
X166146847Y-92934338D01*
X165959338Y-93121847D01*
X165812013Y-93342335D01*
X165734031Y-93530600D01*
X165684542Y-93394720D01*
X165629183Y-93291152D01*
X165394273Y-93230332D01*
X164644605Y-93980000D01*
X165394273Y-94729668D01*
X165629183Y-94668848D01*
X165737206Y-94437066D01*
X165812013Y-94617665D01*
X165959338Y-94838153D01*
X166146847Y-95025662D01*
X166367335Y-95172987D01*
X166553260Y-95250000D01*
X166367335Y-95327013D01*
X166146847Y-95474338D01*
X165959338Y-95661847D01*
X165812013Y-95882335D01*
X165735000Y-96068260D01*
X165657987Y-95882335D01*
X165510662Y-95661847D01*
X165323153Y-95474338D01*
X165102665Y-95327013D01*
X164914400Y-95249031D01*
X165050280Y-95199542D01*
X165153848Y-95144183D01*
X165214668Y-94909273D01*
X164465000Y-94159605D01*
X163715332Y-94909273D01*
X163776152Y-95144183D01*
X164007934Y-95252206D01*
X163827335Y-95327013D01*
X163606847Y-95474338D01*
X163419338Y-95661847D01*
X163272013Y-95882335D01*
X163195000Y-96068260D01*
X163117987Y-95882335D01*
X162970662Y-95661847D01*
X162783153Y-95474338D01*
X162562665Y-95327013D01*
X162376740Y-95250000D01*
X162562665Y-95172987D01*
X162783153Y-95025662D01*
X162970662Y-94838153D01*
X163117987Y-94617665D01*
X163195969Y-94429400D01*
X163245458Y-94565280D01*
X163300817Y-94668848D01*
X163535727Y-94729668D01*
X164285395Y-93980000D01*
X163535727Y-93230332D01*
X163300817Y-93291152D01*
X163192794Y-93522934D01*
X163117987Y-93342335D01*
X162970662Y-93121847D01*
X162899542Y-93050727D01*
X163715332Y-93050727D01*
X164465000Y-93800395D01*
X165214668Y-93050727D01*
X165153848Y-92815817D01*
X164913491Y-92703798D01*
X164655898Y-92640824D01*
X164390970Y-92629313D01*
X164128887Y-92669709D01*
X163879720Y-92760458D01*
X163776152Y-92815817D01*
X163715332Y-93050727D01*
X162899542Y-93050727D01*
X162783153Y-92934338D01*
X162562665Y-92787013D01*
X162317672Y-92685533D01*
X162057589Y-92633800D01*
X161792411Y-92633800D01*
X161532328Y-92685533D01*
X161287335Y-92787013D01*
X161066847Y-92934338D01*
X160879338Y-93121847D01*
X160732013Y-93342335D01*
X160630533Y-93587328D01*
X160578800Y-93847411D01*
X160578800Y-94112589D01*
X160630533Y-94372672D01*
X160732013Y-94617665D01*
X160879338Y-94838153D01*
X161066847Y-95025662D01*
X161287335Y-95172987D01*
X161473260Y-95250000D01*
X161287335Y-95327013D01*
X161066847Y-95474338D01*
X160879338Y-95661847D01*
X160732013Y-95882335D01*
X160655000Y-96068260D01*
X160577987Y-95882335D01*
X160430662Y-95661847D01*
X160243153Y-95474338D01*
X160022665Y-95327013D01*
X159777672Y-95225533D01*
X159517589Y-95173800D01*
X159252411Y-95173800D01*
X158992328Y-95225533D01*
X158747335Y-95327013D01*
X158526847Y-95474338D01*
X158339338Y-95661847D01*
X158192013Y-95882335D01*
X158090533Y-96127328D01*
X158038800Y-96387411D01*
X158038800Y-96652589D01*
X158090533Y-96912672D01*
X158192013Y-97157665D01*
X158339338Y-97378153D01*
X158526847Y-97565662D01*
X158747335Y-97712987D01*
X158933260Y-97790000D01*
X158747335Y-97867013D01*
X158526847Y-98014338D01*
X158339338Y-98201847D01*
X158192013Y-98422335D01*
X158090533Y-98667328D01*
X158038800Y-98927411D01*
X158038800Y-99192589D01*
X158090533Y-99452672D01*
X158192013Y-99697665D01*
X158339338Y-99918153D01*
X158526847Y-100105662D01*
X158625001Y-100171246D01*
X158625000Y-100488754D01*
X158526847Y-100554338D01*
X158339338Y-100741847D01*
X158192013Y-100962335D01*
X158090533Y-101207328D01*
X158038800Y-101467411D01*
X158038800Y-101732589D01*
X158090533Y-101992672D01*
X158192013Y-102237665D01*
X158339338Y-102458153D01*
X158526847Y-102645662D01*
X158747335Y-102792987D01*
X158933260Y-102870000D01*
X158747335Y-102947013D01*
X158526847Y-103094338D01*
X158339338Y-103281847D01*
X158192013Y-103502335D01*
X158090533Y-103747328D01*
X158038800Y-104007411D01*
X158038800Y-104272589D01*
X158090533Y-104532672D01*
X158139132Y-104650000D01*
X153645868Y-104650000D01*
X153694467Y-104532672D01*
X153746200Y-104272589D01*
X153746200Y-104007411D01*
X153694467Y-103747328D01*
X153592987Y-103502335D01*
X153445662Y-103281847D01*
X153258153Y-103094338D01*
X153037665Y-102947013D01*
X152851740Y-102870000D01*
X153037665Y-102792987D01*
X153258153Y-102645662D01*
X153445662Y-102458153D01*
X153592987Y-102237665D01*
X153694467Y-101992672D01*
X153746200Y-101732589D01*
X153746200Y-101467411D01*
X153694467Y-101207328D01*
X153592987Y-100962335D01*
X153495847Y-100816954D01*
X154181002Y-100131799D01*
X154210001Y-100108001D01*
X154304974Y-99992276D01*
X154375546Y-99860247D01*
X154419003Y-99716986D01*
X154430000Y-99605333D01*
X154430000Y-99605325D01*
X154433676Y-99568000D01*
X154430000Y-99530675D01*
X154430000Y-95922322D01*
X154433676Y-95884999D01*
X154430000Y-95847676D01*
X154430000Y-95847667D01*
X154419003Y-95736014D01*
X154375546Y-95592753D01*
X154304974Y-95460724D01*
X154210001Y-95344999D01*
X154181004Y-95321202D01*
X153085000Y-94225199D01*
X153085000Y-87036471D01*
X153108883Y-87033868D01*
X153109051Y-87033814D01*
X153110887Y-87034371D01*
X153250000Y-87048072D01*
X153400000Y-87048072D01*
X153539113Y-87034371D01*
X153575000Y-87023485D01*
X153610887Y-87034371D01*
X153750000Y-87048072D01*
X153900000Y-87048072D01*
X154039113Y-87034371D01*
X154075000Y-87023485D01*
X154110887Y-87034371D01*
X154250000Y-87048072D01*
X154400000Y-87048072D01*
X154539113Y-87034371D01*
X154575000Y-87023485D01*
X154610887Y-87034371D01*
X154750000Y-87048072D01*
X154900000Y-87048072D01*
X155039113Y-87034371D01*
X155075000Y-87023485D01*
X155110887Y-87034371D01*
X155250000Y-87048072D01*
X155400000Y-87048072D01*
X155539113Y-87034371D01*
X155575000Y-87023485D01*
X155610887Y-87034371D01*
X155750000Y-87048072D01*
X155900000Y-87048072D01*
X156039113Y-87034371D01*
X156075000Y-87023485D01*
X156110887Y-87034371D01*
X156250000Y-87048072D01*
X156400000Y-87048072D01*
X156539113Y-87034371D01*
X156575000Y-87023485D01*
X156610887Y-87034371D01*
X156750000Y-87048072D01*
X156900000Y-87048072D01*
X157039113Y-87034371D01*
X157075000Y-87023485D01*
X157110887Y-87034371D01*
X157250000Y-87048072D01*
X157400000Y-87048072D01*
X157539113Y-87034371D01*
X157575000Y-87023485D01*
X157610887Y-87034371D01*
X157750000Y-87048072D01*
X157900000Y-87048072D01*
X158039113Y-87034371D01*
X158075000Y-87023485D01*
X158110887Y-87034371D01*
X158250000Y-87048072D01*
X158400000Y-87048072D01*
X158539113Y-87034371D01*
X158575000Y-87023485D01*
X158610887Y-87034371D01*
X158750000Y-87048072D01*
X158900000Y-87048072D01*
X159039113Y-87034371D01*
X159075000Y-87023485D01*
X159110887Y-87034371D01*
X159250000Y-87048072D01*
X159400000Y-87048072D01*
X159539113Y-87034371D01*
X159672881Y-86993793D01*
X159796162Y-86927898D01*
X159904218Y-86839218D01*
X159992898Y-86731162D01*
X160058793Y-86607881D01*
X160099371Y-86474113D01*
X160113072Y-86335000D01*
X160113072Y-86081890D01*
X169373524Y-86081890D01*
X169418175Y-86229099D01*
X169543359Y-86491920D01*
X169717412Y-86725269D01*
X169933645Y-86920178D01*
X170183748Y-87069157D01*
X170458109Y-87166481D01*
X170688000Y-87045814D01*
X170688000Y-85852000D01*
X169494845Y-85852000D01*
X169373524Y-86081890D01*
X160113072Y-86081890D01*
X160113072Y-85010000D01*
X160099371Y-84870887D01*
X160058793Y-84737119D01*
X159992898Y-84613838D01*
X159904218Y-84505782D01*
X159796162Y-84417102D01*
X159672881Y-84351207D01*
X159539113Y-84310629D01*
X159400000Y-84296928D01*
X159250000Y-84296928D01*
X159110887Y-84310629D01*
X159085000Y-84318482D01*
X159085000Y-80356515D01*
X159240256Y-80292205D01*
X159409774Y-80178937D01*
X159553937Y-80034774D01*
X159563809Y-80020000D01*
X159883482Y-80020000D01*
X159875629Y-80045887D01*
G37*
%TD.AperFunction*%
D16*
X147840997Y-83130313D02*
X147830000Y-83241966D01*
X147830000Y-83241976D01*
X147826324Y-83279298D01*
X147830000Y-83316620D01*
X147830001Y-92734132D01*
X147712672Y-92685533D01*
X147452589Y-92633800D01*
X147187411Y-92633800D01*
X146927328Y-92685533D01*
X146682335Y-92787013D01*
X146461847Y-92934338D01*
X146274338Y-93121847D01*
X146127013Y-93342335D01*
X146049031Y-93530600D01*
X145999542Y-93394720D01*
X145944183Y-93291152D01*
X145709273Y-93230332D01*
X144959605Y-93980000D01*
X145709273Y-94729668D01*
X145944183Y-94668848D01*
X146052206Y-94437066D01*
X146127013Y-94617665D01*
X146274338Y-94838153D01*
X146461847Y-95025662D01*
X146682335Y-95172987D01*
X146868260Y-95250000D01*
X146682335Y-95327013D01*
X146461847Y-95474338D01*
X146274338Y-95661847D01*
X146127013Y-95882335D01*
X146050000Y-96068260D01*
X145972987Y-95882335D01*
X145825662Y-95661847D01*
X145638153Y-95474338D01*
X145417665Y-95327013D01*
X145229400Y-95249031D01*
X145365280Y-95199542D01*
X145468848Y-95144183D01*
X145529668Y-94909273D01*
X144780000Y-94159605D01*
X144765858Y-94173748D01*
X144586253Y-93994143D01*
X144600395Y-93980000D01*
X144586253Y-93965858D01*
X144765858Y-93786253D01*
X144780000Y-93800395D01*
X145529668Y-93050727D01*
X145468848Y-92815817D01*
X145228491Y-92703798D01*
X144970898Y-92640824D01*
X144705970Y-92629313D01*
X144503799Y-92660475D01*
X144503799Y-85810232D01*
X147294033Y-83020000D01*
X147874460Y-83020000D01*
X147840997Y-83130313D01*
%TA.AperFunction,Conductor*%
D17*
G36*
X147840997Y-83130313D02*
G01*
X147830000Y-83241966D01*
X147830000Y-83241976D01*
X147826324Y-83279298D01*
X147830000Y-83316620D01*
X147830001Y-92734132D01*
X147712672Y-92685533D01*
X147452589Y-92633800D01*
X147187411Y-92633800D01*
X146927328Y-92685533D01*
X146682335Y-92787013D01*
X146461847Y-92934338D01*
X146274338Y-93121847D01*
X146127013Y-93342335D01*
X146049031Y-93530600D01*
X145999542Y-93394720D01*
X145944183Y-93291152D01*
X145709273Y-93230332D01*
X144959605Y-93980000D01*
X145709273Y-94729668D01*
X145944183Y-94668848D01*
X146052206Y-94437066D01*
X146127013Y-94617665D01*
X146274338Y-94838153D01*
X146461847Y-95025662D01*
X146682335Y-95172987D01*
X146868260Y-95250000D01*
X146682335Y-95327013D01*
X146461847Y-95474338D01*
X146274338Y-95661847D01*
X146127013Y-95882335D01*
X146050000Y-96068260D01*
X145972987Y-95882335D01*
X145825662Y-95661847D01*
X145638153Y-95474338D01*
X145417665Y-95327013D01*
X145229400Y-95249031D01*
X145365280Y-95199542D01*
X145468848Y-95144183D01*
X145529668Y-94909273D01*
X144780000Y-94159605D01*
X144765858Y-94173748D01*
X144586253Y-93994143D01*
X144600395Y-93980000D01*
X144586253Y-93965858D01*
X144765858Y-93786253D01*
X144780000Y-93800395D01*
X145529668Y-93050727D01*
X145468848Y-92815817D01*
X145228491Y-92703798D01*
X144970898Y-92640824D01*
X144705970Y-92629313D01*
X144503799Y-92660475D01*
X144503799Y-85810232D01*
X147294033Y-83020000D01*
X147874460Y-83020000D01*
X147840997Y-83130313D01*
G37*
%TD.AperFunction*%
D16*
X154565001Y-82614803D02*
X154565000Y-84318482D01*
X154539113Y-84310629D01*
X154400000Y-84296928D01*
X154250000Y-84296928D01*
X154110887Y-84310629D01*
X154075000Y-84321515D01*
X154039113Y-84310629D01*
X153900000Y-84296928D01*
X153750000Y-84296928D01*
X153610887Y-84310629D01*
X153575000Y-84321515D01*
X153539113Y-84310629D01*
X153400000Y-84296928D01*
X153322726Y-84296928D01*
X153395226Y-84121898D01*
X153435000Y-83921939D01*
X153435000Y-83718061D01*
X153395226Y-83518102D01*
X153317205Y-83329744D01*
X153203937Y-83160226D01*
X153059774Y-83016063D01*
X152890256Y-82902795D01*
X152701898Y-82824774D01*
X152501939Y-82785000D01*
X152298061Y-82785000D01*
X152098102Y-82824774D01*
X151909744Y-82902795D01*
X151740226Y-83016063D01*
X151596063Y-83160226D01*
X151482795Y-83329744D01*
X151404774Y-83518102D01*
X151365000Y-83718061D01*
X151365000Y-83921939D01*
X151404774Y-84121898D01*
X151482795Y-84310256D01*
X151504590Y-84342874D01*
X151477119Y-84351207D01*
X151353838Y-84417102D01*
X151245782Y-84505782D01*
X151157102Y-84613838D01*
X151091207Y-84737119D01*
X151050629Y-84870887D01*
X151036928Y-85010000D01*
X151036928Y-86335000D01*
X151050629Y-86474113D01*
X151065000Y-86521488D01*
X151065001Y-93371339D01*
X151052987Y-93342335D01*
X150905662Y-93121847D01*
X150718153Y-92934338D01*
X150497665Y-92787013D01*
X150252672Y-92685533D01*
X149992589Y-92633800D01*
X149727411Y-92633800D01*
X149467328Y-92685533D01*
X149350000Y-92734132D01*
X149350000Y-84548072D01*
X150575000Y-84548072D01*
X150714113Y-84534371D01*
X150847881Y-84493793D01*
X150971162Y-84427898D01*
X151079218Y-84339218D01*
X151167898Y-84231162D01*
X151233793Y-84107881D01*
X151274371Y-83974113D01*
X151288072Y-83835000D01*
X151288072Y-83685000D01*
X151274371Y-83545887D01*
X151263485Y-83510000D01*
X151274371Y-83474113D01*
X151288072Y-83335000D01*
X151288072Y-83185000D01*
X151274371Y-83045887D01*
X151263485Y-83010000D01*
X151274371Y-82974113D01*
X151288072Y-82835000D01*
X151288072Y-82685000D01*
X151274371Y-82545887D01*
X151263485Y-82510000D01*
X151274371Y-82474113D01*
X151288072Y-82335000D01*
X151288072Y-82185000D01*
X151274371Y-82045887D01*
X151273814Y-82044051D01*
X151273868Y-82043883D01*
X151285000Y-81941750D01*
X151209018Y-81865768D01*
X151167898Y-81788838D01*
X151144231Y-81760000D01*
X151167898Y-81731162D01*
X151209018Y-81654232D01*
X151285000Y-81578250D01*
X151273868Y-81476117D01*
X151273814Y-81475949D01*
X151274371Y-81474113D01*
X151288072Y-81335000D01*
X151288072Y-81185000D01*
X151274371Y-81045887D01*
X151263485Y-81010000D01*
X151274371Y-80974113D01*
X151278824Y-80928895D01*
X151463102Y-81005226D01*
X151663061Y-81045000D01*
X151866939Y-81045000D01*
X152066898Y-81005226D01*
X152255256Y-80927205D01*
X152424774Y-80813937D01*
X152568937Y-80669774D01*
X152589379Y-80639180D01*
X154565001Y-82614803D01*
%TA.AperFunction,Conductor*%
D17*
G36*
X154565001Y-82614803D02*
G01*
X154565000Y-84318482D01*
X154539113Y-84310629D01*
X154400000Y-84296928D01*
X154250000Y-84296928D01*
X154110887Y-84310629D01*
X154075000Y-84321515D01*
X154039113Y-84310629D01*
X153900000Y-84296928D01*
X153750000Y-84296928D01*
X153610887Y-84310629D01*
X153575000Y-84321515D01*
X153539113Y-84310629D01*
X153400000Y-84296928D01*
X153322726Y-84296928D01*
X153395226Y-84121898D01*
X153435000Y-83921939D01*
X153435000Y-83718061D01*
X153395226Y-83518102D01*
X153317205Y-83329744D01*
X153203937Y-83160226D01*
X153059774Y-83016063D01*
X152890256Y-82902795D01*
X152701898Y-82824774D01*
X152501939Y-82785000D01*
X152298061Y-82785000D01*
X152098102Y-82824774D01*
X151909744Y-82902795D01*
X151740226Y-83016063D01*
X151596063Y-83160226D01*
X151482795Y-83329744D01*
X151404774Y-83518102D01*
X151365000Y-83718061D01*
X151365000Y-83921939D01*
X151404774Y-84121898D01*
X151482795Y-84310256D01*
X151504590Y-84342874D01*
X151477119Y-84351207D01*
X151353838Y-84417102D01*
X151245782Y-84505782D01*
X151157102Y-84613838D01*
X151091207Y-84737119D01*
X151050629Y-84870887D01*
X151036928Y-85010000D01*
X151036928Y-86335000D01*
X151050629Y-86474113D01*
X151065000Y-86521488D01*
X151065001Y-93371339D01*
X151052987Y-93342335D01*
X150905662Y-93121847D01*
X150718153Y-92934338D01*
X150497665Y-92787013D01*
X150252672Y-92685533D01*
X149992589Y-92633800D01*
X149727411Y-92633800D01*
X149467328Y-92685533D01*
X149350000Y-92734132D01*
X149350000Y-84548072D01*
X150575000Y-84548072D01*
X150714113Y-84534371D01*
X150847881Y-84493793D01*
X150971162Y-84427898D01*
X151079218Y-84339218D01*
X151167898Y-84231162D01*
X151233793Y-84107881D01*
X151274371Y-83974113D01*
X151288072Y-83835000D01*
X151288072Y-83685000D01*
X151274371Y-83545887D01*
X151263485Y-83510000D01*
X151274371Y-83474113D01*
X151288072Y-83335000D01*
X151288072Y-83185000D01*
X151274371Y-83045887D01*
X151263485Y-83010000D01*
X151274371Y-82974113D01*
X151288072Y-82835000D01*
X151288072Y-82685000D01*
X151274371Y-82545887D01*
X151263485Y-82510000D01*
X151274371Y-82474113D01*
X151288072Y-82335000D01*
X151288072Y-82185000D01*
X151274371Y-82045887D01*
X151273814Y-82044051D01*
X151273868Y-82043883D01*
X151285000Y-81941750D01*
X151209018Y-81865768D01*
X151167898Y-81788838D01*
X151144231Y-81760000D01*
X151167898Y-81731162D01*
X151209018Y-81654232D01*
X151285000Y-81578250D01*
X151273868Y-81476117D01*
X151273814Y-81475949D01*
X151274371Y-81474113D01*
X151288072Y-81335000D01*
X151288072Y-81185000D01*
X151274371Y-81045887D01*
X151263485Y-81010000D01*
X151274371Y-80974113D01*
X151278824Y-80928895D01*
X151463102Y-81005226D01*
X151663061Y-81045000D01*
X151866939Y-81045000D01*
X152066898Y-81005226D01*
X152255256Y-80927205D01*
X152424774Y-80813937D01*
X152568937Y-80669774D01*
X152589379Y-80639180D01*
X154565001Y-82614803D01*
G37*
%TD.AperFunction*%
%TD*%
M02*
