M48
; DRILL file {KiCad (5.1.10)-1} date 12/30/21 15:20:10
; FORMAT={-:-/ absolute / metric / decimal}
; #@! TF.CreationDate,2021-12-30T15:20:10-05:00
; #@! TF.GenerationSoftware,Kicad,Pcbnew,(5.1.10)-1
; #@! TF.FileFunction,Plated,1,2,PTH
FMAT,2
METRIC
T1C0.400
T2C0.800
T3C1.000
%
G90
G05
T1
X136.525Y-65.405
X136.525Y-112.395
X144.145Y-76.835
X144.145Y-78.74
X146.05Y-104.14
X147.32Y-83.82
X147.955Y-75.565
X147.955Y-100.33
X151.765Y-80.01
X152.4Y-81.915
X152.4Y-83.82
X153.67Y-78.74
X153.67Y-88.265
X154.94Y-76.835
X156.21Y-76.2
X158.75Y-79.375
X161.29Y-85.725
X161.925Y-71.755
X163.195Y-78.74
X163.195Y-80.645
X164.465Y-73.025
X165.735Y-104.14
X167.64Y-100.33
X170.815Y-88.9
X173.355Y-88.9
X175.26Y-65.405
X175.26Y-112.395
T2
X139.7Y-96.52
X139.7Y-99.06
X139.7Y-101.6
X139.7Y-104.14
X139.7Y-106.68
X142.24Y-93.98
X142.24Y-96.52
X142.24Y-99.06
X142.24Y-101.6
X142.24Y-104.14
X142.24Y-106.68
X142.24Y-109.22
X144.78Y-93.98
X144.78Y-96.52
X144.78Y-106.68
X144.78Y-109.22
X147.32Y-93.98
X147.32Y-96.52
X147.32Y-106.68
X147.32Y-109.22
X149.86Y-93.98
X149.86Y-96.52
X149.86Y-99.06
X149.86Y-101.6
X149.86Y-104.14
X149.86Y-106.68
X149.86Y-109.22
X152.4Y-96.52
X152.4Y-99.06
X152.4Y-101.6
X152.4Y-104.14
X152.4Y-106.68
X159.385Y-96.52
X159.385Y-99.06
X159.385Y-101.6
X159.385Y-104.14
X159.385Y-106.68
X161.925Y-93.98
X161.925Y-96.52
X161.925Y-99.06
X161.925Y-101.6
X161.925Y-104.14
X161.925Y-106.68
X161.925Y-109.22
X164.465Y-93.98
X164.465Y-96.52
X164.465Y-106.68
X164.465Y-109.22
X167.005Y-93.98
X167.005Y-96.52
X167.005Y-106.68
X167.005Y-109.22
X169.545Y-93.98
X169.545Y-96.52
X169.545Y-99.06
X169.545Y-101.6
X169.545Y-104.14
X169.545Y-106.68
X169.545Y-109.22
X172.085Y-96.52
X172.085Y-99.06
X172.085Y-101.6
X172.085Y-104.14
X172.085Y-106.68
T3
X138.43Y-73.025
X138.43Y-75.565
X138.43Y-78.105
X138.43Y-80.645
X138.43Y-83.185
X138.43Y-85.725
X144.145Y-67.945
X144.145Y-70.485
X144.145Y-73.025
X146.685Y-67.945
X146.685Y-70.485
X146.685Y-73.025
X153.67Y-67.945
X156.21Y-67.945
X158.75Y-67.945
X161.29Y-67.945
X170.815Y-67.945
X170.815Y-70.485
X170.815Y-73.025
X170.815Y-75.565
X170.815Y-78.105
X170.815Y-80.645
X170.815Y-83.185
X170.815Y-85.725
X173.355Y-67.945
X173.355Y-70.485
X173.355Y-73.025
X173.355Y-75.565
X173.355Y-78.105
X173.355Y-80.645
X173.355Y-83.185
X173.355Y-85.725
T0
M30
