%TF.GenerationSoftware,KiCad,Pcbnew,(5.1.10)-1*%
%TF.CreationDate,2021-12-30T15:20:09-05:00*%
%TF.ProjectId,LPCMangler,4c50434d-616e-4676-9c65-722e6b696361,rev?*%
%TF.SameCoordinates,Original*%
%TF.FileFunction,Soldermask,Top*%
%TF.FilePolarity,Negative*%
%FSLAX46Y46*%
G04 Gerber Fmt 4.6, Leading zero omitted, Abs format (unit mm)*
G04 Created by KiCad (PCBNEW (5.1.10)-1) date 2021-12-30 15:20:09*
%MOMM*%
%LPD*%
G01*
G04 APERTURE LIST*
%ADD10C,1.422400*%
%ADD11R,1.422400X1.422400*%
%ADD12O,1.700000X1.700000*%
%ADD13R,1.700000X1.700000*%
G04 APERTURE END LIST*
%TO.C,R3*%
G36*
G01*
X149712500Y-67707500D02*
X149712500Y-68182500D01*
G75*
G02*
X149475000Y-68420000I-237500J0D01*
G01*
X148975000Y-68420000D01*
G75*
G02*
X148737500Y-68182500I0J237500D01*
G01*
X148737500Y-67707500D01*
G75*
G02*
X148975000Y-67470000I237500J0D01*
G01*
X149475000Y-67470000D01*
G75*
G02*
X149712500Y-67707500I0J-237500D01*
G01*
G37*
G36*
G01*
X151537500Y-67707500D02*
X151537500Y-68182500D01*
G75*
G02*
X151300000Y-68420000I-237500J0D01*
G01*
X150800000Y-68420000D01*
G75*
G02*
X150562500Y-68182500I0J237500D01*
G01*
X150562500Y-67707500D01*
G75*
G02*
X150800000Y-67470000I237500J0D01*
G01*
X151300000Y-67470000D01*
G75*
G02*
X151537500Y-67707500I0J-237500D01*
G01*
G37*
%TD*%
%TO.C,R2*%
G36*
G01*
X149712500Y-70247500D02*
X149712500Y-70722500D01*
G75*
G02*
X149475000Y-70960000I-237500J0D01*
G01*
X148975000Y-70960000D01*
G75*
G02*
X148737500Y-70722500I0J237500D01*
G01*
X148737500Y-70247500D01*
G75*
G02*
X148975000Y-70010000I237500J0D01*
G01*
X149475000Y-70010000D01*
G75*
G02*
X149712500Y-70247500I0J-237500D01*
G01*
G37*
G36*
G01*
X151537500Y-70247500D02*
X151537500Y-70722500D01*
G75*
G02*
X151300000Y-70960000I-237500J0D01*
G01*
X150800000Y-70960000D01*
G75*
G02*
X150562500Y-70722500I0J237500D01*
G01*
X150562500Y-70247500D01*
G75*
G02*
X150800000Y-70010000I237500J0D01*
G01*
X151300000Y-70010000D01*
G75*
G02*
X151537500Y-70247500I0J-237500D01*
G01*
G37*
%TD*%
%TO.C,R1*%
G36*
G01*
X149712500Y-72787500D02*
X149712500Y-73262500D01*
G75*
G02*
X149475000Y-73500000I-237500J0D01*
G01*
X148975000Y-73500000D01*
G75*
G02*
X148737500Y-73262500I0J237500D01*
G01*
X148737500Y-72787500D01*
G75*
G02*
X148975000Y-72550000I237500J0D01*
G01*
X149475000Y-72550000D01*
G75*
G02*
X149712500Y-72787500I0J-237500D01*
G01*
G37*
G36*
G01*
X151537500Y-72787500D02*
X151537500Y-73262500D01*
G75*
G02*
X151300000Y-73500000I-237500J0D01*
G01*
X150800000Y-73500000D01*
G75*
G02*
X150562500Y-73262500I0J237500D01*
G01*
X150562500Y-72787500D01*
G75*
G02*
X150800000Y-72550000I237500J0D01*
G01*
X151300000Y-72550000D01*
G75*
G02*
X151537500Y-72787500I0J-237500D01*
G01*
G37*
%TD*%
D10*
%TO.C,U2*%
X152400000Y-106680000D03*
X152400000Y-104140000D03*
X152400000Y-101600000D03*
X152400000Y-99060000D03*
X149860000Y-104140000D03*
X149860000Y-101600000D03*
X149860000Y-99060000D03*
X149860000Y-96520000D03*
X149860000Y-93980000D03*
X147320000Y-93980000D03*
X144780000Y-93980000D03*
X142240000Y-93980000D03*
X152400000Y-96520000D03*
X147320000Y-96520000D03*
X144780000Y-96520000D03*
X142240000Y-96520000D03*
X139700000Y-96520000D03*
X139700000Y-99060000D03*
X139700000Y-101600000D03*
X139700000Y-104140000D03*
X139700000Y-106680000D03*
X142240000Y-99060000D03*
X142240000Y-101600000D03*
X142240000Y-104140000D03*
X142240000Y-106680000D03*
X149860000Y-109220000D03*
X147320000Y-109220000D03*
X142240000Y-109220000D03*
X144780000Y-109220000D03*
X149860000Y-106680000D03*
X144780000Y-106680000D03*
D11*
X147320000Y-106680000D03*
%TD*%
D10*
%TO.C,U1*%
X172085000Y-106680000D03*
X172085000Y-104140000D03*
X172085000Y-101600000D03*
X172085000Y-99060000D03*
X169545000Y-104140000D03*
X169545000Y-101600000D03*
X169545000Y-99060000D03*
X169545000Y-96520000D03*
X169545000Y-93980000D03*
X167005000Y-93980000D03*
X164465000Y-93980000D03*
X161925000Y-93980000D03*
X172085000Y-96520000D03*
X167005000Y-96520000D03*
X164465000Y-96520000D03*
X161925000Y-96520000D03*
X159385000Y-96520000D03*
X159385000Y-99060000D03*
X159385000Y-101600000D03*
X159385000Y-104140000D03*
X159385000Y-106680000D03*
X161925000Y-99060000D03*
X161925000Y-101600000D03*
X161925000Y-104140000D03*
X161925000Y-106680000D03*
X169545000Y-109220000D03*
X167005000Y-109220000D03*
X161925000Y-109220000D03*
X164465000Y-109220000D03*
X169545000Y-106680000D03*
X164465000Y-106680000D03*
D11*
X167005000Y-106680000D03*
%TD*%
D12*
%TO.C,JP1*%
X144145000Y-67945000D03*
X146685000Y-67945000D03*
X144145000Y-70485000D03*
X146685000Y-70485000D03*
X144145000Y-73025000D03*
D13*
X146685000Y-73025000D03*
%TD*%
D12*
%TO.C,J3*%
X153670000Y-67945000D03*
X156210000Y-67945000D03*
X158750000Y-67945000D03*
D13*
X161290000Y-67945000D03*
%TD*%
D12*
%TO.C,J2*%
X138430000Y-73025000D03*
X138430000Y-75565000D03*
X138430000Y-78105000D03*
X138430000Y-80645000D03*
X138430000Y-83185000D03*
D13*
X138430000Y-85725000D03*
%TD*%
D12*
%TO.C,J1*%
X170815000Y-67945000D03*
X173355000Y-67945000D03*
X170815000Y-70485000D03*
X173355000Y-70485000D03*
X170815000Y-73025000D03*
X173355000Y-73025000D03*
X170815000Y-75565000D03*
X173355000Y-75565000D03*
X170815000Y-78105000D03*
X173355000Y-78105000D03*
X170815000Y-80645000D03*
X173355000Y-80645000D03*
X170815000Y-83185000D03*
X173355000Y-83185000D03*
X170815000Y-85725000D03*
D13*
X173355000Y-85725000D03*
%TD*%
%TO.C,C3*%
G36*
G01*
X155337500Y-80335000D02*
X155812500Y-80335000D01*
G75*
G02*
X156050000Y-80572500I0J-237500D01*
G01*
X156050000Y-81172500D01*
G75*
G02*
X155812500Y-81410000I-237500J0D01*
G01*
X155337500Y-81410000D01*
G75*
G02*
X155100000Y-81172500I0J237500D01*
G01*
X155100000Y-80572500D01*
G75*
G02*
X155337500Y-80335000I237500J0D01*
G01*
G37*
G36*
G01*
X155337500Y-78610000D02*
X155812500Y-78610000D01*
G75*
G02*
X156050000Y-78847500I0J-237500D01*
G01*
X156050000Y-79447500D01*
G75*
G02*
X155812500Y-79685000I-237500J0D01*
G01*
X155337500Y-79685000D01*
G75*
G02*
X155100000Y-79447500I0J237500D01*
G01*
X155100000Y-78847500D01*
G75*
G02*
X155337500Y-78610000I237500J0D01*
G01*
G37*
%TD*%
%TO.C,C2*%
G36*
G01*
X146287500Y-101275000D02*
X145812500Y-101275000D01*
G75*
G02*
X145575000Y-101037500I0J237500D01*
G01*
X145575000Y-100437500D01*
G75*
G02*
X145812500Y-100200000I237500J0D01*
G01*
X146287500Y-100200000D01*
G75*
G02*
X146525000Y-100437500I0J-237500D01*
G01*
X146525000Y-101037500D01*
G75*
G02*
X146287500Y-101275000I-237500J0D01*
G01*
G37*
G36*
G01*
X146287500Y-103000000D02*
X145812500Y-103000000D01*
G75*
G02*
X145575000Y-102762500I0J237500D01*
G01*
X145575000Y-102162500D01*
G75*
G02*
X145812500Y-101925000I237500J0D01*
G01*
X146287500Y-101925000D01*
G75*
G02*
X146525000Y-102162500I0J-237500D01*
G01*
X146525000Y-102762500D01*
G75*
G02*
X146287500Y-103000000I-237500J0D01*
G01*
G37*
%TD*%
%TO.C,C1*%
G36*
G01*
X165972500Y-101275000D02*
X165497500Y-101275000D01*
G75*
G02*
X165260000Y-101037500I0J237500D01*
G01*
X165260000Y-100437500D01*
G75*
G02*
X165497500Y-100200000I237500J0D01*
G01*
X165972500Y-100200000D01*
G75*
G02*
X166210000Y-100437500I0J-237500D01*
G01*
X166210000Y-101037500D01*
G75*
G02*
X165972500Y-101275000I-237500J0D01*
G01*
G37*
G36*
G01*
X165972500Y-103000000D02*
X165497500Y-103000000D01*
G75*
G02*
X165260000Y-102762500I0J237500D01*
G01*
X165260000Y-102162500D01*
G75*
G02*
X165497500Y-101925000I237500J0D01*
G01*
X165972500Y-101925000D01*
G75*
G02*
X166210000Y-102162500I0J-237500D01*
G01*
X166210000Y-102762500D01*
G75*
G02*
X165972500Y-103000000I-237500J0D01*
G01*
G37*
%TD*%
M02*
