%TF.GenerationSoftware,KiCad,Pcbnew,(5.1.10)-1*%
%TF.CreationDate,2021-12-30T15:20:08-05:00*%
%TF.ProjectId,LPCMangler,4c50434d-616e-4676-9c65-722e6b696361,rev?*%
%TF.SameCoordinates,Original*%
%TF.FileFunction,Copper,L1,Top*%
%TF.FilePolarity,Positive*%
%FSLAX46Y46*%
G04 Gerber Fmt 4.6, Leading zero omitted, Abs format (unit mm)*
G04 Created by KiCad (PCBNEW (5.1.10)-1) date 2021-12-30 15:20:08*
%MOMM*%
%LPD*%
G01*
G04 APERTURE LIST*
%TA.AperFunction,ComponentPad*%
%ADD10C,1.422400*%
%TD*%
%TA.AperFunction,ComponentPad*%
%ADD11R,1.422400X1.422400*%
%TD*%
%TA.AperFunction,ComponentPad*%
%ADD12O,1.700000X1.700000*%
%TD*%
%TA.AperFunction,ComponentPad*%
%ADD13R,1.700000X1.700000*%
%TD*%
%TA.AperFunction,ViaPad*%
%ADD14C,0.800000*%
%TD*%
%TA.AperFunction,Conductor*%
%ADD15C,0.250000*%
%TD*%
%TA.AperFunction,Conductor*%
%ADD16C,0.254000*%
%TD*%
%TA.AperFunction,Conductor*%
%ADD17C,0.100000*%
%TD*%
G04 APERTURE END LIST*
%TO.P,R3,2*%
%TO.N,/BANK1*%
%TA.AperFunction,SMDPad,CuDef*%
G36*
G01*
X149712500Y-67707500D02*
X149712500Y-68182500D01*
G75*
G02*
X149475000Y-68420000I-237500J0D01*
G01*
X148975000Y-68420000D01*
G75*
G02*
X148737500Y-68182500I0J237500D01*
G01*
X148737500Y-67707500D01*
G75*
G02*
X148975000Y-67470000I237500J0D01*
G01*
X149475000Y-67470000D01*
G75*
G02*
X149712500Y-67707500I0J-237500D01*
G01*
G37*
%TD.AperFunction*%
%TO.P,R3,1*%
%TO.N,/+3V3*%
%TA.AperFunction,SMDPad,CuDef*%
G36*
G01*
X151537500Y-67707500D02*
X151537500Y-68182500D01*
G75*
G02*
X151300000Y-68420000I-237500J0D01*
G01*
X150800000Y-68420000D01*
G75*
G02*
X150562500Y-68182500I0J237500D01*
G01*
X150562500Y-67707500D01*
G75*
G02*
X150800000Y-67470000I237500J0D01*
G01*
X151300000Y-67470000D01*
G75*
G02*
X151537500Y-67707500I0J-237500D01*
G01*
G37*
%TD.AperFunction*%
%TD*%
%TO.P,R2,2*%
%TO.N,/BANK0*%
%TA.AperFunction,SMDPad,CuDef*%
G36*
G01*
X149712500Y-70247500D02*
X149712500Y-70722500D01*
G75*
G02*
X149475000Y-70960000I-237500J0D01*
G01*
X148975000Y-70960000D01*
G75*
G02*
X148737500Y-70722500I0J237500D01*
G01*
X148737500Y-70247500D01*
G75*
G02*
X148975000Y-70010000I237500J0D01*
G01*
X149475000Y-70010000D01*
G75*
G02*
X149712500Y-70247500I0J-237500D01*
G01*
G37*
%TD.AperFunction*%
%TO.P,R2,1*%
%TO.N,/+3V3*%
%TA.AperFunction,SMDPad,CuDef*%
G36*
G01*
X151537500Y-70247500D02*
X151537500Y-70722500D01*
G75*
G02*
X151300000Y-70960000I-237500J0D01*
G01*
X150800000Y-70960000D01*
G75*
G02*
X150562500Y-70722500I0J237500D01*
G01*
X150562500Y-70247500D01*
G75*
G02*
X150800000Y-70010000I237500J0D01*
G01*
X151300000Y-70010000D01*
G75*
G02*
X151537500Y-70247500I0J-237500D01*
G01*
G37*
%TD.AperFunction*%
%TD*%
%TO.P,R1,2*%
%TO.N,/BYPASS*%
%TA.AperFunction,SMDPad,CuDef*%
G36*
G01*
X149712500Y-72787500D02*
X149712500Y-73262500D01*
G75*
G02*
X149475000Y-73500000I-237500J0D01*
G01*
X148975000Y-73500000D01*
G75*
G02*
X148737500Y-73262500I0J237500D01*
G01*
X148737500Y-72787500D01*
G75*
G02*
X148975000Y-72550000I237500J0D01*
G01*
X149475000Y-72550000D01*
G75*
G02*
X149712500Y-72787500I0J-237500D01*
G01*
G37*
%TD.AperFunction*%
%TO.P,R1,1*%
%TO.N,/+3V3*%
%TA.AperFunction,SMDPad,CuDef*%
G36*
G01*
X151537500Y-72787500D02*
X151537500Y-73262500D01*
G75*
G02*
X151300000Y-73500000I-237500J0D01*
G01*
X150800000Y-73500000D01*
G75*
G02*
X150562500Y-73262500I0J237500D01*
G01*
X150562500Y-72787500D01*
G75*
G02*
X150800000Y-72550000I237500J0D01*
G01*
X151300000Y-72550000D01*
G75*
G02*
X151537500Y-72787500I0J-237500D01*
G01*
G37*
%TD.AperFunction*%
%TD*%
D10*
%TO.P,U2,29*%
%TO.N,Net-(U2-Pad29)*%
X152400000Y-106680000D03*
%TO.P,U2,27*%
%TO.N,Net-(U2-Pad27)*%
X152400000Y-104140000D03*
%TO.P,U2,25*%
%TO.N,/+3V3*%
X152400000Y-101600000D03*
%TO.P,U2,23*%
%TO.N,/~S_LFRAME*%
X152400000Y-99060000D03*
%TO.P,U2,28*%
%TO.N,Net-(U2-Pad28)*%
X149860000Y-104140000D03*
%TO.P,U2,26*%
%TO.N,Net-(U2-Pad26)*%
X149860000Y-101600000D03*
%TO.P,U2,24*%
%TO.N,/~RST*%
X149860000Y-99060000D03*
%TO.P,U2,22*%
%TO.N,Net-(U2-Pad22)*%
X149860000Y-96520000D03*
%TO.P,U2,20*%
%TO.N,Net-(U2-Pad20)*%
X149860000Y-93980000D03*
%TO.P,U2,18*%
%TO.N,Net-(U2-Pad18)*%
X147320000Y-93980000D03*
%TO.P,U2,16*%
%TO.N,/GND*%
X144780000Y-93980000D03*
%TO.P,U2,14*%
%TO.N,/S_LAD1*%
X142240000Y-93980000D03*
%TO.P,U2,21*%
%TO.N,Net-(U2-Pad21)*%
X152400000Y-96520000D03*
%TO.P,U2,19*%
%TO.N,Net-(U2-Pad19)*%
X147320000Y-96520000D03*
%TO.P,U2,17*%
%TO.N,/S_LAD3*%
X144780000Y-96520000D03*
%TO.P,U2,15*%
%TO.N,/S_LAD2*%
X142240000Y-96520000D03*
%TO.P,U2,13*%
%TO.N,/S_LAD0*%
X139700000Y-96520000D03*
%TO.P,U2,11*%
%TO.N,/+3V3*%
X139700000Y-99060000D03*
%TO.P,U2,9*%
X139700000Y-101600000D03*
%TO.P,U2,7*%
X139700000Y-104140000D03*
%TO.P,U2,5*%
X139700000Y-106680000D03*
%TO.P,U2,12*%
%TO.N,/GND*%
X142240000Y-99060000D03*
%TO.P,U2,10*%
%TO.N,/+3V3*%
X142240000Y-101600000D03*
%TO.P,U2,8*%
X142240000Y-104140000D03*
%TO.P,U2,6*%
X142240000Y-106680000D03*
%TO.P,U2,30*%
X149860000Y-109220000D03*
%TO.P,U2,32*%
%TO.N,Net-(U2-Pad32)*%
X147320000Y-109220000D03*
%TO.P,U2,4*%
%TO.N,/+3V3*%
X142240000Y-109220000D03*
%TO.P,U2,2*%
X144780000Y-109220000D03*
%TO.P,U2,31*%
%TO.N,/LCLK*%
X149860000Y-106680000D03*
%TO.P,U2,3*%
%TO.N,/+3V3*%
X144780000Y-106680000D03*
D11*
%TO.P,U2,1*%
%TO.N,Net-(U2-Pad1)*%
X147320000Y-106680000D03*
%TD*%
D10*
%TO.P,U1,29*%
%TO.N,Net-(U1-Pad29)*%
X172085000Y-106680000D03*
%TO.P,U1,27*%
%TO.N,Net-(U1-Pad27)*%
X172085000Y-104140000D03*
%TO.P,U1,25*%
%TO.N,/+3V3*%
X172085000Y-101600000D03*
%TO.P,U1,23*%
%TO.N,/~S_LFRAME*%
X172085000Y-99060000D03*
%TO.P,U1,28*%
%TO.N,Net-(U1-Pad28)*%
X169545000Y-104140000D03*
%TO.P,U1,26*%
%TO.N,Net-(U1-Pad26)*%
X169545000Y-101600000D03*
%TO.P,U1,24*%
%TO.N,/~RST*%
X169545000Y-99060000D03*
%TO.P,U1,22*%
%TO.N,Net-(U1-Pad22)*%
X169545000Y-96520000D03*
%TO.P,U1,20*%
%TO.N,Net-(U1-Pad20)*%
X169545000Y-93980000D03*
%TO.P,U1,18*%
%TO.N,Net-(U1-Pad18)*%
X167005000Y-93980000D03*
%TO.P,U1,16*%
%TO.N,/GND*%
X164465000Y-93980000D03*
%TO.P,U1,14*%
%TO.N,/S_LAD1*%
X161925000Y-93980000D03*
%TO.P,U1,21*%
%TO.N,Net-(U1-Pad21)*%
X172085000Y-96520000D03*
%TO.P,U1,19*%
%TO.N,Net-(U1-Pad19)*%
X167005000Y-96520000D03*
%TO.P,U1,17*%
%TO.N,/S_LAD3*%
X164465000Y-96520000D03*
%TO.P,U1,15*%
%TO.N,/S_LAD2*%
X161925000Y-96520000D03*
%TO.P,U1,13*%
%TO.N,/S_LAD0*%
X159385000Y-96520000D03*
%TO.P,U1,11*%
%TO.N,/+3V3*%
X159385000Y-99060000D03*
%TO.P,U1,9*%
X159385000Y-101600000D03*
%TO.P,U1,7*%
X159385000Y-104140000D03*
%TO.P,U1,5*%
X159385000Y-106680000D03*
%TO.P,U1,12*%
X161925000Y-99060000D03*
%TO.P,U1,10*%
X161925000Y-101600000D03*
%TO.P,U1,8*%
X161925000Y-104140000D03*
%TO.P,U1,6*%
X161925000Y-106680000D03*
%TO.P,U1,30*%
X169545000Y-109220000D03*
%TO.P,U1,32*%
%TO.N,Net-(U1-Pad32)*%
X167005000Y-109220000D03*
%TO.P,U1,4*%
%TO.N,/+3V3*%
X161925000Y-109220000D03*
%TO.P,U1,2*%
X164465000Y-109220000D03*
%TO.P,U1,31*%
%TO.N,/LCLK*%
X169545000Y-106680000D03*
%TO.P,U1,3*%
%TO.N,/+3V3*%
X164465000Y-106680000D03*
D11*
%TO.P,U1,1*%
%TO.N,Net-(U1-Pad1)*%
X167005000Y-106680000D03*
%TD*%
D12*
%TO.P,JP1,6*%
%TO.N,/GND*%
X144145000Y-67945000D03*
%TO.P,JP1,5*%
%TO.N,/BANK1*%
X146685000Y-67945000D03*
%TO.P,JP1,4*%
%TO.N,/GND*%
X144145000Y-70485000D03*
%TO.P,JP1,3*%
%TO.N,/BANK0*%
X146685000Y-70485000D03*
%TO.P,JP1,2*%
%TO.N,/GND*%
X144145000Y-73025000D03*
D13*
%TO.P,JP1,1*%
%TO.N,/BYPASS*%
X146685000Y-73025000D03*
%TD*%
D12*
%TO.P,J3,4*%
%TO.N,/GND*%
X153670000Y-67945000D03*
%TO.P,J3,3*%
%TO.N,/SDA*%
X156210000Y-67945000D03*
%TO.P,J3,2*%
%TO.N,/SCL*%
X158750000Y-67945000D03*
D13*
%TO.P,J3,1*%
%TO.N,/+3V3*%
X161290000Y-67945000D03*
%TD*%
D12*
%TO.P,J2,6*%
%TO.N,/TMS*%
X138430000Y-73025000D03*
%TO.P,J2,5*%
%TO.N,/TDI*%
X138430000Y-75565000D03*
%TO.P,J2,4*%
%TO.N,/TDO*%
X138430000Y-78105000D03*
%TO.P,J2,3*%
%TO.N,/TCK*%
X138430000Y-80645000D03*
%TO.P,J2,2*%
%TO.N,/GND*%
X138430000Y-83185000D03*
D13*
%TO.P,J2,1*%
%TO.N,/+3V3*%
X138430000Y-85725000D03*
%TD*%
D12*
%TO.P,J1,16*%
%TO.N,Net-(J1-Pad16)*%
X170815000Y-67945000D03*
%TO.P,J1,15*%
%TO.N,/+3V3*%
X173355000Y-67945000D03*
%TO.P,J1,14*%
%TO.N,/SDA*%
X170815000Y-70485000D03*
%TO.P,J1,13*%
%TO.N,/SCL*%
X173355000Y-70485000D03*
%TO.P,J1,12*%
%TO.N,/GND*%
X170815000Y-73025000D03*
%TO.P,J1,11*%
%TO.N,/LAD0*%
X173355000Y-73025000D03*
%TO.P,J1,10*%
%TO.N,/LAD1*%
X170815000Y-75565000D03*
%TO.P,J1,9*%
%TO.N,/+3V3*%
X173355000Y-75565000D03*
%TO.P,J1,8*%
%TO.N,/LAD2*%
X170815000Y-78105000D03*
%TO.P,J1,7*%
%TO.N,/LAD3*%
X173355000Y-78105000D03*
%TO.P,J1,6*%
%TO.N,/+5V*%
X170815000Y-80645000D03*
%TO.P,J1,5*%
%TO.N,/~RST*%
X173355000Y-80645000D03*
%TO.P,J1,4*%
%TO.N,Net-(J1-Pad4)*%
X170815000Y-83185000D03*
%TO.P,J1,3*%
%TO.N,/~LFRAME*%
X173355000Y-83185000D03*
%TO.P,J1,2*%
%TO.N,/GND*%
X170815000Y-85725000D03*
D13*
%TO.P,J1,1*%
%TO.N,/LCLK*%
X173355000Y-85725000D03*
%TD*%
%TO.P,C3,2*%
%TO.N,/GND*%
%TA.AperFunction,SMDPad,CuDef*%
G36*
G01*
X155337500Y-80335000D02*
X155812500Y-80335000D01*
G75*
G02*
X156050000Y-80572500I0J-237500D01*
G01*
X156050000Y-81172500D01*
G75*
G02*
X155812500Y-81410000I-237500J0D01*
G01*
X155337500Y-81410000D01*
G75*
G02*
X155100000Y-81172500I0J237500D01*
G01*
X155100000Y-80572500D01*
G75*
G02*
X155337500Y-80335000I237500J0D01*
G01*
G37*
%TD.AperFunction*%
%TO.P,C3,1*%
%TO.N,/+3V3*%
%TA.AperFunction,SMDPad,CuDef*%
G36*
G01*
X155337500Y-78610000D02*
X155812500Y-78610000D01*
G75*
G02*
X156050000Y-78847500I0J-237500D01*
G01*
X156050000Y-79447500D01*
G75*
G02*
X155812500Y-79685000I-237500J0D01*
G01*
X155337500Y-79685000D01*
G75*
G02*
X155100000Y-79447500I0J237500D01*
G01*
X155100000Y-78847500D01*
G75*
G02*
X155337500Y-78610000I237500J0D01*
G01*
G37*
%TD.AperFunction*%
%TD*%
%TO.P,C2,2*%
%TO.N,/GND*%
%TA.AperFunction,SMDPad,CuDef*%
G36*
G01*
X146287500Y-101275000D02*
X145812500Y-101275000D01*
G75*
G02*
X145575000Y-101037500I0J237500D01*
G01*
X145575000Y-100437500D01*
G75*
G02*
X145812500Y-100200000I237500J0D01*
G01*
X146287500Y-100200000D01*
G75*
G02*
X146525000Y-100437500I0J-237500D01*
G01*
X146525000Y-101037500D01*
G75*
G02*
X146287500Y-101275000I-237500J0D01*
G01*
G37*
%TD.AperFunction*%
%TO.P,C2,1*%
%TO.N,/+3V3*%
%TA.AperFunction,SMDPad,CuDef*%
G36*
G01*
X146287500Y-103000000D02*
X145812500Y-103000000D01*
G75*
G02*
X145575000Y-102762500I0J237500D01*
G01*
X145575000Y-102162500D01*
G75*
G02*
X145812500Y-101925000I237500J0D01*
G01*
X146287500Y-101925000D01*
G75*
G02*
X146525000Y-102162500I0J-237500D01*
G01*
X146525000Y-102762500D01*
G75*
G02*
X146287500Y-103000000I-237500J0D01*
G01*
G37*
%TD.AperFunction*%
%TD*%
%TO.P,C1,2*%
%TO.N,/GND*%
%TA.AperFunction,SMDPad,CuDef*%
G36*
G01*
X165972500Y-101275000D02*
X165497500Y-101275000D01*
G75*
G02*
X165260000Y-101037500I0J237500D01*
G01*
X165260000Y-100437500D01*
G75*
G02*
X165497500Y-100200000I237500J0D01*
G01*
X165972500Y-100200000D01*
G75*
G02*
X166210000Y-100437500I0J-237500D01*
G01*
X166210000Y-101037500D01*
G75*
G02*
X165972500Y-101275000I-237500J0D01*
G01*
G37*
%TD.AperFunction*%
%TO.P,C1,1*%
%TO.N,/+3V3*%
%TA.AperFunction,SMDPad,CuDef*%
G36*
G01*
X165972500Y-103000000D02*
X165497500Y-103000000D01*
G75*
G02*
X165260000Y-102762500I0J237500D01*
G01*
X165260000Y-102162500D01*
G75*
G02*
X165497500Y-101925000I237500J0D01*
G01*
X165972500Y-101925000D01*
G75*
G02*
X166210000Y-102162500I0J-237500D01*
G01*
X166210000Y-102762500D01*
G75*
G02*
X165972500Y-103000000I-237500J0D01*
G01*
G37*
%TD.AperFunction*%
%TD*%
D14*
%TO.N,/GND*%
X167640000Y-100330000D03*
X173355000Y-88900000D03*
X170815000Y-88900000D03*
X147955000Y-100330000D03*
X146050000Y-104140000D03*
X136525000Y-112395000D03*
X175260000Y-112395000D03*
X175260000Y-65405000D03*
X136525000Y-65405000D03*
X152400000Y-81915000D03*
X153670000Y-88265000D03*
X147320000Y-83820000D03*
X156210000Y-76200000D03*
X163195000Y-78740000D03*
X161925000Y-71755000D03*
X164465000Y-73025000D03*
X147955000Y-75565000D03*
X161290000Y-85725000D03*
X165735000Y-104140000D03*
%TO.N,/+3V3*%
X158750000Y-79375000D03*
X154940000Y-76835000D03*
X151765000Y-80010000D03*
%TO.N,/~LFRAME*%
X163195000Y-80645000D03*
%TO.N,/LCLK*%
X152400000Y-83820000D03*
%TO.N,/TDO*%
X144145052Y-78740000D03*
X153669982Y-78740000D03*
%TO.N,/TCK*%
X144145000Y-76835000D03*
%TD*%
D15*
%TO.N,/+3V3*%
X172179999Y-66769999D02*
X173355000Y-67945000D01*
X169450001Y-66769999D02*
X172179999Y-66769999D01*
X168275000Y-67945000D02*
X169450001Y-66769999D01*
X161290000Y-67945000D02*
X168275000Y-67945000D01*
X174625000Y-69215000D02*
X173355000Y-67945000D01*
X174625000Y-74295000D02*
X174625000Y-69215000D01*
X173355000Y-75565000D02*
X174625000Y-74295000D01*
X161925000Y-101600000D02*
X163195000Y-102870000D01*
X170815000Y-102870000D02*
X163195000Y-102870000D01*
X172085000Y-101600000D02*
X170815000Y-102870000D01*
X161925000Y-104140000D02*
X163195000Y-102870000D01*
X159385000Y-104140000D02*
X161925000Y-104140000D01*
X159385000Y-101600000D02*
X161925000Y-101600000D01*
X164465000Y-106680000D02*
X161925000Y-106680000D01*
X161925000Y-106680000D02*
X159385000Y-106680000D01*
X159385000Y-106680000D02*
X159385000Y-104140000D01*
X161925000Y-109220000D02*
X164465000Y-109220000D01*
X168275000Y-107950000D02*
X164465000Y-107950000D01*
X169545000Y-109220000D02*
X168275000Y-107950000D01*
X164465000Y-107950000D02*
X164465000Y-106680000D01*
X164465000Y-109220000D02*
X164465000Y-107950000D01*
X144780000Y-109220000D02*
X144780000Y-106680000D01*
X148590000Y-107950000D02*
X144780000Y-107950000D01*
X149860000Y-109220000D02*
X148590000Y-107950000D01*
X142240000Y-109220000D02*
X144780000Y-109220000D01*
X144780000Y-106680000D02*
X139700000Y-106680000D01*
X139700000Y-106680000D02*
X139700000Y-104140000D01*
X139700000Y-104140000D02*
X142240000Y-104140000D01*
X142240000Y-104140000D02*
X143510000Y-102870000D01*
X151130000Y-102870000D02*
X152400000Y-101600000D01*
X143510000Y-102870000D02*
X142240000Y-101600000D01*
X142240000Y-101600000D02*
X139700000Y-101600000D01*
X146050000Y-102462500D02*
X146050000Y-102870000D01*
X146050000Y-102870000D02*
X151130000Y-102870000D01*
X143510000Y-102870000D02*
X146050000Y-102870000D01*
X165735000Y-102462500D02*
X165735000Y-102870000D01*
X139700000Y-99060000D02*
X139700000Y-101600000D01*
X138430000Y-97790000D02*
X138430000Y-85725000D01*
X139700000Y-99060000D02*
X138430000Y-97790000D01*
X159385000Y-99060000D02*
X161925000Y-99060000D01*
X152400000Y-101600000D02*
X159385000Y-101600000D01*
X155575000Y-77470000D02*
X155575000Y-79147500D01*
X154940000Y-76835000D02*
X155575000Y-77470000D01*
X158522500Y-79147500D02*
X158750000Y-79375000D01*
X154532500Y-79147500D02*
X158522500Y-79147500D01*
X153670000Y-80010000D02*
X154532500Y-79147500D01*
X151765000Y-80010000D02*
X153670000Y-80010000D01*
X155575000Y-77470000D02*
X158115000Y-77470000D01*
X158115000Y-77470000D02*
X163830000Y-71755000D01*
X163830000Y-71755000D02*
X174625000Y-71755000D01*
X151050000Y-73025000D02*
X151050000Y-70485000D01*
X151050000Y-70485000D02*
X151050000Y-67945000D01*
X161290000Y-67310000D02*
X161290000Y-67945000D01*
X160020000Y-66040000D02*
X161290000Y-67310000D01*
X152400000Y-66040000D02*
X160020000Y-66040000D01*
X151050000Y-67390000D02*
X152400000Y-66040000D01*
X151050000Y-67945000D02*
X151050000Y-67390000D01*
%TO.N,/SDA*%
X158750000Y-70485000D02*
X170815000Y-70485000D01*
X156210000Y-67945000D02*
X158750000Y-70485000D01*
%TO.N,/SCL*%
X172085000Y-69215000D02*
X173355000Y-70485000D01*
X160020000Y-69215000D02*
X172085000Y-69215000D01*
X158750000Y-67945000D02*
X160020000Y-69215000D01*
%TO.N,/~RST*%
X165100000Y-99060000D02*
X169545000Y-99060000D01*
X163601400Y-100558600D02*
X165100000Y-99060000D01*
X151358600Y-100558600D02*
X163601400Y-100558600D01*
X149860000Y-99060000D02*
X151358600Y-100558600D01*
%TO.N,/~LFRAME*%
X173355000Y-83185000D02*
X172085000Y-81915000D01*
X164465000Y-81915000D02*
X163195000Y-80645000D01*
X172085000Y-81915000D02*
X164465000Y-81915000D01*
%TO.N,/LCLK*%
X153035000Y-84455000D02*
X152400000Y-83820000D01*
X172085000Y-84455000D02*
X153035000Y-84455000D01*
X173355000Y-85725000D02*
X172085000Y-84455000D01*
%TO.N,/TDO*%
X144145052Y-78740000D02*
X153669982Y-78740000D01*
%TO.N,/TCK*%
X139065000Y-80645000D02*
X138430000Y-80645000D01*
X142875000Y-76835000D02*
X139065000Y-80645000D01*
X144145000Y-76835000D02*
X142875000Y-76835000D01*
%TO.N,/~S_LFRAME*%
X165098590Y-97790000D02*
X170815000Y-97790000D01*
X170815000Y-97790000D02*
X172085000Y-99060000D01*
X162780000Y-100108590D02*
X165098590Y-97790000D01*
X158528590Y-100108590D02*
X162780000Y-100108590D01*
X157480000Y-99060000D02*
X158528590Y-100108590D01*
X152400000Y-99060000D02*
X157480000Y-99060000D01*
%TO.N,/S_LAD1*%
X160020000Y-92075000D02*
X161925000Y-93980000D01*
X143510000Y-92075000D02*
X160020000Y-92075000D01*
X142240000Y-93345000D02*
X143510000Y-92075000D01*
X142240000Y-93980000D02*
X142240000Y-93345000D01*
%TO.N,/S_LAD3*%
X164465000Y-96520000D02*
X163195000Y-97790000D01*
X163195000Y-97790000D02*
X161290000Y-97790000D01*
X161290000Y-97790000D02*
X160655000Y-97155000D01*
X160655000Y-97155000D02*
X160655000Y-95885000D01*
X160655000Y-95885000D02*
X160020000Y-95250000D01*
X160020000Y-95250000D02*
X146050000Y-95250000D01*
X146050000Y-95250000D02*
X144780000Y-96520000D01*
%TO.N,/S_LAD2*%
X158750000Y-92710000D02*
X161925000Y-95885000D01*
X144013211Y-92710000D02*
X158750000Y-92710000D01*
X143510000Y-93213211D02*
X144013211Y-92710000D01*
X143510000Y-95250000D02*
X143510000Y-93213211D01*
X161925000Y-95885000D02*
X161925000Y-96520000D01*
X142240000Y-96520000D02*
X143510000Y-95250000D01*
%TO.N,/S_LAD0*%
X140970000Y-97790000D02*
X139700000Y-96520000D01*
X158115000Y-97790000D02*
X140970000Y-97790000D01*
X159385000Y-96520000D02*
X158115000Y-97790000D01*
%TD*%
D16*
%TO.N,/GND*%
X175870001Y-113005000D02*
X135915000Y-113005000D01*
X135915000Y-84875000D01*
X136941928Y-84875000D01*
X136941928Y-86575000D01*
X136954188Y-86699482D01*
X136990498Y-86819180D01*
X137049463Y-86929494D01*
X137128815Y-87026185D01*
X137225506Y-87105537D01*
X137335820Y-87164502D01*
X137455518Y-87200812D01*
X137580000Y-87213072D01*
X137670001Y-87213072D01*
X137670000Y-97752678D01*
X137666324Y-97790000D01*
X137670000Y-97827322D01*
X137670000Y-97827332D01*
X137680997Y-97938985D01*
X137703855Y-98014338D01*
X137724454Y-98082246D01*
X137795026Y-98214276D01*
X137834871Y-98262826D01*
X137889999Y-98330001D01*
X137919003Y-98353804D01*
X138376830Y-98811631D01*
X138353800Y-98927411D01*
X138353800Y-99192589D01*
X138405533Y-99452672D01*
X138507013Y-99697665D01*
X138654338Y-99918153D01*
X138841847Y-100105662D01*
X138940000Y-100171246D01*
X138940001Y-100488754D01*
X138841847Y-100554338D01*
X138654338Y-100741847D01*
X138507013Y-100962335D01*
X138405533Y-101207328D01*
X138353800Y-101467411D01*
X138353800Y-101732589D01*
X138405533Y-101992672D01*
X138507013Y-102237665D01*
X138654338Y-102458153D01*
X138841847Y-102645662D01*
X139062335Y-102792987D01*
X139248260Y-102870000D01*
X139062335Y-102947013D01*
X138841847Y-103094338D01*
X138654338Y-103281847D01*
X138507013Y-103502335D01*
X138405533Y-103747328D01*
X138353800Y-104007411D01*
X138353800Y-104272589D01*
X138405533Y-104532672D01*
X138507013Y-104777665D01*
X138654338Y-104998153D01*
X138841847Y-105185662D01*
X138940001Y-105251246D01*
X138940000Y-105568754D01*
X138841847Y-105634338D01*
X138654338Y-105821847D01*
X138507013Y-106042335D01*
X138405533Y-106287328D01*
X138353800Y-106547411D01*
X138353800Y-106812589D01*
X138405533Y-107072672D01*
X138507013Y-107317665D01*
X138654338Y-107538153D01*
X138841847Y-107725662D01*
X139062335Y-107872987D01*
X139307328Y-107974467D01*
X139567411Y-108026200D01*
X139832589Y-108026200D01*
X140092672Y-107974467D01*
X140337665Y-107872987D01*
X140558153Y-107725662D01*
X140745662Y-107538153D01*
X140811246Y-107440000D01*
X141128754Y-107440000D01*
X141194338Y-107538153D01*
X141381847Y-107725662D01*
X141602335Y-107872987D01*
X141788260Y-107950000D01*
X141602335Y-108027013D01*
X141381847Y-108174338D01*
X141194338Y-108361847D01*
X141047013Y-108582335D01*
X140945533Y-108827328D01*
X140893800Y-109087411D01*
X140893800Y-109352589D01*
X140945533Y-109612672D01*
X141047013Y-109857665D01*
X141194338Y-110078153D01*
X141381847Y-110265662D01*
X141602335Y-110412987D01*
X141847328Y-110514467D01*
X142107411Y-110566200D01*
X142372589Y-110566200D01*
X142632672Y-110514467D01*
X142877665Y-110412987D01*
X143098153Y-110265662D01*
X143285662Y-110078153D01*
X143351246Y-109980000D01*
X143668754Y-109980000D01*
X143734338Y-110078153D01*
X143921847Y-110265662D01*
X144142335Y-110412987D01*
X144387328Y-110514467D01*
X144647411Y-110566200D01*
X144912589Y-110566200D01*
X145172672Y-110514467D01*
X145417665Y-110412987D01*
X145638153Y-110265662D01*
X145825662Y-110078153D01*
X145972987Y-109857665D01*
X146050000Y-109671740D01*
X146127013Y-109857665D01*
X146274338Y-110078153D01*
X146461847Y-110265662D01*
X146682335Y-110412987D01*
X146927328Y-110514467D01*
X147187411Y-110566200D01*
X147452589Y-110566200D01*
X147712672Y-110514467D01*
X147957665Y-110412987D01*
X148178153Y-110265662D01*
X148365662Y-110078153D01*
X148512987Y-109857665D01*
X148590000Y-109671740D01*
X148667013Y-109857665D01*
X148814338Y-110078153D01*
X149001847Y-110265662D01*
X149222335Y-110412987D01*
X149467328Y-110514467D01*
X149727411Y-110566200D01*
X149992589Y-110566200D01*
X150252672Y-110514467D01*
X150497665Y-110412987D01*
X150718153Y-110265662D01*
X150905662Y-110078153D01*
X151052987Y-109857665D01*
X151154467Y-109612672D01*
X151206200Y-109352589D01*
X151206200Y-109087411D01*
X151154467Y-108827328D01*
X151052987Y-108582335D01*
X150905662Y-108361847D01*
X150718153Y-108174338D01*
X150497665Y-108027013D01*
X150311740Y-107950000D01*
X150497665Y-107872987D01*
X150718153Y-107725662D01*
X150905662Y-107538153D01*
X151052987Y-107317665D01*
X151130000Y-107131740D01*
X151207013Y-107317665D01*
X151354338Y-107538153D01*
X151541847Y-107725662D01*
X151762335Y-107872987D01*
X152007328Y-107974467D01*
X152267411Y-108026200D01*
X152532589Y-108026200D01*
X152792672Y-107974467D01*
X153037665Y-107872987D01*
X153258153Y-107725662D01*
X153445662Y-107538153D01*
X153592987Y-107317665D01*
X153694467Y-107072672D01*
X153746200Y-106812589D01*
X153746200Y-106547411D01*
X153694467Y-106287328D01*
X153592987Y-106042335D01*
X153445662Y-105821847D01*
X153258153Y-105634338D01*
X153037665Y-105487013D01*
X152851740Y-105410000D01*
X153037665Y-105332987D01*
X153258153Y-105185662D01*
X153445662Y-104998153D01*
X153592987Y-104777665D01*
X153694467Y-104532672D01*
X153746200Y-104272589D01*
X153746200Y-104007411D01*
X153694467Y-103747328D01*
X153592987Y-103502335D01*
X153445662Y-103281847D01*
X153258153Y-103094338D01*
X153037665Y-102947013D01*
X152851740Y-102870000D01*
X153037665Y-102792987D01*
X153258153Y-102645662D01*
X153445662Y-102458153D01*
X153511246Y-102360000D01*
X158273754Y-102360000D01*
X158339338Y-102458153D01*
X158526847Y-102645662D01*
X158747335Y-102792987D01*
X158933260Y-102870000D01*
X158747335Y-102947013D01*
X158526847Y-103094338D01*
X158339338Y-103281847D01*
X158192013Y-103502335D01*
X158090533Y-103747328D01*
X158038800Y-104007411D01*
X158038800Y-104272589D01*
X158090533Y-104532672D01*
X158192013Y-104777665D01*
X158339338Y-104998153D01*
X158526847Y-105185662D01*
X158625001Y-105251246D01*
X158625000Y-105568754D01*
X158526847Y-105634338D01*
X158339338Y-105821847D01*
X158192013Y-106042335D01*
X158090533Y-106287328D01*
X158038800Y-106547411D01*
X158038800Y-106812589D01*
X158090533Y-107072672D01*
X158192013Y-107317665D01*
X158339338Y-107538153D01*
X158526847Y-107725662D01*
X158747335Y-107872987D01*
X158992328Y-107974467D01*
X159252411Y-108026200D01*
X159517589Y-108026200D01*
X159777672Y-107974467D01*
X160022665Y-107872987D01*
X160243153Y-107725662D01*
X160430662Y-107538153D01*
X160496246Y-107440000D01*
X160813754Y-107440000D01*
X160879338Y-107538153D01*
X161066847Y-107725662D01*
X161287335Y-107872987D01*
X161473260Y-107950000D01*
X161287335Y-108027013D01*
X161066847Y-108174338D01*
X160879338Y-108361847D01*
X160732013Y-108582335D01*
X160630533Y-108827328D01*
X160578800Y-109087411D01*
X160578800Y-109352589D01*
X160630533Y-109612672D01*
X160732013Y-109857665D01*
X160879338Y-110078153D01*
X161066847Y-110265662D01*
X161287335Y-110412987D01*
X161532328Y-110514467D01*
X161792411Y-110566200D01*
X162057589Y-110566200D01*
X162317672Y-110514467D01*
X162562665Y-110412987D01*
X162783153Y-110265662D01*
X162970662Y-110078153D01*
X163036246Y-109980000D01*
X163353754Y-109980000D01*
X163419338Y-110078153D01*
X163606847Y-110265662D01*
X163827335Y-110412987D01*
X164072328Y-110514467D01*
X164332411Y-110566200D01*
X164597589Y-110566200D01*
X164857672Y-110514467D01*
X165102665Y-110412987D01*
X165323153Y-110265662D01*
X165510662Y-110078153D01*
X165657987Y-109857665D01*
X165735000Y-109671740D01*
X165812013Y-109857665D01*
X165959338Y-110078153D01*
X166146847Y-110265662D01*
X166367335Y-110412987D01*
X166612328Y-110514467D01*
X166872411Y-110566200D01*
X167137589Y-110566200D01*
X167397672Y-110514467D01*
X167642665Y-110412987D01*
X167863153Y-110265662D01*
X168050662Y-110078153D01*
X168197987Y-109857665D01*
X168275000Y-109671740D01*
X168352013Y-109857665D01*
X168499338Y-110078153D01*
X168686847Y-110265662D01*
X168907335Y-110412987D01*
X169152328Y-110514467D01*
X169412411Y-110566200D01*
X169677589Y-110566200D01*
X169937672Y-110514467D01*
X170182665Y-110412987D01*
X170403153Y-110265662D01*
X170590662Y-110078153D01*
X170737987Y-109857665D01*
X170839467Y-109612672D01*
X170891200Y-109352589D01*
X170891200Y-109087411D01*
X170839467Y-108827328D01*
X170737987Y-108582335D01*
X170590662Y-108361847D01*
X170403153Y-108174338D01*
X170182665Y-108027013D01*
X169996740Y-107950000D01*
X170182665Y-107872987D01*
X170403153Y-107725662D01*
X170590662Y-107538153D01*
X170737987Y-107317665D01*
X170815000Y-107131740D01*
X170892013Y-107317665D01*
X171039338Y-107538153D01*
X171226847Y-107725662D01*
X171447335Y-107872987D01*
X171692328Y-107974467D01*
X171952411Y-108026200D01*
X172217589Y-108026200D01*
X172477672Y-107974467D01*
X172722665Y-107872987D01*
X172943153Y-107725662D01*
X173130662Y-107538153D01*
X173277987Y-107317665D01*
X173379467Y-107072672D01*
X173431200Y-106812589D01*
X173431200Y-106547411D01*
X173379467Y-106287328D01*
X173277987Y-106042335D01*
X173130662Y-105821847D01*
X172943153Y-105634338D01*
X172722665Y-105487013D01*
X172536740Y-105410000D01*
X172722665Y-105332987D01*
X172943153Y-105185662D01*
X173130662Y-104998153D01*
X173277987Y-104777665D01*
X173379467Y-104532672D01*
X173431200Y-104272589D01*
X173431200Y-104007411D01*
X173379467Y-103747328D01*
X173277987Y-103502335D01*
X173130662Y-103281847D01*
X172943153Y-103094338D01*
X172722665Y-102947013D01*
X172536740Y-102870000D01*
X172722665Y-102792987D01*
X172943153Y-102645662D01*
X173130662Y-102458153D01*
X173277987Y-102237665D01*
X173379467Y-101992672D01*
X173431200Y-101732589D01*
X173431200Y-101467411D01*
X173379467Y-101207328D01*
X173277987Y-100962335D01*
X173130662Y-100741847D01*
X172943153Y-100554338D01*
X172722665Y-100407013D01*
X172536740Y-100330000D01*
X172722665Y-100252987D01*
X172943153Y-100105662D01*
X173130662Y-99918153D01*
X173277987Y-99697665D01*
X173379467Y-99452672D01*
X173431200Y-99192589D01*
X173431200Y-98927411D01*
X173379467Y-98667328D01*
X173277987Y-98422335D01*
X173130662Y-98201847D01*
X172943153Y-98014338D01*
X172722665Y-97867013D01*
X172536740Y-97790000D01*
X172722665Y-97712987D01*
X172943153Y-97565662D01*
X173130662Y-97378153D01*
X173277987Y-97157665D01*
X173379467Y-96912672D01*
X173431200Y-96652589D01*
X173431200Y-96387411D01*
X173379467Y-96127328D01*
X173277987Y-95882335D01*
X173130662Y-95661847D01*
X172943153Y-95474338D01*
X172722665Y-95327013D01*
X172477672Y-95225533D01*
X172217589Y-95173800D01*
X171952411Y-95173800D01*
X171692328Y-95225533D01*
X171447335Y-95327013D01*
X171226847Y-95474338D01*
X171039338Y-95661847D01*
X170892013Y-95882335D01*
X170815000Y-96068260D01*
X170737987Y-95882335D01*
X170590662Y-95661847D01*
X170403153Y-95474338D01*
X170182665Y-95327013D01*
X169996740Y-95250000D01*
X170182665Y-95172987D01*
X170403153Y-95025662D01*
X170590662Y-94838153D01*
X170737987Y-94617665D01*
X170839467Y-94372672D01*
X170891200Y-94112589D01*
X170891200Y-93847411D01*
X170839467Y-93587328D01*
X170737987Y-93342335D01*
X170590662Y-93121847D01*
X170403153Y-92934338D01*
X170182665Y-92787013D01*
X169937672Y-92685533D01*
X169677589Y-92633800D01*
X169412411Y-92633800D01*
X169152328Y-92685533D01*
X168907335Y-92787013D01*
X168686847Y-92934338D01*
X168499338Y-93121847D01*
X168352013Y-93342335D01*
X168275000Y-93528260D01*
X168197987Y-93342335D01*
X168050662Y-93121847D01*
X167863153Y-92934338D01*
X167642665Y-92787013D01*
X167397672Y-92685533D01*
X167137589Y-92633800D01*
X166872411Y-92633800D01*
X166612328Y-92685533D01*
X166367335Y-92787013D01*
X166146847Y-92934338D01*
X165959338Y-93121847D01*
X165812013Y-93342335D01*
X165734031Y-93530600D01*
X165684542Y-93394720D01*
X165629183Y-93291152D01*
X165394273Y-93230332D01*
X164644605Y-93980000D01*
X165394273Y-94729668D01*
X165629183Y-94668848D01*
X165737206Y-94437066D01*
X165812013Y-94617665D01*
X165959338Y-94838153D01*
X166146847Y-95025662D01*
X166367335Y-95172987D01*
X166553260Y-95250000D01*
X166367335Y-95327013D01*
X166146847Y-95474338D01*
X165959338Y-95661847D01*
X165812013Y-95882335D01*
X165735000Y-96068260D01*
X165657987Y-95882335D01*
X165510662Y-95661847D01*
X165323153Y-95474338D01*
X165102665Y-95327013D01*
X164914400Y-95249031D01*
X165050280Y-95199542D01*
X165153848Y-95144183D01*
X165214668Y-94909273D01*
X164465000Y-94159605D01*
X163715332Y-94909273D01*
X163776152Y-95144183D01*
X164007934Y-95252206D01*
X163827335Y-95327013D01*
X163606847Y-95474338D01*
X163419338Y-95661847D01*
X163272013Y-95882335D01*
X163195000Y-96068260D01*
X163117987Y-95882335D01*
X162970662Y-95661847D01*
X162783153Y-95474338D01*
X162562665Y-95327013D01*
X162376740Y-95250000D01*
X162562665Y-95172987D01*
X162783153Y-95025662D01*
X162970662Y-94838153D01*
X163117987Y-94617665D01*
X163195969Y-94429400D01*
X163245458Y-94565280D01*
X163300817Y-94668848D01*
X163535727Y-94729668D01*
X164285395Y-93980000D01*
X163535727Y-93230332D01*
X163300817Y-93291152D01*
X163192794Y-93522934D01*
X163117987Y-93342335D01*
X162970662Y-93121847D01*
X162899542Y-93050727D01*
X163715332Y-93050727D01*
X164465000Y-93800395D01*
X165214668Y-93050727D01*
X165153848Y-92815817D01*
X164913491Y-92703798D01*
X164655898Y-92640824D01*
X164390970Y-92629313D01*
X164128887Y-92669709D01*
X163879720Y-92760458D01*
X163776152Y-92815817D01*
X163715332Y-93050727D01*
X162899542Y-93050727D01*
X162783153Y-92934338D01*
X162562665Y-92787013D01*
X162317672Y-92685533D01*
X162057589Y-92633800D01*
X161792411Y-92633800D01*
X161676631Y-92656830D01*
X160583804Y-91564003D01*
X160560001Y-91534999D01*
X160444276Y-91440026D01*
X160312247Y-91369454D01*
X160168986Y-91325997D01*
X160057333Y-91315000D01*
X160057322Y-91315000D01*
X160020000Y-91311324D01*
X159982678Y-91315000D01*
X143547322Y-91315000D01*
X143509999Y-91311324D01*
X143472676Y-91315000D01*
X143472667Y-91315000D01*
X143361014Y-91325997D01*
X143217753Y-91369454D01*
X143085724Y-91440026D01*
X142969999Y-91534999D01*
X142946201Y-91563997D01*
X141808641Y-92701558D01*
X141602335Y-92787013D01*
X141381847Y-92934338D01*
X141194338Y-93121847D01*
X141047013Y-93342335D01*
X140945533Y-93587328D01*
X140893800Y-93847411D01*
X140893800Y-94112589D01*
X140945533Y-94372672D01*
X141047013Y-94617665D01*
X141194338Y-94838153D01*
X141381847Y-95025662D01*
X141602335Y-95172987D01*
X141788260Y-95250000D01*
X141602335Y-95327013D01*
X141381847Y-95474338D01*
X141194338Y-95661847D01*
X141047013Y-95882335D01*
X140970000Y-96068260D01*
X140892987Y-95882335D01*
X140745662Y-95661847D01*
X140558153Y-95474338D01*
X140337665Y-95327013D01*
X140092672Y-95225533D01*
X139832589Y-95173800D01*
X139567411Y-95173800D01*
X139307328Y-95225533D01*
X139190000Y-95274132D01*
X139190000Y-87213072D01*
X139280000Y-87213072D01*
X139404482Y-87200812D01*
X139524180Y-87164502D01*
X139634494Y-87105537D01*
X139731185Y-87026185D01*
X139810537Y-86929494D01*
X139869502Y-86819180D01*
X139905812Y-86699482D01*
X139918072Y-86575000D01*
X139918072Y-86081890D01*
X169373524Y-86081890D01*
X169418175Y-86229099D01*
X169543359Y-86491920D01*
X169717412Y-86725269D01*
X169933645Y-86920178D01*
X170183748Y-87069157D01*
X170458109Y-87166481D01*
X170688000Y-87045814D01*
X170688000Y-85852000D01*
X169494845Y-85852000D01*
X169373524Y-86081890D01*
X139918072Y-86081890D01*
X139918072Y-84875000D01*
X139905812Y-84750518D01*
X139869502Y-84630820D01*
X139810537Y-84520506D01*
X139731185Y-84423815D01*
X139634494Y-84344463D01*
X139524180Y-84285498D01*
X139443534Y-84261034D01*
X139527588Y-84185269D01*
X139701641Y-83951920D01*
X139826825Y-83689099D01*
X139871476Y-83541890D01*
X139750155Y-83312000D01*
X138557000Y-83312000D01*
X138557000Y-83332000D01*
X138303000Y-83332000D01*
X138303000Y-83312000D01*
X137109845Y-83312000D01*
X136988524Y-83541890D01*
X137033175Y-83689099D01*
X137158359Y-83951920D01*
X137332412Y-84185269D01*
X137416466Y-84261034D01*
X137335820Y-84285498D01*
X137225506Y-84344463D01*
X137128815Y-84423815D01*
X137049463Y-84520506D01*
X136990498Y-84630820D01*
X136954188Y-84750518D01*
X136941928Y-84875000D01*
X135915000Y-84875000D01*
X135915000Y-72878740D01*
X136945000Y-72878740D01*
X136945000Y-73171260D01*
X137002068Y-73458158D01*
X137114010Y-73728411D01*
X137276525Y-73971632D01*
X137483368Y-74178475D01*
X137657760Y-74295000D01*
X137483368Y-74411525D01*
X137276525Y-74618368D01*
X137114010Y-74861589D01*
X137002068Y-75131842D01*
X136945000Y-75418740D01*
X136945000Y-75711260D01*
X137002068Y-75998158D01*
X137114010Y-76268411D01*
X137276525Y-76511632D01*
X137483368Y-76718475D01*
X137657760Y-76835000D01*
X137483368Y-76951525D01*
X137276525Y-77158368D01*
X137114010Y-77401589D01*
X137002068Y-77671842D01*
X136945000Y-77958740D01*
X136945000Y-78251260D01*
X137002068Y-78538158D01*
X137114010Y-78808411D01*
X137276525Y-79051632D01*
X137483368Y-79258475D01*
X137657760Y-79375000D01*
X137483368Y-79491525D01*
X137276525Y-79698368D01*
X137114010Y-79941589D01*
X137002068Y-80211842D01*
X136945000Y-80498740D01*
X136945000Y-80791260D01*
X137002068Y-81078158D01*
X137114010Y-81348411D01*
X137276525Y-81591632D01*
X137483368Y-81798475D01*
X137665534Y-81920195D01*
X137548645Y-81989822D01*
X137332412Y-82184731D01*
X137158359Y-82418080D01*
X137033175Y-82680901D01*
X136988524Y-82828110D01*
X137109845Y-83058000D01*
X138303000Y-83058000D01*
X138303000Y-83038000D01*
X138557000Y-83038000D01*
X138557000Y-83058000D01*
X139750155Y-83058000D01*
X139871476Y-82828110D01*
X139826825Y-82680901D01*
X139701641Y-82418080D01*
X139527588Y-82184731D01*
X139311355Y-81989822D01*
X139194466Y-81920195D01*
X139376632Y-81798475D01*
X139583475Y-81591632D01*
X139704837Y-81410000D01*
X154461928Y-81410000D01*
X154474188Y-81534482D01*
X154510498Y-81654180D01*
X154569463Y-81764494D01*
X154648815Y-81861185D01*
X154745506Y-81940537D01*
X154855820Y-81999502D01*
X154975518Y-82035812D01*
X155100000Y-82048072D01*
X155289250Y-82045000D01*
X155448000Y-81886250D01*
X155448000Y-80999500D01*
X155702000Y-80999500D01*
X155702000Y-81886250D01*
X155860750Y-82045000D01*
X156050000Y-82048072D01*
X156174482Y-82035812D01*
X156294180Y-81999502D01*
X156404494Y-81940537D01*
X156501185Y-81861185D01*
X156580537Y-81764494D01*
X156639502Y-81654180D01*
X156675812Y-81534482D01*
X156688072Y-81410000D01*
X156685000Y-81158250D01*
X156526250Y-80999500D01*
X155702000Y-80999500D01*
X155448000Y-80999500D01*
X154623750Y-80999500D01*
X154465000Y-81158250D01*
X154461928Y-81410000D01*
X139704837Y-81410000D01*
X139745990Y-81348411D01*
X139857932Y-81078158D01*
X139895498Y-80889303D01*
X143189802Y-77595000D01*
X143441289Y-77595000D01*
X143485226Y-77638937D01*
X143654744Y-77752205D01*
X143739979Y-77787511D01*
X143654796Y-77822795D01*
X143485278Y-77936063D01*
X143341115Y-78080226D01*
X143227847Y-78249744D01*
X143149826Y-78438102D01*
X143110052Y-78638061D01*
X143110052Y-78841939D01*
X143149826Y-79041898D01*
X143227847Y-79230256D01*
X143341115Y-79399774D01*
X143485278Y-79543937D01*
X143654796Y-79657205D01*
X143843154Y-79735226D01*
X144043113Y-79775000D01*
X144246991Y-79775000D01*
X144446950Y-79735226D01*
X144635308Y-79657205D01*
X144804826Y-79543937D01*
X144848763Y-79500000D01*
X150860987Y-79500000D01*
X150847795Y-79519744D01*
X150769774Y-79708102D01*
X150730000Y-79908061D01*
X150730000Y-80111939D01*
X150769774Y-80311898D01*
X150847795Y-80500256D01*
X150961063Y-80669774D01*
X151105226Y-80813937D01*
X151274744Y-80927205D01*
X151463102Y-81005226D01*
X151663061Y-81045000D01*
X151866939Y-81045000D01*
X152066898Y-81005226D01*
X152255256Y-80927205D01*
X152424774Y-80813937D01*
X152468711Y-80770000D01*
X153632678Y-80770000D01*
X153670000Y-80773676D01*
X153707322Y-80770000D01*
X153707333Y-80770000D01*
X153818986Y-80759003D01*
X153962247Y-80715546D01*
X154094276Y-80644974D01*
X154210001Y-80550001D01*
X154233803Y-80520998D01*
X154466530Y-80288271D01*
X154461928Y-80335000D01*
X154465000Y-80586750D01*
X154623750Y-80745500D01*
X155448000Y-80745500D01*
X155448000Y-80725500D01*
X155702000Y-80725500D01*
X155702000Y-80745500D01*
X156526250Y-80745500D01*
X156685000Y-80586750D01*
X156688072Y-80335000D01*
X156675812Y-80210518D01*
X156639502Y-80090820D01*
X156580537Y-79980506D01*
X156541226Y-79932606D01*
X156554645Y-79907500D01*
X157861021Y-79907500D01*
X157946063Y-80034774D01*
X158090226Y-80178937D01*
X158259744Y-80292205D01*
X158448102Y-80370226D01*
X158648061Y-80410000D01*
X158851939Y-80410000D01*
X159051898Y-80370226D01*
X159240256Y-80292205D01*
X159409774Y-80178937D01*
X159553937Y-80034774D01*
X159667205Y-79865256D01*
X159745226Y-79676898D01*
X159785000Y-79476939D01*
X159785000Y-79273061D01*
X159745226Y-79073102D01*
X159667205Y-78884744D01*
X159553937Y-78715226D01*
X159409774Y-78571063D01*
X159240256Y-78457795D01*
X159051898Y-78379774D01*
X158851939Y-78340000D01*
X158648061Y-78340000D01*
X158448102Y-78379774D01*
X158429450Y-78387500D01*
X156554645Y-78387500D01*
X156540512Y-78361058D01*
X156432955Y-78230000D01*
X158077678Y-78230000D01*
X158115000Y-78233676D01*
X158152322Y-78230000D01*
X158152333Y-78230000D01*
X158263986Y-78219003D01*
X158407247Y-78175546D01*
X158539276Y-78104974D01*
X158655001Y-78010001D01*
X158678804Y-77980997D01*
X164144802Y-72515000D01*
X169420986Y-72515000D01*
X169418175Y-72520901D01*
X169373524Y-72668110D01*
X169494845Y-72898000D01*
X170688000Y-72898000D01*
X170688000Y-72878000D01*
X170942000Y-72878000D01*
X170942000Y-72898000D01*
X170962000Y-72898000D01*
X170962000Y-73152000D01*
X170942000Y-73152000D01*
X170942000Y-73172000D01*
X170688000Y-73172000D01*
X170688000Y-73152000D01*
X169494845Y-73152000D01*
X169373524Y-73381890D01*
X169418175Y-73529099D01*
X169543359Y-73791920D01*
X169717412Y-74025269D01*
X169933645Y-74220178D01*
X170050534Y-74289805D01*
X169868368Y-74411525D01*
X169661525Y-74618368D01*
X169499010Y-74861589D01*
X169387068Y-75131842D01*
X169330000Y-75418740D01*
X169330000Y-75711260D01*
X169387068Y-75998158D01*
X169499010Y-76268411D01*
X169661525Y-76511632D01*
X169868368Y-76718475D01*
X170042760Y-76835000D01*
X169868368Y-76951525D01*
X169661525Y-77158368D01*
X169499010Y-77401589D01*
X169387068Y-77671842D01*
X169330000Y-77958740D01*
X169330000Y-78251260D01*
X169387068Y-78538158D01*
X169499010Y-78808411D01*
X169661525Y-79051632D01*
X169868368Y-79258475D01*
X170042760Y-79375000D01*
X169868368Y-79491525D01*
X169661525Y-79698368D01*
X169499010Y-79941589D01*
X169387068Y-80211842D01*
X169330000Y-80498740D01*
X169330000Y-80791260D01*
X169387068Y-81078158D01*
X169418897Y-81155000D01*
X164779802Y-81155000D01*
X164230000Y-80605199D01*
X164230000Y-80543061D01*
X164190226Y-80343102D01*
X164112205Y-80154744D01*
X163998937Y-79985226D01*
X163854774Y-79841063D01*
X163685256Y-79727795D01*
X163496898Y-79649774D01*
X163296939Y-79610000D01*
X163093061Y-79610000D01*
X162893102Y-79649774D01*
X162704744Y-79727795D01*
X162535226Y-79841063D01*
X162391063Y-79985226D01*
X162277795Y-80154744D01*
X162199774Y-80343102D01*
X162160000Y-80543061D01*
X162160000Y-80746939D01*
X162199774Y-80946898D01*
X162277795Y-81135256D01*
X162391063Y-81304774D01*
X162535226Y-81448937D01*
X162704744Y-81562205D01*
X162893102Y-81640226D01*
X163093061Y-81680000D01*
X163155199Y-81680000D01*
X163901200Y-82426002D01*
X163924999Y-82455001D01*
X164040724Y-82549974D01*
X164172753Y-82620546D01*
X164316014Y-82664003D01*
X164427667Y-82675000D01*
X164427676Y-82675000D01*
X164464999Y-82678676D01*
X164502322Y-82675000D01*
X169418897Y-82675000D01*
X169387068Y-82751842D01*
X169330000Y-83038740D01*
X169330000Y-83331260D01*
X169387068Y-83618158D01*
X169418897Y-83695000D01*
X153430413Y-83695000D01*
X153395226Y-83518102D01*
X153317205Y-83329744D01*
X153203937Y-83160226D01*
X153059774Y-83016063D01*
X152890256Y-82902795D01*
X152701898Y-82824774D01*
X152501939Y-82785000D01*
X152298061Y-82785000D01*
X152098102Y-82824774D01*
X151909744Y-82902795D01*
X151740226Y-83016063D01*
X151596063Y-83160226D01*
X151482795Y-83329744D01*
X151404774Y-83518102D01*
X151365000Y-83718061D01*
X151365000Y-83921939D01*
X151404774Y-84121898D01*
X151482795Y-84310256D01*
X151596063Y-84479774D01*
X151740226Y-84623937D01*
X151909744Y-84737205D01*
X152098102Y-84815226D01*
X152298061Y-84855000D01*
X152360198Y-84855000D01*
X152471200Y-84966002D01*
X152494999Y-84995001D01*
X152610724Y-85089974D01*
X152742753Y-85160546D01*
X152886014Y-85204003D01*
X152987484Y-85213997D01*
X153035000Y-85218677D01*
X153072333Y-85215000D01*
X169420986Y-85215000D01*
X169418175Y-85220901D01*
X169373524Y-85368110D01*
X169494845Y-85598000D01*
X170688000Y-85598000D01*
X170688000Y-85578000D01*
X170942000Y-85578000D01*
X170942000Y-85598000D01*
X170962000Y-85598000D01*
X170962000Y-85852000D01*
X170942000Y-85852000D01*
X170942000Y-87045814D01*
X171171891Y-87166481D01*
X171446252Y-87069157D01*
X171696355Y-86920178D01*
X171892502Y-86743374D01*
X171915498Y-86819180D01*
X171974463Y-86929494D01*
X172053815Y-87026185D01*
X172150506Y-87105537D01*
X172260820Y-87164502D01*
X172380518Y-87200812D01*
X172505000Y-87213072D01*
X174205000Y-87213072D01*
X174329482Y-87200812D01*
X174449180Y-87164502D01*
X174559494Y-87105537D01*
X174656185Y-87026185D01*
X174735537Y-86929494D01*
X174794502Y-86819180D01*
X174830812Y-86699482D01*
X174843072Y-86575000D01*
X174843072Y-84875000D01*
X174830812Y-84750518D01*
X174794502Y-84630820D01*
X174735537Y-84520506D01*
X174656185Y-84423815D01*
X174559494Y-84344463D01*
X174449180Y-84285498D01*
X174376620Y-84263487D01*
X174508475Y-84131632D01*
X174670990Y-83888411D01*
X174782932Y-83618158D01*
X174840000Y-83331260D01*
X174840000Y-83038740D01*
X174782932Y-82751842D01*
X174670990Y-82481589D01*
X174508475Y-82238368D01*
X174301632Y-82031525D01*
X174127240Y-81915000D01*
X174301632Y-81798475D01*
X174508475Y-81591632D01*
X174670990Y-81348411D01*
X174782932Y-81078158D01*
X174840000Y-80791260D01*
X174840000Y-80498740D01*
X174782932Y-80211842D01*
X174670990Y-79941589D01*
X174508475Y-79698368D01*
X174301632Y-79491525D01*
X174127240Y-79375000D01*
X174301632Y-79258475D01*
X174508475Y-79051632D01*
X174670990Y-78808411D01*
X174782932Y-78538158D01*
X174840000Y-78251260D01*
X174840000Y-77958740D01*
X174782932Y-77671842D01*
X174670990Y-77401589D01*
X174508475Y-77158368D01*
X174301632Y-76951525D01*
X174127240Y-76835000D01*
X174301632Y-76718475D01*
X174508475Y-76511632D01*
X174670990Y-76268411D01*
X174782932Y-75998158D01*
X174840000Y-75711260D01*
X174840000Y-75418740D01*
X174796210Y-75198592D01*
X175136004Y-74858798D01*
X175165001Y-74835001D01*
X175259974Y-74719276D01*
X175330546Y-74587247D01*
X175374003Y-74443986D01*
X175385000Y-74332333D01*
X175385000Y-74332324D01*
X175388676Y-74295001D01*
X175385000Y-74257678D01*
X175385000Y-71792333D01*
X175388677Y-71755000D01*
X175385000Y-71717667D01*
X175385000Y-69252322D01*
X175388676Y-69214999D01*
X175385000Y-69177676D01*
X175385000Y-69177667D01*
X175374003Y-69066014D01*
X175330546Y-68922753D01*
X175259974Y-68790724D01*
X175165001Y-68674999D01*
X175136003Y-68651201D01*
X174796210Y-68311408D01*
X174840000Y-68091260D01*
X174840000Y-67798740D01*
X174782932Y-67511842D01*
X174670990Y-67241589D01*
X174508475Y-66998368D01*
X174301632Y-66791525D01*
X174058411Y-66629010D01*
X173788158Y-66517068D01*
X173501260Y-66460000D01*
X173208740Y-66460000D01*
X172988592Y-66503791D01*
X172743803Y-66259002D01*
X172720000Y-66229998D01*
X172604275Y-66135025D01*
X172472246Y-66064453D01*
X172328985Y-66020996D01*
X172217332Y-66009999D01*
X172217321Y-66009999D01*
X172179999Y-66006323D01*
X172142677Y-66009999D01*
X169487323Y-66009999D01*
X169450000Y-66006323D01*
X169412677Y-66009999D01*
X169412668Y-66009999D01*
X169301015Y-66020996D01*
X169157754Y-66064453D01*
X169025725Y-66135025D01*
X168910000Y-66229998D01*
X168886202Y-66258996D01*
X167960199Y-67185000D01*
X162778072Y-67185000D01*
X162778072Y-67095000D01*
X162765812Y-66970518D01*
X162729502Y-66850820D01*
X162670537Y-66740506D01*
X162591185Y-66643815D01*
X162494494Y-66564463D01*
X162384180Y-66505498D01*
X162264482Y-66469188D01*
X162140000Y-66456928D01*
X161511730Y-66456928D01*
X160583804Y-65529003D01*
X160560001Y-65499999D01*
X160444276Y-65405026D01*
X160312247Y-65334454D01*
X160168986Y-65290997D01*
X160057333Y-65280000D01*
X160057322Y-65280000D01*
X160020000Y-65276324D01*
X159982678Y-65280000D01*
X152437322Y-65280000D01*
X152399999Y-65276324D01*
X152362676Y-65280000D01*
X152362667Y-65280000D01*
X152251014Y-65290997D01*
X152107753Y-65334454D01*
X151975724Y-65405026D01*
X151859999Y-65499999D01*
X151836201Y-65528997D01*
X150538998Y-66826201D01*
X150510000Y-66849999D01*
X150486202Y-66878997D01*
X150486201Y-66878998D01*
X150471856Y-66896477D01*
X150464933Y-66898577D01*
X150313558Y-66979488D01*
X150180877Y-67088377D01*
X150137500Y-67141232D01*
X150094123Y-67088377D01*
X149961442Y-66979488D01*
X149810067Y-66898577D01*
X149645816Y-66848752D01*
X149475000Y-66831928D01*
X148975000Y-66831928D01*
X148804184Y-66848752D01*
X148639933Y-66898577D01*
X148488558Y-66979488D01*
X148355877Y-67088377D01*
X148246988Y-67221058D01*
X148166077Y-67372433D01*
X148117231Y-67533456D01*
X148112932Y-67511842D01*
X148000990Y-67241589D01*
X147838475Y-66998368D01*
X147631632Y-66791525D01*
X147388411Y-66629010D01*
X147118158Y-66517068D01*
X146831260Y-66460000D01*
X146538740Y-66460000D01*
X146251842Y-66517068D01*
X145981589Y-66629010D01*
X145738368Y-66791525D01*
X145531525Y-66998368D01*
X145413900Y-67174406D01*
X145242588Y-66944731D01*
X145026355Y-66749822D01*
X144776252Y-66600843D01*
X144501891Y-66503519D01*
X144272000Y-66624186D01*
X144272000Y-67818000D01*
X144292000Y-67818000D01*
X144292000Y-68072000D01*
X144272000Y-68072000D01*
X144272000Y-70358000D01*
X144292000Y-70358000D01*
X144292000Y-70612000D01*
X144272000Y-70612000D01*
X144272000Y-72898000D01*
X144292000Y-72898000D01*
X144292000Y-73152000D01*
X144272000Y-73152000D01*
X144272000Y-74345814D01*
X144501891Y-74466481D01*
X144776252Y-74369157D01*
X145026355Y-74220178D01*
X145222502Y-74043374D01*
X145245498Y-74119180D01*
X145304463Y-74229494D01*
X145383815Y-74326185D01*
X145480506Y-74405537D01*
X145590820Y-74464502D01*
X145710518Y-74500812D01*
X145835000Y-74513072D01*
X147535000Y-74513072D01*
X147659482Y-74500812D01*
X147779180Y-74464502D01*
X147889494Y-74405537D01*
X147986185Y-74326185D01*
X148065537Y-74229494D01*
X148124502Y-74119180D01*
X148160812Y-73999482D01*
X148173072Y-73875000D01*
X148173072Y-73610654D01*
X148246988Y-73748942D01*
X148355877Y-73881623D01*
X148488558Y-73990512D01*
X148639933Y-74071423D01*
X148804184Y-74121248D01*
X148975000Y-74138072D01*
X149475000Y-74138072D01*
X149645816Y-74121248D01*
X149810067Y-74071423D01*
X149961442Y-73990512D01*
X150094123Y-73881623D01*
X150137500Y-73828768D01*
X150180877Y-73881623D01*
X150313558Y-73990512D01*
X150464933Y-74071423D01*
X150629184Y-74121248D01*
X150800000Y-74138072D01*
X151300000Y-74138072D01*
X151470816Y-74121248D01*
X151635067Y-74071423D01*
X151786442Y-73990512D01*
X151919123Y-73881623D01*
X152028012Y-73748942D01*
X152108923Y-73597567D01*
X152158748Y-73433316D01*
X152175572Y-73262500D01*
X152175572Y-72787500D01*
X152158748Y-72616684D01*
X152108923Y-72452433D01*
X152028012Y-72301058D01*
X151919123Y-72168377D01*
X151810000Y-72078822D01*
X151810000Y-71431178D01*
X151919123Y-71341623D01*
X152028012Y-71208942D01*
X152108923Y-71057567D01*
X152158748Y-70893316D01*
X152175572Y-70722500D01*
X152175572Y-70247500D01*
X152158748Y-70076684D01*
X152108923Y-69912433D01*
X152028012Y-69761058D01*
X151919123Y-69628377D01*
X151810000Y-69538822D01*
X151810000Y-68891178D01*
X151919123Y-68801623D01*
X152028012Y-68668942D01*
X152108923Y-68517567D01*
X152158748Y-68353316D01*
X152163812Y-68301891D01*
X152228519Y-68301891D01*
X152325843Y-68576252D01*
X152474822Y-68826355D01*
X152669731Y-69042588D01*
X152903080Y-69216641D01*
X153165901Y-69341825D01*
X153313110Y-69386476D01*
X153543000Y-69265155D01*
X153543000Y-68072000D01*
X152349186Y-68072000D01*
X152228519Y-68301891D01*
X152163812Y-68301891D01*
X152175572Y-68182500D01*
X152175572Y-67707500D01*
X152158748Y-67536684D01*
X152116707Y-67398094D01*
X152714802Y-66800000D01*
X152733295Y-66800000D01*
X152669731Y-66847412D01*
X152474822Y-67063645D01*
X152325843Y-67313748D01*
X152228519Y-67588109D01*
X152349186Y-67818000D01*
X153543000Y-67818000D01*
X153543000Y-67798000D01*
X153797000Y-67798000D01*
X153797000Y-67818000D01*
X153817000Y-67818000D01*
X153817000Y-68072000D01*
X153797000Y-68072000D01*
X153797000Y-69265155D01*
X154026890Y-69386476D01*
X154174099Y-69341825D01*
X154436920Y-69216641D01*
X154670269Y-69042588D01*
X154865178Y-68826355D01*
X154934805Y-68709466D01*
X155056525Y-68891632D01*
X155263368Y-69098475D01*
X155506589Y-69260990D01*
X155776842Y-69372932D01*
X156063740Y-69430000D01*
X156356260Y-69430000D01*
X156576408Y-69386210D01*
X158186205Y-70996008D01*
X158209999Y-71025001D01*
X158238992Y-71048795D01*
X158238996Y-71048799D01*
X158309685Y-71106811D01*
X158325724Y-71119974D01*
X158457753Y-71190546D01*
X158601014Y-71234003D01*
X158712667Y-71245000D01*
X158712676Y-71245000D01*
X158749999Y-71248676D01*
X158787322Y-71245000D01*
X163265198Y-71245000D01*
X157800199Y-76710000D01*
X155970413Y-76710000D01*
X155935226Y-76533102D01*
X155857205Y-76344744D01*
X155743937Y-76175226D01*
X155599774Y-76031063D01*
X155430256Y-75917795D01*
X155241898Y-75839774D01*
X155041939Y-75800000D01*
X154838061Y-75800000D01*
X154638102Y-75839774D01*
X154449744Y-75917795D01*
X154280226Y-76031063D01*
X154136063Y-76175226D01*
X154022795Y-76344744D01*
X153944774Y-76533102D01*
X153905000Y-76733061D01*
X153905000Y-76936939D01*
X153944774Y-77136898D01*
X154022795Y-77325256D01*
X154136063Y-77494774D01*
X154280226Y-77638937D01*
X154449744Y-77752205D01*
X154638102Y-77830226D01*
X154815000Y-77865413D01*
X154815000Y-78149080D01*
X154718377Y-78228377D01*
X154625310Y-78341779D01*
X154587187Y-78249744D01*
X154473919Y-78080226D01*
X154329756Y-77936063D01*
X154160238Y-77822795D01*
X153971880Y-77744774D01*
X153771921Y-77705000D01*
X153568043Y-77705000D01*
X153368084Y-77744774D01*
X153179726Y-77822795D01*
X153010208Y-77936063D01*
X152966271Y-77980000D01*
X144848763Y-77980000D01*
X144804826Y-77936063D01*
X144635308Y-77822795D01*
X144550073Y-77787489D01*
X144635256Y-77752205D01*
X144804774Y-77638937D01*
X144948937Y-77494774D01*
X145062205Y-77325256D01*
X145140226Y-77136898D01*
X145180000Y-76936939D01*
X145180000Y-76733061D01*
X145140226Y-76533102D01*
X145062205Y-76344744D01*
X144948937Y-76175226D01*
X144804774Y-76031063D01*
X144635256Y-75917795D01*
X144446898Y-75839774D01*
X144246939Y-75800000D01*
X144043061Y-75800000D01*
X143843102Y-75839774D01*
X143654744Y-75917795D01*
X143485226Y-76031063D01*
X143441289Y-76075000D01*
X142912325Y-76075000D01*
X142875000Y-76071324D01*
X142837675Y-76075000D01*
X142837667Y-76075000D01*
X142726014Y-76085997D01*
X142582753Y-76129454D01*
X142450724Y-76200026D01*
X142334999Y-76294999D01*
X142311201Y-76323997D01*
X139236984Y-79398215D01*
X139202240Y-79375000D01*
X139376632Y-79258475D01*
X139583475Y-79051632D01*
X139745990Y-78808411D01*
X139857932Y-78538158D01*
X139915000Y-78251260D01*
X139915000Y-77958740D01*
X139857932Y-77671842D01*
X139745990Y-77401589D01*
X139583475Y-77158368D01*
X139376632Y-76951525D01*
X139202240Y-76835000D01*
X139376632Y-76718475D01*
X139583475Y-76511632D01*
X139745990Y-76268411D01*
X139857932Y-75998158D01*
X139915000Y-75711260D01*
X139915000Y-75418740D01*
X139857932Y-75131842D01*
X139745990Y-74861589D01*
X139583475Y-74618368D01*
X139376632Y-74411525D01*
X139202240Y-74295000D01*
X139376632Y-74178475D01*
X139583475Y-73971632D01*
X139745990Y-73728411D01*
X139857932Y-73458158D01*
X139873102Y-73381890D01*
X142703524Y-73381890D01*
X142748175Y-73529099D01*
X142873359Y-73791920D01*
X143047412Y-74025269D01*
X143263645Y-74220178D01*
X143513748Y-74369157D01*
X143788109Y-74466481D01*
X144018000Y-74345814D01*
X144018000Y-73152000D01*
X142824845Y-73152000D01*
X142703524Y-73381890D01*
X139873102Y-73381890D01*
X139915000Y-73171260D01*
X139915000Y-72878740D01*
X139857932Y-72591842D01*
X139745990Y-72321589D01*
X139583475Y-72078368D01*
X139376632Y-71871525D01*
X139133411Y-71709010D01*
X138863158Y-71597068D01*
X138576260Y-71540000D01*
X138283740Y-71540000D01*
X137996842Y-71597068D01*
X137726589Y-71709010D01*
X137483368Y-71871525D01*
X137276525Y-72078368D01*
X137114010Y-72321589D01*
X137002068Y-72591842D01*
X136945000Y-72878740D01*
X135915000Y-72878740D01*
X135915000Y-70841890D01*
X142703524Y-70841890D01*
X142748175Y-70989099D01*
X142873359Y-71251920D01*
X143047412Y-71485269D01*
X143263645Y-71680178D01*
X143389255Y-71755000D01*
X143263645Y-71829822D01*
X143047412Y-72024731D01*
X142873359Y-72258080D01*
X142748175Y-72520901D01*
X142703524Y-72668110D01*
X142824845Y-72898000D01*
X144018000Y-72898000D01*
X144018000Y-70612000D01*
X142824845Y-70612000D01*
X142703524Y-70841890D01*
X135915000Y-70841890D01*
X135915000Y-68301890D01*
X142703524Y-68301890D01*
X142748175Y-68449099D01*
X142873359Y-68711920D01*
X143047412Y-68945269D01*
X143263645Y-69140178D01*
X143389255Y-69215000D01*
X143263645Y-69289822D01*
X143047412Y-69484731D01*
X142873359Y-69718080D01*
X142748175Y-69980901D01*
X142703524Y-70128110D01*
X142824845Y-70358000D01*
X144018000Y-70358000D01*
X144018000Y-68072000D01*
X142824845Y-68072000D01*
X142703524Y-68301890D01*
X135915000Y-68301890D01*
X135915000Y-67588110D01*
X142703524Y-67588110D01*
X142824845Y-67818000D01*
X144018000Y-67818000D01*
X144018000Y-66624186D01*
X143788109Y-66503519D01*
X143513748Y-66600843D01*
X143263645Y-66749822D01*
X143047412Y-66944731D01*
X142873359Y-67178080D01*
X142748175Y-67440901D01*
X142703524Y-67588110D01*
X135915000Y-67588110D01*
X135915000Y-64795000D01*
X175870000Y-64795000D01*
X175870001Y-113005000D01*
%TA.AperFunction,Conductor*%
D17*
G36*
X175870001Y-113005000D02*
G01*
X135915000Y-113005000D01*
X135915000Y-84875000D01*
X136941928Y-84875000D01*
X136941928Y-86575000D01*
X136954188Y-86699482D01*
X136990498Y-86819180D01*
X137049463Y-86929494D01*
X137128815Y-87026185D01*
X137225506Y-87105537D01*
X137335820Y-87164502D01*
X137455518Y-87200812D01*
X137580000Y-87213072D01*
X137670001Y-87213072D01*
X137670000Y-97752678D01*
X137666324Y-97790000D01*
X137670000Y-97827322D01*
X137670000Y-97827332D01*
X137680997Y-97938985D01*
X137703855Y-98014338D01*
X137724454Y-98082246D01*
X137795026Y-98214276D01*
X137834871Y-98262826D01*
X137889999Y-98330001D01*
X137919003Y-98353804D01*
X138376830Y-98811631D01*
X138353800Y-98927411D01*
X138353800Y-99192589D01*
X138405533Y-99452672D01*
X138507013Y-99697665D01*
X138654338Y-99918153D01*
X138841847Y-100105662D01*
X138940000Y-100171246D01*
X138940001Y-100488754D01*
X138841847Y-100554338D01*
X138654338Y-100741847D01*
X138507013Y-100962335D01*
X138405533Y-101207328D01*
X138353800Y-101467411D01*
X138353800Y-101732589D01*
X138405533Y-101992672D01*
X138507013Y-102237665D01*
X138654338Y-102458153D01*
X138841847Y-102645662D01*
X139062335Y-102792987D01*
X139248260Y-102870000D01*
X139062335Y-102947013D01*
X138841847Y-103094338D01*
X138654338Y-103281847D01*
X138507013Y-103502335D01*
X138405533Y-103747328D01*
X138353800Y-104007411D01*
X138353800Y-104272589D01*
X138405533Y-104532672D01*
X138507013Y-104777665D01*
X138654338Y-104998153D01*
X138841847Y-105185662D01*
X138940001Y-105251246D01*
X138940000Y-105568754D01*
X138841847Y-105634338D01*
X138654338Y-105821847D01*
X138507013Y-106042335D01*
X138405533Y-106287328D01*
X138353800Y-106547411D01*
X138353800Y-106812589D01*
X138405533Y-107072672D01*
X138507013Y-107317665D01*
X138654338Y-107538153D01*
X138841847Y-107725662D01*
X139062335Y-107872987D01*
X139307328Y-107974467D01*
X139567411Y-108026200D01*
X139832589Y-108026200D01*
X140092672Y-107974467D01*
X140337665Y-107872987D01*
X140558153Y-107725662D01*
X140745662Y-107538153D01*
X140811246Y-107440000D01*
X141128754Y-107440000D01*
X141194338Y-107538153D01*
X141381847Y-107725662D01*
X141602335Y-107872987D01*
X141788260Y-107950000D01*
X141602335Y-108027013D01*
X141381847Y-108174338D01*
X141194338Y-108361847D01*
X141047013Y-108582335D01*
X140945533Y-108827328D01*
X140893800Y-109087411D01*
X140893800Y-109352589D01*
X140945533Y-109612672D01*
X141047013Y-109857665D01*
X141194338Y-110078153D01*
X141381847Y-110265662D01*
X141602335Y-110412987D01*
X141847328Y-110514467D01*
X142107411Y-110566200D01*
X142372589Y-110566200D01*
X142632672Y-110514467D01*
X142877665Y-110412987D01*
X143098153Y-110265662D01*
X143285662Y-110078153D01*
X143351246Y-109980000D01*
X143668754Y-109980000D01*
X143734338Y-110078153D01*
X143921847Y-110265662D01*
X144142335Y-110412987D01*
X144387328Y-110514467D01*
X144647411Y-110566200D01*
X144912589Y-110566200D01*
X145172672Y-110514467D01*
X145417665Y-110412987D01*
X145638153Y-110265662D01*
X145825662Y-110078153D01*
X145972987Y-109857665D01*
X146050000Y-109671740D01*
X146127013Y-109857665D01*
X146274338Y-110078153D01*
X146461847Y-110265662D01*
X146682335Y-110412987D01*
X146927328Y-110514467D01*
X147187411Y-110566200D01*
X147452589Y-110566200D01*
X147712672Y-110514467D01*
X147957665Y-110412987D01*
X148178153Y-110265662D01*
X148365662Y-110078153D01*
X148512987Y-109857665D01*
X148590000Y-109671740D01*
X148667013Y-109857665D01*
X148814338Y-110078153D01*
X149001847Y-110265662D01*
X149222335Y-110412987D01*
X149467328Y-110514467D01*
X149727411Y-110566200D01*
X149992589Y-110566200D01*
X150252672Y-110514467D01*
X150497665Y-110412987D01*
X150718153Y-110265662D01*
X150905662Y-110078153D01*
X151052987Y-109857665D01*
X151154467Y-109612672D01*
X151206200Y-109352589D01*
X151206200Y-109087411D01*
X151154467Y-108827328D01*
X151052987Y-108582335D01*
X150905662Y-108361847D01*
X150718153Y-108174338D01*
X150497665Y-108027013D01*
X150311740Y-107950000D01*
X150497665Y-107872987D01*
X150718153Y-107725662D01*
X150905662Y-107538153D01*
X151052987Y-107317665D01*
X151130000Y-107131740D01*
X151207013Y-107317665D01*
X151354338Y-107538153D01*
X151541847Y-107725662D01*
X151762335Y-107872987D01*
X152007328Y-107974467D01*
X152267411Y-108026200D01*
X152532589Y-108026200D01*
X152792672Y-107974467D01*
X153037665Y-107872987D01*
X153258153Y-107725662D01*
X153445662Y-107538153D01*
X153592987Y-107317665D01*
X153694467Y-107072672D01*
X153746200Y-106812589D01*
X153746200Y-106547411D01*
X153694467Y-106287328D01*
X153592987Y-106042335D01*
X153445662Y-105821847D01*
X153258153Y-105634338D01*
X153037665Y-105487013D01*
X152851740Y-105410000D01*
X153037665Y-105332987D01*
X153258153Y-105185662D01*
X153445662Y-104998153D01*
X153592987Y-104777665D01*
X153694467Y-104532672D01*
X153746200Y-104272589D01*
X153746200Y-104007411D01*
X153694467Y-103747328D01*
X153592987Y-103502335D01*
X153445662Y-103281847D01*
X153258153Y-103094338D01*
X153037665Y-102947013D01*
X152851740Y-102870000D01*
X153037665Y-102792987D01*
X153258153Y-102645662D01*
X153445662Y-102458153D01*
X153511246Y-102360000D01*
X158273754Y-102360000D01*
X158339338Y-102458153D01*
X158526847Y-102645662D01*
X158747335Y-102792987D01*
X158933260Y-102870000D01*
X158747335Y-102947013D01*
X158526847Y-103094338D01*
X158339338Y-103281847D01*
X158192013Y-103502335D01*
X158090533Y-103747328D01*
X158038800Y-104007411D01*
X158038800Y-104272589D01*
X158090533Y-104532672D01*
X158192013Y-104777665D01*
X158339338Y-104998153D01*
X158526847Y-105185662D01*
X158625001Y-105251246D01*
X158625000Y-105568754D01*
X158526847Y-105634338D01*
X158339338Y-105821847D01*
X158192013Y-106042335D01*
X158090533Y-106287328D01*
X158038800Y-106547411D01*
X158038800Y-106812589D01*
X158090533Y-107072672D01*
X158192013Y-107317665D01*
X158339338Y-107538153D01*
X158526847Y-107725662D01*
X158747335Y-107872987D01*
X158992328Y-107974467D01*
X159252411Y-108026200D01*
X159517589Y-108026200D01*
X159777672Y-107974467D01*
X160022665Y-107872987D01*
X160243153Y-107725662D01*
X160430662Y-107538153D01*
X160496246Y-107440000D01*
X160813754Y-107440000D01*
X160879338Y-107538153D01*
X161066847Y-107725662D01*
X161287335Y-107872987D01*
X161473260Y-107950000D01*
X161287335Y-108027013D01*
X161066847Y-108174338D01*
X160879338Y-108361847D01*
X160732013Y-108582335D01*
X160630533Y-108827328D01*
X160578800Y-109087411D01*
X160578800Y-109352589D01*
X160630533Y-109612672D01*
X160732013Y-109857665D01*
X160879338Y-110078153D01*
X161066847Y-110265662D01*
X161287335Y-110412987D01*
X161532328Y-110514467D01*
X161792411Y-110566200D01*
X162057589Y-110566200D01*
X162317672Y-110514467D01*
X162562665Y-110412987D01*
X162783153Y-110265662D01*
X162970662Y-110078153D01*
X163036246Y-109980000D01*
X163353754Y-109980000D01*
X163419338Y-110078153D01*
X163606847Y-110265662D01*
X163827335Y-110412987D01*
X164072328Y-110514467D01*
X164332411Y-110566200D01*
X164597589Y-110566200D01*
X164857672Y-110514467D01*
X165102665Y-110412987D01*
X165323153Y-110265662D01*
X165510662Y-110078153D01*
X165657987Y-109857665D01*
X165735000Y-109671740D01*
X165812013Y-109857665D01*
X165959338Y-110078153D01*
X166146847Y-110265662D01*
X166367335Y-110412987D01*
X166612328Y-110514467D01*
X166872411Y-110566200D01*
X167137589Y-110566200D01*
X167397672Y-110514467D01*
X167642665Y-110412987D01*
X167863153Y-110265662D01*
X168050662Y-110078153D01*
X168197987Y-109857665D01*
X168275000Y-109671740D01*
X168352013Y-109857665D01*
X168499338Y-110078153D01*
X168686847Y-110265662D01*
X168907335Y-110412987D01*
X169152328Y-110514467D01*
X169412411Y-110566200D01*
X169677589Y-110566200D01*
X169937672Y-110514467D01*
X170182665Y-110412987D01*
X170403153Y-110265662D01*
X170590662Y-110078153D01*
X170737987Y-109857665D01*
X170839467Y-109612672D01*
X170891200Y-109352589D01*
X170891200Y-109087411D01*
X170839467Y-108827328D01*
X170737987Y-108582335D01*
X170590662Y-108361847D01*
X170403153Y-108174338D01*
X170182665Y-108027013D01*
X169996740Y-107950000D01*
X170182665Y-107872987D01*
X170403153Y-107725662D01*
X170590662Y-107538153D01*
X170737987Y-107317665D01*
X170815000Y-107131740D01*
X170892013Y-107317665D01*
X171039338Y-107538153D01*
X171226847Y-107725662D01*
X171447335Y-107872987D01*
X171692328Y-107974467D01*
X171952411Y-108026200D01*
X172217589Y-108026200D01*
X172477672Y-107974467D01*
X172722665Y-107872987D01*
X172943153Y-107725662D01*
X173130662Y-107538153D01*
X173277987Y-107317665D01*
X173379467Y-107072672D01*
X173431200Y-106812589D01*
X173431200Y-106547411D01*
X173379467Y-106287328D01*
X173277987Y-106042335D01*
X173130662Y-105821847D01*
X172943153Y-105634338D01*
X172722665Y-105487013D01*
X172536740Y-105410000D01*
X172722665Y-105332987D01*
X172943153Y-105185662D01*
X173130662Y-104998153D01*
X173277987Y-104777665D01*
X173379467Y-104532672D01*
X173431200Y-104272589D01*
X173431200Y-104007411D01*
X173379467Y-103747328D01*
X173277987Y-103502335D01*
X173130662Y-103281847D01*
X172943153Y-103094338D01*
X172722665Y-102947013D01*
X172536740Y-102870000D01*
X172722665Y-102792987D01*
X172943153Y-102645662D01*
X173130662Y-102458153D01*
X173277987Y-102237665D01*
X173379467Y-101992672D01*
X173431200Y-101732589D01*
X173431200Y-101467411D01*
X173379467Y-101207328D01*
X173277987Y-100962335D01*
X173130662Y-100741847D01*
X172943153Y-100554338D01*
X172722665Y-100407013D01*
X172536740Y-100330000D01*
X172722665Y-100252987D01*
X172943153Y-100105662D01*
X173130662Y-99918153D01*
X173277987Y-99697665D01*
X173379467Y-99452672D01*
X173431200Y-99192589D01*
X173431200Y-98927411D01*
X173379467Y-98667328D01*
X173277987Y-98422335D01*
X173130662Y-98201847D01*
X172943153Y-98014338D01*
X172722665Y-97867013D01*
X172536740Y-97790000D01*
X172722665Y-97712987D01*
X172943153Y-97565662D01*
X173130662Y-97378153D01*
X173277987Y-97157665D01*
X173379467Y-96912672D01*
X173431200Y-96652589D01*
X173431200Y-96387411D01*
X173379467Y-96127328D01*
X173277987Y-95882335D01*
X173130662Y-95661847D01*
X172943153Y-95474338D01*
X172722665Y-95327013D01*
X172477672Y-95225533D01*
X172217589Y-95173800D01*
X171952411Y-95173800D01*
X171692328Y-95225533D01*
X171447335Y-95327013D01*
X171226847Y-95474338D01*
X171039338Y-95661847D01*
X170892013Y-95882335D01*
X170815000Y-96068260D01*
X170737987Y-95882335D01*
X170590662Y-95661847D01*
X170403153Y-95474338D01*
X170182665Y-95327013D01*
X169996740Y-95250000D01*
X170182665Y-95172987D01*
X170403153Y-95025662D01*
X170590662Y-94838153D01*
X170737987Y-94617665D01*
X170839467Y-94372672D01*
X170891200Y-94112589D01*
X170891200Y-93847411D01*
X170839467Y-93587328D01*
X170737987Y-93342335D01*
X170590662Y-93121847D01*
X170403153Y-92934338D01*
X170182665Y-92787013D01*
X169937672Y-92685533D01*
X169677589Y-92633800D01*
X169412411Y-92633800D01*
X169152328Y-92685533D01*
X168907335Y-92787013D01*
X168686847Y-92934338D01*
X168499338Y-93121847D01*
X168352013Y-93342335D01*
X168275000Y-93528260D01*
X168197987Y-93342335D01*
X168050662Y-93121847D01*
X167863153Y-92934338D01*
X167642665Y-92787013D01*
X167397672Y-92685533D01*
X167137589Y-92633800D01*
X166872411Y-92633800D01*
X166612328Y-92685533D01*
X166367335Y-92787013D01*
X166146847Y-92934338D01*
X165959338Y-93121847D01*
X165812013Y-93342335D01*
X165734031Y-93530600D01*
X165684542Y-93394720D01*
X165629183Y-93291152D01*
X165394273Y-93230332D01*
X164644605Y-93980000D01*
X165394273Y-94729668D01*
X165629183Y-94668848D01*
X165737206Y-94437066D01*
X165812013Y-94617665D01*
X165959338Y-94838153D01*
X166146847Y-95025662D01*
X166367335Y-95172987D01*
X166553260Y-95250000D01*
X166367335Y-95327013D01*
X166146847Y-95474338D01*
X165959338Y-95661847D01*
X165812013Y-95882335D01*
X165735000Y-96068260D01*
X165657987Y-95882335D01*
X165510662Y-95661847D01*
X165323153Y-95474338D01*
X165102665Y-95327013D01*
X164914400Y-95249031D01*
X165050280Y-95199542D01*
X165153848Y-95144183D01*
X165214668Y-94909273D01*
X164465000Y-94159605D01*
X163715332Y-94909273D01*
X163776152Y-95144183D01*
X164007934Y-95252206D01*
X163827335Y-95327013D01*
X163606847Y-95474338D01*
X163419338Y-95661847D01*
X163272013Y-95882335D01*
X163195000Y-96068260D01*
X163117987Y-95882335D01*
X162970662Y-95661847D01*
X162783153Y-95474338D01*
X162562665Y-95327013D01*
X162376740Y-95250000D01*
X162562665Y-95172987D01*
X162783153Y-95025662D01*
X162970662Y-94838153D01*
X163117987Y-94617665D01*
X163195969Y-94429400D01*
X163245458Y-94565280D01*
X163300817Y-94668848D01*
X163535727Y-94729668D01*
X164285395Y-93980000D01*
X163535727Y-93230332D01*
X163300817Y-93291152D01*
X163192794Y-93522934D01*
X163117987Y-93342335D01*
X162970662Y-93121847D01*
X162899542Y-93050727D01*
X163715332Y-93050727D01*
X164465000Y-93800395D01*
X165214668Y-93050727D01*
X165153848Y-92815817D01*
X164913491Y-92703798D01*
X164655898Y-92640824D01*
X164390970Y-92629313D01*
X164128887Y-92669709D01*
X163879720Y-92760458D01*
X163776152Y-92815817D01*
X163715332Y-93050727D01*
X162899542Y-93050727D01*
X162783153Y-92934338D01*
X162562665Y-92787013D01*
X162317672Y-92685533D01*
X162057589Y-92633800D01*
X161792411Y-92633800D01*
X161676631Y-92656830D01*
X160583804Y-91564003D01*
X160560001Y-91534999D01*
X160444276Y-91440026D01*
X160312247Y-91369454D01*
X160168986Y-91325997D01*
X160057333Y-91315000D01*
X160057322Y-91315000D01*
X160020000Y-91311324D01*
X159982678Y-91315000D01*
X143547322Y-91315000D01*
X143509999Y-91311324D01*
X143472676Y-91315000D01*
X143472667Y-91315000D01*
X143361014Y-91325997D01*
X143217753Y-91369454D01*
X143085724Y-91440026D01*
X142969999Y-91534999D01*
X142946201Y-91563997D01*
X141808641Y-92701558D01*
X141602335Y-92787013D01*
X141381847Y-92934338D01*
X141194338Y-93121847D01*
X141047013Y-93342335D01*
X140945533Y-93587328D01*
X140893800Y-93847411D01*
X140893800Y-94112589D01*
X140945533Y-94372672D01*
X141047013Y-94617665D01*
X141194338Y-94838153D01*
X141381847Y-95025662D01*
X141602335Y-95172987D01*
X141788260Y-95250000D01*
X141602335Y-95327013D01*
X141381847Y-95474338D01*
X141194338Y-95661847D01*
X141047013Y-95882335D01*
X140970000Y-96068260D01*
X140892987Y-95882335D01*
X140745662Y-95661847D01*
X140558153Y-95474338D01*
X140337665Y-95327013D01*
X140092672Y-95225533D01*
X139832589Y-95173800D01*
X139567411Y-95173800D01*
X139307328Y-95225533D01*
X139190000Y-95274132D01*
X139190000Y-87213072D01*
X139280000Y-87213072D01*
X139404482Y-87200812D01*
X139524180Y-87164502D01*
X139634494Y-87105537D01*
X139731185Y-87026185D01*
X139810537Y-86929494D01*
X139869502Y-86819180D01*
X139905812Y-86699482D01*
X139918072Y-86575000D01*
X139918072Y-86081890D01*
X169373524Y-86081890D01*
X169418175Y-86229099D01*
X169543359Y-86491920D01*
X169717412Y-86725269D01*
X169933645Y-86920178D01*
X170183748Y-87069157D01*
X170458109Y-87166481D01*
X170688000Y-87045814D01*
X170688000Y-85852000D01*
X169494845Y-85852000D01*
X169373524Y-86081890D01*
X139918072Y-86081890D01*
X139918072Y-84875000D01*
X139905812Y-84750518D01*
X139869502Y-84630820D01*
X139810537Y-84520506D01*
X139731185Y-84423815D01*
X139634494Y-84344463D01*
X139524180Y-84285498D01*
X139443534Y-84261034D01*
X139527588Y-84185269D01*
X139701641Y-83951920D01*
X139826825Y-83689099D01*
X139871476Y-83541890D01*
X139750155Y-83312000D01*
X138557000Y-83312000D01*
X138557000Y-83332000D01*
X138303000Y-83332000D01*
X138303000Y-83312000D01*
X137109845Y-83312000D01*
X136988524Y-83541890D01*
X137033175Y-83689099D01*
X137158359Y-83951920D01*
X137332412Y-84185269D01*
X137416466Y-84261034D01*
X137335820Y-84285498D01*
X137225506Y-84344463D01*
X137128815Y-84423815D01*
X137049463Y-84520506D01*
X136990498Y-84630820D01*
X136954188Y-84750518D01*
X136941928Y-84875000D01*
X135915000Y-84875000D01*
X135915000Y-72878740D01*
X136945000Y-72878740D01*
X136945000Y-73171260D01*
X137002068Y-73458158D01*
X137114010Y-73728411D01*
X137276525Y-73971632D01*
X137483368Y-74178475D01*
X137657760Y-74295000D01*
X137483368Y-74411525D01*
X137276525Y-74618368D01*
X137114010Y-74861589D01*
X137002068Y-75131842D01*
X136945000Y-75418740D01*
X136945000Y-75711260D01*
X137002068Y-75998158D01*
X137114010Y-76268411D01*
X137276525Y-76511632D01*
X137483368Y-76718475D01*
X137657760Y-76835000D01*
X137483368Y-76951525D01*
X137276525Y-77158368D01*
X137114010Y-77401589D01*
X137002068Y-77671842D01*
X136945000Y-77958740D01*
X136945000Y-78251260D01*
X137002068Y-78538158D01*
X137114010Y-78808411D01*
X137276525Y-79051632D01*
X137483368Y-79258475D01*
X137657760Y-79375000D01*
X137483368Y-79491525D01*
X137276525Y-79698368D01*
X137114010Y-79941589D01*
X137002068Y-80211842D01*
X136945000Y-80498740D01*
X136945000Y-80791260D01*
X137002068Y-81078158D01*
X137114010Y-81348411D01*
X137276525Y-81591632D01*
X137483368Y-81798475D01*
X137665534Y-81920195D01*
X137548645Y-81989822D01*
X137332412Y-82184731D01*
X137158359Y-82418080D01*
X137033175Y-82680901D01*
X136988524Y-82828110D01*
X137109845Y-83058000D01*
X138303000Y-83058000D01*
X138303000Y-83038000D01*
X138557000Y-83038000D01*
X138557000Y-83058000D01*
X139750155Y-83058000D01*
X139871476Y-82828110D01*
X139826825Y-82680901D01*
X139701641Y-82418080D01*
X139527588Y-82184731D01*
X139311355Y-81989822D01*
X139194466Y-81920195D01*
X139376632Y-81798475D01*
X139583475Y-81591632D01*
X139704837Y-81410000D01*
X154461928Y-81410000D01*
X154474188Y-81534482D01*
X154510498Y-81654180D01*
X154569463Y-81764494D01*
X154648815Y-81861185D01*
X154745506Y-81940537D01*
X154855820Y-81999502D01*
X154975518Y-82035812D01*
X155100000Y-82048072D01*
X155289250Y-82045000D01*
X155448000Y-81886250D01*
X155448000Y-80999500D01*
X155702000Y-80999500D01*
X155702000Y-81886250D01*
X155860750Y-82045000D01*
X156050000Y-82048072D01*
X156174482Y-82035812D01*
X156294180Y-81999502D01*
X156404494Y-81940537D01*
X156501185Y-81861185D01*
X156580537Y-81764494D01*
X156639502Y-81654180D01*
X156675812Y-81534482D01*
X156688072Y-81410000D01*
X156685000Y-81158250D01*
X156526250Y-80999500D01*
X155702000Y-80999500D01*
X155448000Y-80999500D01*
X154623750Y-80999500D01*
X154465000Y-81158250D01*
X154461928Y-81410000D01*
X139704837Y-81410000D01*
X139745990Y-81348411D01*
X139857932Y-81078158D01*
X139895498Y-80889303D01*
X143189802Y-77595000D01*
X143441289Y-77595000D01*
X143485226Y-77638937D01*
X143654744Y-77752205D01*
X143739979Y-77787511D01*
X143654796Y-77822795D01*
X143485278Y-77936063D01*
X143341115Y-78080226D01*
X143227847Y-78249744D01*
X143149826Y-78438102D01*
X143110052Y-78638061D01*
X143110052Y-78841939D01*
X143149826Y-79041898D01*
X143227847Y-79230256D01*
X143341115Y-79399774D01*
X143485278Y-79543937D01*
X143654796Y-79657205D01*
X143843154Y-79735226D01*
X144043113Y-79775000D01*
X144246991Y-79775000D01*
X144446950Y-79735226D01*
X144635308Y-79657205D01*
X144804826Y-79543937D01*
X144848763Y-79500000D01*
X150860987Y-79500000D01*
X150847795Y-79519744D01*
X150769774Y-79708102D01*
X150730000Y-79908061D01*
X150730000Y-80111939D01*
X150769774Y-80311898D01*
X150847795Y-80500256D01*
X150961063Y-80669774D01*
X151105226Y-80813937D01*
X151274744Y-80927205D01*
X151463102Y-81005226D01*
X151663061Y-81045000D01*
X151866939Y-81045000D01*
X152066898Y-81005226D01*
X152255256Y-80927205D01*
X152424774Y-80813937D01*
X152468711Y-80770000D01*
X153632678Y-80770000D01*
X153670000Y-80773676D01*
X153707322Y-80770000D01*
X153707333Y-80770000D01*
X153818986Y-80759003D01*
X153962247Y-80715546D01*
X154094276Y-80644974D01*
X154210001Y-80550001D01*
X154233803Y-80520998D01*
X154466530Y-80288271D01*
X154461928Y-80335000D01*
X154465000Y-80586750D01*
X154623750Y-80745500D01*
X155448000Y-80745500D01*
X155448000Y-80725500D01*
X155702000Y-80725500D01*
X155702000Y-80745500D01*
X156526250Y-80745500D01*
X156685000Y-80586750D01*
X156688072Y-80335000D01*
X156675812Y-80210518D01*
X156639502Y-80090820D01*
X156580537Y-79980506D01*
X156541226Y-79932606D01*
X156554645Y-79907500D01*
X157861021Y-79907500D01*
X157946063Y-80034774D01*
X158090226Y-80178937D01*
X158259744Y-80292205D01*
X158448102Y-80370226D01*
X158648061Y-80410000D01*
X158851939Y-80410000D01*
X159051898Y-80370226D01*
X159240256Y-80292205D01*
X159409774Y-80178937D01*
X159553937Y-80034774D01*
X159667205Y-79865256D01*
X159745226Y-79676898D01*
X159785000Y-79476939D01*
X159785000Y-79273061D01*
X159745226Y-79073102D01*
X159667205Y-78884744D01*
X159553937Y-78715226D01*
X159409774Y-78571063D01*
X159240256Y-78457795D01*
X159051898Y-78379774D01*
X158851939Y-78340000D01*
X158648061Y-78340000D01*
X158448102Y-78379774D01*
X158429450Y-78387500D01*
X156554645Y-78387500D01*
X156540512Y-78361058D01*
X156432955Y-78230000D01*
X158077678Y-78230000D01*
X158115000Y-78233676D01*
X158152322Y-78230000D01*
X158152333Y-78230000D01*
X158263986Y-78219003D01*
X158407247Y-78175546D01*
X158539276Y-78104974D01*
X158655001Y-78010001D01*
X158678804Y-77980997D01*
X164144802Y-72515000D01*
X169420986Y-72515000D01*
X169418175Y-72520901D01*
X169373524Y-72668110D01*
X169494845Y-72898000D01*
X170688000Y-72898000D01*
X170688000Y-72878000D01*
X170942000Y-72878000D01*
X170942000Y-72898000D01*
X170962000Y-72898000D01*
X170962000Y-73152000D01*
X170942000Y-73152000D01*
X170942000Y-73172000D01*
X170688000Y-73172000D01*
X170688000Y-73152000D01*
X169494845Y-73152000D01*
X169373524Y-73381890D01*
X169418175Y-73529099D01*
X169543359Y-73791920D01*
X169717412Y-74025269D01*
X169933645Y-74220178D01*
X170050534Y-74289805D01*
X169868368Y-74411525D01*
X169661525Y-74618368D01*
X169499010Y-74861589D01*
X169387068Y-75131842D01*
X169330000Y-75418740D01*
X169330000Y-75711260D01*
X169387068Y-75998158D01*
X169499010Y-76268411D01*
X169661525Y-76511632D01*
X169868368Y-76718475D01*
X170042760Y-76835000D01*
X169868368Y-76951525D01*
X169661525Y-77158368D01*
X169499010Y-77401589D01*
X169387068Y-77671842D01*
X169330000Y-77958740D01*
X169330000Y-78251260D01*
X169387068Y-78538158D01*
X169499010Y-78808411D01*
X169661525Y-79051632D01*
X169868368Y-79258475D01*
X170042760Y-79375000D01*
X169868368Y-79491525D01*
X169661525Y-79698368D01*
X169499010Y-79941589D01*
X169387068Y-80211842D01*
X169330000Y-80498740D01*
X169330000Y-80791260D01*
X169387068Y-81078158D01*
X169418897Y-81155000D01*
X164779802Y-81155000D01*
X164230000Y-80605199D01*
X164230000Y-80543061D01*
X164190226Y-80343102D01*
X164112205Y-80154744D01*
X163998937Y-79985226D01*
X163854774Y-79841063D01*
X163685256Y-79727795D01*
X163496898Y-79649774D01*
X163296939Y-79610000D01*
X163093061Y-79610000D01*
X162893102Y-79649774D01*
X162704744Y-79727795D01*
X162535226Y-79841063D01*
X162391063Y-79985226D01*
X162277795Y-80154744D01*
X162199774Y-80343102D01*
X162160000Y-80543061D01*
X162160000Y-80746939D01*
X162199774Y-80946898D01*
X162277795Y-81135256D01*
X162391063Y-81304774D01*
X162535226Y-81448937D01*
X162704744Y-81562205D01*
X162893102Y-81640226D01*
X163093061Y-81680000D01*
X163155199Y-81680000D01*
X163901200Y-82426002D01*
X163924999Y-82455001D01*
X164040724Y-82549974D01*
X164172753Y-82620546D01*
X164316014Y-82664003D01*
X164427667Y-82675000D01*
X164427676Y-82675000D01*
X164464999Y-82678676D01*
X164502322Y-82675000D01*
X169418897Y-82675000D01*
X169387068Y-82751842D01*
X169330000Y-83038740D01*
X169330000Y-83331260D01*
X169387068Y-83618158D01*
X169418897Y-83695000D01*
X153430413Y-83695000D01*
X153395226Y-83518102D01*
X153317205Y-83329744D01*
X153203937Y-83160226D01*
X153059774Y-83016063D01*
X152890256Y-82902795D01*
X152701898Y-82824774D01*
X152501939Y-82785000D01*
X152298061Y-82785000D01*
X152098102Y-82824774D01*
X151909744Y-82902795D01*
X151740226Y-83016063D01*
X151596063Y-83160226D01*
X151482795Y-83329744D01*
X151404774Y-83518102D01*
X151365000Y-83718061D01*
X151365000Y-83921939D01*
X151404774Y-84121898D01*
X151482795Y-84310256D01*
X151596063Y-84479774D01*
X151740226Y-84623937D01*
X151909744Y-84737205D01*
X152098102Y-84815226D01*
X152298061Y-84855000D01*
X152360198Y-84855000D01*
X152471200Y-84966002D01*
X152494999Y-84995001D01*
X152610724Y-85089974D01*
X152742753Y-85160546D01*
X152886014Y-85204003D01*
X152987484Y-85213997D01*
X153035000Y-85218677D01*
X153072333Y-85215000D01*
X169420986Y-85215000D01*
X169418175Y-85220901D01*
X169373524Y-85368110D01*
X169494845Y-85598000D01*
X170688000Y-85598000D01*
X170688000Y-85578000D01*
X170942000Y-85578000D01*
X170942000Y-85598000D01*
X170962000Y-85598000D01*
X170962000Y-85852000D01*
X170942000Y-85852000D01*
X170942000Y-87045814D01*
X171171891Y-87166481D01*
X171446252Y-87069157D01*
X171696355Y-86920178D01*
X171892502Y-86743374D01*
X171915498Y-86819180D01*
X171974463Y-86929494D01*
X172053815Y-87026185D01*
X172150506Y-87105537D01*
X172260820Y-87164502D01*
X172380518Y-87200812D01*
X172505000Y-87213072D01*
X174205000Y-87213072D01*
X174329482Y-87200812D01*
X174449180Y-87164502D01*
X174559494Y-87105537D01*
X174656185Y-87026185D01*
X174735537Y-86929494D01*
X174794502Y-86819180D01*
X174830812Y-86699482D01*
X174843072Y-86575000D01*
X174843072Y-84875000D01*
X174830812Y-84750518D01*
X174794502Y-84630820D01*
X174735537Y-84520506D01*
X174656185Y-84423815D01*
X174559494Y-84344463D01*
X174449180Y-84285498D01*
X174376620Y-84263487D01*
X174508475Y-84131632D01*
X174670990Y-83888411D01*
X174782932Y-83618158D01*
X174840000Y-83331260D01*
X174840000Y-83038740D01*
X174782932Y-82751842D01*
X174670990Y-82481589D01*
X174508475Y-82238368D01*
X174301632Y-82031525D01*
X174127240Y-81915000D01*
X174301632Y-81798475D01*
X174508475Y-81591632D01*
X174670990Y-81348411D01*
X174782932Y-81078158D01*
X174840000Y-80791260D01*
X174840000Y-80498740D01*
X174782932Y-80211842D01*
X174670990Y-79941589D01*
X174508475Y-79698368D01*
X174301632Y-79491525D01*
X174127240Y-79375000D01*
X174301632Y-79258475D01*
X174508475Y-79051632D01*
X174670990Y-78808411D01*
X174782932Y-78538158D01*
X174840000Y-78251260D01*
X174840000Y-77958740D01*
X174782932Y-77671842D01*
X174670990Y-77401589D01*
X174508475Y-77158368D01*
X174301632Y-76951525D01*
X174127240Y-76835000D01*
X174301632Y-76718475D01*
X174508475Y-76511632D01*
X174670990Y-76268411D01*
X174782932Y-75998158D01*
X174840000Y-75711260D01*
X174840000Y-75418740D01*
X174796210Y-75198592D01*
X175136004Y-74858798D01*
X175165001Y-74835001D01*
X175259974Y-74719276D01*
X175330546Y-74587247D01*
X175374003Y-74443986D01*
X175385000Y-74332333D01*
X175385000Y-74332324D01*
X175388676Y-74295001D01*
X175385000Y-74257678D01*
X175385000Y-71792333D01*
X175388677Y-71755000D01*
X175385000Y-71717667D01*
X175385000Y-69252322D01*
X175388676Y-69214999D01*
X175385000Y-69177676D01*
X175385000Y-69177667D01*
X175374003Y-69066014D01*
X175330546Y-68922753D01*
X175259974Y-68790724D01*
X175165001Y-68674999D01*
X175136003Y-68651201D01*
X174796210Y-68311408D01*
X174840000Y-68091260D01*
X174840000Y-67798740D01*
X174782932Y-67511842D01*
X174670990Y-67241589D01*
X174508475Y-66998368D01*
X174301632Y-66791525D01*
X174058411Y-66629010D01*
X173788158Y-66517068D01*
X173501260Y-66460000D01*
X173208740Y-66460000D01*
X172988592Y-66503791D01*
X172743803Y-66259002D01*
X172720000Y-66229998D01*
X172604275Y-66135025D01*
X172472246Y-66064453D01*
X172328985Y-66020996D01*
X172217332Y-66009999D01*
X172217321Y-66009999D01*
X172179999Y-66006323D01*
X172142677Y-66009999D01*
X169487323Y-66009999D01*
X169450000Y-66006323D01*
X169412677Y-66009999D01*
X169412668Y-66009999D01*
X169301015Y-66020996D01*
X169157754Y-66064453D01*
X169025725Y-66135025D01*
X168910000Y-66229998D01*
X168886202Y-66258996D01*
X167960199Y-67185000D01*
X162778072Y-67185000D01*
X162778072Y-67095000D01*
X162765812Y-66970518D01*
X162729502Y-66850820D01*
X162670537Y-66740506D01*
X162591185Y-66643815D01*
X162494494Y-66564463D01*
X162384180Y-66505498D01*
X162264482Y-66469188D01*
X162140000Y-66456928D01*
X161511730Y-66456928D01*
X160583804Y-65529003D01*
X160560001Y-65499999D01*
X160444276Y-65405026D01*
X160312247Y-65334454D01*
X160168986Y-65290997D01*
X160057333Y-65280000D01*
X160057322Y-65280000D01*
X160020000Y-65276324D01*
X159982678Y-65280000D01*
X152437322Y-65280000D01*
X152399999Y-65276324D01*
X152362676Y-65280000D01*
X152362667Y-65280000D01*
X152251014Y-65290997D01*
X152107753Y-65334454D01*
X151975724Y-65405026D01*
X151859999Y-65499999D01*
X151836201Y-65528997D01*
X150538998Y-66826201D01*
X150510000Y-66849999D01*
X150486202Y-66878997D01*
X150486201Y-66878998D01*
X150471856Y-66896477D01*
X150464933Y-66898577D01*
X150313558Y-66979488D01*
X150180877Y-67088377D01*
X150137500Y-67141232D01*
X150094123Y-67088377D01*
X149961442Y-66979488D01*
X149810067Y-66898577D01*
X149645816Y-66848752D01*
X149475000Y-66831928D01*
X148975000Y-66831928D01*
X148804184Y-66848752D01*
X148639933Y-66898577D01*
X148488558Y-66979488D01*
X148355877Y-67088377D01*
X148246988Y-67221058D01*
X148166077Y-67372433D01*
X148117231Y-67533456D01*
X148112932Y-67511842D01*
X148000990Y-67241589D01*
X147838475Y-66998368D01*
X147631632Y-66791525D01*
X147388411Y-66629010D01*
X147118158Y-66517068D01*
X146831260Y-66460000D01*
X146538740Y-66460000D01*
X146251842Y-66517068D01*
X145981589Y-66629010D01*
X145738368Y-66791525D01*
X145531525Y-66998368D01*
X145413900Y-67174406D01*
X145242588Y-66944731D01*
X145026355Y-66749822D01*
X144776252Y-66600843D01*
X144501891Y-66503519D01*
X144272000Y-66624186D01*
X144272000Y-67818000D01*
X144292000Y-67818000D01*
X144292000Y-68072000D01*
X144272000Y-68072000D01*
X144272000Y-70358000D01*
X144292000Y-70358000D01*
X144292000Y-70612000D01*
X144272000Y-70612000D01*
X144272000Y-72898000D01*
X144292000Y-72898000D01*
X144292000Y-73152000D01*
X144272000Y-73152000D01*
X144272000Y-74345814D01*
X144501891Y-74466481D01*
X144776252Y-74369157D01*
X145026355Y-74220178D01*
X145222502Y-74043374D01*
X145245498Y-74119180D01*
X145304463Y-74229494D01*
X145383815Y-74326185D01*
X145480506Y-74405537D01*
X145590820Y-74464502D01*
X145710518Y-74500812D01*
X145835000Y-74513072D01*
X147535000Y-74513072D01*
X147659482Y-74500812D01*
X147779180Y-74464502D01*
X147889494Y-74405537D01*
X147986185Y-74326185D01*
X148065537Y-74229494D01*
X148124502Y-74119180D01*
X148160812Y-73999482D01*
X148173072Y-73875000D01*
X148173072Y-73610654D01*
X148246988Y-73748942D01*
X148355877Y-73881623D01*
X148488558Y-73990512D01*
X148639933Y-74071423D01*
X148804184Y-74121248D01*
X148975000Y-74138072D01*
X149475000Y-74138072D01*
X149645816Y-74121248D01*
X149810067Y-74071423D01*
X149961442Y-73990512D01*
X150094123Y-73881623D01*
X150137500Y-73828768D01*
X150180877Y-73881623D01*
X150313558Y-73990512D01*
X150464933Y-74071423D01*
X150629184Y-74121248D01*
X150800000Y-74138072D01*
X151300000Y-74138072D01*
X151470816Y-74121248D01*
X151635067Y-74071423D01*
X151786442Y-73990512D01*
X151919123Y-73881623D01*
X152028012Y-73748942D01*
X152108923Y-73597567D01*
X152158748Y-73433316D01*
X152175572Y-73262500D01*
X152175572Y-72787500D01*
X152158748Y-72616684D01*
X152108923Y-72452433D01*
X152028012Y-72301058D01*
X151919123Y-72168377D01*
X151810000Y-72078822D01*
X151810000Y-71431178D01*
X151919123Y-71341623D01*
X152028012Y-71208942D01*
X152108923Y-71057567D01*
X152158748Y-70893316D01*
X152175572Y-70722500D01*
X152175572Y-70247500D01*
X152158748Y-70076684D01*
X152108923Y-69912433D01*
X152028012Y-69761058D01*
X151919123Y-69628377D01*
X151810000Y-69538822D01*
X151810000Y-68891178D01*
X151919123Y-68801623D01*
X152028012Y-68668942D01*
X152108923Y-68517567D01*
X152158748Y-68353316D01*
X152163812Y-68301891D01*
X152228519Y-68301891D01*
X152325843Y-68576252D01*
X152474822Y-68826355D01*
X152669731Y-69042588D01*
X152903080Y-69216641D01*
X153165901Y-69341825D01*
X153313110Y-69386476D01*
X153543000Y-69265155D01*
X153543000Y-68072000D01*
X152349186Y-68072000D01*
X152228519Y-68301891D01*
X152163812Y-68301891D01*
X152175572Y-68182500D01*
X152175572Y-67707500D01*
X152158748Y-67536684D01*
X152116707Y-67398094D01*
X152714802Y-66800000D01*
X152733295Y-66800000D01*
X152669731Y-66847412D01*
X152474822Y-67063645D01*
X152325843Y-67313748D01*
X152228519Y-67588109D01*
X152349186Y-67818000D01*
X153543000Y-67818000D01*
X153543000Y-67798000D01*
X153797000Y-67798000D01*
X153797000Y-67818000D01*
X153817000Y-67818000D01*
X153817000Y-68072000D01*
X153797000Y-68072000D01*
X153797000Y-69265155D01*
X154026890Y-69386476D01*
X154174099Y-69341825D01*
X154436920Y-69216641D01*
X154670269Y-69042588D01*
X154865178Y-68826355D01*
X154934805Y-68709466D01*
X155056525Y-68891632D01*
X155263368Y-69098475D01*
X155506589Y-69260990D01*
X155776842Y-69372932D01*
X156063740Y-69430000D01*
X156356260Y-69430000D01*
X156576408Y-69386210D01*
X158186205Y-70996008D01*
X158209999Y-71025001D01*
X158238992Y-71048795D01*
X158238996Y-71048799D01*
X158309685Y-71106811D01*
X158325724Y-71119974D01*
X158457753Y-71190546D01*
X158601014Y-71234003D01*
X158712667Y-71245000D01*
X158712676Y-71245000D01*
X158749999Y-71248676D01*
X158787322Y-71245000D01*
X163265198Y-71245000D01*
X157800199Y-76710000D01*
X155970413Y-76710000D01*
X155935226Y-76533102D01*
X155857205Y-76344744D01*
X155743937Y-76175226D01*
X155599774Y-76031063D01*
X155430256Y-75917795D01*
X155241898Y-75839774D01*
X155041939Y-75800000D01*
X154838061Y-75800000D01*
X154638102Y-75839774D01*
X154449744Y-75917795D01*
X154280226Y-76031063D01*
X154136063Y-76175226D01*
X154022795Y-76344744D01*
X153944774Y-76533102D01*
X153905000Y-76733061D01*
X153905000Y-76936939D01*
X153944774Y-77136898D01*
X154022795Y-77325256D01*
X154136063Y-77494774D01*
X154280226Y-77638937D01*
X154449744Y-77752205D01*
X154638102Y-77830226D01*
X154815000Y-77865413D01*
X154815000Y-78149080D01*
X154718377Y-78228377D01*
X154625310Y-78341779D01*
X154587187Y-78249744D01*
X154473919Y-78080226D01*
X154329756Y-77936063D01*
X154160238Y-77822795D01*
X153971880Y-77744774D01*
X153771921Y-77705000D01*
X153568043Y-77705000D01*
X153368084Y-77744774D01*
X153179726Y-77822795D01*
X153010208Y-77936063D01*
X152966271Y-77980000D01*
X144848763Y-77980000D01*
X144804826Y-77936063D01*
X144635308Y-77822795D01*
X144550073Y-77787489D01*
X144635256Y-77752205D01*
X144804774Y-77638937D01*
X144948937Y-77494774D01*
X145062205Y-77325256D01*
X145140226Y-77136898D01*
X145180000Y-76936939D01*
X145180000Y-76733061D01*
X145140226Y-76533102D01*
X145062205Y-76344744D01*
X144948937Y-76175226D01*
X144804774Y-76031063D01*
X144635256Y-75917795D01*
X144446898Y-75839774D01*
X144246939Y-75800000D01*
X144043061Y-75800000D01*
X143843102Y-75839774D01*
X143654744Y-75917795D01*
X143485226Y-76031063D01*
X143441289Y-76075000D01*
X142912325Y-76075000D01*
X142875000Y-76071324D01*
X142837675Y-76075000D01*
X142837667Y-76075000D01*
X142726014Y-76085997D01*
X142582753Y-76129454D01*
X142450724Y-76200026D01*
X142334999Y-76294999D01*
X142311201Y-76323997D01*
X139236984Y-79398215D01*
X139202240Y-79375000D01*
X139376632Y-79258475D01*
X139583475Y-79051632D01*
X139745990Y-78808411D01*
X139857932Y-78538158D01*
X139915000Y-78251260D01*
X139915000Y-77958740D01*
X139857932Y-77671842D01*
X139745990Y-77401589D01*
X139583475Y-77158368D01*
X139376632Y-76951525D01*
X139202240Y-76835000D01*
X139376632Y-76718475D01*
X139583475Y-76511632D01*
X139745990Y-76268411D01*
X139857932Y-75998158D01*
X139915000Y-75711260D01*
X139915000Y-75418740D01*
X139857932Y-75131842D01*
X139745990Y-74861589D01*
X139583475Y-74618368D01*
X139376632Y-74411525D01*
X139202240Y-74295000D01*
X139376632Y-74178475D01*
X139583475Y-73971632D01*
X139745990Y-73728411D01*
X139857932Y-73458158D01*
X139873102Y-73381890D01*
X142703524Y-73381890D01*
X142748175Y-73529099D01*
X142873359Y-73791920D01*
X143047412Y-74025269D01*
X143263645Y-74220178D01*
X143513748Y-74369157D01*
X143788109Y-74466481D01*
X144018000Y-74345814D01*
X144018000Y-73152000D01*
X142824845Y-73152000D01*
X142703524Y-73381890D01*
X139873102Y-73381890D01*
X139915000Y-73171260D01*
X139915000Y-72878740D01*
X139857932Y-72591842D01*
X139745990Y-72321589D01*
X139583475Y-72078368D01*
X139376632Y-71871525D01*
X139133411Y-71709010D01*
X138863158Y-71597068D01*
X138576260Y-71540000D01*
X138283740Y-71540000D01*
X137996842Y-71597068D01*
X137726589Y-71709010D01*
X137483368Y-71871525D01*
X137276525Y-72078368D01*
X137114010Y-72321589D01*
X137002068Y-72591842D01*
X136945000Y-72878740D01*
X135915000Y-72878740D01*
X135915000Y-70841890D01*
X142703524Y-70841890D01*
X142748175Y-70989099D01*
X142873359Y-71251920D01*
X143047412Y-71485269D01*
X143263645Y-71680178D01*
X143389255Y-71755000D01*
X143263645Y-71829822D01*
X143047412Y-72024731D01*
X142873359Y-72258080D01*
X142748175Y-72520901D01*
X142703524Y-72668110D01*
X142824845Y-72898000D01*
X144018000Y-72898000D01*
X144018000Y-70612000D01*
X142824845Y-70612000D01*
X142703524Y-70841890D01*
X135915000Y-70841890D01*
X135915000Y-68301890D01*
X142703524Y-68301890D01*
X142748175Y-68449099D01*
X142873359Y-68711920D01*
X143047412Y-68945269D01*
X143263645Y-69140178D01*
X143389255Y-69215000D01*
X143263645Y-69289822D01*
X143047412Y-69484731D01*
X142873359Y-69718080D01*
X142748175Y-69980901D01*
X142703524Y-70128110D01*
X142824845Y-70358000D01*
X144018000Y-70358000D01*
X144018000Y-68072000D01*
X142824845Y-68072000D01*
X142703524Y-68301890D01*
X135915000Y-68301890D01*
X135915000Y-67588110D01*
X142703524Y-67588110D01*
X142824845Y-67818000D01*
X144018000Y-67818000D01*
X144018000Y-66624186D01*
X143788109Y-66503519D01*
X143513748Y-66600843D01*
X143263645Y-66749822D01*
X143047412Y-66944731D01*
X142873359Y-67178080D01*
X142748175Y-67440901D01*
X142703524Y-67588110D01*
X135915000Y-67588110D01*
X135915000Y-64795000D01*
X175870000Y-64795000D01*
X175870001Y-113005000D01*
G37*
%TD.AperFunction*%
D16*
X165497500Y-103638072D02*
X165972500Y-103638072D01*
X166054456Y-103630000D01*
X168299132Y-103630000D01*
X168250533Y-103747328D01*
X168198800Y-104007411D01*
X168198800Y-104272589D01*
X168250533Y-104532672D01*
X168352013Y-104777665D01*
X168499338Y-104998153D01*
X168686847Y-105185662D01*
X168907335Y-105332987D01*
X169093260Y-105410000D01*
X168907335Y-105487013D01*
X168686847Y-105634338D01*
X168499338Y-105821847D01*
X168354272Y-106038954D01*
X168354272Y-105968800D01*
X168342012Y-105844318D01*
X168305702Y-105724620D01*
X168246737Y-105614306D01*
X168167385Y-105517615D01*
X168070694Y-105438263D01*
X167960380Y-105379298D01*
X167840682Y-105342988D01*
X167716200Y-105330728D01*
X166293800Y-105330728D01*
X166169318Y-105342988D01*
X166049620Y-105379298D01*
X165939306Y-105438263D01*
X165842615Y-105517615D01*
X165763263Y-105614306D01*
X165704298Y-105724620D01*
X165667988Y-105844318D01*
X165655728Y-105968800D01*
X165655728Y-106038954D01*
X165510662Y-105821847D01*
X165323153Y-105634338D01*
X165102665Y-105487013D01*
X164857672Y-105385533D01*
X164597589Y-105333800D01*
X164332411Y-105333800D01*
X164072328Y-105385533D01*
X163827335Y-105487013D01*
X163606847Y-105634338D01*
X163419338Y-105821847D01*
X163353754Y-105920000D01*
X163036246Y-105920000D01*
X162970662Y-105821847D01*
X162783153Y-105634338D01*
X162562665Y-105487013D01*
X162376740Y-105410000D01*
X162562665Y-105332987D01*
X162783153Y-105185662D01*
X162970662Y-104998153D01*
X163117987Y-104777665D01*
X163219467Y-104532672D01*
X163271200Y-104272589D01*
X163271200Y-104007411D01*
X163248170Y-103891631D01*
X163509802Y-103630000D01*
X165415544Y-103630000D01*
X165497500Y-103638072D01*
%TA.AperFunction,Conductor*%
D17*
G36*
X165497500Y-103638072D02*
G01*
X165972500Y-103638072D01*
X166054456Y-103630000D01*
X168299132Y-103630000D01*
X168250533Y-103747328D01*
X168198800Y-104007411D01*
X168198800Y-104272589D01*
X168250533Y-104532672D01*
X168352013Y-104777665D01*
X168499338Y-104998153D01*
X168686847Y-105185662D01*
X168907335Y-105332987D01*
X169093260Y-105410000D01*
X168907335Y-105487013D01*
X168686847Y-105634338D01*
X168499338Y-105821847D01*
X168354272Y-106038954D01*
X168354272Y-105968800D01*
X168342012Y-105844318D01*
X168305702Y-105724620D01*
X168246737Y-105614306D01*
X168167385Y-105517615D01*
X168070694Y-105438263D01*
X167960380Y-105379298D01*
X167840682Y-105342988D01*
X167716200Y-105330728D01*
X166293800Y-105330728D01*
X166169318Y-105342988D01*
X166049620Y-105379298D01*
X165939306Y-105438263D01*
X165842615Y-105517615D01*
X165763263Y-105614306D01*
X165704298Y-105724620D01*
X165667988Y-105844318D01*
X165655728Y-105968800D01*
X165655728Y-106038954D01*
X165510662Y-105821847D01*
X165323153Y-105634338D01*
X165102665Y-105487013D01*
X164857672Y-105385533D01*
X164597589Y-105333800D01*
X164332411Y-105333800D01*
X164072328Y-105385533D01*
X163827335Y-105487013D01*
X163606847Y-105634338D01*
X163419338Y-105821847D01*
X163353754Y-105920000D01*
X163036246Y-105920000D01*
X162970662Y-105821847D01*
X162783153Y-105634338D01*
X162562665Y-105487013D01*
X162376740Y-105410000D01*
X162562665Y-105332987D01*
X162783153Y-105185662D01*
X162970662Y-104998153D01*
X163117987Y-104777665D01*
X163219467Y-104532672D01*
X163271200Y-104272589D01*
X163271200Y-104007411D01*
X163248170Y-103891631D01*
X163509802Y-103630000D01*
X165415544Y-103630000D01*
X165497500Y-103638072D01*
G37*
%TD.AperFunction*%
D16*
X145812500Y-103638072D02*
X146287500Y-103638072D01*
X146369456Y-103630000D01*
X148614132Y-103630000D01*
X148565533Y-103747328D01*
X148513800Y-104007411D01*
X148513800Y-104272589D01*
X148565533Y-104532672D01*
X148667013Y-104777665D01*
X148814338Y-104998153D01*
X149001847Y-105185662D01*
X149222335Y-105332987D01*
X149408260Y-105410000D01*
X149222335Y-105487013D01*
X149001847Y-105634338D01*
X148814338Y-105821847D01*
X148669272Y-106038954D01*
X148669272Y-105968800D01*
X148657012Y-105844318D01*
X148620702Y-105724620D01*
X148561737Y-105614306D01*
X148482385Y-105517615D01*
X148385694Y-105438263D01*
X148275380Y-105379298D01*
X148155682Y-105342988D01*
X148031200Y-105330728D01*
X146608800Y-105330728D01*
X146484318Y-105342988D01*
X146364620Y-105379298D01*
X146254306Y-105438263D01*
X146157615Y-105517615D01*
X146078263Y-105614306D01*
X146019298Y-105724620D01*
X145982988Y-105844318D01*
X145970728Y-105968800D01*
X145970728Y-106038954D01*
X145825662Y-105821847D01*
X145638153Y-105634338D01*
X145417665Y-105487013D01*
X145172672Y-105385533D01*
X144912589Y-105333800D01*
X144647411Y-105333800D01*
X144387328Y-105385533D01*
X144142335Y-105487013D01*
X143921847Y-105634338D01*
X143734338Y-105821847D01*
X143668754Y-105920000D01*
X143351246Y-105920000D01*
X143285662Y-105821847D01*
X143098153Y-105634338D01*
X142877665Y-105487013D01*
X142691740Y-105410000D01*
X142877665Y-105332987D01*
X143098153Y-105185662D01*
X143285662Y-104998153D01*
X143432987Y-104777665D01*
X143534467Y-104532672D01*
X143586200Y-104272589D01*
X143586200Y-104007411D01*
X143563170Y-103891631D01*
X143824802Y-103630000D01*
X145730544Y-103630000D01*
X145812500Y-103638072D01*
%TA.AperFunction,Conductor*%
D17*
G36*
X145812500Y-103638072D02*
G01*
X146287500Y-103638072D01*
X146369456Y-103630000D01*
X148614132Y-103630000D01*
X148565533Y-103747328D01*
X148513800Y-104007411D01*
X148513800Y-104272589D01*
X148565533Y-104532672D01*
X148667013Y-104777665D01*
X148814338Y-104998153D01*
X149001847Y-105185662D01*
X149222335Y-105332987D01*
X149408260Y-105410000D01*
X149222335Y-105487013D01*
X149001847Y-105634338D01*
X148814338Y-105821847D01*
X148669272Y-106038954D01*
X148669272Y-105968800D01*
X148657012Y-105844318D01*
X148620702Y-105724620D01*
X148561737Y-105614306D01*
X148482385Y-105517615D01*
X148385694Y-105438263D01*
X148275380Y-105379298D01*
X148155682Y-105342988D01*
X148031200Y-105330728D01*
X146608800Y-105330728D01*
X146484318Y-105342988D01*
X146364620Y-105379298D01*
X146254306Y-105438263D01*
X146157615Y-105517615D01*
X146078263Y-105614306D01*
X146019298Y-105724620D01*
X145982988Y-105844318D01*
X145970728Y-105968800D01*
X145970728Y-106038954D01*
X145825662Y-105821847D01*
X145638153Y-105634338D01*
X145417665Y-105487013D01*
X145172672Y-105385533D01*
X144912589Y-105333800D01*
X144647411Y-105333800D01*
X144387328Y-105385533D01*
X144142335Y-105487013D01*
X143921847Y-105634338D01*
X143734338Y-105821847D01*
X143668754Y-105920000D01*
X143351246Y-105920000D01*
X143285662Y-105821847D01*
X143098153Y-105634338D01*
X142877665Y-105487013D01*
X142691740Y-105410000D01*
X142877665Y-105332987D01*
X143098153Y-105185662D01*
X143285662Y-104998153D01*
X143432987Y-104777665D01*
X143534467Y-104532672D01*
X143586200Y-104272589D01*
X143586200Y-104007411D01*
X143563170Y-103891631D01*
X143824802Y-103630000D01*
X145730544Y-103630000D01*
X145812500Y-103638072D01*
G37*
%TD.AperFunction*%
D16*
X168499338Y-99918153D02*
X168686847Y-100105662D01*
X168907335Y-100252987D01*
X169093260Y-100330000D01*
X168907335Y-100407013D01*
X168686847Y-100554338D01*
X168499338Y-100741847D01*
X168352013Y-100962335D01*
X168250533Y-101207328D01*
X168198800Y-101467411D01*
X168198800Y-101732589D01*
X168250533Y-101992672D01*
X168299132Y-102110000D01*
X166842901Y-102110000D01*
X166831248Y-101991684D01*
X166781423Y-101827433D01*
X166701226Y-101677394D01*
X166740537Y-101629494D01*
X166799502Y-101519180D01*
X166835812Y-101399482D01*
X166848072Y-101275000D01*
X166845000Y-101023250D01*
X166686250Y-100864500D01*
X165862000Y-100864500D01*
X165862000Y-100884500D01*
X165608000Y-100884500D01*
X165608000Y-100864500D01*
X164783750Y-100864500D01*
X164625000Y-101023250D01*
X164621928Y-101275000D01*
X164634188Y-101399482D01*
X164670498Y-101519180D01*
X164729463Y-101629494D01*
X164768774Y-101677394D01*
X164688577Y-101827433D01*
X164638752Y-101991684D01*
X164627099Y-102110000D01*
X163509802Y-102110000D01*
X163248170Y-101848369D01*
X163271200Y-101732589D01*
X163271200Y-101467411D01*
X163241600Y-101318600D01*
X163564078Y-101318600D01*
X163601400Y-101322276D01*
X163638722Y-101318600D01*
X163638733Y-101318600D01*
X163750386Y-101307603D01*
X163893647Y-101264146D01*
X164025676Y-101193574D01*
X164141401Y-101098601D01*
X164165203Y-101069598D01*
X164704026Y-100530776D01*
X164783750Y-100610500D01*
X165608000Y-100610500D01*
X165608000Y-100590500D01*
X165862000Y-100590500D01*
X165862000Y-100610500D01*
X166686250Y-100610500D01*
X166845000Y-100451750D01*
X166848072Y-100200000D01*
X166835812Y-100075518D01*
X166799502Y-99955820D01*
X166740537Y-99845506D01*
X166719605Y-99820000D01*
X168433754Y-99820000D01*
X168499338Y-99918153D01*
%TA.AperFunction,Conductor*%
D17*
G36*
X168499338Y-99918153D02*
G01*
X168686847Y-100105662D01*
X168907335Y-100252987D01*
X169093260Y-100330000D01*
X168907335Y-100407013D01*
X168686847Y-100554338D01*
X168499338Y-100741847D01*
X168352013Y-100962335D01*
X168250533Y-101207328D01*
X168198800Y-101467411D01*
X168198800Y-101732589D01*
X168250533Y-101992672D01*
X168299132Y-102110000D01*
X166842901Y-102110000D01*
X166831248Y-101991684D01*
X166781423Y-101827433D01*
X166701226Y-101677394D01*
X166740537Y-101629494D01*
X166799502Y-101519180D01*
X166835812Y-101399482D01*
X166848072Y-101275000D01*
X166845000Y-101023250D01*
X166686250Y-100864500D01*
X165862000Y-100864500D01*
X165862000Y-100884500D01*
X165608000Y-100884500D01*
X165608000Y-100864500D01*
X164783750Y-100864500D01*
X164625000Y-101023250D01*
X164621928Y-101275000D01*
X164634188Y-101399482D01*
X164670498Y-101519180D01*
X164729463Y-101629494D01*
X164768774Y-101677394D01*
X164688577Y-101827433D01*
X164638752Y-101991684D01*
X164627099Y-102110000D01*
X163509802Y-102110000D01*
X163248170Y-101848369D01*
X163271200Y-101732589D01*
X163271200Y-101467411D01*
X163241600Y-101318600D01*
X163564078Y-101318600D01*
X163601400Y-101322276D01*
X163638722Y-101318600D01*
X163638733Y-101318600D01*
X163750386Y-101307603D01*
X163893647Y-101264146D01*
X164025676Y-101193574D01*
X164141401Y-101098601D01*
X164165203Y-101069598D01*
X164704026Y-100530776D01*
X164783750Y-100610500D01*
X165608000Y-100610500D01*
X165608000Y-100590500D01*
X165862000Y-100590500D01*
X165862000Y-100610500D01*
X166686250Y-100610500D01*
X166845000Y-100451750D01*
X166848072Y-100200000D01*
X166835812Y-100075518D01*
X166799502Y-99955820D01*
X166740537Y-99845506D01*
X166719605Y-99820000D01*
X168433754Y-99820000D01*
X168499338Y-99918153D01*
G37*
%TD.AperFunction*%
D16*
X148565533Y-98667328D02*
X148513800Y-98927411D01*
X148513800Y-99192589D01*
X148565533Y-99452672D01*
X148667013Y-99697665D01*
X148814338Y-99918153D01*
X149001847Y-100105662D01*
X149222335Y-100252987D01*
X149408260Y-100330000D01*
X149222335Y-100407013D01*
X149001847Y-100554338D01*
X148814338Y-100741847D01*
X148667013Y-100962335D01*
X148565533Y-101207328D01*
X148513800Y-101467411D01*
X148513800Y-101732589D01*
X148565533Y-101992672D01*
X148614132Y-102110000D01*
X147157901Y-102110000D01*
X147146248Y-101991684D01*
X147096423Y-101827433D01*
X147016226Y-101677394D01*
X147055537Y-101629494D01*
X147114502Y-101519180D01*
X147150812Y-101399482D01*
X147163072Y-101275000D01*
X147160000Y-101023250D01*
X147001250Y-100864500D01*
X146177000Y-100864500D01*
X146177000Y-100884500D01*
X145923000Y-100884500D01*
X145923000Y-100864500D01*
X145098750Y-100864500D01*
X144940000Y-101023250D01*
X144936928Y-101275000D01*
X144949188Y-101399482D01*
X144985498Y-101519180D01*
X145044463Y-101629494D01*
X145083774Y-101677394D01*
X145003577Y-101827433D01*
X144953752Y-101991684D01*
X144942099Y-102110000D01*
X143824802Y-102110000D01*
X143563170Y-101848369D01*
X143586200Y-101732589D01*
X143586200Y-101467411D01*
X143534467Y-101207328D01*
X143432987Y-100962335D01*
X143285662Y-100741847D01*
X143098153Y-100554338D01*
X142877665Y-100407013D01*
X142689400Y-100329031D01*
X142825280Y-100279542D01*
X142928848Y-100224183D01*
X142935109Y-100200000D01*
X144936928Y-100200000D01*
X144940000Y-100451750D01*
X145098750Y-100610500D01*
X145923000Y-100610500D01*
X145923000Y-99723750D01*
X146177000Y-99723750D01*
X146177000Y-100610500D01*
X147001250Y-100610500D01*
X147160000Y-100451750D01*
X147163072Y-100200000D01*
X147150812Y-100075518D01*
X147114502Y-99955820D01*
X147055537Y-99845506D01*
X146976185Y-99748815D01*
X146879494Y-99669463D01*
X146769180Y-99610498D01*
X146649482Y-99574188D01*
X146525000Y-99561928D01*
X146335750Y-99565000D01*
X146177000Y-99723750D01*
X145923000Y-99723750D01*
X145764250Y-99565000D01*
X145575000Y-99561928D01*
X145450518Y-99574188D01*
X145330820Y-99610498D01*
X145220506Y-99669463D01*
X145123815Y-99748815D01*
X145044463Y-99845506D01*
X144985498Y-99955820D01*
X144949188Y-100075518D01*
X144936928Y-100200000D01*
X142935109Y-100200000D01*
X142989668Y-99989273D01*
X142240000Y-99239605D01*
X141490332Y-99989273D01*
X141551152Y-100224183D01*
X141782934Y-100332206D01*
X141602335Y-100407013D01*
X141381847Y-100554338D01*
X141194338Y-100741847D01*
X141128754Y-100840000D01*
X140811246Y-100840000D01*
X140745662Y-100741847D01*
X140558153Y-100554338D01*
X140460000Y-100488754D01*
X140460000Y-100171246D01*
X140558153Y-100105662D01*
X140745662Y-99918153D01*
X140892987Y-99697665D01*
X140970969Y-99509400D01*
X141020458Y-99645280D01*
X141075817Y-99748848D01*
X141310727Y-99809668D01*
X142060395Y-99060000D01*
X142046253Y-99045858D01*
X142225858Y-98866253D01*
X142240000Y-98880395D01*
X142254143Y-98866253D01*
X142433748Y-99045858D01*
X142419605Y-99060000D01*
X143169273Y-99809668D01*
X143404183Y-99748848D01*
X143516202Y-99508491D01*
X143579176Y-99250898D01*
X143590687Y-98985970D01*
X143550291Y-98723887D01*
X143486960Y-98550000D01*
X148614132Y-98550000D01*
X148565533Y-98667328D01*
%TA.AperFunction,Conductor*%
D17*
G36*
X148565533Y-98667328D02*
G01*
X148513800Y-98927411D01*
X148513800Y-99192589D01*
X148565533Y-99452672D01*
X148667013Y-99697665D01*
X148814338Y-99918153D01*
X149001847Y-100105662D01*
X149222335Y-100252987D01*
X149408260Y-100330000D01*
X149222335Y-100407013D01*
X149001847Y-100554338D01*
X148814338Y-100741847D01*
X148667013Y-100962335D01*
X148565533Y-101207328D01*
X148513800Y-101467411D01*
X148513800Y-101732589D01*
X148565533Y-101992672D01*
X148614132Y-102110000D01*
X147157901Y-102110000D01*
X147146248Y-101991684D01*
X147096423Y-101827433D01*
X147016226Y-101677394D01*
X147055537Y-101629494D01*
X147114502Y-101519180D01*
X147150812Y-101399482D01*
X147163072Y-101275000D01*
X147160000Y-101023250D01*
X147001250Y-100864500D01*
X146177000Y-100864500D01*
X146177000Y-100884500D01*
X145923000Y-100884500D01*
X145923000Y-100864500D01*
X145098750Y-100864500D01*
X144940000Y-101023250D01*
X144936928Y-101275000D01*
X144949188Y-101399482D01*
X144985498Y-101519180D01*
X145044463Y-101629494D01*
X145083774Y-101677394D01*
X145003577Y-101827433D01*
X144953752Y-101991684D01*
X144942099Y-102110000D01*
X143824802Y-102110000D01*
X143563170Y-101848369D01*
X143586200Y-101732589D01*
X143586200Y-101467411D01*
X143534467Y-101207328D01*
X143432987Y-100962335D01*
X143285662Y-100741847D01*
X143098153Y-100554338D01*
X142877665Y-100407013D01*
X142689400Y-100329031D01*
X142825280Y-100279542D01*
X142928848Y-100224183D01*
X142935109Y-100200000D01*
X144936928Y-100200000D01*
X144940000Y-100451750D01*
X145098750Y-100610500D01*
X145923000Y-100610500D01*
X145923000Y-99723750D01*
X146177000Y-99723750D01*
X146177000Y-100610500D01*
X147001250Y-100610500D01*
X147160000Y-100451750D01*
X147163072Y-100200000D01*
X147150812Y-100075518D01*
X147114502Y-99955820D01*
X147055537Y-99845506D01*
X146976185Y-99748815D01*
X146879494Y-99669463D01*
X146769180Y-99610498D01*
X146649482Y-99574188D01*
X146525000Y-99561928D01*
X146335750Y-99565000D01*
X146177000Y-99723750D01*
X145923000Y-99723750D01*
X145764250Y-99565000D01*
X145575000Y-99561928D01*
X145450518Y-99574188D01*
X145330820Y-99610498D01*
X145220506Y-99669463D01*
X145123815Y-99748815D01*
X145044463Y-99845506D01*
X144985498Y-99955820D01*
X144949188Y-100075518D01*
X144936928Y-100200000D01*
X142935109Y-100200000D01*
X142989668Y-99989273D01*
X142240000Y-99239605D01*
X141490332Y-99989273D01*
X141551152Y-100224183D01*
X141782934Y-100332206D01*
X141602335Y-100407013D01*
X141381847Y-100554338D01*
X141194338Y-100741847D01*
X141128754Y-100840000D01*
X140811246Y-100840000D01*
X140745662Y-100741847D01*
X140558153Y-100554338D01*
X140460000Y-100488754D01*
X140460000Y-100171246D01*
X140558153Y-100105662D01*
X140745662Y-99918153D01*
X140892987Y-99697665D01*
X140970969Y-99509400D01*
X141020458Y-99645280D01*
X141075817Y-99748848D01*
X141310727Y-99809668D01*
X142060395Y-99060000D01*
X142046253Y-99045858D01*
X142225858Y-98866253D01*
X142240000Y-98880395D01*
X142254143Y-98866253D01*
X142433748Y-99045858D01*
X142419605Y-99060000D01*
X143169273Y-99809668D01*
X143404183Y-99748848D01*
X143516202Y-99508491D01*
X143579176Y-99250898D01*
X143590687Y-98985970D01*
X143550291Y-98723887D01*
X143486960Y-98550000D01*
X148614132Y-98550000D01*
X148565533Y-98667328D01*
G37*
%TD.AperFunction*%
D16*
X144973748Y-93965858D02*
X144959605Y-93980000D01*
X144973748Y-93994143D01*
X144794143Y-94173748D01*
X144780000Y-94159605D01*
X144765858Y-94173748D01*
X144586253Y-93994143D01*
X144600395Y-93980000D01*
X144586253Y-93965858D01*
X144765858Y-93786253D01*
X144780000Y-93800395D01*
X144794143Y-93786253D01*
X144973748Y-93965858D01*
%TA.AperFunction,Conductor*%
D17*
G36*
X144973748Y-93965858D02*
G01*
X144959605Y-93980000D01*
X144973748Y-93994143D01*
X144794143Y-94173748D01*
X144780000Y-94159605D01*
X144765858Y-94173748D01*
X144586253Y-93994143D01*
X144600395Y-93980000D01*
X144586253Y-93965858D01*
X144765858Y-93786253D01*
X144780000Y-93800395D01*
X144794143Y-93786253D01*
X144973748Y-93965858D01*
G37*
%TD.AperFunction*%
%TD*%
M02*
