%TF.GenerationSoftware,KiCad,Pcbnew,(5.1.10)-1*%
%TF.CreationDate,2021-12-30T15:20:08-05:00*%
%TF.ProjectId,LPCMangler,4c50434d-616e-4676-9c65-722e6b696361,rev?*%
%TF.SameCoordinates,Original*%
%TF.FileFunction,Legend,Bot*%
%TF.FilePolarity,Positive*%
%FSLAX46Y46*%
G04 Gerber Fmt 4.6, Leading zero omitted, Abs format (unit mm)*
G04 Created by KiCad (PCBNEW (5.1.10)-1) date 2021-12-30 15:20:08*
%MOMM*%
%LPD*%
G01*
G04 APERTURE LIST*
%ADD10C,0.300000*%
%ADD11C,0.120000*%
%ADD12C,0.150000*%
G04 APERTURE END LIST*
D10*
X162757571Y-89094571D02*
X162757571Y-90166000D01*
X162829000Y-90380285D01*
X162971857Y-90523142D01*
X163186142Y-90594571D01*
X163329000Y-90594571D01*
X161329000Y-90594571D02*
X162043285Y-90594571D01*
X162043285Y-89094571D01*
X159971857Y-90451714D02*
X160043285Y-90523142D01*
X160257571Y-90594571D01*
X160400428Y-90594571D01*
X160614714Y-90523142D01*
X160757571Y-90380285D01*
X160829000Y-90237428D01*
X160900428Y-89951714D01*
X160900428Y-89737428D01*
X160829000Y-89451714D01*
X160757571Y-89308857D01*
X160614714Y-89166000D01*
X160400428Y-89094571D01*
X160257571Y-89094571D01*
X160043285Y-89166000D01*
X159971857Y-89237428D01*
X158900428Y-89094571D02*
X158900428Y-90166000D01*
X158971857Y-90380285D01*
X159114714Y-90523142D01*
X159329000Y-90594571D01*
X159471857Y-90594571D01*
X157471857Y-90594571D02*
X158186142Y-90594571D01*
X158186142Y-89094571D01*
X156114714Y-90451714D02*
X156186142Y-90523142D01*
X156400428Y-90594571D01*
X156543285Y-90594571D01*
X156757571Y-90523142D01*
X156900428Y-90380285D01*
X156971857Y-90237428D01*
X157043285Y-89951714D01*
X157043285Y-89737428D01*
X156971857Y-89451714D01*
X156900428Y-89308857D01*
X156757571Y-89166000D01*
X156543285Y-89094571D01*
X156400428Y-89094571D01*
X156186142Y-89166000D01*
X156114714Y-89237428D01*
X155043285Y-89094571D02*
X155043285Y-90166000D01*
X155114714Y-90380285D01*
X155257571Y-90523142D01*
X155471857Y-90594571D01*
X155614714Y-90594571D01*
X153614714Y-90594571D02*
X154329000Y-90594571D01*
X154329000Y-89094571D01*
X152257571Y-90451714D02*
X152329000Y-90523142D01*
X152543285Y-90594571D01*
X152686142Y-90594571D01*
X152900428Y-90523142D01*
X153043285Y-90380285D01*
X153114714Y-90237428D01*
X153186142Y-89951714D01*
X153186142Y-89737428D01*
X153114714Y-89451714D01*
X153043285Y-89308857D01*
X152900428Y-89166000D01*
X152686142Y-89094571D01*
X152543285Y-89094571D01*
X152329000Y-89166000D01*
X152257571Y-89237428D01*
X151186142Y-89094571D02*
X151186142Y-90166000D01*
X151257571Y-90380285D01*
X151400428Y-90523142D01*
X151614714Y-90594571D01*
X151757571Y-90594571D01*
X149757571Y-90594571D02*
X150471857Y-90594571D01*
X150471857Y-89094571D01*
X148400428Y-90451714D02*
X148471857Y-90523142D01*
X148686142Y-90594571D01*
X148829000Y-90594571D01*
X149043285Y-90523142D01*
X149186142Y-90380285D01*
X149257571Y-90237428D01*
X149329000Y-89951714D01*
X149329000Y-89737428D01*
X149257571Y-89451714D01*
X149186142Y-89308857D01*
X149043285Y-89166000D01*
X148829000Y-89094571D01*
X148686142Y-89094571D01*
X148471857Y-89166000D01*
X148400428Y-89237428D01*
D11*
%TO.C,U3*%
X150465000Y-75850000D02*
X150465000Y-74900000D01*
X150465000Y-74900000D02*
X151415000Y-74900000D01*
X150465000Y-84170000D02*
X150465000Y-85120000D01*
X150465000Y-85120000D02*
X151415000Y-85120000D01*
X160685000Y-75850000D02*
X160685000Y-74900000D01*
X160685000Y-74900000D02*
X159735000Y-74900000D01*
X160685000Y-84170000D02*
X160685000Y-85120000D01*
X160685000Y-85120000D02*
X159735000Y-85120000D01*
X159735000Y-85120000D02*
X159735000Y-86410000D01*
%TO.C,U2*%
X145050000Y-112000000D02*
X137925000Y-112000000D01*
X137925000Y-112000000D02*
X136925000Y-111000000D01*
X136925000Y-111000000D02*
X136925000Y-91200000D01*
X136925000Y-91200000D02*
X155175000Y-91200000D01*
X155175000Y-91200000D02*
X155175000Y-112000000D01*
X155175000Y-112000000D02*
X147050000Y-112000000D01*
%TO.C,U1*%
X164735000Y-112000000D02*
X157610000Y-112000000D01*
X157610000Y-112000000D02*
X156610000Y-111000000D01*
X156610000Y-111000000D02*
X156610000Y-91200000D01*
X156610000Y-91200000D02*
X174860000Y-91200000D01*
X174860000Y-91200000D02*
X174860000Y-112000000D01*
X174860000Y-112000000D02*
X166735000Y-112000000D01*
%TO.C,J1*%
X169485000Y-87055000D02*
X172085000Y-87055000D01*
X169485000Y-87055000D02*
X169485000Y-66615000D01*
X169485000Y-66615000D02*
X174685000Y-66615000D01*
X174685000Y-84455000D02*
X174685000Y-66615000D01*
X172085000Y-84455000D02*
X174685000Y-84455000D01*
X172085000Y-87055000D02*
X172085000Y-84455000D01*
X174685000Y-87055000D02*
X174685000Y-85725000D01*
X173355000Y-87055000D02*
X174685000Y-87055000D01*
%TO.C,U3*%
D12*
X162051904Y-85812380D02*
X162051904Y-86621904D01*
X162004285Y-86717142D01*
X161956666Y-86764761D01*
X161861428Y-86812380D01*
X161670952Y-86812380D01*
X161575714Y-86764761D01*
X161528095Y-86717142D01*
X161480476Y-86621904D01*
X161480476Y-85812380D01*
X161099523Y-85812380D02*
X160480476Y-85812380D01*
X160813809Y-86193333D01*
X160670952Y-86193333D01*
X160575714Y-86240952D01*
X160528095Y-86288571D01*
X160480476Y-86383809D01*
X160480476Y-86621904D01*
X160528095Y-86717142D01*
X160575714Y-86764761D01*
X160670952Y-86812380D01*
X160956666Y-86812380D01*
X161051904Y-86764761D01*
X161099523Y-86717142D01*
X159245220Y-82905770D02*
X158066709Y-83141472D01*
X158773816Y-82434366D02*
X158538114Y-83612877D01*
X157460618Y-82400694D02*
X157460618Y-82468037D01*
X157527961Y-82602724D01*
X157595305Y-82670068D01*
X157729992Y-82737411D01*
X157864679Y-82737411D01*
X157965694Y-82703740D01*
X158134053Y-82602724D01*
X158235068Y-82501709D01*
X158336083Y-82333350D01*
X158369755Y-82232335D01*
X158369755Y-82097648D01*
X158302411Y-81962961D01*
X158235068Y-81895618D01*
X158100381Y-81828274D01*
X158033037Y-81828274D01*
X157056557Y-82131320D02*
X156921870Y-81996633D01*
X156888198Y-81895618D01*
X156888198Y-81828274D01*
X156921870Y-81659915D01*
X157022885Y-81491557D01*
X157292259Y-81222183D01*
X157393274Y-81188511D01*
X157460618Y-81188511D01*
X157561633Y-81222183D01*
X157696320Y-81356870D01*
X157729992Y-81457885D01*
X157729992Y-81525228D01*
X157696320Y-81626244D01*
X157527961Y-81794602D01*
X157426946Y-81828274D01*
X157359602Y-81828274D01*
X157258587Y-81794602D01*
X157123900Y-81659915D01*
X157090228Y-81558900D01*
X157090228Y-81491557D01*
X157123900Y-81390541D01*
X156787183Y-80447732D02*
X157123900Y-80784450D01*
X156820854Y-81154839D01*
X156820854Y-81087496D01*
X156787183Y-80986480D01*
X156618824Y-80818122D01*
X156517809Y-80784450D01*
X156450465Y-80784450D01*
X156349450Y-80818122D01*
X156181091Y-80986480D01*
X156147419Y-81087496D01*
X156147419Y-81154839D01*
X156181091Y-81255854D01*
X156349450Y-81424213D01*
X156450465Y-81457885D01*
X156517809Y-81457885D01*
X156517809Y-80178358D02*
X156046404Y-79706954D01*
X155642343Y-80717106D01*
X155743358Y-79538595D02*
X155743358Y-79471251D01*
X155709687Y-79370236D01*
X155541328Y-79201877D01*
X155440312Y-79168206D01*
X155372969Y-79168206D01*
X155271954Y-79201877D01*
X155204610Y-79269221D01*
X155137267Y-79403908D01*
X155137267Y-80212030D01*
X154699534Y-79774297D01*
X155204610Y-78865160D02*
X154261801Y-79336564D01*
X154733206Y-78393755D01*
X153251649Y-78461099D02*
X153352664Y-78494771D01*
X153487351Y-78494771D01*
X153689381Y-78494771D01*
X153790397Y-78528442D01*
X153857740Y-78595786D01*
X153655710Y-78730473D02*
X153756725Y-78764145D01*
X153891412Y-78764145D01*
X154059771Y-78663129D01*
X154295473Y-78427427D01*
X154396488Y-78259068D01*
X154396488Y-78124381D01*
X154362816Y-78023366D01*
X154228129Y-77888679D01*
X154127114Y-77855007D01*
X153992427Y-77855007D01*
X153824068Y-77956023D01*
X153588366Y-78191725D01*
X153487351Y-78360084D01*
X153487351Y-78494771D01*
X153521023Y-78595786D01*
X153655710Y-78730473D01*
X153453679Y-77114229D02*
X153588366Y-77248916D01*
X153622038Y-77349931D01*
X153622038Y-77417275D01*
X153588366Y-77585633D01*
X153487351Y-77753992D01*
X153217977Y-78023366D01*
X153116962Y-78057038D01*
X153049618Y-78057038D01*
X152948603Y-78023366D01*
X152813916Y-77888679D01*
X152780244Y-77787664D01*
X152780244Y-77720320D01*
X152813916Y-77619305D01*
X152982275Y-77450946D01*
X153083290Y-77417275D01*
X153150633Y-77417275D01*
X153251649Y-77450946D01*
X153386336Y-77585633D01*
X153420007Y-77686649D01*
X153420007Y-77753992D01*
X153386336Y-77855007D01*
X152544542Y-76676496D02*
X152073137Y-77147901D01*
X152982275Y-76575481D02*
X152645557Y-77248916D01*
X152207824Y-76811183D01*
%TO.C,U2*%
X146811904Y-112352380D02*
X146811904Y-113161904D01*
X146764285Y-113257142D01*
X146716666Y-113304761D01*
X146621428Y-113352380D01*
X146430952Y-113352380D01*
X146335714Y-113304761D01*
X146288095Y-113257142D01*
X146240476Y-113161904D01*
X146240476Y-112352380D01*
X145811904Y-112447619D02*
X145764285Y-112400000D01*
X145669047Y-112352380D01*
X145430952Y-112352380D01*
X145335714Y-112400000D01*
X145288095Y-112447619D01*
X145240476Y-112542857D01*
X145240476Y-112638095D01*
X145288095Y-112780952D01*
X145859523Y-113352380D01*
X145240476Y-113352380D01*
%TO.C,U1*%
X166496904Y-112352380D02*
X166496904Y-113161904D01*
X166449285Y-113257142D01*
X166401666Y-113304761D01*
X166306428Y-113352380D01*
X166115952Y-113352380D01*
X166020714Y-113304761D01*
X165973095Y-113257142D01*
X165925476Y-113161904D01*
X165925476Y-112352380D01*
X164925476Y-113352380D02*
X165496904Y-113352380D01*
X165211190Y-113352380D02*
X165211190Y-112352380D01*
X165306428Y-112495238D01*
X165401666Y-112590476D01*
X165496904Y-112638095D01*
%TD*%
M02*
