%TF.GenerationSoftware,KiCad,Pcbnew,(5.1.10)-1*%
%TF.CreationDate,2021-12-30T15:20:08-05:00*%
%TF.ProjectId,LPCMangler,4c50434d-616e-4676-9c65-722e6b696361,rev?*%
%TF.SameCoordinates,Original*%
%TF.FileFunction,Paste,Bot*%
%TF.FilePolarity,Positive*%
%FSLAX46Y46*%
G04 Gerber Fmt 4.6, Leading zero omitted, Abs format (unit mm)*
G04 Created by KiCad (PCBNEW (5.1.10)-1) date 2021-12-30 15:20:08*
%MOMM*%
%LPD*%
G01*
G04 APERTURE LIST*
G04 APERTURE END LIST*
%TO.C,U3*%
G36*
G01*
X161900000Y-83910000D02*
X160575000Y-83910000D01*
G75*
G02*
X160500000Y-83835000I0J75000D01*
G01*
X160500000Y-83685000D01*
G75*
G02*
X160575000Y-83610000I75000J0D01*
G01*
X161900000Y-83610000D01*
G75*
G02*
X161975000Y-83685000I0J-75000D01*
G01*
X161975000Y-83835000D01*
G75*
G02*
X161900000Y-83910000I-75000J0D01*
G01*
G37*
G36*
G01*
X161900000Y-83410000D02*
X160575000Y-83410000D01*
G75*
G02*
X160500000Y-83335000I0J75000D01*
G01*
X160500000Y-83185000D01*
G75*
G02*
X160575000Y-83110000I75000J0D01*
G01*
X161900000Y-83110000D01*
G75*
G02*
X161975000Y-83185000I0J-75000D01*
G01*
X161975000Y-83335000D01*
G75*
G02*
X161900000Y-83410000I-75000J0D01*
G01*
G37*
G36*
G01*
X161900000Y-82910000D02*
X160575000Y-82910000D01*
G75*
G02*
X160500000Y-82835000I0J75000D01*
G01*
X160500000Y-82685000D01*
G75*
G02*
X160575000Y-82610000I75000J0D01*
G01*
X161900000Y-82610000D01*
G75*
G02*
X161975000Y-82685000I0J-75000D01*
G01*
X161975000Y-82835000D01*
G75*
G02*
X161900000Y-82910000I-75000J0D01*
G01*
G37*
G36*
G01*
X161900000Y-82410000D02*
X160575000Y-82410000D01*
G75*
G02*
X160500000Y-82335000I0J75000D01*
G01*
X160500000Y-82185000D01*
G75*
G02*
X160575000Y-82110000I75000J0D01*
G01*
X161900000Y-82110000D01*
G75*
G02*
X161975000Y-82185000I0J-75000D01*
G01*
X161975000Y-82335000D01*
G75*
G02*
X161900000Y-82410000I-75000J0D01*
G01*
G37*
G36*
G01*
X161900000Y-81910000D02*
X160575000Y-81910000D01*
G75*
G02*
X160500000Y-81835000I0J75000D01*
G01*
X160500000Y-81685000D01*
G75*
G02*
X160575000Y-81610000I75000J0D01*
G01*
X161900000Y-81610000D01*
G75*
G02*
X161975000Y-81685000I0J-75000D01*
G01*
X161975000Y-81835000D01*
G75*
G02*
X161900000Y-81910000I-75000J0D01*
G01*
G37*
G36*
G01*
X161900000Y-81410000D02*
X160575000Y-81410000D01*
G75*
G02*
X160500000Y-81335000I0J75000D01*
G01*
X160500000Y-81185000D01*
G75*
G02*
X160575000Y-81110000I75000J0D01*
G01*
X161900000Y-81110000D01*
G75*
G02*
X161975000Y-81185000I0J-75000D01*
G01*
X161975000Y-81335000D01*
G75*
G02*
X161900000Y-81410000I-75000J0D01*
G01*
G37*
G36*
G01*
X161900000Y-80910000D02*
X160575000Y-80910000D01*
G75*
G02*
X160500000Y-80835000I0J75000D01*
G01*
X160500000Y-80685000D01*
G75*
G02*
X160575000Y-80610000I75000J0D01*
G01*
X161900000Y-80610000D01*
G75*
G02*
X161975000Y-80685000I0J-75000D01*
G01*
X161975000Y-80835000D01*
G75*
G02*
X161900000Y-80910000I-75000J0D01*
G01*
G37*
G36*
G01*
X161900000Y-80410000D02*
X160575000Y-80410000D01*
G75*
G02*
X160500000Y-80335000I0J75000D01*
G01*
X160500000Y-80185000D01*
G75*
G02*
X160575000Y-80110000I75000J0D01*
G01*
X161900000Y-80110000D01*
G75*
G02*
X161975000Y-80185000I0J-75000D01*
G01*
X161975000Y-80335000D01*
G75*
G02*
X161900000Y-80410000I-75000J0D01*
G01*
G37*
G36*
G01*
X161900000Y-79910000D02*
X160575000Y-79910000D01*
G75*
G02*
X160500000Y-79835000I0J75000D01*
G01*
X160500000Y-79685000D01*
G75*
G02*
X160575000Y-79610000I75000J0D01*
G01*
X161900000Y-79610000D01*
G75*
G02*
X161975000Y-79685000I0J-75000D01*
G01*
X161975000Y-79835000D01*
G75*
G02*
X161900000Y-79910000I-75000J0D01*
G01*
G37*
G36*
G01*
X161900000Y-79410000D02*
X160575000Y-79410000D01*
G75*
G02*
X160500000Y-79335000I0J75000D01*
G01*
X160500000Y-79185000D01*
G75*
G02*
X160575000Y-79110000I75000J0D01*
G01*
X161900000Y-79110000D01*
G75*
G02*
X161975000Y-79185000I0J-75000D01*
G01*
X161975000Y-79335000D01*
G75*
G02*
X161900000Y-79410000I-75000J0D01*
G01*
G37*
G36*
G01*
X161900000Y-78910000D02*
X160575000Y-78910000D01*
G75*
G02*
X160500000Y-78835000I0J75000D01*
G01*
X160500000Y-78685000D01*
G75*
G02*
X160575000Y-78610000I75000J0D01*
G01*
X161900000Y-78610000D01*
G75*
G02*
X161975000Y-78685000I0J-75000D01*
G01*
X161975000Y-78835000D01*
G75*
G02*
X161900000Y-78910000I-75000J0D01*
G01*
G37*
G36*
G01*
X161900000Y-78410000D02*
X160575000Y-78410000D01*
G75*
G02*
X160500000Y-78335000I0J75000D01*
G01*
X160500000Y-78185000D01*
G75*
G02*
X160575000Y-78110000I75000J0D01*
G01*
X161900000Y-78110000D01*
G75*
G02*
X161975000Y-78185000I0J-75000D01*
G01*
X161975000Y-78335000D01*
G75*
G02*
X161900000Y-78410000I-75000J0D01*
G01*
G37*
G36*
G01*
X161900000Y-77910000D02*
X160575000Y-77910000D01*
G75*
G02*
X160500000Y-77835000I0J75000D01*
G01*
X160500000Y-77685000D01*
G75*
G02*
X160575000Y-77610000I75000J0D01*
G01*
X161900000Y-77610000D01*
G75*
G02*
X161975000Y-77685000I0J-75000D01*
G01*
X161975000Y-77835000D01*
G75*
G02*
X161900000Y-77910000I-75000J0D01*
G01*
G37*
G36*
G01*
X161900000Y-77410000D02*
X160575000Y-77410000D01*
G75*
G02*
X160500000Y-77335000I0J75000D01*
G01*
X160500000Y-77185000D01*
G75*
G02*
X160575000Y-77110000I75000J0D01*
G01*
X161900000Y-77110000D01*
G75*
G02*
X161975000Y-77185000I0J-75000D01*
G01*
X161975000Y-77335000D01*
G75*
G02*
X161900000Y-77410000I-75000J0D01*
G01*
G37*
G36*
G01*
X161900000Y-76910000D02*
X160575000Y-76910000D01*
G75*
G02*
X160500000Y-76835000I0J75000D01*
G01*
X160500000Y-76685000D01*
G75*
G02*
X160575000Y-76610000I75000J0D01*
G01*
X161900000Y-76610000D01*
G75*
G02*
X161975000Y-76685000I0J-75000D01*
G01*
X161975000Y-76835000D01*
G75*
G02*
X161900000Y-76910000I-75000J0D01*
G01*
G37*
G36*
G01*
X161900000Y-76410000D02*
X160575000Y-76410000D01*
G75*
G02*
X160500000Y-76335000I0J75000D01*
G01*
X160500000Y-76185000D01*
G75*
G02*
X160575000Y-76110000I75000J0D01*
G01*
X161900000Y-76110000D01*
G75*
G02*
X161975000Y-76185000I0J-75000D01*
G01*
X161975000Y-76335000D01*
G75*
G02*
X161900000Y-76410000I-75000J0D01*
G01*
G37*
G36*
G01*
X159400000Y-75085000D02*
X159250000Y-75085000D01*
G75*
G02*
X159175000Y-75010000I0J75000D01*
G01*
X159175000Y-73685000D01*
G75*
G02*
X159250000Y-73610000I75000J0D01*
G01*
X159400000Y-73610000D01*
G75*
G02*
X159475000Y-73685000I0J-75000D01*
G01*
X159475000Y-75010000D01*
G75*
G02*
X159400000Y-75085000I-75000J0D01*
G01*
G37*
G36*
G01*
X158900000Y-75085000D02*
X158750000Y-75085000D01*
G75*
G02*
X158675000Y-75010000I0J75000D01*
G01*
X158675000Y-73685000D01*
G75*
G02*
X158750000Y-73610000I75000J0D01*
G01*
X158900000Y-73610000D01*
G75*
G02*
X158975000Y-73685000I0J-75000D01*
G01*
X158975000Y-75010000D01*
G75*
G02*
X158900000Y-75085000I-75000J0D01*
G01*
G37*
G36*
G01*
X158400000Y-75085000D02*
X158250000Y-75085000D01*
G75*
G02*
X158175000Y-75010000I0J75000D01*
G01*
X158175000Y-73685000D01*
G75*
G02*
X158250000Y-73610000I75000J0D01*
G01*
X158400000Y-73610000D01*
G75*
G02*
X158475000Y-73685000I0J-75000D01*
G01*
X158475000Y-75010000D01*
G75*
G02*
X158400000Y-75085000I-75000J0D01*
G01*
G37*
G36*
G01*
X157900000Y-75085000D02*
X157750000Y-75085000D01*
G75*
G02*
X157675000Y-75010000I0J75000D01*
G01*
X157675000Y-73685000D01*
G75*
G02*
X157750000Y-73610000I75000J0D01*
G01*
X157900000Y-73610000D01*
G75*
G02*
X157975000Y-73685000I0J-75000D01*
G01*
X157975000Y-75010000D01*
G75*
G02*
X157900000Y-75085000I-75000J0D01*
G01*
G37*
G36*
G01*
X157400000Y-75085000D02*
X157250000Y-75085000D01*
G75*
G02*
X157175000Y-75010000I0J75000D01*
G01*
X157175000Y-73685000D01*
G75*
G02*
X157250000Y-73610000I75000J0D01*
G01*
X157400000Y-73610000D01*
G75*
G02*
X157475000Y-73685000I0J-75000D01*
G01*
X157475000Y-75010000D01*
G75*
G02*
X157400000Y-75085000I-75000J0D01*
G01*
G37*
G36*
G01*
X156900000Y-75085000D02*
X156750000Y-75085000D01*
G75*
G02*
X156675000Y-75010000I0J75000D01*
G01*
X156675000Y-73685000D01*
G75*
G02*
X156750000Y-73610000I75000J0D01*
G01*
X156900000Y-73610000D01*
G75*
G02*
X156975000Y-73685000I0J-75000D01*
G01*
X156975000Y-75010000D01*
G75*
G02*
X156900000Y-75085000I-75000J0D01*
G01*
G37*
G36*
G01*
X156400000Y-75085000D02*
X156250000Y-75085000D01*
G75*
G02*
X156175000Y-75010000I0J75000D01*
G01*
X156175000Y-73685000D01*
G75*
G02*
X156250000Y-73610000I75000J0D01*
G01*
X156400000Y-73610000D01*
G75*
G02*
X156475000Y-73685000I0J-75000D01*
G01*
X156475000Y-75010000D01*
G75*
G02*
X156400000Y-75085000I-75000J0D01*
G01*
G37*
G36*
G01*
X155900000Y-75085000D02*
X155750000Y-75085000D01*
G75*
G02*
X155675000Y-75010000I0J75000D01*
G01*
X155675000Y-73685000D01*
G75*
G02*
X155750000Y-73610000I75000J0D01*
G01*
X155900000Y-73610000D01*
G75*
G02*
X155975000Y-73685000I0J-75000D01*
G01*
X155975000Y-75010000D01*
G75*
G02*
X155900000Y-75085000I-75000J0D01*
G01*
G37*
G36*
G01*
X155400000Y-75085000D02*
X155250000Y-75085000D01*
G75*
G02*
X155175000Y-75010000I0J75000D01*
G01*
X155175000Y-73685000D01*
G75*
G02*
X155250000Y-73610000I75000J0D01*
G01*
X155400000Y-73610000D01*
G75*
G02*
X155475000Y-73685000I0J-75000D01*
G01*
X155475000Y-75010000D01*
G75*
G02*
X155400000Y-75085000I-75000J0D01*
G01*
G37*
G36*
G01*
X154900000Y-75085000D02*
X154750000Y-75085000D01*
G75*
G02*
X154675000Y-75010000I0J75000D01*
G01*
X154675000Y-73685000D01*
G75*
G02*
X154750000Y-73610000I75000J0D01*
G01*
X154900000Y-73610000D01*
G75*
G02*
X154975000Y-73685000I0J-75000D01*
G01*
X154975000Y-75010000D01*
G75*
G02*
X154900000Y-75085000I-75000J0D01*
G01*
G37*
G36*
G01*
X154400000Y-75085000D02*
X154250000Y-75085000D01*
G75*
G02*
X154175000Y-75010000I0J75000D01*
G01*
X154175000Y-73685000D01*
G75*
G02*
X154250000Y-73610000I75000J0D01*
G01*
X154400000Y-73610000D01*
G75*
G02*
X154475000Y-73685000I0J-75000D01*
G01*
X154475000Y-75010000D01*
G75*
G02*
X154400000Y-75085000I-75000J0D01*
G01*
G37*
G36*
G01*
X153900000Y-75085000D02*
X153750000Y-75085000D01*
G75*
G02*
X153675000Y-75010000I0J75000D01*
G01*
X153675000Y-73685000D01*
G75*
G02*
X153750000Y-73610000I75000J0D01*
G01*
X153900000Y-73610000D01*
G75*
G02*
X153975000Y-73685000I0J-75000D01*
G01*
X153975000Y-75010000D01*
G75*
G02*
X153900000Y-75085000I-75000J0D01*
G01*
G37*
G36*
G01*
X153400000Y-75085000D02*
X153250000Y-75085000D01*
G75*
G02*
X153175000Y-75010000I0J75000D01*
G01*
X153175000Y-73685000D01*
G75*
G02*
X153250000Y-73610000I75000J0D01*
G01*
X153400000Y-73610000D01*
G75*
G02*
X153475000Y-73685000I0J-75000D01*
G01*
X153475000Y-75010000D01*
G75*
G02*
X153400000Y-75085000I-75000J0D01*
G01*
G37*
G36*
G01*
X152900000Y-75085000D02*
X152750000Y-75085000D01*
G75*
G02*
X152675000Y-75010000I0J75000D01*
G01*
X152675000Y-73685000D01*
G75*
G02*
X152750000Y-73610000I75000J0D01*
G01*
X152900000Y-73610000D01*
G75*
G02*
X152975000Y-73685000I0J-75000D01*
G01*
X152975000Y-75010000D01*
G75*
G02*
X152900000Y-75085000I-75000J0D01*
G01*
G37*
G36*
G01*
X152400000Y-75085000D02*
X152250000Y-75085000D01*
G75*
G02*
X152175000Y-75010000I0J75000D01*
G01*
X152175000Y-73685000D01*
G75*
G02*
X152250000Y-73610000I75000J0D01*
G01*
X152400000Y-73610000D01*
G75*
G02*
X152475000Y-73685000I0J-75000D01*
G01*
X152475000Y-75010000D01*
G75*
G02*
X152400000Y-75085000I-75000J0D01*
G01*
G37*
G36*
G01*
X151900000Y-75085000D02*
X151750000Y-75085000D01*
G75*
G02*
X151675000Y-75010000I0J75000D01*
G01*
X151675000Y-73685000D01*
G75*
G02*
X151750000Y-73610000I75000J0D01*
G01*
X151900000Y-73610000D01*
G75*
G02*
X151975000Y-73685000I0J-75000D01*
G01*
X151975000Y-75010000D01*
G75*
G02*
X151900000Y-75085000I-75000J0D01*
G01*
G37*
G36*
G01*
X150575000Y-76410000D02*
X149250000Y-76410000D01*
G75*
G02*
X149175000Y-76335000I0J75000D01*
G01*
X149175000Y-76185000D01*
G75*
G02*
X149250000Y-76110000I75000J0D01*
G01*
X150575000Y-76110000D01*
G75*
G02*
X150650000Y-76185000I0J-75000D01*
G01*
X150650000Y-76335000D01*
G75*
G02*
X150575000Y-76410000I-75000J0D01*
G01*
G37*
G36*
G01*
X150575000Y-76910000D02*
X149250000Y-76910000D01*
G75*
G02*
X149175000Y-76835000I0J75000D01*
G01*
X149175000Y-76685000D01*
G75*
G02*
X149250000Y-76610000I75000J0D01*
G01*
X150575000Y-76610000D01*
G75*
G02*
X150650000Y-76685000I0J-75000D01*
G01*
X150650000Y-76835000D01*
G75*
G02*
X150575000Y-76910000I-75000J0D01*
G01*
G37*
G36*
G01*
X150575000Y-77410000D02*
X149250000Y-77410000D01*
G75*
G02*
X149175000Y-77335000I0J75000D01*
G01*
X149175000Y-77185000D01*
G75*
G02*
X149250000Y-77110000I75000J0D01*
G01*
X150575000Y-77110000D01*
G75*
G02*
X150650000Y-77185000I0J-75000D01*
G01*
X150650000Y-77335000D01*
G75*
G02*
X150575000Y-77410000I-75000J0D01*
G01*
G37*
G36*
G01*
X150575000Y-77910000D02*
X149250000Y-77910000D01*
G75*
G02*
X149175000Y-77835000I0J75000D01*
G01*
X149175000Y-77685000D01*
G75*
G02*
X149250000Y-77610000I75000J0D01*
G01*
X150575000Y-77610000D01*
G75*
G02*
X150650000Y-77685000I0J-75000D01*
G01*
X150650000Y-77835000D01*
G75*
G02*
X150575000Y-77910000I-75000J0D01*
G01*
G37*
G36*
G01*
X150575000Y-78410000D02*
X149250000Y-78410000D01*
G75*
G02*
X149175000Y-78335000I0J75000D01*
G01*
X149175000Y-78185000D01*
G75*
G02*
X149250000Y-78110000I75000J0D01*
G01*
X150575000Y-78110000D01*
G75*
G02*
X150650000Y-78185000I0J-75000D01*
G01*
X150650000Y-78335000D01*
G75*
G02*
X150575000Y-78410000I-75000J0D01*
G01*
G37*
G36*
G01*
X150575000Y-78910000D02*
X149250000Y-78910000D01*
G75*
G02*
X149175000Y-78835000I0J75000D01*
G01*
X149175000Y-78685000D01*
G75*
G02*
X149250000Y-78610000I75000J0D01*
G01*
X150575000Y-78610000D01*
G75*
G02*
X150650000Y-78685000I0J-75000D01*
G01*
X150650000Y-78835000D01*
G75*
G02*
X150575000Y-78910000I-75000J0D01*
G01*
G37*
G36*
G01*
X150575000Y-79410000D02*
X149250000Y-79410000D01*
G75*
G02*
X149175000Y-79335000I0J75000D01*
G01*
X149175000Y-79185000D01*
G75*
G02*
X149250000Y-79110000I75000J0D01*
G01*
X150575000Y-79110000D01*
G75*
G02*
X150650000Y-79185000I0J-75000D01*
G01*
X150650000Y-79335000D01*
G75*
G02*
X150575000Y-79410000I-75000J0D01*
G01*
G37*
G36*
G01*
X150575000Y-79910000D02*
X149250000Y-79910000D01*
G75*
G02*
X149175000Y-79835000I0J75000D01*
G01*
X149175000Y-79685000D01*
G75*
G02*
X149250000Y-79610000I75000J0D01*
G01*
X150575000Y-79610000D01*
G75*
G02*
X150650000Y-79685000I0J-75000D01*
G01*
X150650000Y-79835000D01*
G75*
G02*
X150575000Y-79910000I-75000J0D01*
G01*
G37*
G36*
G01*
X150575000Y-80410000D02*
X149250000Y-80410000D01*
G75*
G02*
X149175000Y-80335000I0J75000D01*
G01*
X149175000Y-80185000D01*
G75*
G02*
X149250000Y-80110000I75000J0D01*
G01*
X150575000Y-80110000D01*
G75*
G02*
X150650000Y-80185000I0J-75000D01*
G01*
X150650000Y-80335000D01*
G75*
G02*
X150575000Y-80410000I-75000J0D01*
G01*
G37*
G36*
G01*
X150575000Y-80910000D02*
X149250000Y-80910000D01*
G75*
G02*
X149175000Y-80835000I0J75000D01*
G01*
X149175000Y-80685000D01*
G75*
G02*
X149250000Y-80610000I75000J0D01*
G01*
X150575000Y-80610000D01*
G75*
G02*
X150650000Y-80685000I0J-75000D01*
G01*
X150650000Y-80835000D01*
G75*
G02*
X150575000Y-80910000I-75000J0D01*
G01*
G37*
G36*
G01*
X150575000Y-81410000D02*
X149250000Y-81410000D01*
G75*
G02*
X149175000Y-81335000I0J75000D01*
G01*
X149175000Y-81185000D01*
G75*
G02*
X149250000Y-81110000I75000J0D01*
G01*
X150575000Y-81110000D01*
G75*
G02*
X150650000Y-81185000I0J-75000D01*
G01*
X150650000Y-81335000D01*
G75*
G02*
X150575000Y-81410000I-75000J0D01*
G01*
G37*
G36*
G01*
X150575000Y-81910000D02*
X149250000Y-81910000D01*
G75*
G02*
X149175000Y-81835000I0J75000D01*
G01*
X149175000Y-81685000D01*
G75*
G02*
X149250000Y-81610000I75000J0D01*
G01*
X150575000Y-81610000D01*
G75*
G02*
X150650000Y-81685000I0J-75000D01*
G01*
X150650000Y-81835000D01*
G75*
G02*
X150575000Y-81910000I-75000J0D01*
G01*
G37*
G36*
G01*
X150575000Y-82410000D02*
X149250000Y-82410000D01*
G75*
G02*
X149175000Y-82335000I0J75000D01*
G01*
X149175000Y-82185000D01*
G75*
G02*
X149250000Y-82110000I75000J0D01*
G01*
X150575000Y-82110000D01*
G75*
G02*
X150650000Y-82185000I0J-75000D01*
G01*
X150650000Y-82335000D01*
G75*
G02*
X150575000Y-82410000I-75000J0D01*
G01*
G37*
G36*
G01*
X150575000Y-82910000D02*
X149250000Y-82910000D01*
G75*
G02*
X149175000Y-82835000I0J75000D01*
G01*
X149175000Y-82685000D01*
G75*
G02*
X149250000Y-82610000I75000J0D01*
G01*
X150575000Y-82610000D01*
G75*
G02*
X150650000Y-82685000I0J-75000D01*
G01*
X150650000Y-82835000D01*
G75*
G02*
X150575000Y-82910000I-75000J0D01*
G01*
G37*
G36*
G01*
X150575000Y-83410000D02*
X149250000Y-83410000D01*
G75*
G02*
X149175000Y-83335000I0J75000D01*
G01*
X149175000Y-83185000D01*
G75*
G02*
X149250000Y-83110000I75000J0D01*
G01*
X150575000Y-83110000D01*
G75*
G02*
X150650000Y-83185000I0J-75000D01*
G01*
X150650000Y-83335000D01*
G75*
G02*
X150575000Y-83410000I-75000J0D01*
G01*
G37*
G36*
G01*
X150575000Y-83910000D02*
X149250000Y-83910000D01*
G75*
G02*
X149175000Y-83835000I0J75000D01*
G01*
X149175000Y-83685000D01*
G75*
G02*
X149250000Y-83610000I75000J0D01*
G01*
X150575000Y-83610000D01*
G75*
G02*
X150650000Y-83685000I0J-75000D01*
G01*
X150650000Y-83835000D01*
G75*
G02*
X150575000Y-83910000I-75000J0D01*
G01*
G37*
G36*
G01*
X151900000Y-86410000D02*
X151750000Y-86410000D01*
G75*
G02*
X151675000Y-86335000I0J75000D01*
G01*
X151675000Y-85010000D01*
G75*
G02*
X151750000Y-84935000I75000J0D01*
G01*
X151900000Y-84935000D01*
G75*
G02*
X151975000Y-85010000I0J-75000D01*
G01*
X151975000Y-86335000D01*
G75*
G02*
X151900000Y-86410000I-75000J0D01*
G01*
G37*
G36*
G01*
X152400000Y-86410000D02*
X152250000Y-86410000D01*
G75*
G02*
X152175000Y-86335000I0J75000D01*
G01*
X152175000Y-85010000D01*
G75*
G02*
X152250000Y-84935000I75000J0D01*
G01*
X152400000Y-84935000D01*
G75*
G02*
X152475000Y-85010000I0J-75000D01*
G01*
X152475000Y-86335000D01*
G75*
G02*
X152400000Y-86410000I-75000J0D01*
G01*
G37*
G36*
G01*
X152900000Y-86410000D02*
X152750000Y-86410000D01*
G75*
G02*
X152675000Y-86335000I0J75000D01*
G01*
X152675000Y-85010000D01*
G75*
G02*
X152750000Y-84935000I75000J0D01*
G01*
X152900000Y-84935000D01*
G75*
G02*
X152975000Y-85010000I0J-75000D01*
G01*
X152975000Y-86335000D01*
G75*
G02*
X152900000Y-86410000I-75000J0D01*
G01*
G37*
G36*
G01*
X153400000Y-86410000D02*
X153250000Y-86410000D01*
G75*
G02*
X153175000Y-86335000I0J75000D01*
G01*
X153175000Y-85010000D01*
G75*
G02*
X153250000Y-84935000I75000J0D01*
G01*
X153400000Y-84935000D01*
G75*
G02*
X153475000Y-85010000I0J-75000D01*
G01*
X153475000Y-86335000D01*
G75*
G02*
X153400000Y-86410000I-75000J0D01*
G01*
G37*
G36*
G01*
X153900000Y-86410000D02*
X153750000Y-86410000D01*
G75*
G02*
X153675000Y-86335000I0J75000D01*
G01*
X153675000Y-85010000D01*
G75*
G02*
X153750000Y-84935000I75000J0D01*
G01*
X153900000Y-84935000D01*
G75*
G02*
X153975000Y-85010000I0J-75000D01*
G01*
X153975000Y-86335000D01*
G75*
G02*
X153900000Y-86410000I-75000J0D01*
G01*
G37*
G36*
G01*
X154400000Y-86410000D02*
X154250000Y-86410000D01*
G75*
G02*
X154175000Y-86335000I0J75000D01*
G01*
X154175000Y-85010000D01*
G75*
G02*
X154250000Y-84935000I75000J0D01*
G01*
X154400000Y-84935000D01*
G75*
G02*
X154475000Y-85010000I0J-75000D01*
G01*
X154475000Y-86335000D01*
G75*
G02*
X154400000Y-86410000I-75000J0D01*
G01*
G37*
G36*
G01*
X154900000Y-86410000D02*
X154750000Y-86410000D01*
G75*
G02*
X154675000Y-86335000I0J75000D01*
G01*
X154675000Y-85010000D01*
G75*
G02*
X154750000Y-84935000I75000J0D01*
G01*
X154900000Y-84935000D01*
G75*
G02*
X154975000Y-85010000I0J-75000D01*
G01*
X154975000Y-86335000D01*
G75*
G02*
X154900000Y-86410000I-75000J0D01*
G01*
G37*
G36*
G01*
X155400000Y-86410000D02*
X155250000Y-86410000D01*
G75*
G02*
X155175000Y-86335000I0J75000D01*
G01*
X155175000Y-85010000D01*
G75*
G02*
X155250000Y-84935000I75000J0D01*
G01*
X155400000Y-84935000D01*
G75*
G02*
X155475000Y-85010000I0J-75000D01*
G01*
X155475000Y-86335000D01*
G75*
G02*
X155400000Y-86410000I-75000J0D01*
G01*
G37*
G36*
G01*
X155900000Y-86410000D02*
X155750000Y-86410000D01*
G75*
G02*
X155675000Y-86335000I0J75000D01*
G01*
X155675000Y-85010000D01*
G75*
G02*
X155750000Y-84935000I75000J0D01*
G01*
X155900000Y-84935000D01*
G75*
G02*
X155975000Y-85010000I0J-75000D01*
G01*
X155975000Y-86335000D01*
G75*
G02*
X155900000Y-86410000I-75000J0D01*
G01*
G37*
G36*
G01*
X156400000Y-86410000D02*
X156250000Y-86410000D01*
G75*
G02*
X156175000Y-86335000I0J75000D01*
G01*
X156175000Y-85010000D01*
G75*
G02*
X156250000Y-84935000I75000J0D01*
G01*
X156400000Y-84935000D01*
G75*
G02*
X156475000Y-85010000I0J-75000D01*
G01*
X156475000Y-86335000D01*
G75*
G02*
X156400000Y-86410000I-75000J0D01*
G01*
G37*
G36*
G01*
X156900000Y-86410000D02*
X156750000Y-86410000D01*
G75*
G02*
X156675000Y-86335000I0J75000D01*
G01*
X156675000Y-85010000D01*
G75*
G02*
X156750000Y-84935000I75000J0D01*
G01*
X156900000Y-84935000D01*
G75*
G02*
X156975000Y-85010000I0J-75000D01*
G01*
X156975000Y-86335000D01*
G75*
G02*
X156900000Y-86410000I-75000J0D01*
G01*
G37*
G36*
G01*
X157400000Y-86410000D02*
X157250000Y-86410000D01*
G75*
G02*
X157175000Y-86335000I0J75000D01*
G01*
X157175000Y-85010000D01*
G75*
G02*
X157250000Y-84935000I75000J0D01*
G01*
X157400000Y-84935000D01*
G75*
G02*
X157475000Y-85010000I0J-75000D01*
G01*
X157475000Y-86335000D01*
G75*
G02*
X157400000Y-86410000I-75000J0D01*
G01*
G37*
G36*
G01*
X157900000Y-86410000D02*
X157750000Y-86410000D01*
G75*
G02*
X157675000Y-86335000I0J75000D01*
G01*
X157675000Y-85010000D01*
G75*
G02*
X157750000Y-84935000I75000J0D01*
G01*
X157900000Y-84935000D01*
G75*
G02*
X157975000Y-85010000I0J-75000D01*
G01*
X157975000Y-86335000D01*
G75*
G02*
X157900000Y-86410000I-75000J0D01*
G01*
G37*
G36*
G01*
X158400000Y-86410000D02*
X158250000Y-86410000D01*
G75*
G02*
X158175000Y-86335000I0J75000D01*
G01*
X158175000Y-85010000D01*
G75*
G02*
X158250000Y-84935000I75000J0D01*
G01*
X158400000Y-84935000D01*
G75*
G02*
X158475000Y-85010000I0J-75000D01*
G01*
X158475000Y-86335000D01*
G75*
G02*
X158400000Y-86410000I-75000J0D01*
G01*
G37*
G36*
G01*
X158900000Y-86410000D02*
X158750000Y-86410000D01*
G75*
G02*
X158675000Y-86335000I0J75000D01*
G01*
X158675000Y-85010000D01*
G75*
G02*
X158750000Y-84935000I75000J0D01*
G01*
X158900000Y-84935000D01*
G75*
G02*
X158975000Y-85010000I0J-75000D01*
G01*
X158975000Y-86335000D01*
G75*
G02*
X158900000Y-86410000I-75000J0D01*
G01*
G37*
G36*
G01*
X159400000Y-86410000D02*
X159250000Y-86410000D01*
G75*
G02*
X159175000Y-86335000I0J75000D01*
G01*
X159175000Y-85010000D01*
G75*
G02*
X159250000Y-84935000I75000J0D01*
G01*
X159400000Y-84935000D01*
G75*
G02*
X159475000Y-85010000I0J-75000D01*
G01*
X159475000Y-86335000D01*
G75*
G02*
X159400000Y-86410000I-75000J0D01*
G01*
G37*
%TD*%
M02*
