%TF.GenerationSoftware,KiCad,Pcbnew,(5.1.10)-1*%
%TF.CreationDate,2021-12-30T15:20:08-05:00*%
%TF.ProjectId,LPCMangler,4c50434d-616e-4676-9c65-722e6b696361,rev?*%
%TF.SameCoordinates,Original*%
%TF.FileFunction,Legend,Top*%
%TF.FilePolarity,Positive*%
%FSLAX46Y46*%
G04 Gerber Fmt 4.6, Leading zero omitted, Abs format (unit mm)*
G04 Created by KiCad (PCBNEW (5.1.10)-1) date 2021-12-30 15:20:08*
%MOMM*%
%LPD*%
G01*
G04 APERTURE LIST*
%ADD10C,0.500000*%
%ADD11C,0.100000*%
%ADD12C,0.250000*%
%ADD13C,0.150000*%
%ADD14C,0.750000*%
%ADD15C,0.120000*%
G04 APERTURE END LIST*
D10*
X157226000Y-113411000D02*
G75*
G03*
X155956000Y-112141000I-1270000J0D01*
G01*
X155956000Y-112141000D02*
G75*
G03*
X154686000Y-113411000I0J-1270000D01*
G01*
D11*
G36*
X168275000Y-105410000D02*
G01*
X163195000Y-105410000D01*
X163195000Y-97790000D01*
X168275000Y-97790000D01*
X168275000Y-105410000D01*
G37*
X168275000Y-105410000D02*
X163195000Y-105410000D01*
X163195000Y-97790000D01*
X168275000Y-97790000D01*
X168275000Y-105410000D01*
G36*
X148590000Y-105410000D02*
G01*
X143510000Y-105410000D01*
X143510000Y-97790000D01*
X148590000Y-97790000D01*
X148590000Y-105410000D01*
G37*
X148590000Y-105410000D02*
X143510000Y-105410000D01*
X143510000Y-97790000D01*
X148590000Y-97790000D01*
X148590000Y-105410000D01*
D10*
X159385000Y-92710000D02*
G75*
G03*
X158115000Y-93980000I0J-1270000D01*
G01*
X173355000Y-93980000D02*
G75*
G03*
X172085000Y-92710000I-1270000J0D01*
G01*
X153670000Y-93980000D02*
G75*
G03*
X152400000Y-92710000I-1270000J0D01*
G01*
X139700000Y-92710000D02*
G75*
G03*
X138430000Y-93980000I0J-1270000D01*
G01*
X138430000Y-109220000D02*
G75*
G03*
X139700000Y-110490000I1270000J0D01*
G01*
X152400000Y-110490000D02*
G75*
G03*
X153670000Y-109220000I0J1270000D01*
G01*
X158115000Y-109220000D02*
G75*
G03*
X159385000Y-110490000I1270000J0D01*
G01*
X172085000Y-110490000D02*
G75*
G03*
X173355000Y-109220000I0J1270000D01*
G01*
X173355000Y-109220000D02*
X173355000Y-93980000D01*
X138430000Y-109220000D02*
X138430000Y-93980000D01*
X153670000Y-109220000D02*
X153670000Y-93980000D01*
X158115000Y-109220000D02*
X158115000Y-93980000D01*
X159385000Y-110490000D02*
X172085000Y-110490000D01*
X139700000Y-110490000D02*
X152400000Y-110490000D01*
X135509000Y-92710000D02*
X176276000Y-92710000D01*
D12*
X175260000Y-66040000D02*
X173990000Y-64770000D01*
X166370000Y-68580000D02*
X170180000Y-64770000D01*
X162560000Y-64770000D02*
X166370000Y-68580000D01*
X150495000Y-67310000D02*
X153035000Y-64770000D01*
X148590000Y-65405000D02*
X150495000Y-67310000D01*
X139065000Y-68580000D02*
X142240000Y-65405000D01*
X136525000Y-66040000D02*
X139065000Y-68580000D01*
X175260000Y-66040000D02*
X175260000Y-111760000D01*
X136525000Y-66040000D02*
X136525000Y-111760000D01*
D13*
X170658428Y-91017285D02*
X170408428Y-90660142D01*
X170229857Y-91017285D02*
X170229857Y-90267285D01*
X170515571Y-90267285D01*
X170587000Y-90303000D01*
X170622714Y-90338714D01*
X170658428Y-90410142D01*
X170658428Y-90517285D01*
X170622714Y-90588714D01*
X170587000Y-90624428D01*
X170515571Y-90660142D01*
X170229857Y-90660142D01*
X171265571Y-90981571D02*
X171194142Y-91017285D01*
X171051285Y-91017285D01*
X170979857Y-90981571D01*
X170944142Y-90910142D01*
X170944142Y-90624428D01*
X170979857Y-90553000D01*
X171051285Y-90517285D01*
X171194142Y-90517285D01*
X171265571Y-90553000D01*
X171301285Y-90624428D01*
X171301285Y-90695857D01*
X170944142Y-90767285D01*
X171551285Y-90517285D02*
X171729857Y-91017285D01*
X171908428Y-90517285D01*
X173158428Y-91017285D02*
X172729857Y-91017285D01*
X172944142Y-91017285D02*
X172944142Y-90267285D01*
X172872714Y-90374428D01*
X172801285Y-90445857D01*
X172729857Y-90481571D01*
X173479857Y-90945857D02*
X173515571Y-90981571D01*
X173479857Y-91017285D01*
X173444142Y-90981571D01*
X173479857Y-90945857D01*
X173479857Y-91017285D01*
X173979857Y-90267285D02*
X174051285Y-90267285D01*
X174122714Y-90303000D01*
X174158428Y-90338714D01*
X174194142Y-90410142D01*
X174229857Y-90553000D01*
X174229857Y-90731571D01*
X174194142Y-90874428D01*
X174158428Y-90945857D01*
X174122714Y-90981571D01*
X174051285Y-91017285D01*
X173979857Y-91017285D01*
X173908428Y-90981571D01*
X173872714Y-90945857D01*
X173837000Y-90874428D01*
X173801285Y-90731571D01*
X173801285Y-90553000D01*
X173837000Y-90410142D01*
X173872714Y-90338714D01*
X173908428Y-90303000D01*
X173979857Y-90267285D01*
D10*
X152343053Y-90892142D02*
X152718053Y-87892142D01*
X153450196Y-90035000D01*
X154718053Y-87892142D01*
X154343053Y-90892142D01*
X157057339Y-90892142D02*
X157253767Y-89320714D01*
X157146625Y-89035000D01*
X156878767Y-88892142D01*
X156307339Y-88892142D01*
X156003767Y-89035000D01*
X157075196Y-90749285D02*
X156771625Y-90892142D01*
X156057339Y-90892142D01*
X155789482Y-90749285D01*
X155682339Y-90463571D01*
X155718053Y-90177857D01*
X155896625Y-89892142D01*
X156200196Y-89749285D01*
X156914482Y-89749285D01*
X157218053Y-89606428D01*
X158735910Y-88892142D02*
X158485910Y-90892142D01*
X158700196Y-89177857D02*
X158860910Y-89035000D01*
X159164482Y-88892142D01*
X159593053Y-88892142D01*
X159860910Y-89035000D01*
X159968053Y-89320714D01*
X159771625Y-90892142D01*
X162735910Y-88892142D02*
X162432339Y-91320714D01*
X162253767Y-91606428D01*
X162093053Y-91749285D01*
X161789482Y-91892142D01*
X161360910Y-91892142D01*
X161093053Y-91749285D01*
X162503767Y-90749285D02*
X162200196Y-90892142D01*
X161628767Y-90892142D01*
X161360910Y-90749285D01*
X161235910Y-90606428D01*
X161128767Y-90320714D01*
X161235910Y-89463571D01*
X161414482Y-89177857D01*
X161575196Y-89035000D01*
X161878767Y-88892142D01*
X162450196Y-88892142D01*
X162718053Y-89035000D01*
X164343053Y-90892142D02*
X164075196Y-90749285D01*
X163968053Y-90463571D01*
X164289482Y-87892142D01*
X166646625Y-90749285D02*
X166343053Y-90892142D01*
X165771625Y-90892142D01*
X165503767Y-90749285D01*
X165396625Y-90463571D01*
X165539482Y-89320714D01*
X165718053Y-89035000D01*
X166021625Y-88892142D01*
X166593053Y-88892142D01*
X166860910Y-89035000D01*
X166968053Y-89320714D01*
X166932339Y-89606428D01*
X165468053Y-89892142D01*
X168057339Y-90892142D02*
X168307339Y-88892142D01*
X168235910Y-89463571D02*
X168414482Y-89177857D01*
X168575196Y-89035000D01*
X168878767Y-88892142D01*
X169164482Y-88892142D01*
D14*
X145248571Y-90892142D02*
X143820000Y-90892142D01*
X143820000Y-87892142D01*
X146248571Y-90892142D02*
X146248571Y-87892142D01*
X147391428Y-87892142D01*
X147677142Y-88035000D01*
X147820000Y-88177857D01*
X147962857Y-88463571D01*
X147962857Y-88892142D01*
X147820000Y-89177857D01*
X147677142Y-89320714D01*
X147391428Y-89463571D01*
X146248571Y-89463571D01*
X150962857Y-90606428D02*
X150820000Y-90749285D01*
X150391428Y-90892142D01*
X150105714Y-90892142D01*
X149677142Y-90749285D01*
X149391428Y-90463571D01*
X149248571Y-90177857D01*
X149105714Y-89606428D01*
X149105714Y-89177857D01*
X149248571Y-88606428D01*
X149391428Y-88320714D01*
X149677142Y-88035000D01*
X150105714Y-87892142D01*
X150391428Y-87892142D01*
X150820000Y-88035000D01*
X150962857Y-88177857D01*
D13*
X142083285Y-91029285D02*
X142083285Y-90600714D01*
X142833285Y-90908750D02*
X142083285Y-90815000D01*
X142833285Y-90444464D02*
X142083285Y-90350714D01*
X142833285Y-90123035D02*
X142440428Y-90073928D01*
X142369000Y-90100714D01*
X142333285Y-90167678D01*
X142333285Y-90274821D01*
X142369000Y-90350714D01*
X142404714Y-90390892D01*
X142797571Y-89475714D02*
X142833285Y-89551607D01*
X142833285Y-89694464D01*
X142797571Y-89761428D01*
X142726142Y-89788214D01*
X142440428Y-89752500D01*
X142369000Y-89707857D01*
X142333285Y-89631964D01*
X142333285Y-89489107D01*
X142369000Y-89422142D01*
X142440428Y-89395357D01*
X142511857Y-89404285D01*
X142583285Y-89770357D01*
D15*
%TO.C,R3*%
X150392224Y-67422500D02*
X149882776Y-67422500D01*
X150392224Y-68467500D02*
X149882776Y-68467500D01*
%TO.C,R2*%
X150392224Y-69962500D02*
X149882776Y-69962500D01*
X150392224Y-71007500D02*
X149882776Y-71007500D01*
%TO.C,R1*%
X150392224Y-72502500D02*
X149882776Y-72502500D01*
X150392224Y-73547500D02*
X149882776Y-73547500D01*
%TO.C,JP1*%
X148015000Y-66615000D02*
X142815000Y-66615000D01*
X148015000Y-71755000D02*
X148015000Y-66615000D01*
X142815000Y-74355000D02*
X142815000Y-66615000D01*
X148015000Y-71755000D02*
X145415000Y-71755000D01*
X145415000Y-71755000D02*
X145415000Y-74355000D01*
X145415000Y-74355000D02*
X142815000Y-74355000D01*
X148015000Y-73025000D02*
X148015000Y-74355000D01*
X148015000Y-74355000D02*
X146685000Y-74355000D01*
%TO.C,J3*%
X152340000Y-66615000D02*
X152340000Y-69275000D01*
X160020000Y-66615000D02*
X152340000Y-66615000D01*
X160020000Y-69275000D02*
X152340000Y-69275000D01*
X160020000Y-66615000D02*
X160020000Y-69275000D01*
X161290000Y-66615000D02*
X162620000Y-66615000D01*
X162620000Y-66615000D02*
X162620000Y-67945000D01*
%TO.C,J2*%
X139760000Y-71695000D02*
X137100000Y-71695000D01*
X139760000Y-84455000D02*
X139760000Y-71695000D01*
X137100000Y-84455000D02*
X137100000Y-71695000D01*
X139760000Y-84455000D02*
X137100000Y-84455000D01*
X139760000Y-85725000D02*
X139760000Y-87055000D01*
X139760000Y-87055000D02*
X138430000Y-87055000D01*
%TO.C,C3*%
X156085000Y-79863733D02*
X156085000Y-80156267D01*
X155065000Y-79863733D02*
X155065000Y-80156267D01*
%TO.C,C2*%
X145540000Y-101746267D02*
X145540000Y-101453733D01*
X146560000Y-101746267D02*
X146560000Y-101453733D01*
%TO.C,C1*%
X165225000Y-101746267D02*
X165225000Y-101453733D01*
X166245000Y-101746267D02*
X166245000Y-101453733D01*
%TO.C,JP1*%
D13*
X143510238Y-65762142D02*
X143462619Y-65809761D01*
X143319761Y-65857380D01*
X143224523Y-65857380D01*
X143081666Y-65809761D01*
X142986428Y-65714523D01*
X142938809Y-65619285D01*
X142891190Y-65428809D01*
X142891190Y-65285952D01*
X142938809Y-65095476D01*
X142986428Y-65000238D01*
X143081666Y-64905000D01*
X143224523Y-64857380D01*
X143319761Y-64857380D01*
X143462619Y-64905000D01*
X143510238Y-64952619D01*
X144129285Y-64857380D02*
X144319761Y-64857380D01*
X144415000Y-64905000D01*
X144510238Y-65000238D01*
X144557857Y-65190714D01*
X144557857Y-65524047D01*
X144510238Y-65714523D01*
X144415000Y-65809761D01*
X144319761Y-65857380D01*
X144129285Y-65857380D01*
X144034047Y-65809761D01*
X143938809Y-65714523D01*
X143891190Y-65524047D01*
X143891190Y-65190714D01*
X143938809Y-65000238D01*
X144034047Y-64905000D01*
X144129285Y-64857380D01*
X144986428Y-65857380D02*
X144986428Y-64857380D01*
X145557857Y-65857380D01*
X145557857Y-64857380D01*
X146367380Y-65333571D02*
X146034047Y-65333571D01*
X146034047Y-65857380D02*
X146034047Y-64857380D01*
X146510238Y-64857380D01*
X146891190Y-65857380D02*
X146891190Y-64857380D01*
X147891190Y-64905000D02*
X147795952Y-64857380D01*
X147653095Y-64857380D01*
X147510238Y-64905000D01*
X147415000Y-65000238D01*
X147367380Y-65095476D01*
X147319761Y-65285952D01*
X147319761Y-65428809D01*
X147367380Y-65619285D01*
X147415000Y-65714523D01*
X147510238Y-65809761D01*
X147653095Y-65857380D01*
X147748333Y-65857380D01*
X147891190Y-65809761D01*
X147938809Y-65762142D01*
X147938809Y-65428809D01*
X147748333Y-65428809D01*
%TO.C,J3*%
X155122857Y-65809761D02*
X155265714Y-65857380D01*
X155503809Y-65857380D01*
X155599047Y-65809761D01*
X155646666Y-65762142D01*
X155694285Y-65666904D01*
X155694285Y-65571666D01*
X155646666Y-65476428D01*
X155599047Y-65428809D01*
X155503809Y-65381190D01*
X155313333Y-65333571D01*
X155218095Y-65285952D01*
X155170476Y-65238333D01*
X155122857Y-65143095D01*
X155122857Y-65047857D01*
X155170476Y-64952619D01*
X155218095Y-64905000D01*
X155313333Y-64857380D01*
X155551428Y-64857380D01*
X155694285Y-64905000D01*
X156122857Y-65857380D02*
X156122857Y-64857380D01*
X156456190Y-65571666D01*
X156789523Y-64857380D01*
X156789523Y-65857380D01*
X157599047Y-65333571D02*
X157741904Y-65381190D01*
X157789523Y-65428809D01*
X157837142Y-65524047D01*
X157837142Y-65666904D01*
X157789523Y-65762142D01*
X157741904Y-65809761D01*
X157646666Y-65857380D01*
X157265714Y-65857380D01*
X157265714Y-64857380D01*
X157599047Y-64857380D01*
X157694285Y-64905000D01*
X157741904Y-64952619D01*
X157789523Y-65047857D01*
X157789523Y-65143095D01*
X157741904Y-65238333D01*
X157694285Y-65285952D01*
X157599047Y-65333571D01*
X157265714Y-65333571D01*
X158265714Y-64857380D02*
X158265714Y-65666904D01*
X158313333Y-65762142D01*
X158360952Y-65809761D01*
X158456190Y-65857380D01*
X158646666Y-65857380D01*
X158741904Y-65809761D01*
X158789523Y-65762142D01*
X158837142Y-65666904D01*
X158837142Y-64857380D01*
X159265714Y-65809761D02*
X159408571Y-65857380D01*
X159646666Y-65857380D01*
X159741904Y-65809761D01*
X159789523Y-65762142D01*
X159837142Y-65666904D01*
X159837142Y-65571666D01*
X159789523Y-65476428D01*
X159741904Y-65428809D01*
X159646666Y-65381190D01*
X159456190Y-65333571D01*
X159360952Y-65285952D01*
X159313333Y-65238333D01*
X159265714Y-65143095D01*
X159265714Y-65047857D01*
X159313333Y-64952619D01*
X159360952Y-64905000D01*
X159456190Y-64857380D01*
X159694285Y-64857380D01*
X159837142Y-64905000D01*
%TO.C,J2*%
X137263333Y-69937380D02*
X137263333Y-70651666D01*
X137215714Y-70794523D01*
X137120476Y-70889761D01*
X136977619Y-70937380D01*
X136882380Y-70937380D01*
X137596666Y-69937380D02*
X138168095Y-69937380D01*
X137882380Y-70937380D02*
X137882380Y-69937380D01*
X138453809Y-70651666D02*
X138930000Y-70651666D01*
X138358571Y-70937380D02*
X138691904Y-69937380D01*
X139025238Y-70937380D01*
X139882380Y-69985000D02*
X139787142Y-69937380D01*
X139644285Y-69937380D01*
X139501428Y-69985000D01*
X139406190Y-70080238D01*
X139358571Y-70175476D01*
X139310952Y-70365952D01*
X139310952Y-70508809D01*
X139358571Y-70699285D01*
X139406190Y-70794523D01*
X139501428Y-70889761D01*
X139644285Y-70937380D01*
X139739523Y-70937380D01*
X139882380Y-70889761D01*
X139930000Y-70842142D01*
X139930000Y-70508809D01*
X139739523Y-70508809D01*
%TO.C,J1*%
X171394523Y-65857380D02*
X170918333Y-65857380D01*
X170918333Y-64857380D01*
X171727857Y-65857380D02*
X171727857Y-64857380D01*
X172108809Y-64857380D01*
X172204047Y-64905000D01*
X172251666Y-64952619D01*
X172299285Y-65047857D01*
X172299285Y-65190714D01*
X172251666Y-65285952D01*
X172204047Y-65333571D01*
X172108809Y-65381190D01*
X171727857Y-65381190D01*
X173299285Y-65762142D02*
X173251666Y-65809761D01*
X173108809Y-65857380D01*
X173013571Y-65857380D01*
X172870714Y-65809761D01*
X172775476Y-65714523D01*
X172727857Y-65619285D01*
X172680238Y-65428809D01*
X172680238Y-65285952D01*
X172727857Y-65095476D01*
X172775476Y-65000238D01*
X172870714Y-64905000D01*
X173013571Y-64857380D01*
X173108809Y-64857380D01*
X173251666Y-64905000D01*
X173299285Y-64952619D01*
%TD*%
M02*
